<?xml version="1.0" standalone="no"?>
<!DOCTYPE svg PUBLIC "-//W3C//DTD SVG 1.1//EN" "http://www.w3.org/Graphics/SVG/1.1/DTD/svg11.dtd" >
<svg xmlns="http://www.w3.org/2000/svg" xmlns:xlink="http://www.w3.org/1999/xlink" version="1.1">
<metadata>
Created by FontForge 20190801 at Tue Aug 11 14:08:05 2015
 By www-data
Copyright 2014 by (URW)++ Design &#38; Development GmbH
</metadata>
<defs>
<font id="NimbusSanLRegIta" horiz-adv-x="556" >
  <font-face 
    font-family="NimbusSanLRegIta"
    font-weight="400"
    font-style="italic"
    font-stretch="normal"
    units-per-em="1000"
    panose-1="0 0 5 0 0 0 0 0 0 0"
    ascent="729"
    descent="-271"
    x-height="524"
    cap-height="729"
    bbox="-146 -284 1154 1070"
    underline-thickness="50"
    underline-position="-151"
    slope="-12"
    unicode-range="U+0020-FB04"
  />
<missing-glyph horiz-adv-x="278" 
 />
    <glyph glyph-name="ff" unicode="ff" 
d="M370 524l-14 -67h-86l-97 -457h-84l97 457h-70l14 67h70l19 89q12 56 51.5 87.5t97.5 31.5q22 0 45 -5l-15 -69q-13 2 -27 2q-33 0 -48.5 -14.5t-23.5 -52.5l-15 -69h86zM648 524l-14 -67h-86l-97 -457h-84l97 457h-70l14 67h70l19 89q12 56 51.5 87.5t97.5 31.5
q22 0 45 -5l-15 -69q-13 2 -27 2q-33 0 -48.5 -14.5t-23.5 -52.5l-15 -69h86z" />
    <glyph glyph-name="fi" unicode="fi" horiz-adv-x="500" 
d="M364 524l-14 -67h-86l-97 -457h-84l97 457h-70l14 67h70l19 89q12 56 51.5 87.5t97.5 31.5q22 0 45 -5l-15 -69q-13 2 -27 2q-33 0 -48.5 -14.5t-23.5 -52.5l-15 -69h86zM547 524l-111 -524h-84l111 524h84zM591 729l-22 -103h-84l22 103h84z" />
    <glyph glyph-name="fl" unicode="fl" horiz-adv-x="500" 
d="M370 524l-14 -67h-86l-97 -457h-84l97 457h-70l14 67h70l19 89q12 56 51.5 87.5t97.5 31.5q22 0 45 -5l-15 -69q-13 2 -27 2q-33 0 -48.5 -14.5t-23.5 -52.5l-15 -69h86zM585 729l-155 -729h-84l155 729h84z" />
    <glyph glyph-name="ffi" unicode="ffi" horiz-adv-x="778" 
d="M370 524l-14 -67h-86l-97 -457h-84l97 457h-70l14 67h70l19 89q12 56 51.5 87.5t97.5 31.5q22 0 45 -5l-15 -69q-13 2 -27 2q-33 0 -48.5 -14.5t-23.5 -52.5l-15 -69h86zM648 524l-14 -67h-86l-97 -457h-84l97 457h-70l14 67h70l19 89q12 56 51.5 87.5t97.5 31.5
q22 0 45 -5l-15 -69q-13 2 -27 2q-33 0 -48.5 -14.5t-23.5 -52.5l-15 -69h86zM817 524l-111 -524h-84l111 524h84zM861 729l-22 -103h-84l22 103h84z" />
    <glyph glyph-name=".notdef" horiz-adv-x="278" 
 />
    <glyph glyph-name=".null" horiz-adv-x="0" 
 />
    <glyph glyph-name="nonmarkingreturn" horiz-adv-x="333" 
 />
    <glyph glyph-name="space" unicode=" " horiz-adv-x="278" 
 />
    <glyph glyph-name="exclam" unicode="!" horiz-adv-x="278" 
d="M363 729l-74 -350l-67 -211h-40l23 211l74 350h84zM230 103l-22 -103h-84l22 103h84z" />
    <glyph glyph-name="quotedbl" unicode="&#x22;" horiz-adv-x="355" 
d="M202 709h94l-24 -111l-55 -134h-40l1 134zM361 709h94l-24 -111l-55 -134h-40l1 134z" />
    <glyph glyph-name="numbersign" unicode="#" 
d="M632 697l-77 -194h94l-14 -64h-105l-73 -184h107l-14 -64h-118l-83 -211h-76l83 211h-125l-83 -211h-76l83 211h-101l14 64h112l73 184h-109l13 64h121l77 194h76l-76 -194h124l77 194h76zM454 439h-124l-74 -184h125z" />
    <glyph glyph-name="dollar" unicode="$" 
d="M407 770h59l-11 -54q75 -4 116.5 -43.5t41.5 -107.5q0 -22 -6 -46h-79l1 15q1 9 1 21q0 40 -24.5 64.5t-65.5 26.5l-53 -249q90 -28 121 -48q57 -38 57 -106q0 -57 -23 -111.5t-61 -88.5q-69 -63 -183 -66l-22 -103h-59l22 103q-88 14 -129 51.5t-41 105.5q0 29 8 74h79
l-1 -11q-3 -29 -3 -47q0 -41 23 -64.5t78 -39.5l58 272q-89 30 -114 52q-45 38 -45 99q0 50 20.5 99.5t54.5 81.5q63 58 169 66zM330 405l51 240q-63 -5 -104.5 -46t-41.5 -98q0 -37 21.5 -58.5t73.5 -37.5zM368 309l-56 -263q80 6 122.5 49t42.5 116q0 36 -24.5 58
t-84.5 40z" />
    <glyph glyph-name="percent" unicode="%" horiz-adv-x="889" 
d="M759 709h66l-550 -729h-66zM345 682q58 0 98 -37.5t40 -92.5q0 -81 -64.5 -143.5t-148.5 -62.5q-59 0 -97.5 37.5t-38.5 94.5q0 79 65 141.5t146 62.5zM329 616q-49 0 -87 -37.5t-38 -84.5q0 -35 23.5 -58.5t58.5 -23.5q49 0 88 37.5t39 84.5q0 37 -23 59.5t-61 22.5z
M757 320q58 0 98 -37.5t40 -92.5q0 -81 -64.5 -143.5t-148.5 -62.5q-59 0 -97.5 37.5t-38.5 94.5q0 79 65 141.5t146 62.5zM741 254q-49 0 -87 -37.5t-38 -84.5q0 -35 23.5 -58.5t58.5 -23.5q49 0 88 37.5t39 84.5q0 37 -23 59.5t-61 22.5z" />
    <glyph glyph-name="ampersand" unicode="&#x26;" horiz-adv-x="667" 
d="M565 334h79q-20 -99 -100 -183l90 -151h-106l-46 78q-68 -57 -118 -79t-111 -22q-79 0 -124.5 40.5t-45.5 110.5q0 122 112 204q33 24 93 58q-7 18 -9 23l-18 42q-14 33 -14 68q0 73 63 129.5t145 56.5q61 0 97 -33t36 -89q0 -66 -43.5 -116t-137.5 -93l98 -163
q43 50 60 119zM377 434q68 34 98 67t30 73q0 30 -18.5 47.5t-50.5 17.5q-44 0 -75 -31t-31 -75q0 -21 8 -37.5t39 -61.5zM448 137l-119 199q-85 -46 -121.5 -87t-36.5 -91q0 -49 29 -76.5t80 -27.5q37 0 75 19t93 64z" />
    <glyph glyph-name="quotesingle" unicode="'" horiz-adv-x="191" 
d="M198 709h94l-24 -111l-55 -134h-40l1 134z" />
    <glyph glyph-name="parenleft" unicode="(" horiz-adv-x="333" 
d="M391 729h55q-255 -313 -255 -650q0 -152 55 -292h-55q-78 138 -78 329q0 186 110 385q70 125 168 228z" />
    <glyph glyph-name="parenright" unicode=")" horiz-adv-x="333" 
d="M48 -213h-55q125 153 190 317.5t65 326.5q0 156 -55 298h55q35 -62 56 -149.5t21 -172.5q0 -196 -109 -392q-71 -128 -168 -228z" />
    <glyph glyph-name="asterisk" unicode="*" horiz-adv-x="389" 
d="M319 729h62l-29 -112l110 38l9 -62l-113 -27l53 -91l-58 -37l-44 96l-81 -95l-47 40l92 88l-104 31l30 59l100 -40z" />
    <glyph glyph-name="plus" unicode="+" horiz-adv-x="584" 
d="M591 269l-15 -72h-207l-44 -208h-70l44 208h-207l15 72h207l44 204h70l-44 -204h207z" />
    <glyph glyph-name="comma" unicode="," horiz-adv-x="278" 
d="M109 103h105l-26 -119q-13 -64 -48 -98.5t-85 -32.5l8 38q36 0 54.5 24t28.5 85h-59z" />
    <glyph glyph-name="hyphen" unicode="-" horiz-adv-x="333" 
d="M351 312l-15 -72h-239l15 72h239z" />
    <glyph glyph-name="period" unicode="." horiz-adv-x="278" 
d="M213 103l-22 -103h-104l22 103h104z" />
    <glyph glyph-name="slash" unicode="/" horiz-adv-x="278" 
d="M379 729h55l-391 -749h-55z" />
    <glyph glyph-name="zero" unicode="0" 
d="M418 709q85 0 132.5 -51.5t47.5 -143.5q0 -108 -32 -226.5t-80 -188.5q-84 -122 -210 -122q-78 0 -128 48q-50 47 -50 145q0 109 32 228.5t80 188.5q83 122 208 122zM406 632q-92 0 -150 -123q-28 -62 -49 -159.5t-21 -168.5q0 -59 27 -93t74 -34q49 0 85.5 30t66.5 94
q28 60 49.5 157.5t21.5 168.5q0 61 -27.5 94.5t-76.5 33.5z" />
    <glyph glyph-name="one" unicode="1" 
d="M367 505h-159l13 63q108 15 143.5 37.5t75.5 103.5h58l-151 -709h-88z" />
    <glyph glyph-name="two" unicode="2" 
d="M524 87l-19 -87h-471q33 121 83 179.5t180 127.5l104 52q63 31 97 74.5t34 91.5q0 49 -31.5 78t-84.5 29q-90 0 -139 -69q-24 -34 -42 -100h-88q29 127 97 186.5t184 59.5q100 0 150 -56q42 -47 42 -116q0 -149 -198 -250l-112 -57q-137 -68 -163 -143h377z" />
    <glyph glyph-name="three" unicode="3" 
d="M290 325l16 75h12h6q112 0 153 47q34 37 34 99q0 40 -28.5 63t-77.5 23q-88 0 -134 -64q-20 -27 -34 -88h-88q25 96 66 144q74 85 202 85q83 0 132.5 -39.5t49.5 -106.5t-29 -113.5t-93 -82.5q43 -21 60.5 -48t17.5 -70q0 -49 -19.5 -98.5t-53.5 -87.5q-80 -86 -218 -86
q-94 0 -143.5 43t-49.5 124q0 24 5 62h88q-5 -40 -5 -52q0 -46 32 -73t86 -27q84 0 137 50.5t53 131.5q0 43 -35 67t-97 24q-25 0 -45 -2z" />
    <glyph glyph-name="four" unicode="4" 
d="M362 170h-299l20 92l416 447h66l-98 -461h106l-17 -78h-106l-36 -170h-88zM379 248l65 308l-286 -308h221z" />
    <glyph glyph-name="five" unicode="5" 
d="M629 709l-18 -87h-300l-70 -198q72 43 140 43q85 0 135.5 -46.5t50.5 -125.5q0 -112 -69 -203q-88 -115 -227 -115q-94 0 -152 49q-49 41 -49 126v10v12h88q5 -120 125 -120q85 0 140.5 60.5t55.5 154.5q0 58 -33 89.5t-93 31.5q-44 0 -73 -13t-76 -54h-80l135 386h370z
" />
    <glyph glyph-name="six" unicode="6" 
d="M610 524h-88q1 2 1 5q0 2 -5 30q-4 22 -12 34t-25 23q-27 16 -60 16q-76 0 -133 -73.5t-79 -200.5q83 84 179 84q80 0 129 -47t49 -124q0 -98 -67 -185q-83 -109 -213 -109q-89 0 -141 51t-52 139q0 95 31 210t74 183q95 149 237 149q80 0 128 -43t48 -115q0 -16 -1 -27z
M364 365q-77 0 -130 -55.5t-53 -136.5q0 -53 33 -86t85 -33q75 0 127 59t52 143q0 49 -31.5 79t-82.5 30z" />
    <glyph glyph-name="seven" unicode="7" 
d="M671 709l-17 -81q-128 -126 -248.5 -306t-170.5 -322h-98q67 158 160.5 295t262.5 327h-383l19 87h475z" />
    <glyph glyph-name="eight" unicode="8" 
d="M233 373l-12 10q-32 26 -42 45t-10 52q0 87 65 152q74 77 187 77q96 0 145 -52q38 -41 38 -96q0 -40 -17 -79.5t-46 -65.5q-9 -8 -64 -43q83 -47 83 -134q0 -91 -68 -167q-84 -95 -211 -95q-95 0 -151 45.5t-56 122.5q0 155 159 228zM407 632q-66 0 -108 -39.5
t-42 -101.5q0 -39 28 -61t78 -22q79 0 120 50q33 41 33 88q0 40 -29 63t-80 23zM344 334q-76 0 -129 -50.5t-53 -123.5q0 -47 34.5 -76.5t90.5 -29.5q79 0 132 49.5t53 122.5q0 49 -34.5 78.5t-93.5 29.5z" />
    <glyph glyph-name="nine" unicode="9" 
d="M84 162h87q0 -52 25.5 -80t73.5 -28q151 0 211 270q-36 -31 -56 -45q-51 -35 -122 -35q-82 0 -129.5 46.5t-47.5 126.5q0 90 64 183q77 109 214 109q95 0 147 -55q48 -53 48 -129q0 -103 -42 -259q-21 -79 -51 -131t-78 -92q-78 -66 -170 -66q-80 0 -127.5 43t-47.5 115
q0 16 1 27zM392 632q-73 0 -125.5 -58t-52.5 -138q0 -55 30 -85t83 -30q77 0 130.5 56.5t53.5 137.5q0 50 -34 83.5t-85 33.5z" />
    <glyph glyph-name="colon" unicode=":" horiz-adv-x="278" 
d="M236 103l-22 -103h-104l22 103h104zM326 524l-22 -103h-104l22 103h104z" />
    <glyph glyph-name="semicolon" unicode=";" horiz-adv-x="278" 
d="M325 524l-22 -103h-104l22 103h104zM132 103h105l-26 -119q-13 -64 -48 -98.5t-85 -32.5l8 38q36 0 54.5 24t28.5 85h-59z" />
    <glyph glyph-name="less" unicode="&#x3c;" horiz-adv-x="584" 
d="M87 198l15 69l533 207l-17 -79l-422 -164l353 -163l-17 -77z" />
    <glyph glyph-name="equal" unicode="=" horiz-adv-x="584" 
d="M609 355l-15 -72h-483l14 72h484zM572 183l-14 -72h-484l15 72h483z" />
    <glyph glyph-name="greater" unicode="&#x3e;" horiz-adv-x="584" 
d="M596 267l-15 -69l-533 -207l17 79l422 164l-353 163l17 77z" />
    <glyph glyph-name="question" unicode="?" 
d="M371 199h-90l12 55q11 46 33.5 73.5t102.5 89.5q58 47 81.5 82.5t23.5 78.5q0 38 -29.5 62t-77.5 24q-66 0 -104 -37.5t-54 -119.5h-85q47 234 265 234q80 0 123 -34q58 -45 58 -117q0 -59 -34 -110.5t-111 -109.5q-56 -41 -75 -64t-29 -60zM351 103l-22 -103h-90l22 103
h90z" />
    <glyph glyph-name="at" unicode="@" horiz-adv-x="1015" 
d="M771 501h82l-149 -280q-24 -47 -24 -58q0 -14 12.5 -25t28.5 -11q82 0 157 93t75 194q0 109 -83 179.5t-210 70.5q-121 0 -235.5 -67t-185.5 -176.5t-71 -224.5q0 -117 84.5 -189t222.5 -72q85 0 204 32l13 -67q-115 -42 -245 -42q-86 0 -163.5 33t-130.5 92
q-73 82 -73 199q0 99 45 199t127 182q83 84 196.5 131t232.5 47q154 0 254.5 -87t100.5 -219q0 -65 -21 -130.5t-56 -111.5q-46 -59 -120 -97.5t-143 -38.5q-49 0 -73 16q-10 7 -18 21t-8 26v5v9q-11 -7 -15 -12q-41 -33 -71 -46.5t-66 -13.5q-61 0 -98 38t-37 101
q0 74 47.5 150t121.5 124.5t147 48.5q91 0 109 -89zM615 455q-75 0 -142 -78q-71 -86 -71 -167q0 -37 21.5 -61.5t54.5 -24.5q69 0 130 87q32 45 53 95.5t21 83.5q0 65 -67 65z" />
    <glyph glyph-name="A" unicode="A" horiz-adv-x="667" 
d="M524 219h-285l-123 -219h-99l415 729h120l101 -729h-102zM514 297l-40 333l-191 -333h231z" />
    <glyph glyph-name="B" unicode="B" horiz-adv-x="667" 
d="M79 0l155 729h296q97 0 145 -51q36 -39 36 -93q0 -68 -35 -120t-101 -81q53 -23 75 -51.5t22 -74.5q0 -98 -65 -171q-77 -87 -198 -87h-330zM261 415h180q93 0 136 46q38 43 38 100q0 44 -30 65t-94 21h-180zM190 82h227q81 0 125 57q34 44 34 103q0 91 -106 91h-226z
" />
    <glyph glyph-name="C" unicode="C" horiz-adv-x="722" 
d="M770 503h-96q-6 81 -44.5 119t-114.5 38q-136 0 -226 -133q-81 -121 -81 -267q0 -91 47.5 -146.5t125.5 -55.5q59 0 112.5 26t84.5 70q25 35 59 112h98q-49 -118 -105 -179q-101 -110 -263 -110q-131 0 -198 85q-57 72 -57 180q0 94 34.5 190.5t93.5 167.5
q117 141 292 141q143 0 206 -107q28 -50 32 -131z" />
    <glyph glyph-name="D" unicode="D" horiz-adv-x="722" 
d="M89 0l155 729h282q98 0 156 -52q35 -31 56 -82.5t21 -106.5q0 -93 -32.5 -192t-83.5 -162q-110 -134 -272 -134h-282zM200 82h172q141 0 219 123q31 47 51.5 126.5t20.5 148.5q0 79 -45.5 123t-125.5 44h-171z" />
    <glyph glyph-name="E" unicode="E" horiz-adv-x="667" 
d="M255 332l-54 -250h429l-17 -82h-523l155 729h506l-17 -82h-412l-50 -233h396l-18 -82h-395z" />
    <glyph glyph-name="F" unicode="F" horiz-adv-x="611" 
d="M255 332l-71 -332h-94l155 729h489l-17 -82h-395l-50 -233h347l-17 -82h-347z" />
    <glyph glyph-name="G" unicode="G" horiz-adv-x="778" 
d="M793 385l-83 -389h-59l-4 90q-49 -41 -81 -60q-85 -49 -188 -49q-108 0 -179 58q-42 34 -66 94.5t-24 131.5q0 97 41 193.5t113 168.5q118 118 292 118q118 0 186 -58t68 -158v-6v-4v-7h-91q-1 63 -37 100q-50 52 -144 52q-150 0 -244 -122q-40 -53 -64 -124t-24 -137
q0 -91 37 -145q23 -34 68 -54t101 -20q101 0 181 65q74 61 95 154l6 26h-222l18 82h304z" />
    <glyph glyph-name="H" unicode="H" horiz-adv-x="722" 
d="M621 332h-373l-71 -332h-94l155 729h94l-67 -315h373l67 315h94l-155 -729h-94z" />
    <glyph glyph-name="I" unicode="I" horiz-adv-x="278" 
d="M349 729l-155 -729h-94l155 729h94z" />
    <glyph glyph-name="J" unicode="J" horiz-adv-x="500" 
d="M487 729h94l-116 -547q-21 -98 -86.5 -151.5t-165.5 -53.5q-72 0 -111 32q-55 45 -55 113q0 22 6 48l14 64h94l-14 -66q-4 -16 -4 -34q0 -34 24.5 -55t65.5 -21q59 0 98 44q30 34 47 114z" />
    <glyph glyph-name="K" unicode="K" horiz-adv-x="667" 
d="M226 249l-53 -249h-94l155 729h94l-79 -373l444 373h120l-361 -298l206 -431h-110l-168 376z" />
    <glyph glyph-name="L" unicode="L" 
d="M329 729l-138 -647h360l-17 -82h-454l155 729h94z" />
    <glyph glyph-name="M" unicode="M" horiz-adv-x="833" 
d="M467 0h-97l-77 605l-129 -605h-89l155 729h129l80 -627l346 627h131l-155 -729h-89l129 605z" />
    <glyph glyph-name="N" unicode="N" horiz-adv-x="722" 
d="M801 729l-155 -729h-106l-249 591l-126 -591h-89l155 729h104l250 -598l127 598h89z" />
    <glyph glyph-name="O" unicode="O" horiz-adv-x="778" 
d="M537 741q142 0 219 -77q33 -34 52.5 -87.5t19.5 -112.5q0 -119 -52.5 -231t-140.5 -179q-100 -77 -244 -77q-64 0 -121 20.5t-93 56.5q-73 73 -73 209q0 96 37.5 189t104.5 162q121 127 291 127zM525 660q-70 0 -133.5 -33.5t-107.5 -92.5q-84 -117 -84 -263
q0 -88 41 -141q26 -33 70 -52.5t93 -19.5q73 0 136.5 33t107.5 94q84 116 84 261q0 89 -41 142q-26 33 -70.5 52.5t-95.5 19.5z" />
    <glyph glyph-name="P" unicode="P" horiz-adv-x="667" 
d="M251 309l-66 -309h-94l155 729h302q185 0 185 -161q0 -128 -99 -207q-65 -52 -155 -52h-228zM268 391h194q92 0 140 61q35 44 35 98q0 97 -120 97h-194z" />
    <glyph glyph-name="Q" unicode="Q" horiz-adv-x="778" 
d="M733 -1l-60 -58l-87 87q-55 -29 -96.5 -40t-99.5 -11q-135 0 -210.5 75.5t-75.5 211.5q0 115 54 224t143 176q102 77 235 77q144 0 219 -77q73 -75 73 -208q0 -108 -45 -207t-128 -173zM524 205l74 -73q134 129 134 314q0 89 -41 142q-26 34 -70.5 53t-95.5 19
q-70 0 -133.5 -33.5t-107.5 -93.5q-84 -116 -84 -262q0 -100 55.5 -156.5t153.5 -56.5q53 0 119 29l-62 62z" />
    <glyph glyph-name="R" unicode="R" horiz-adv-x="722" 
d="M254 314l-67 -314h-94l155 729h336q96 0 141 -37.5t45 -116.5q0 -47 -18.5 -92.5t-48.5 -73.5q-24 -21 -73 -49q35 -23 47.5 -42.5t12.5 -53.5q0 -22 -21 -138q-6 -33 -6 -50q0 -34 21 -53l-5 -23h-113q-4 27 -4 47q0 24 3 40.5t21 91.5q8 35 8 60q0 75 -101 75h-239z
M271 396h231q93 0 136 53q36 46 36 109q0 38 -21 61q-25 28 -98 28h-230z" />
    <glyph glyph-name="S" unicode="S" horiz-adv-x="667" 
d="M706 515h-88q4 27 4 36q0 49 -32 78q-34 31 -120 31q-97 0 -152 -49q-44 -40 -44 -93q0 -33 21.5 -51t79.5 -35l172 -49q67 -19 98 -68q24 -37 24 -78q0 -43 -24 -92t-63 -84q-90 -84 -252 -84q-113 0 -177 50.5t-64 141.5q0 30 9 63h87q-4 -25 -4 -41q0 -69 40 -101
t125 -32q120 0 180 56q47 44 47 95q0 37 -26 60t-87 40l-171 48q-50 14 -80.5 51t-30.5 84q0 38 20.5 85.5t51.5 78.5q82 85 238 85q113 0 172 -52q54 -47 54 -118q0 -19 -8 -56z" />
    <glyph glyph-name="T" unicode="T" horiz-adv-x="611" 
d="M493 647l-138 -647h-94l138 647h-241l17 82h573l-17 -82h-238z" />
    <glyph glyph-name="U" unicode="U" horiz-adv-x="722" 
d="M706 729h94l-109 -512q-23 -109 -112.5 -174.5t-215.5 -65.5q-120 0 -184 58q-24 22 -39.5 55.5t-15.5 64.5q0 26 14 96l102 478h94l-109 -512q-5 -25 -5 -44q0 -52 44 -83.5t117 -31.5q85 0 142.5 42.5t73.5 116.5z" />
    <glyph glyph-name="V" unicode="V" horiz-adv-x="667" 
d="M392 0h-100l-107 729h97l83 -617l336 617h99z" />
    <glyph glyph-name="W" unicode="W" horiz-adv-x="944" 
d="M744 0h-102l-41 592l-290 -592h-102l-32 729h100l15 -592l288 592h96l41 -592l263 592h104z" />
    <glyph glyph-name="X" unicode="X" horiz-adv-x="667" 
d="M471 374l179 -374h-115l-134 304l-264 -304h-115l339 374l-167 355h113l125 -285l248 285h114z" />
    <glyph glyph-name="Y" unicode="Y" horiz-adv-x="667" 
d="M448 286l-61 -286h-94l61 286l-186 443h112l136 -357l289 357h111z" />
    <glyph glyph-name="Z" unicode="Z" horiz-adv-x="611" 
d="M737 729l-18 -84l-556 -563h438l-17 -82h-556l18 84l555 563h-406l17 82h525z" />
    <glyph glyph-name="bracketleft" unicode="[" horiz-adv-x="278" 
d="M405 729l-15 -72h-102l-170 -798h102l-15 -72h-186l200 942h186z" />
    <glyph glyph-name="backslash" unicode="\" horiz-adv-x="278" 
d="M147 729h55l78 -749h-55z" />
    <glyph glyph-name="bracketright" unicode="]" horiz-adv-x="278" 
d="M-23 -213l15 72h103l170 798h-103l15 72h187l-200 -942h-187z" />
    <glyph glyph-name="asciicircum" unicode="^" horiz-adv-x="469" 
d="M349 709h73l74 -380h-69l-58 299l-182 -299h-72z" />
    <glyph glyph-name="underscore" unicode="_" 
d="M551 -126l-11 -50h-599l11 50h599z" />
    <glyph glyph-name="grave" unicode="`" horiz-adv-x="333" 
d="M285 740l72 -148h-53l-125 148h106z" />
    <glyph glyph-name="a" unicode="a" 
d="M552 51l-13 -65q-2 0 -5.5 -1t-5.5 -1.5t-3 -0.5q-24 -6 -39 -6q-36 0 -56 17.5t-20 48.5v4v7q-49 -43 -88 -57q-57 -20 -114 -20q-67 0 -105 34t-38 94q0 92 82 144q37 23 81 33.5t144 19.5q55 5 74.5 16.5t26.5 42.5l3 18q2 16 2 19q0 28 -30.5 46t-75.5 18
q-72 0 -107 -37q-18 -18 -30 -56h-84q14 83 76 126.5t167 43.5q79 0 126.5 -31t47.5 -82q0 -10 -6 -37l-64 -301q-1 -3 -1 -10q0 -29 38 -29q8 0 17 2zM431 164l20 94q-43 -15 -146 -29q-71 -10 -103 -30q-22 -13 -35.5 -36t-13.5 -48q0 -32 23 -49t66 -17q66 0 122.5 34.5
t66.5 80.5z" />
    <glyph glyph-name="b" unicode="b" 
d="M209 729h84l-58 -275q40 43 61 55q50 30 115 30q76 0 126.5 -56t50.5 -140q0 -77 -30.5 -156t-80.5 -132q-34 -36 -83.5 -57t-99.5 -21q-55 0 -89.5 23.5t-58.5 77.5l-17 -78h-75zM383 462q-92 0 -152 -101q-46 -79 -46 -178q0 -59 30 -94t81 -35q97 0 158 101
q46 76 46 169q0 65 -31 101.5t-86 36.5z" />
    <glyph glyph-name="c" unicode="c" horiz-adv-x="500" 
d="M551 348h-84q1 9 1 22q0 43 -27.5 67.5t-74.5 24.5q-91 0 -148 -89q-54 -85 -54 -192q0 -59 30.5 -93t82.5 -34q111 0 157 126h84q-23 -79 -58 -120q-71 -83 -197 -83q-94 0 -143 62q-44 55 -44 131q0 69 23 142.5t58 119.5q82 107 224 107q83 0 129 -47q44 -46 44 -100
q0 -1 -0.5 -5t-1 -11t-0.5 -13z" />
    <glyph glyph-name="d" unicode="d" 
d="M650 729l-155 -729h-81l16 76q-19 -38 -57 -61q-61 -38 -129 -38q-78 0 -124.5 52.5t-46.5 140.5q0 158 83 263.5t207 105.5q53 0 86 -21t57 -70l60 281h84zM355 462q-94 0 -150 -101q-44 -80 -44 -171q0 -65 31 -100.5t86 -35.5q90 0 149 101q46 80 46 172
q0 64 -31 99.5t-87 35.5z" />
    <glyph glyph-name="e" unicode="e" 
d="M563 234h-386q-5 -19 -5 -46q0 -64 32.5 -99t91.5 -35q101 0 156 105h84q-23 -81 -93.5 -131.5t-160.5 -50.5q-85 0 -136 50q-62 60 -62 146q0 61 24.5 136t59.5 122q38 50 97 79t124 29q81 0 136 -49t55 -122q0 -39 -17 -134zM195 306h294q3 24 3 33q0 56 -31.5 89.5
t-84.5 33.5q-61 0 -111 -43.5t-70 -112.5z" />
    <glyph glyph-name="f" unicode="f" horiz-adv-x="278" 
d="M370 524l-14 -67h-86l-97 -457h-84l97 457h-70l14 67h70l19 89q12 56 51.5 87.5t97.5 31.5q22 0 45 -5l-15 -69q-13 2 -27 2q-33 0 -48.5 -14.5t-23.5 -52.5l-15 -69h86z" />
    <glyph glyph-name="g" unicode="g" 
d="M525 524h76l-93 -439q-20 -95 -43 -147.5t-61 -88.5q-70 -67 -195 -67q-81 0 -129 34.5t-48 92.5q0 1 0.5 5t1 11t0.5 15h84v-8v-6q0 -34 28.5 -53t79.5 -19q80 0 123.5 44t65.5 146l4 19q-77 -80 -172 -80q-76 0 -124.5 51.5t-48.5 133.5q0 70 25.5 145.5t65.5 125.5
q37 46 91.5 73t112.5 27q51 0 92 -30q27 -20 47 -63zM363 462q-99 0 -155 -102q-46 -80 -46 -176q0 -60 29.5 -94.5t79.5 -34.5q45 0 86 26.5t66 72.5q46 82 46 185q0 56 -28.5 89.5t-77.5 33.5z" />
    <glyph glyph-name="h" unicode="h" 
d="M225 729h84l-57 -270q48 44 89.5 62t97.5 18q64 0 99.5 -33.5t35.5 -92.5q0 -20 -4 -37l-80 -376h-84l73 343q6 27 6 39q0 38 -23.5 61.5t-61.5 23.5q-68 0 -117.5 -47.5t-67.5 -130.5l-61 -289h-84z" />
    <glyph glyph-name="i" unicode="i" horiz-adv-x="222" 
d="M261 524l-111 -524h-84l111 524h84zM305 729l-22 -103h-84l22 103h84z" />
    <glyph glyph-name="j" unicode="j" horiz-adv-x="222" 
d="M180 524h84l-134 -633q-14 -62 -52 -85.5t-124 -23.5q-12 0 -19 3l15 71q14 -2 25 -2q38 0 53.5 14t24.5 56zM308 729l-22 -103h-84l22 103h84z" />
    <glyph glyph-name="k" unicode="k" horiz-adv-x="500" 
d="M297 729l-90 -423l269 218h108l-222 -181l140 -343h-96l-114 291l-107 -88l-43 -203h-84l155 729h84z" />
    <glyph glyph-name="l" unicode="l" horiz-adv-x="222" 
d="M307 729l-155 -729h-84l155 729h84z" />
    <glyph glyph-name="m" unicode="m" horiz-adv-x="833" 
d="M182 524h76l-13 -65q48 45 87 62.5t91 17.5q97 0 121 -83q86 83 181 83q64 0 95 -34q32 -35 32 -77q0 -33 -6 -55l-79 -373h-84l72 341q9 34 9 49q0 36 -20.5 56.5t-55.5 20.5q-54 0 -99.5 -40t-57.5 -98l-70 -329h-84l77 361q4 26 4 37q0 31 -22.5 50t-59.5 19
q-50 0 -94.5 -40.5t-56.5 -97.5l-70 -329h-84z" />
    <glyph glyph-name="n" unicode="n" 
d="M181 524h76l-13 -65q78 80 194 80q62 0 99 -34t37 -91q0 -21 -4 -38l-80 -376h-84l74 349q6 26 6 37q0 35 -25 58t-62 23q-67 0 -116.5 -47.5t-67.5 -130.5l-61 -289h-84z" />
    <glyph glyph-name="o" unicode="o" 
d="M384 539q87 0 137 -49q55 -53 55 -138q0 -65 -22.5 -138.5t-56.5 -120.5q-84 -116 -228 -116q-84 0 -136.5 52t-52.5 135q0 64 22 137.5t56 121.5q38 55 97 85.5t129 30.5zM371 462q-103 0 -159 -105q-44 -81 -44 -173q0 -61 31 -95.5t84 -34.5q103 0 161 105
q44 79 44 174q0 61 -30.5 95t-86.5 34z" />
    <glyph glyph-name="p" unicode="p" 
d="M7 -213l157 737h81l-18 -84q20 42 73.5 70.5t111.5 28.5q80 0 127 -52.5t47 -142.5q0 -74 -23.5 -146.5t-64.5 -122.5q-81 -98 -204 -98q-53 0 -86.5 21t-56.5 70l-60 -281h-84zM379 462q-93 0 -149 -101q-47 -81 -47 -177q0 -60 32 -95t87 -35q97 0 152 101
q44 81 44 169q0 65 -31.5 101.5t-87.5 36.5z" />
    <glyph glyph-name="q" unicode="q" 
d="M450 -213h-84l59 275q-43 -43 -62 -55q-48 -30 -115 -30q-76 0 -126.5 56t-50.5 140q0 77 30.5 156t80.5 132q34 36 83.5 57t100.5 21q112 0 147 -101l19 86h75zM364 462q-99 0 -159 -101q-46 -77 -46 -175q0 -60 32 -96t85 -36q92 0 152 101q46 79 46 178q0 59 -30 94
t-80 35z" />
    <glyph glyph-name="r" unicode="r" horiz-adv-x="333" 
d="M180 524h76l-17 -82q47 53 84.5 75t80.5 22q12 0 32 -3l-18 -85q-168 6 -207 -179l-58 -272h-84z" />
    <glyph glyph-name="s" unicode="s" horiz-adv-x="500" 
d="M514 378h-84q1 8 1 22q0 62 -92 62q-64 0 -98 -33q-30 -28 -30 -62q0 -39 85 -60l76 -19q66 -16 93.5 -42.5t27.5 -72.5q0 -89 -67 -142.5t-179 -53.5q-88 0 -137 34t-49 94q0 23 6 51h89q-2 -20 -2 -25q0 -77 108 -77q71 0 111 34q13 10 22.5 29t9.5 33q0 16 -13 33
q-11 13 -57 26l-74 19q-77 20 -107.5 45.5t-30.5 71.5q0 77 60 134q63 60 173 60q73 0 118.5 -32.5t45.5 -85.5q0 -18 -6 -43z" />
    <glyph glyph-name="t" unicode="t" horiz-adv-x="278" 
d="M366 524l-14 -67h-89l-78 -367q-2 -12 -2 -14q0 -12 10 -19.5t26 -7.5q15 0 48 8l-16 -73q-26 -7 -65 -7q-41 0 -65 21t-24 58q0 16 3 31l79 370h-71l14 67h71l31 144h84l-31 -144h89z" />
    <glyph glyph-name="u" unicode="u" 
d="M483 0h-76l12 57q-83 -80 -193 -80q-65 0 -101.5 29t-36.5 80q0 19 3 34l86 404h84l-79 -371q-3 -15 -3 -27q0 -36 24 -56.5t65 -20.5q64 0 113 48.5t66 129.5l63 297h84z" />
    <glyph glyph-name="v" unicode="v" horiz-adv-x="500" 
d="M287 0h-91l-74 524h92l49 -422l244 422h91z" />
    <glyph glyph-name="w" unicode="w" horiz-adv-x="722" 
d="M556 0h-95l-12 418l-195 -418h-96l-40 524h91l19 -408l189 408h105l11 -408l196 408h91z" />
    <glyph glyph-name="x" unicode="x" horiz-adv-x="500" 
d="M350 267l123 -267h-94l-90 200l-174 -200h-98l239 267l-118 257h93l88 -192l167 192h97z" />
    <glyph glyph-name="y" unicode="y" horiz-adv-x="500" 
d="M501 524h89l-368 -634q-62 -108 -165 -108q-27 0 -49 10l16 75q29 -4 43 -4q29 0 45 10t36 42l52 81l-68 528h90l46 -407z" />
    <glyph glyph-name="z" unicode="z" horiz-adv-x="500" 
d="M557 524l-18 -75l-392 -377h326l-15 -72h-427l18 74l395 378h-294l15 72h392z" />
    <glyph glyph-name="braceleft" unicode="{" horiz-adv-x="334" 
d="M431 729l-14 -65h-16q-37 0 -53.5 -14t-24.5 -53l-39 -181q-22 -111 -108 -157q28 -19 38 -39.5t10 -58.5q0 -33 -6 -61l-39 -181q-4 -16 -4 -33q0 -34 54 -34h16l-14 -65h-47q-41 0 -63.5 20.5t-22.5 57.5q0 27 6 54l35 166q9 43 9 67q0 62 -57 71l15 70q44 8 68.5 39.5
t37.5 98.5l36 166q10 60 47 95.5t89 36.5h47z" />
    <glyph glyph-name="bar" unicode="|" horiz-adv-x="260" 
d="M255 729h60l-201 -941h-60z" />
    <glyph glyph-name="braceright" unicode="}" horiz-adv-x="334" 
d="M-16 -213l14 65h16q37 0 53.5 14t24.5 53l39 181q13 67 35.5 100.5t72.5 56.5q-48 42 -48 105q0 26 6 54l39 181q4 16 4 33q0 34 -54 34h-16l14 65h47q38 0 62 -22.5t24 -59.5q0 -21 -6 -50l-35 -166q-9 -46 -9 -72q0 -57 57 -66l-15 -70q-85 -13 -106 -138l-36 -166
q-14 -65 -49.5 -100t-86.5 -32h-47z" />
    <glyph glyph-name="asciitilde" unicode="~" horiz-adv-x="584" 
d="M542 411h52q-9 -55 -34 -88q-40 -55 -102 -55q-38 0 -74 26l-85 63q-21 15 -39 15q-47 0 -71 -79h-52q19 70 54.5 107.5t83.5 37.5q29 0 51 -16l102 -69q25 -17 46 -17q52 0 68 75z" />
    <glyph glyph-name="uni00A0" unicode="&#xa0;" horiz-adv-x="278" 
 />
    <glyph glyph-name="exclamdown" unicode="&#xa1;" horiz-adv-x="333" 
d="M76 -205l74 350l67 211h40l-23 -211l-74 -350h-84zM211 421l22 103h84l-22 -103h-84z" />
    <glyph glyph-name="cent" unicode="&#xa2;" 
d="M407 463l-87 -410q53 6 87.5 36t57.5 91h84q-26 -99 -85.5 -148t-159.5 -55l-21 -97h-40l21 98q-77 8 -122.5 60.5t-45.5 132.5q0 86 32 166.5t86 129.5q68 61 169 71l19 90h40l-19 -90q33 0 62 -10q43 -16 71.5 -54.5t28.5 -81.5q0 -1 -0.5 -5t-1 -11t-0.5 -13l-1 -15
h-84q1 9 1 23q0 57 -44 80q-11 6 -48 12zM281 56l85 404q-53 -10 -90 -45q-41 -40 -66.5 -104t-25.5 -128q0 -53 26 -87t71 -40z" />
    <glyph glyph-name="sterling" unicode="&#xa3;" 
d="M447 376l-12 -55h-137l1 -11q2 -26 2 -27q0 -56 -43 -118q-20 -26 -75 -69l-27 -20q-14 -10 -20 -15q79 39 133 39q27 0 53 -9q62 -21 102 -21q38 0 94 31l25 -70q-66 -54 -142 -54q-47 0 -139 35q-27 11 -63 11q-51 0 -118 -37l-37 66q174 114 174 219q0 17 -10 50h-113
l12 55h83q-6 16 -9 22q-21 51 -21 82q0 97 86 173t196 76q83 0 134.5 -41.5t51.5 -108.5q0 -28 -9 -82h-88q9 32 9 57q0 45 -31.5 71.5t-84.5 26.5q-71 0 -119.5 -46t-48.5 -114q0 -27 16 -72q8 -20 15 -44h160z" />
    <glyph glyph-name="currency" unicode="&#xa4;" 
d="M526 191l-70 -54l-42 53q-44 -30 -105 -30t-90 25l-65 -52l-44 58l60 49q-14 28 -14 65q0 46 25 94q10 14 33 46l-42 55l66 56l45 -58q47 27 102 27q61 0 93 -29l68 56l47 -58l-69 -56q13 -21 13 -57q0 -35 -15.5 -74.5t-38.5 -61.5zM369 448q-52 0 -93 -38t-41 -87
q0 -37 26 -61.5t64 -24.5q52 0 92.5 39t40.5 88q0 35 -26 59.5t-63 24.5z" />
    <glyph glyph-name="yen" unicode="&#xa5;" 
d="M573 354l-11 -51h-172l-17 -77h172l-10 -51h-173l-37 -175h-88l37 175h-174l11 51h174l17 77h-175l11 51h154l-130 355h85l116 -322l248 322h85l-277 -355h154z" />
    <glyph glyph-name="brokenbar" unicode="&#xa6;" horiz-adv-x="260" 
d="M255 729h60l-86 -401h-60zM140 189h60l-86 -401h-60z" />
    <glyph glyph-name="section" unicode="&#xa7;" 
d="M575 524h-84q10 29 10 51q0 35 -22.5 56t-60.5 21q-42 0 -73.5 -30t-31.5 -69q0 -17 8.5 -29.5t33.5 -32.5l127 -101q38 -31 53 -48q24 -33 24 -75q0 -33 -14.5 -71.5t-37.5 -64.5q-34 -40 -95 -60q30 -41 30 -87q0 -65 -54 -127q-62 -70 -163 -70q-74 0 -118 37.5
t-44 100.5q0 25 11 61h85q-8 -28 -8 -45q0 -34 24.5 -55.5t62.5 -21.5q46 0 79 30t33 72q0 39 -38 72l-145 124q-63 53 -63 112q0 68 48 123q17 19 33.5 30.5t61.5 35.5q-26 33 -26 77q0 74 65.5 131.5t149.5 57.5q68 0 110.5 -37.5t42.5 -97.5q0 -25 -10 -53q-2 -9 -4 -17z
M236 229l138 -121q97 50 97 123q0 49 -53 91l-131 106q-53 -30 -74 -56.5t-21 -62.5q0 -24 9.5 -41t34.5 -39z" />
    <glyph glyph-name="dieresis" unicode="&#xa8;" horiz-adv-x="333" 
d="M285 715l-22 -103h-104l22 103h104zM446 715l-22 -103h-104l22 103h104z" />
    <glyph glyph-name="copyright" unicode="&#xa9;" horiz-adv-x="737" 
d="M637 437h-71q-2 49 -20.5 71t-57.5 22q-73 0 -122 -74q-45 -69 -45 -155q0 -51 26 -82t69 -31q85 0 131 124h71q-32 -79 -66 -116q-64 -70 -152 -70q-70 0 -110.5 44.5t-40.5 121.5q0 121 77 214q74 86 177 86q67 0 99.5 -37.5t34.5 -117.5zM530 742q133 0 219.5 -85.5
t86.5 -216.5q0 -118 -67 -225t-177 -172t-231 -65q-133 0 -219.5 86t-86.5 217q0 117 67 224t177 172t231 65zM516 680q-99 0 -190 -54.5t-146 -144.5t-55 -188q0 -109 71 -181t179 -72q99 0 190 54.5t146 145t55 188.5q0 110 -70.5 181t-179.5 71z" />
    <glyph glyph-name="ordfeminine" unicode="&#xaa;" horiz-adv-x="370" 
d="M406 354l-11 -51h-288l11 51h288zM432 449l-9 -44q-8 -2 -10 -2q-18 -4 -26 -4q-42 0 -47 43q-44 -43 -109 -43q-46 0 -70.5 21t-24.5 59q0 58 50 89q35 22 134 32q33 4 43 9.5t15 23.5l2 8q2 10 2 15q0 10 -11 23q-12 12 -51 12q-64 0 -80 -57h-56q15 53 34 71
q39 37 119 37q48 0 76 -17.5t28 -48.5q0 -15 -1 -18l-41 -190q-1 -3 -1 -7q0 -14 17 -14q5 0 9 1zM353 515l10 51q-20 -7 -51 -11q-68 -9 -88 -22q-28 -16 -28 -47q0 -37 53 -37q34 0 67 20.5t37 45.5z" />
    <glyph glyph-name="guillemotleft" unicode="&#xab;" 
d="M147 227l19 89l177 122l-18 -83l-121 -84l86 -83l-18 -82zM352 227l19 89l177 122l-18 -83l-121 -84l86 -83l-18 -82z" />
    <glyph glyph-name="logicalnot" unicode="&#xac;" horiz-adv-x="584" 
d="M114 377h505l-61 -291h-70l46 219h-435z" />
    <glyph glyph-name="uni00AD" unicode="&#xad;" horiz-adv-x="333" 
d="M351 312l-15 -72h-239l15 72h239z" />
    <glyph glyph-name="registered" unicode="&#xae;" horiz-adv-x="737" 
d="M341 325l-39 -185h-70l94 445h206q119 0 119 -89q0 -42 -18 -78q-16 -30 -62 -58q17 -14 23 -25t6 -31q0 -17 -8 -56q-7 -45 -7 -54q0 -18 12 -29l-5 -25h-78q-4 16 -4 28q0 25 14 85q5 18 5 32q0 40 -54 40h-134zM355 388h129q50 0 72 28q19 26 19 60q0 25 -15 35.5
t-48 10.5h-129zM530 742q133 0 219.5 -85.5t86.5 -216.5q0 -118 -67 -225t-177 -172t-231 -65q-133 0 -219.5 86t-86.5 217q0 117 67 224t177 172t231 65zM516 680q-99 0 -190 -54.5t-146 -144.5t-55 -188q0 -109 71 -181t179 -72q99 0 190 54.5t146 145t55 188.5
q0 110 -70.5 181t-179.5 71z" />
    <glyph glyph-name="macron" unicode="&#xaf;" horiz-adv-x="333" 
d="M450 696l-15 -69h-275l15 69h275z" />
    <glyph glyph-name="degree" unicode="&#xb0;" horiz-adv-x="400" 
d="M339 686q63 0 107.5 -44.5t44.5 -106.5q0 -64 -44.5 -108t-108.5 -44q-61 0 -105.5 45t-44.5 107t44.5 106.5t106.5 44.5zM340 643q-44 0 -75.5 -32t-31.5 -76t31 -76.5t74 -32.5q45 0 76.5 31.5t31.5 77.5q0 45 -31 76.5t-75 31.5z" />
    <glyph glyph-name="plusminus" unicode="&#xb1;" horiz-adv-x="584" 
d="M625 429l-15 -72h-207l-44 -208h-71l45 208h-207l15 72h207l43 204h71l-44 -204h207zM549 72l-15 -72h-484l15 72h484z" />
    <glyph glyph-name="twosuperior" unicode="&#xb2;" horiz-adv-x="333" 
d="M383 344l-12 -60h-300q21 76 52 111t113 77l63 31q75 35 75 91q0 27 -18 43.5t-49 16.5q-43 0 -68 -23.5t-38 -75.5h-63q18 80 61 117t117 37q57 0 90 -28.5t33 -77.5q0 -90 -124 -151l-68 -33q-71 -35 -95 -75h231z" />
    <glyph glyph-name="threesuperior" unicode="&#xb3;" horiz-adv-x="333" 
d="M227 474l11 53h12h4q55 0 81 19.5t26 60.5q0 22 -16.5 34.5t-45.5 12.5q-50 0 -76 -35q-12 -15 -21 -54h-63q16 64 43 92q47 52 127 52q53 0 85 -24.5t32 -65.5q0 -39 -15.5 -65t-53.5 -50q44 -21 44 -70q0 -71 -52 -117.5t-131 -46.5q-60 0 -92 26.5t-32 76.5q0 9 3 41
h64l-1 -12q-1 -8 -1 -21q0 -25 18.5 -40.5t49.5 -15.5q49 0 79 27.5t30 72.5q0 50 -78 50q-16 0 -31 -1z" />
    <glyph glyph-name="acute" unicode="&#xb4;" horiz-adv-x="333" 
d="M346 740h112l-180 -148h-60z" />
    <glyph glyph-name="mu" unicode="&#xb5;" 
d="M554 49l-14 -63q-3 -1 -7.5 -2t-5.5 -1q-26 -6 -41 -6q-40 0 -57.5 14.5t-17.5 49.5q0 7 3 19q-80 -83 -183 -83q-52 0 -81 29l-48 -226h-84l158 744h84l-77 -364q-3 -14 -3 -30q0 -38 23 -59t63 -21q64 0 113.5 48.5t66.5 128.5l63 297h84l-93 -436q-1 -3 -1 -11
q0 -31 38 -31q7 0 17 3z" />
    <glyph glyph-name="paragraph" unicode="&#xb6;" horiz-adv-x="537" 
d="M677 729l-14 -64h-56l-179 -843h-64l179 843h-83l-179 -843h-64l93 437q-78 2 -121.5 49t-43.5 128q0 114 86 203.5t196 89.5h250z" />
    <glyph glyph-name="periodcentered" unicode="&#xb7;" horiz-adv-x="278" 
d="M293 295l-22 -103h-105l22 103h105z" />
    <glyph glyph-name="cedilla" unicode="&#xb8;" horiz-adv-x="333" 
d="M165 0h41l-30 -56q13 2 21 2q28 0 47.5 -15t19.5 -36q0 -48 -40.5 -78.5t-104.5 -30.5q-50 0 -118 34l28 38q54 -29 94 -29q28 0 45.5 15.5t17.5 39.5q0 9 -9 15.5t-22 6.5q-6 0 -16 -2q-6 -1 -11 -2l-13 6z" />
    <glyph glyph-name="onesuperior" unicode="&#xb9;" horiz-adv-x="333" 
d="M273 580h-97l10 46q68 9 88.5 21.5t45.5 61.5h44l-90 -425h-64z" />
    <glyph glyph-name="ordmasculine" unicode="&#xba;" horiz-adv-x="365" 
d="M388 354l-11 -51h-263l11 51h263zM336 742q52 0 81 -26q15 -14 25 -39t10 -50q0 -38 -14 -83t-34 -74q-51 -71 -142 -71q-50 0 -81.5 30.5t-31.5 79.5q0 42 13.5 88.5t33.5 74.5q52 70 140 70zM327 690q-50 0 -84 -47.5t-34 -117.5q0 -35 17.5 -54.5t49.5 -19.5
q49 0 82.5 48t33.5 118q0 34 -17.5 53.5t-47.5 19.5z" />
    <glyph glyph-name="guillemotright" unicode="&#xbb;" 
d="M319 317l-19 -89l-179 -122l18 83l123 84l-88 83l18 82zM518 317l-19 -89l-179 -122l18 83l123 84l-88 83l18 82z" />
    <glyph glyph-name="onequarter" unicode="&#xbc;" horiz-adv-x="834" 
d="M248 580h-99l10 46q66 5 88 18.5t48 64.5h42l-90 -425h-62zM758 709h58l-607 -729h-58zM706 100h-188l13 59l260 266h46l-58 -272h67l-11 -53h-67l-21 -100h-62zM717 153l36 170l-165 -170h129z" />
    <glyph glyph-name="onehalf" unicode="&#xbd;" horiz-adv-x="834" 
d="M248 580h-99l9 46q67 5 89 18.5t47 64.5h43l-90 -425h-62zM734 709h58l-607 -729h-58zM818 58l-13 -58h-304q19 73 53 111t114 76l65 31q77 37 77 94q0 27 -19.5 43.5t-50.5 16.5q-53 0 -83 -39q-13 -15 -26 -60h-62q37 152 183 152q57 0 89.5 -27t32.5 -74t-32.5 -87
t-93.5 -67l-69 -32q-37 -17 -56.5 -34.5t-34.5 -45.5h230z" />
    <glyph glyph-name="threequarters" unicode="&#xbe;" horiz-adv-x="834" 
d="M245 476l11 51q66 0 91 14q34 18 34 66q0 23 -17 36t-46 13q-53 0 -80 -35q-13 -19 -21 -54h-62q32 142 173 142q56 0 86.5 -24t30.5 -68q0 -82 -78 -113q53 -19 53 -72q0 -69 -53.5 -115.5t-133.5 -46.5q-125 0 -125 105q0 16 4 37h62q-3 -20 -3 -28q0 -61 75 -61
q48 0 79 28t31 72q0 53 -79 53h-23h-9zM786 709h58l-607 -729h-58zM704 100h-188l12 59l261 266h46l-58 -272h67l-11 -53h-67l-22 -100h-62zM715 153l36 170l-166 -170h130z" />
    <glyph glyph-name="questiondown" unicode="&#xbf;" horiz-adv-x="611" 
d="M344 325h90l-12 -55q-11 -46 -35 -74.5t-102 -88.5q-104 -82 -104 -160q0 -40 29 -63.5t78 -23.5q66 0 104 37.5t54 119.5h85q-47 -234 -265 -234q-97 0 -145 55q-35 40 -35 90q0 73 51 140q27 35 93 86q56 41 75 64t29 60zM364 421l22 103h90l-22 -103h-90z" />
    <glyph glyph-name="Agrave" unicode="&#xc0;" horiz-adv-x="667" 
d="M524 219h-285l-123 -219h-99l415 729h120l101 -729h-102zM514 297l-40 333l-191 -333h231zM483 939l72 -148h-54l-124 148h106z" />
    <glyph glyph-name="Aacute" unicode="&#xc1;" horiz-adv-x="667" 
d="M524 219h-285l-123 -219h-99l415 729h120l101 -729h-102zM514 297l-40 333l-191 -333h231zM555 939h112l-180 -148h-60z" />
    <glyph glyph-name="Acircumflex" unicode="&#xc2;" horiz-adv-x="667" 
d="M524 219h-285l-123 -219h-99l415 729h120l101 -729h-102zM514 297l-40 333l-191 -333h231zM486 940h94l65 -150h-64l-56 99l-103 -99h-64z" />
    <glyph glyph-name="Atilde" unicode="&#xc3;" horiz-adv-x="667" 
d="M524 219h-285l-123 -219h-99l415 729h120l101 -729h-102zM514 297l-40 333l-191 -333h231zM627 918h53q-16 -49 -45 -78t-63 -29q-27 0 -103 26q-17 6 -27 6q-17 0 -25.5 -5.5t-24.5 -27.5h-53q16 47 32 67q12 16 32.5 26t39.5 10q22 0 73 -17q43 -15 63 -15
q15 0 24.5 7.5t23.5 29.5z" />
    <glyph glyph-name="Adieresis" unicode="&#xc4;" horiz-adv-x="667" 
d="M524 219h-285l-123 -219h-99l415 729h120l101 -729h-102zM514 297l-40 333l-191 -333h231zM501 914l-22 -103h-104l22 103h104zM662 914l-22 -103h-104l22 103h104z" />
    <glyph glyph-name="Aring" unicode="&#xc5;" horiz-adv-x="667" 
d="M524 219h-285l-123 -219h-99l415 729h120l101 -729h-102zM514 297l-40 333l-191 -333h231zM533 953q31 0 51.5 -19t20.5 -48q0 -43 -33 -75.5t-76 -32.5q-30 0 -50.5 20.5t-20.5 49.5q0 40 33.5 72.5t74.5 32.5zM525 909q-20 0 -37 -16.5t-17 -35.5q0 -16 10 -25.5
t25 -9.5q21 0 37.5 16.5t16.5 36.5q0 15 -10 24.5t-25 9.5z" />
    <glyph glyph-name="AE" unicode="&#xc6;" horiz-adv-x="1000" 
d="M513 214h-269l-130 -214h-103l454 729h622l-17 -82h-371l-49 -233h351l-18 -82h-351l-53 -250h388l-17 -82h-482zM531 295l74 352h-100l-212 -352h238z" />
    <glyph glyph-name="Ccedilla" unicode="&#xc7;" horiz-adv-x="722" 
d="M368 -23l-17 -33q12 2 21 2q28 0 47.5 -15t19.5 -36q0 -48 -41 -78.5t-104 -30.5q-51 0 -118 34l28 38q54 -29 94 -29q28 0 45.5 15.5t17.5 39.5q0 9 -9 15.5t-22 6.5q-6 0 -16 -2q-6 -1 -11 -2l-13 6l38 71q-50 7 -77.5 18.5t-53.5 34.5q-85 76 -85 210q0 94 34.5 190.5
t93.5 167.5q117 141 292 141q143 0 206 -107q28 -50 32 -131h-96q-6 81 -44.5 119t-114.5 38q-136 0 -226 -133q-81 -121 -81 -267q0 -91 47.5 -146.5t125.5 -55.5q59 0 112.5 26t84.5 70q25 35 59 112h98q-59 -148 -147.5 -217.5t-219.5 -71.5z" />
    <glyph glyph-name="Egrave" unicode="&#xc8;" horiz-adv-x="667" 
d="M496 939l71 -148h-53l-125 148h107zM255 332l-54 -250h429l-17 -82h-523l155 729h506l-17 -82h-412l-50 -233h396l-18 -82h-395z" />
    <glyph glyph-name="Eacute" unicode="&#xc9;" horiz-adv-x="667" 
d="M582 939h112l-179 -148h-61zM255 332l-54 -250h429l-17 -82h-523l155 729h506l-17 -82h-412l-50 -233h396l-18 -82h-395z" />
    <glyph glyph-name="Ecircumflex" unicode="&#xca;" horiz-adv-x="667" 
d="M495 940h95l64 -150h-63l-56 99l-104 -99h-64zM255 332l-54 -250h429l-17 -82h-523l155 729h506l-17 -82h-412l-50 -233h396l-18 -82h-395z" />
    <glyph glyph-name="Edieresis" unicode="&#xcb;" horiz-adv-x="667" 
d="M505 914l-22 -103h-104l22 103h104zM666 914l-22 -103h-104l22 103h104zM255 332l-54 -250h429l-17 -82h-523l155 729h506l-17 -82h-412l-50 -233h396l-18 -82h-395z" />
    <glyph glyph-name="Igrave" unicode="&#xcc;" horiz-adv-x="278" 
d="M349 729l-155 -729h-94l155 729h94zM306 939l72 -148h-53l-125 148h106z" />
    <glyph glyph-name="Iacute" unicode="&#xcd;" horiz-adv-x="278" 
d="M349 729l-155 -729h-94l155 729h94zM367 939h112l-180 -148h-60z" />
    <glyph glyph-name="Icircumflex" unicode="&#xce;" horiz-adv-x="278" 
d="M349 729l-155 -729h-94l155 729h94zM295 940h95l64 -150h-63l-56 99l-104 -99h-64z" />
    <glyph glyph-name="Idieresis" unicode="&#xcf;" horiz-adv-x="278" 
d="M349 729l-155 -729h-94l155 729h94zM306 907l-22 -103h-104l22 103h104zM467 907l-22 -103h-104l22 103h104z" />
    <glyph glyph-name="Eth" unicode="&#xd0;" horiz-adv-x="722" 
d="M161 341h-68l13 67h70l68 321h282q98 0 156 -52q35 -31 56 -82.5t21 -106.5q0 -93 -32.5 -192t-83.5 -162q-110 -134 -272 -134h-282zM255 341l-55 -259h172q141 0 219 123q30 48 51 127t21 148q0 79 -45.5 123t-125.5 44h-171l-51 -239h166l-14 -67h-167z" />
    <glyph glyph-name="Ntilde" unicode="&#xd1;" horiz-adv-x="722" 
d="M801 729l-155 -729h-106l-249 591l-126 -591h-89l155 729h104l250 -598l127 598h89zM669 918h53q-16 -49 -45 -78t-63 -29q-27 0 -103 26q-15 6 -27 6q-17 0 -25 -5.5t-24 -27.5h-54q16 47 32 67q29 36 72 36q22 0 73 -17q43 -15 63 -15q15 0 24.5 7.5t23.5 29.5z" />
    <glyph glyph-name="Ograve" unicode="&#xd2;" horiz-adv-x="778" 
d="M538 939l72 -148h-54l-124 148h106zM537 741q142 0 219 -77q34 -34 53 -87.5t19 -112.5q0 -119 -52.5 -231t-140.5 -179q-100 -77 -244 -77q-64 0 -121 20.5t-93 56.5q-73 73 -73 209q0 96 37.5 189t104.5 162q121 127 291 127zM525 660q-70 0 -133.5 -33.5t-107.5 -92.5
q-84 -117 -84 -263q0 -88 41 -141q26 -33 70 -52.5t93 -19.5q73 0 136.5 33t107.5 94q84 116 84 261q0 89 -41 142q-26 33 -70.5 52.5t-95.5 19.5z" />
    <glyph glyph-name="Oacute" unicode="&#xd3;" horiz-adv-x="778" 
d="M621 939h112l-180 -148h-60zM537 741q142 0 219 -77q34 -34 53 -87.5t19 -112.5q0 -119 -52.5 -231t-140.5 -179q-100 -77 -244 -77q-64 0 -121 20.5t-93 56.5q-73 73 -73 209q0 96 37.5 189t104.5 162q121 127 291 127zM525 660q-70 0 -133.5 -33.5t-107.5 -92.5
q-84 -117 -84 -263q0 -88 41 -141q26 -33 70 -52.5t93 -19.5q73 0 136.5 33t107.5 94q84 116 84 261q0 89 -41 142q-26 33 -70.5 52.5t-95.5 19.5z" />
    <glyph glyph-name="Ocircumflex" unicode="&#xd4;" horiz-adv-x="778" 
d="M538 940h94l65 -150h-64l-56 99l-103 -99h-64zM537 741q142 0 219 -77q34 -34 53 -87.5t19 -112.5q0 -119 -52.5 -231t-140.5 -179q-100 -77 -244 -77q-64 0 -121 20.5t-93 56.5q-73 73 -73 209q0 96 37.5 189t104.5 162q121 127 291 127zM525 660q-70 0 -133.5 -33.5
t-107.5 -92.5q-84 -117 -84 -263q0 -88 41 -141q26 -33 70 -52.5t93 -19.5q73 0 136.5 33t107.5 94q84 116 84 261q0 89 -41 142q-26 33 -70.5 52.5t-95.5 19.5z" />
    <glyph glyph-name="Otilde" unicode="&#xd5;" horiz-adv-x="778" 
d="M537 741q142 0 219 -77q34 -34 53 -87.5t19 -112.5q0 -119 -52.5 -231t-140.5 -179q-100 -77 -244 -77q-64 0 -121 20.5t-93 56.5q-73 73 -73 209q0 96 37.5 189t104.5 162q121 127 291 127zM525 660q-70 0 -133.5 -33.5t-107.5 -92.5q-84 -117 -84 -263q0 -88 41 -141
q26 -33 70 -52.5t93 -19.5q73 0 136.5 33t107.5 94q84 116 84 261q0 89 -41 142q-26 33 -70.5 52.5t-95.5 19.5zM693 918h54q-16 -49 -45.5 -78t-62.5 -29q-27 0 -104 26q-15 6 -26 6q-17 0 -25.5 -5.5t-24.5 -27.5h-53q15 45 31 67q29 36 73 36q21 0 72 -17q43 -15 64 -15
q15 0 24 7.5t23 29.5z" />
    <glyph glyph-name="Odieresis" unicode="&#xd6;" horiz-adv-x="778" 
d="M550 914l-23 -103h-103l22 103h104zM711 914l-23 -103h-103l22 103h104zM537 741q142 0 219 -77q34 -34 53 -87.5t19 -112.5q0 -119 -52.5 -231t-140.5 -179q-100 -77 -244 -77q-64 0 -121 20.5t-93 56.5q-73 73 -73 209q0 96 37.5 189t104.5 162q121 127 291 127z
M525 660q-70 0 -133.5 -33.5t-107.5 -92.5q-84 -117 -84 -263q0 -88 41 -141q26 -33 70 -52.5t93 -19.5q73 0 136.5 33t107.5 94q84 116 84 261q0 89 -41 142q-26 33 -70.5 52.5t-95.5 19.5z" />
    <glyph glyph-name="multiply" unicode="&#xd7;" horiz-adv-x="584" 
d="M529 427l39 -50l-178 -146l117 -147l-61 -50l-116 147l-178 -146l-39 49l178 147l-115 146l60 49l115 -145z" />
    <glyph glyph-name="Oslash" unicode="&#xd8;" horiz-adv-x="778" 
d="M32 15l94 85q-38 66 -38 168q0 91 38 184t103 162q121 127 290 127q73 0 133 -22.5t93 -61.5l87 78l35 -39l-92 -83q37 -64 37 -150q0 -119 -53.5 -232t-140.5 -177q-103 -77 -240 -77q-142 0 -220 80l-91 -81zM202 168l470 424q-57 68 -164 68q-136 0 -230 -114.5
t-94 -281.5q0 -54 18 -96zM700 546l-470 -423q54 -65 161 -65q70 0 134 33.5t107 92.5q39 54 61.5 123.5t22.5 135.5q0 67 -16 103z" />
    <glyph glyph-name="Ugrave" unicode="&#xd9;" horiz-adv-x="722" 
d="M514 939l72 -148h-54l-124 148h106zM706 729h94l-109 -512q-23 -109 -112.5 -174.5t-215.5 -65.5q-120 0 -184 58q-24 22 -39.5 55.5t-15.5 64.5q0 33 14 96l102 478h94l-109 -512q-5 -25 -5 -43q0 -52 44 -84t117 -32q85 0 142.5 42.5t73.5 116.5z" />
    <glyph glyph-name="Uacute" unicode="&#xda;" horiz-adv-x="722" 
d="M591 939h112l-180 -148h-60zM706 729h94l-109 -512q-23 -109 -112.5 -174.5t-215.5 -65.5q-120 0 -184 58q-24 22 -39.5 55.5t-15.5 64.5q0 33 14 96l102 478h94l-109 -512q-5 -25 -5 -43q0 -52 44 -84t117 -32q85 0 142.5 42.5t73.5 116.5z" />
    <glyph glyph-name="Ucircumflex" unicode="&#xdb;" horiz-adv-x="722" 
d="M517 940h94l65 -150h-64l-56 99l-103 -99h-64zM706 729h94l-109 -512q-23 -109 -112.5 -174.5t-215.5 -65.5q-120 0 -184 58q-24 22 -39.5 55.5t-15.5 64.5q0 33 14 96l102 478h94l-109 -512q-5 -25 -5 -43q0 -52 44 -84t117 -32q85 0 142.5 42.5t73.5 116.5z" />
    <glyph glyph-name="Udieresis" unicode="&#xdc;" horiz-adv-x="722" 
d="M532 914l-23 -103h-103l22 103h104zM693 914l-23 -103h-103l22 103h104zM706 729h94l-109 -512q-23 -109 -112.5 -174.5t-215.5 -65.5q-120 0 -184 58q-24 22 -39.5 55.5t-15.5 64.5q0 33 14 96l102 478h94l-109 -512q-5 -25 -5 -43q0 -52 44 -84t117 -32
q85 0 142.5 42.5t73.5 116.5z" />
    <glyph glyph-name="Yacute" unicode="&#xdd;" horiz-adv-x="667" 
d="M564 939h112l-180 -148h-60zM448 286l-61 -286h-94l61 286l-186 443h112l136 -357l289 357h111z" />
    <glyph glyph-name="Thorn" unicode="&#xde;" horiz-adv-x="667" 
d="M226 191l-41 -191h-94l155 729h94l-25 -118h208q185 0 185 -161q0 -128 -99 -207q-65 -52 -155 -52h-228zM243 273h194q92 0 140 61q35 44 35 98q0 97 -120 97h-195z" />
    <glyph glyph-name="germandbls" unicode="&#xdf;" horiz-adv-x="611" 
d="M345 349l18 82h10q75 0 126.5 38t51.5 94q0 40 -32 64t-85 24q-65 0 -110.5 -30.5t-56.5 -82.5l-114 -538h-83l114 538q20 90 87 136q82 55 187 55q83 0 133 -39t50 -104q0 -137 -161 -185q44 -14 70 -32q57 -40 57 -105q0 -43 -19 -93t-50 -86q-86 -105 -235 -105
q-24 0 -48 4l17 78h10h31q85 0 144.5 54t59.5 131q0 66 -57 89q-30 13 -99 13h-16z" />
    <glyph glyph-name="agrave" unicode="&#xe0;" 
d="M392 740l71 -148h-53l-125 148h107zM552 51l-13 -65q-2 0 -5.5 -1t-5.5 -1.5t-3 -0.5q-24 -6 -39 -6q-36 0 -56 17.5t-20 48.5v4v7q-51 -44 -88 -57q-57 -20 -113 -20q-67 0 -105.5 34t-38.5 94q0 92 82 144q37 23 81 33.5t144 19.5q55 5 74.5 16.5t26.5 42.5l3 18
q2 16 2 19q0 28 -30 46t-76 18q-72 0 -107 -37q-18 -18 -30 -56h-84q14 83 76 126.5t167 43.5q79 0 126.5 -31t47.5 -82q0 -10 -6 -37l-64 -301q-1 -3 -1 -10q0 -29 38 -29q8 0 17 2zM431 164l20 94q-44 -15 -147 -29q-68 -10 -102 -30q-22 -13 -35.5 -36t-13.5 -48
q0 -66 89 -66q66 0 122.5 34.5t66.5 80.5z" />
    <glyph glyph-name="aacute" unicode="&#xe1;" 
d="M458 740h112l-180 -148h-60zM552 51l-13 -65q-2 0 -5.5 -1t-5.5 -1.5t-3 -0.5q-24 -6 -39 -6q-36 0 -56 17.5t-20 48.5v4v7q-51 -44 -88 -57q-57 -20 -113 -20q-67 0 -105.5 34t-38.5 94q0 92 82 144q37 23 81 33.5t144 19.5q55 5 74.5 16.5t26.5 42.5l3 18q2 16 2 19
q0 28 -30 46t-76 18q-72 0 -107 -37q-18 -18 -30 -56h-84q14 83 76 126.5t167 43.5q79 0 126.5 -31t47.5 -82q0 -11 -6 -37l-64 -301q-1 -3 -1 -10q0 -29 38 -29q8 0 17 2zM431 164l20 94q-44 -15 -147 -29q-68 -10 -102 -30q-22 -13 -35.5 -36t-13.5 -48q0 -66 89 -66
q66 0 122.5 34.5t66.5 80.5z" />
    <glyph glyph-name="acircumflex" unicode="&#xe2;" 
d="M393 741h95l64 -150h-63l-56 99l-104 -99h-64zM552 51l-13 -65q-2 0 -5.5 -1t-5.5 -1.5t-3 -0.5q-24 -6 -39 -6q-36 0 -56 17.5t-20 48.5v4v7q-51 -44 -88 -57q-57 -20 -113 -20q-67 0 -105.5 34t-38.5 94q0 92 82 144q37 23 81 33.5t144 19.5q55 5 74.5 16.5t26.5 42.5
l3 18q2 16 2 19q0 28 -30 46t-76 18q-72 0 -107 -37q-18 -18 -30 -56h-84q14 83 76 126.5t167 43.5q79 0 126.5 -31t47.5 -82q0 -10 -6 -37l-64 -301q-1 -3 -1 -10q0 -29 38 -29q8 0 17 2zM431 164l20 94q-44 -15 -147 -29q-68 -10 -102 -30q-22 -13 -35.5 -36t-13.5 -48
q0 -66 89 -66q66 0 122.5 34.5t66.5 80.5z" />
    <glyph glyph-name="atilde" unicode="&#xe3;" 
d="M552 51l-13 -65q-2 0 -5.5 -1t-5.5 -1.5t-3 -0.5q-24 -6 -39 -6q-36 0 -56 17.5t-20 48.5v4v7q-51 -44 -88 -57q-57 -20 -113 -20q-67 0 -105.5 34t-38.5 94q0 92 82 144q37 23 81 33.5t144 19.5q55 5 74.5 16.5t26.5 42.5l3 18q2 14 2 19q0 28 -30 46t-76 18
q-72 0 -107 -37q-18 -18 -30 -56h-84q14 83 76 126.5t167 43.5q79 0 126.5 -31t47.5 -82q0 -11 -6 -37l-64 -301q-1 -3 -1 -10q0 -29 38 -29q8 0 17 2zM431 164l20 94q-43 -15 -147 -29q-68 -10 -102 -30q-22 -13 -35.5 -36t-13.5 -48q0 -66 89 -66q66 0 122.5 34.5
t66.5 80.5zM530 719h53q-15 -48 -44.5 -77.5t-63.5 -29.5q-27 0 -103 26q-15 6 -27 6q-17 0 -26 -6t-24 -27h-53q15 46 32 67q29 36 72 36q22 0 73 -17q43 -15 63 -15q26 0 48 37z" />
    <glyph glyph-name="adieresis" unicode="&#xe4;" 
d="M403 715l-22 -103h-104l22 103h104zM564 715l-22 -103h-104l22 103h104zM552 51l-13 -65q-2 0 -5.5 -1t-5.5 -1.5t-3 -0.5q-24 -6 -39 -6q-36 0 -56 17.5t-20 48.5v4v7q-51 -44 -88 -57q-57 -20 -113 -20q-67 0 -105.5 34t-38.5 94q0 92 82 144q37 23 81 33.5t144 19.5
q55 5 74.5 16.5t26.5 42.5l3 18q2 16 2 19q0 28 -30 46t-76 18q-72 0 -107 -37q-18 -18 -30 -56h-84q14 83 76 126.5t167 43.5q79 0 126.5 -31t47.5 -82q0 -10 -6 -37l-64 -301q-1 -3 -1 -10q0 -29 38 -29q8 0 17 2zM431 164l20 94q-44 -15 -147 -29q-68 -10 -102 -30
q-22 -13 -35.5 -36t-13.5 -48q0 -66 89 -66q66 0 122.5 34.5t66.5 80.5z" />
    <glyph glyph-name="aring" unicode="&#xe5;" 
d="M552 51l-13 -65q-2 0 -5.5 -1t-5.5 -1.5t-3 -0.5q-24 -6 -39 -6q-36 0 -56 17.5t-20 48.5v4v7q-51 -44 -88 -57q-57 -20 -113 -20q-67 0 -105.5 34t-38.5 94q0 92 82 144q37 23 81 33.5t144 19.5q55 5 74.5 16.5t26.5 42.5l3 18q2 16 2 19q0 28 -30 46t-76 18
q-72 0 -107 -37q-18 -18 -30 -56h-84q14 83 76 126.5t167 43.5q79 0 126.5 -31t47.5 -82q0 -11 -6 -37l-64 -301q-1 -3 -1 -10q0 -29 38 -29q8 0 17 2zM431 164l20 94q-44 -15 -147 -29q-68 -10 -102 -30q-22 -13 -35.5 -36t-13.5 -48q0 -66 89 -66q66 0 122.5 34.5
t66.5 80.5zM441 754q31 0 51.5 -19t20.5 -48q0 -43 -33 -75.5t-76 -32.5q-30 0 -50.5 20t-20.5 50q0 40 33.5 72.5t74.5 32.5zM433 710q-20 0 -37 -16t-17 -36q0 -16 9.5 -25.5t25.5 -9.5q21 0 37.5 16t16.5 36q0 16 -9.5 25.5t-25.5 9.5z" />
    <glyph glyph-name="ae" unicode="&#xe6;" horiz-adv-x="889" 
d="M225 369h-84q21 77 53 109q64 61 193 61q87 0 135 -40q21 -18 24 -25q73 65 182 65q77 0 132 -49.5t55 -119.5q0 -42 -17 -136h-386q-5 -21 -5 -53v-12v-6q0 -48 43 -84q29 -25 82 -25q100 0 155 105h84q-24 -82 -94 -132t-161 -50q-117 0 -174 102q-105 -102 -241 -102
q-65 0 -103.5 34.5t-38.5 93.5q0 43 22 81.5t60 62.5q38 23 81.5 33t140.5 18q54 5 73 17t27 44l5 25q2 14 2 19q0 27 -27.5 42t-76.5 15q-59 0 -92 -22t-49 -71zM421 164l20 93q-27 -10 -47 -13.5t-95 -14.5q-70 -9 -103 -30q-49 -31 -49 -84q0 -66 90 -66q63 0 118.5 35
t65.5 80zM530 306h294q3 22 3 33q0 57 -30.5 90t-83.5 33q-63 0 -111.5 -41t-71.5 -115z" />
    <glyph glyph-name="ccedilla" unicode="&#xe7;" horiz-adv-x="500" 
d="M271 -23l-18 -33q13 2 21 2q28 0 47.5 -15t19.5 -36q0 -48 -40.5 -78.5t-104.5 -30.5q-51 0 -118 34l28 38q54 -29 94 -29q28 0 45.5 15.5t17.5 39.5q0 9 -9 15.5t-22 6.5q-6 0 -16 -2q-6 -1 -11 -2l-13 6l38 70q-35 7 -54 15.5t-37 25.5q-63 58 -63 151q0 69 23 142.5
t58 119.5q82 107 224 107q83 0 129 -47q44 -46 44 -99q0 -1 -0.5 -5t-1 -11.5t-0.5 -13.5l-1 -15h-84q1 9 1 22q0 43 -27.5 67.5t-74.5 24.5q-91 0 -148 -89q-54 -85 -54 -192q0 -58 30.5 -92.5t82.5 -34.5q111 0 157 126h84q-24 -97 -87 -148.5t-160 -54.5z" />
    <glyph glyph-name="egrave" unicode="&#xe8;" 
d="M384 740l72 -148h-54l-124 148h106zM563 234h-386q-5 -19 -5 -47q0 -63 32.5 -98t91.5 -35q101 0 156 105h84q-23 -81 -93.5 -131.5t-160.5 -50.5q-85 0 -136 50q-62 60 -62 146q0 61 24.5 136t59.5 122q38 50 97 79t124 29q81 0 136 -49.5t55 -122.5q0 -42 -17 -133z
M195 306h294q3 24 3 33q0 56 -31.5 89.5t-84.5 33.5q-61 0 -111 -43.5t-70 -112.5z" />
    <glyph glyph-name="eacute" unicode="&#xe9;" 
d="M468 740h112l-180 -148h-60zM563 234h-386q-5 -19 -5 -47q0 -63 32.5 -98t91.5 -35q101 0 156 105h84q-23 -81 -93.5 -131.5t-160.5 -50.5q-85 0 -136 50q-62 60 -62 146q0 61 24.5 136t59.5 122q38 50 97 79t124 29q81 0 136 -49.5t55 -122.5q0 -42 -17 -133zM195 306
h294q3 24 3 33q0 56 -31.5 89.5t-84.5 33.5q-61 0 -111 -43.5t-70 -112.5z" />
    <glyph glyph-name="ecircumflex" unicode="&#xea;" 
d="M389 741h94l65 -150h-64l-56 99l-103 -99h-64zM563 234h-386q-5 -19 -5 -47q0 -63 32.5 -98t91.5 -35q101 0 156 105h84q-23 -81 -93.5 -131.5t-160.5 -50.5q-85 0 -136 50q-62 60 -62 146q0 61 24.5 136t59.5 122q38 50 97 79t124 29q81 0 136 -49.5t55 -122.5
q0 -42 -17 -133zM195 306h294q3 24 3 33q0 56 -31.5 89.5t-84.5 33.5q-61 0 -111 -43.5t-70 -112.5z" />
    <glyph glyph-name="edieresis" unicode="&#xeb;" 
d="M400 715l-23 -103h-103l22 103h104zM561 715l-23 -103h-103l22 103h104zM563 234h-386q-5 -19 -5 -47q0 -63 32.5 -98t91.5 -35q101 0 156 105h84q-23 -81 -93.5 -131.5t-160.5 -50.5q-85 0 -136 50q-62 60 -62 146q0 61 24.5 136t59.5 122q38 50 97 79t124 29
q81 0 136 -49.5t55 -122.5q0 -42 -17 -133zM195 306h294q3 24 3 33q0 56 -31.5 89.5t-84.5 33.5q-61 0 -111 -43.5t-70 -112.5z" />
    <glyph glyph-name="igrave" unicode="&#xec;" horiz-adv-x="278" 
d="M290 527l-112 -527h-84l112 527h84zM258 740l72 -148h-53l-125 148h106z" />
    <glyph glyph-name="iacute" unicode="&#xed;" horiz-adv-x="278" 
d="M290 527l-112 -527h-84l112 527h84zM319 740h112l-180 -148h-60z" />
    <glyph glyph-name="icircumflex" unicode="&#xee;" horiz-adv-x="278" 
d="M290 527l-112 -527h-84l112 527h84zM247 741h95l64 -150h-63l-56 99l-104 -99h-64z" />
    <glyph glyph-name="idieresis" unicode="&#xef;" horiz-adv-x="278" 
d="M290 527l-112 -527h-84l112 527h84zM258 708l-22 -103h-104l22 103h104zM419 708l-22 -103h-104l22 103h104z" />
    <glyph glyph-name="eth" unicode="&#xf0;" 
d="M251 564l-32 39l89 41q-16 15 -20 17l-27 18q-8 4 -28 19l42 45q16 -10 22 -14q25 -14 35 -22q30 -21 37 -26q1 0 8 -5l99 43l39 -38l-95 -41q156 -134 156 -293q0 -62 -22.5 -135t-56.5 -119q-82 -116 -224 -116q-87 0 -138 49q-55 55 -55 138q0 64 22 137t56 122
q36 52 91.5 81.5t119.5 29.5q32 0 66 -17q-38 50 -84 92zM371 462q-103 0 -159 -105q-44 -81 -44 -173q0 -61 31 -95.5t84 -34.5q103 0 161 105q44 79 44 174q0 61 -30.5 95t-86.5 34z" />
    <glyph glyph-name="ntilde" unicode="&#xf1;" 
d="M181 524h76l-13 -65q78 80 194 80q62 0 99 -34t37 -91q0 -21 -4 -38l-80 -376h-84l74 349q6 26 6 37q0 35 -25 58t-62 23q-67 0 -116.5 -47.5t-67.5 -130.5l-61 -289h-84zM535 719h54q-16 -48 -45.5 -77.5t-62.5 -29.5q-27 0 -104 26q-15 6 -26 6q-17 0 -25.5 -5.5
t-24.5 -27.5h-53q15 45 31 67q29 36 73 36q21 0 72 -17q43 -15 64 -15q14 0 23.5 7.5t23.5 29.5z" />
    <glyph glyph-name="ograve" unicode="&#xf2;" 
d="M380 740l72 -148h-54l-124 148h106zM384 539q87 0 137 -49q55 -53 55 -138q0 -65 -22.5 -138.5t-56.5 -120.5q-84 -116 -228 -116q-84 0 -136.5 52t-52.5 135q0 64 22 137.5t56 121.5q38 55 97 85.5t129 30.5zM371 462q-103 0 -159 -105q-44 -81 -44 -173q0 -61 31 -95.5
t84 -34.5q103 0 161 105q44 79 44 174q0 61 -31 95t-86 34z" />
    <glyph glyph-name="oacute" unicode="&#xf3;" 
d="M464 740h112l-180 -148h-60zM384 539q87 0 137 -49q55 -53 55 -138q0 -65 -22.5 -138.5t-56.5 -120.5q-84 -116 -228 -116q-84 0 -136.5 52t-52.5 135q0 64 22 137.5t56 121.5q38 55 97 85.5t129 30.5zM371 462q-103 0 -159 -105q-44 -81 -44 -173q0 -61 31 -95.5
t84 -34.5q103 0 161 105q44 79 44 174q0 61 -31 95t-86 34z" />
    <glyph glyph-name="ocircumflex" unicode="&#xf4;" 
d="M383 741h94l65 -150h-64l-56 99l-103 -99h-64zM384 539q87 0 137 -49q55 -53 55 -138q0 -65 -22.5 -138.5t-56.5 -120.5q-84 -116 -228 -116q-84 0 -136.5 52t-52.5 135q0 64 22 137.5t56 121.5q38 55 97 85.5t129 30.5zM371 462q-103 0 -159 -105q-44 -81 -44 -173
q0 -61 31 -95.5t84 -34.5q103 0 161 105q44 79 44 174q0 61 -31 95t-86 34z" />
    <glyph glyph-name="otilde" unicode="&#xf5;" 
d="M384 539q88 0 137 -49q55 -52 55 -138q0 -65 -22.5 -138.5t-56.5 -120.5q-84 -116 -228 -116q-84 0 -136.5 52t-52.5 135q0 64 22 137.5t56 121.5q38 55 97 85.5t129 30.5zM371 462q-103 0 -159 -105q-44 -81 -44 -173q0 -61 31 -95.5t84 -34.5q103 0 161 105
q44 79 44 174q0 61 -31 95t-86 34zM530 719h53q-15 -48 -44.5 -77.5t-63.5 -29.5q-27 0 -103 26q-17 6 -27 6q-17 0 -25.5 -5.5t-24.5 -27.5h-53q17 48 32 67q29 36 72 36q22 0 73 -17q47 -15 63 -15q15 0 24.5 7.5t23.5 29.5z" />
    <glyph glyph-name="odieresis" unicode="&#xf6;" 
d="M395 715l-23 -103h-103l22 103h104zM556 715l-23 -103h-103l22 103h104zM384 539q87 0 137 -49q55 -53 55 -138q0 -65 -22.5 -138.5t-56.5 -120.5q-84 -116 -228 -116q-84 0 -136.5 52t-52.5 135q0 64 22 137.5t56 121.5q38 55 97 85.5t129 30.5zM371 462
q-103 0 -159 -105q-44 -81 -44 -173q0 -61 31 -95.5t84 -34.5q103 0 161 105q44 79 44 174q0 61 -31 95t-86 34z" />
    <glyph glyph-name="divide" unicode="&#xf7;" horiz-adv-x="584" 
d="M591 269l-15 -72h-484l15 72h484zM305 104q22 0 37 -15.5t15 -37.5q0 -21 -15.5 -36t-36.5 -15q-22 0 -37 15t-15 37t15 37t37 15zM379 462q22 0 37 -15.5t15 -37.5q0 -21 -15.5 -36t-36.5 -15q-22 0 -37 15t-15 37t15 37t37 15z" />
    <glyph glyph-name="oslash" unicode="&#xf8;" horiz-adv-x="611" 
d="M19 -2l83 76q-21 45 -21 90q0 64 22 137t56 122q79 116 224 116q105 0 154 -67l76 69l26 -30l-81 -74q19 -42 19 -83q0 -67 -22 -140t-57 -121q-84 -116 -224 -116q-105 0 -151 64l-78 -71zM175 141l295 269q-29 52 -101 52q-100 0 -156 -105q-44 -80 -44 -177
q0 -21 6 -39zM484 370l-294 -268q29 -48 99 -48q48 0 89 27.5t68 77.5q18 34 30.5 83.5t12.5 85.5q0 17 -5 42z" />
    <glyph glyph-name="ugrave" unicode="&#xf9;" 
d="M376 740l72 -148h-53l-125 148h106zM483 0h-76l12 57q-83 -80 -193 -80q-65 0 -101.5 29t-36.5 80q0 19 3 34l86 404h84l-79 -371q-3 -13 -3 -27q0 -36 24 -56.5t65 -20.5q64 0 113 48.5t66 129.5l63 297h84z" />
    <glyph glyph-name="uacute" unicode="&#xfa;" 
d="M463 740h112l-180 -148h-60zM483 0h-76l12 57q-83 -80 -193 -80q-65 0 -101.5 29t-36.5 80q0 19 3 34l86 404h84l-79 -371q-3 -13 -3 -27q0 -36 24 -56.5t65 -20.5q64 0 113 48.5t66 129.5l63 297h84z" />
    <glyph glyph-name="ucircumflex" unicode="&#xfb;" 
d="M380 741h94l65 -150h-64l-56 99l-103 -99h-64zM483 0h-76l12 57q-83 -80 -193 -80q-65 0 -101.5 29t-36.5 80q0 19 3 34l86 404h84l-79 -371q-3 -13 -3 -27q0 -36 24 -56.5t65 -20.5q64 0 113 48.5t66 129.5l63 297h84z" />
    <glyph glyph-name="udieresis" unicode="&#xfc;" 
d="M394 715l-23 -103h-103l22 103h104zM555 715l-23 -103h-103l22 103h104zM483 0h-76l12 57q-83 -80 -193 -80q-65 0 -101.5 29t-36.5 80q0 19 3 34l86 404h84l-79 -371q-3 -13 -3 -27q0 -36 24 -56.5t65 -20.5q64 0 113 48.5t66 129.5l63 297h84z" />
    <glyph glyph-name="yacute" unicode="&#xfd;" horiz-adv-x="500" 
d="M501 524h89l-368 -634q-63 -108 -164 -108q-28 0 -50 10l16 75q3 -1 10 -1.5t15 -1.5h10h12q28 1 44 11.5t33 39.5l52 81l-68 528h90l46 -407zM434 740h112l-180 -148h-60z" />
    <glyph glyph-name="thorn" unicode="&#xfe;" 
d="M7 -213l200 942h84l-61 -289q22 43 73.5 71t108.5 28q80 0 127 -52.5t47 -142.5q0 -74 -23.5 -146.5t-64.5 -122.5q-81 -98 -204 -98q-53 0 -86.5 21t-56.5 70l-60 -281h-84zM379 462q-93 0 -149 -101q-47 -81 -47 -177q0 -60 32 -95t87 -35q97 0 152 101q44 81 44 169
q0 65 -31.5 101.5t-87.5 36.5z" />
    <glyph glyph-name="ydieresis" unicode="&#xff;" horiz-adv-x="500" 
d="M501 524h89l-368 -634q-63 -108 -164 -108q-28 0 -50 10l16 75q3 -1 10 -1.5t15 -1.5h10h12q28 1 44 11.5t33 39.5l52 81l-68 528h90l46 -407zM372 715l-23 -103h-103l22 103h104zM533 715l-23 -103h-103l22 103h104z" />
    <glyph glyph-name="Amacron" unicode="&#x100;" horiz-adv-x="667" 
d="M524 219h-285l-123 -219h-99l415 729h120l101 -729h-102zM514 297l-40 333l-191 -333h231zM663 895l-16 -69h-274l16 69h274z" />
    <glyph glyph-name="amacron" unicode="&#x101;" 
d="M552 51l-13 -65q-2 0 -5.5 -1t-5.5 -1.5t-3 -0.5q-24 -6 -39 -6q-36 0 -56 17.5t-20 48.5v4v7q-51 -44 -88 -57q-57 -20 -113 -20q-67 0 -105.5 34t-38.5 94q0 92 82 144q37 23 81 33.5t144 19.5q55 5 74.5 16.5t26.5 42.5l3 18q2 14 2 19q0 28 -30 46t-76 18
q-72 0 -107 -37q-18 -18 -30 -56h-84q14 83 76 126.5t167 43.5q79 0 126.5 -31t47.5 -82q0 -11 -6 -37l-64 -301q-1 -3 -1 -10q0 -29 38 -29q8 0 17 2zM431 164l20 94q-43 -15 -147 -29q-68 -10 -102 -30q-22 -13 -35.5 -36t-13.5 -48q0 -66 89 -66q66 0 122.5 34.5
t66.5 80.5zM566 696l-15 -69h-274l15 69h274z" />
    <glyph glyph-name="Abreve" unicode="&#x102;" horiz-adv-x="667" 
d="M524 219h-285l-123 -219h-99l415 729h120l101 -729h-102zM514 297l-40 333l-191 -333h231zM382 928h53v-8v-5q0 -22 22.5 -36t59.5 -14q94 0 110 63h56q-15 -59 -46 -86q-54 -49 -133 -49q-56 0 -91.5 27.5t-35.5 71.5q0 14 5 36z" />
    <glyph glyph-name="abreve" unicode="&#x103;" 
d="M552 51l-13 -65q-2 0 -5.5 -1t-5.5 -1.5t-3 -0.5q-24 -6 -39 -6q-36 0 -56 17.5t-20 48.5v4v7q-51 -44 -88 -57q-57 -20 -113 -20q-67 0 -105.5 34t-38.5 94q0 92 82 144q37 23 81 33.5t144 19.5q55 5 74.5 16.5t26.5 42.5l3 18q2 16 2 19q0 28 -30 46t-76 18
q-72 0 -107 -37q-18 -18 -30 -56h-84q14 83 76 126.5t167 43.5q79 0 126.5 -31t47.5 -82q0 -11 -6 -37l-64 -301q-1 -3 -1 -10q0 -29 38 -29q8 0 17 2zM431 164l20 94q-44 -15 -147 -29q-68 -10 -102 -30q-22 -13 -35.5 -36t-13.5 -48q0 -66 89 -66q66 0 122.5 34.5
t66.5 80.5zM282 729h53q-3 -63 81 -63q94 0 111 63h56q-16 -59 -47 -86q-52 -49 -132 -49q-56 0 -91.5 27.5t-35.5 71.5q0 13 5 36z" />
    <glyph glyph-name="Aogonek" unicode="&#x104;" horiz-adv-x="667" 
d="M524 219h-298l-110 -219h-99l415 729h120l101 -729q-67 -29 -96.5 -56.5t-29.5 -59.5q0 -20 18.5 -32t49.5 -12q38 0 68 10l-9 -45q-47 -10 -72 -10q-60 0 -95 20t-35 55q0 56 57 95q27 19 73 35h-31zM514 297l-40 333l-191 -333h231z" />
    <glyph glyph-name="aogonek" unicode="&#x105;" 
d="M552 51l-13 -65q-41 -10 -72.5 -40.5t-31.5 -61.5q0 -20 18.5 -32t49.5 -12q38 0 68 10l-9 -45q-46 -10 -72 -10q-62 0 -96 20t-34 57q0 34 21 57.5t74 51.5q-20 5 -32.5 21.5t-12.5 40.5v4v7q-49 -43 -88 -57q-57 -20 -114 -20q-67 0 -105 34t-38 94q0 92 82 144
q37 23 81 33.5t144 19.5q55 5 74.5 16.5t26.5 42.5l3 18q2 16 2 19q0 28 -30.5 46t-75.5 18q-72 0 -107 -37q-18 -18 -30 -56h-84q14 83 76 126.5t167 43.5q79 0 126.5 -31t47.5 -82q0 -10 -6 -37l-64 -301q-1 -3 -1 -10q0 -29 38 -29q8 0 17 2zM431 164l20 94
q-43 -15 -146 -29q-71 -10 -103 -30q-22 -13 -35.5 -36t-13.5 -48q0 -32 23 -49t66 -17q66 0 122.5 34.5t66.5 80.5z" />
    <glyph glyph-name="Cacute" unicode="&#x106;" horiz-adv-x="722" 
d="M770 503h-96q-6 81 -44.5 119t-114.5 38q-136 0 -226 -133q-81 -121 -81 -267q0 -91 47.5 -146.5t125.5 -55.5q59 0 112.5 26t84.5 70q25 35 59 112h98q-49 -118 -105 -179q-101 -110 -263 -110q-131 0 -198 85q-57 72 -57 180q0 94 34.5 190.5t93.5 167.5
q117 141 292 141q143 0 206 -107q28 -50 32 -131zM621 939h112l-180 -148h-60z" />
    <glyph glyph-name="cacute" unicode="&#x107;" horiz-adv-x="500" 
d="M551 348h-84q1 9 1 22q0 43 -27.5 67.5t-74.5 24.5q-91 0 -148 -89q-54 -85 -54 -192q0 -58 30.5 -92.5t82.5 -34.5q111 0 157 126h84q-23 -79 -58 -120q-71 -83 -197 -83q-94 0 -143 62q-44 55 -44 131q0 69 23 142.5t58 119.5q82 107 224 107q83 0 129 -47
q44 -46 44 -99q0 -1 -0.5 -5t-1 -11.5t-0.5 -13.5zM463 740h112l-180 -148h-60z" />
    <glyph glyph-name="Ccircumflex" unicode="&#x108;" horiz-adv-x="722" 
d="M770 503h-96q-6 81 -44.5 119t-114.5 38q-136 0 -226 -133q-81 -121 -81 -267q0 -91 47.5 -146.5t125.5 -55.5q59 0 112.5 26t84.5 70q25 35 59 112h98q-49 -118 -105 -179q-101 -110 -263 -110q-131 0 -198 85q-57 72 -57 180q0 94 34.5 190.5t93.5 167.5
q117 141 292 141q143 0 206 -107q28 -50 32 -131zM513 940h95l64 -150h-63l-56 99l-104 -99h-64z" />
    <glyph glyph-name="ccircumflex" unicode="&#x109;" horiz-adv-x="500" 
d="M551 348h-84q1 9 1 22q0 43 -27.5 67.5t-74.5 24.5q-91 0 -148 -89q-54 -85 -54 -192q0 -59 30.5 -93t82.5 -34q111 0 157 126h84q-23 -79 -58 -120q-71 -83 -197 -83q-94 0 -143 62q-44 55 -44 131q0 69 23 142.5t58 119.5q82 107 224 107q83 0 129 -47q44 -46 44 -100
q0 -1 -0.5 -5t-1 -11t-0.5 -13zM371 741h95l64 -150h-63l-56 99l-104 -99h-64z" />
    <glyph glyph-name="Cdotaccent" unicode="&#x10a;" horiz-adv-x="722" 
d="M769 503h-96q1 7 1 18q0 79 -46 109q-42 29 -116 29q-135 0 -225 -132q-81 -119 -81 -275q0 -106 59 -153q49 -40 124 -40q119 0 191 95q28 37 58 112h95q-48 -150 -135 -219.5t-226 -69.5q-133 0 -201 88q-58 77 -58 190q0 89 33.5 183t90.5 165q109 138 300 138
q113 0 172.5 -57.5t59.5 -166.5v-14zM629 915l-23 -104h-104l23 104h104z" />
    <glyph glyph-name="cdotaccent" unicode="&#x10b;" horiz-adv-x="500" 
d="M551 348h-84q1 9 1 22q0 43 -27.5 67.5t-74.5 24.5q-91 0 -148 -89q-54 -85 -54 -192q0 -58 30.5 -92.5t82.5 -34.5q111 0 157 126h84q-23 -79 -58 -120q-71 -83 -197 -83q-94 0 -143 62q-44 55 -44 131q0 69 23 142.5t58 119.5q82 107 224 107q83 0 129 -47
q44 -46 44 -99q0 -1 -0.5 -5t-1 -11.5t-0.5 -13.5zM471 715l-22 -103h-104l22 103h104z" />
    <glyph glyph-name="Ccaron" unicode="&#x10c;" horiz-adv-x="722" 
d="M770 503h-96q-6 81 -44.5 119t-114.5 38q-136 0 -226 -133q-81 -121 -81 -267q0 -91 47.5 -146.5t125.5 -55.5q59 0 112.5 26t84.5 70q25 35 59 112h98q-49 -118 -105 -179q-101 -110 -263 -110q-131 0 -198 85q-57 72 -57 180q0 94 34.5 190.5t93.5 167.5
q117 141 292 141q143 0 206 -107q28 -50 32 -131zM596 791h-95l-64 148h63l56 -98l104 98h64z" />
    <glyph glyph-name="ccaron" unicode="&#x10d;" horiz-adv-x="500" 
d="M551 348h-84q1 9 1 22q0 43 -27.5 67.5t-74.5 24.5q-91 0 -148 -89q-54 -85 -54 -192q0 -58 30.5 -92.5t82.5 -34.5q111 0 157 126h84q-23 -79 -58 -120q-71 -83 -197 -83q-94 0 -143 62q-44 55 -44 131q0 69 23 142.5t58 119.5q82 107 224 107q83 0 129 -47
q44 -46 44 -99q0 -1 -0.5 -5t-1 -11.5t-0.5 -13.5zM435 592h-95l-64 148h63l56 -98l104 98h64z" />
    <glyph glyph-name="Dcaron" unicode="&#x10e;" horiz-adv-x="722" 
d="M89 0l155 729h282q98 0 156 -52q35 -31 56 -82.5t21 -106.5q0 -93 -32.5 -192t-83.5 -162q-110 -134 -272 -134h-282zM200 82h172q141 0 219 123q31 47 51.5 126.5t20.5 148.5q0 79 -45.5 123t-125.5 44h-171zM536 791h-95l-64 148h63l56 -98l104 98h64z" />
    <glyph glyph-name="dcaron" unicode="&#x10f;" horiz-adv-x="643" 
d="M646 729l-155 -729h-81l16 76q-19 -38 -57 -61q-61 -38 -129 -38q-78 0 -124.5 52.5t-46.5 140.5q0 158 83 263.5t207 105.5q53 0 86 -21t57 -70l60 281h84zM351 462q-94 0 -150 -101q-44 -80 -44 -171q0 -65 31 -100.5t86 -35.5q90 0 149 101q46 80 46 172
q0 64 -31 99.5t-87 35.5zM706 729h100l-20 -93q-13 -61 -47 -96t-81 -35l8 38q58 0 74 88h-55z" />
    <glyph glyph-name="Dcroat" unicode="&#x110;" horiz-adv-x="722" 
d="M161 341h-68l13 67h70l68 321h282q98 0 156 -52q35 -31 56 -82.5t21 -106.5q0 -93 -32.5 -192t-83.5 -162q-110 -134 -272 -134h-282zM255 341l-55 -259h172q141 0 219 123q30 48 51 127t21 148q0 79 -45.5 123t-125.5 44h-171l-51 -239h166l-14 -67h-167z" />
    <glyph glyph-name="dcroat" unicode="&#x111;" 
d="M550 653l16 76h84l-16 -76h61l-11 -53h-62l-127 -600h-81l16 76q-19 -38 -57 -61q-61 -38 -129 -38q-78 0 -124.5 52.5t-46.5 140.5q0 158 83 263.5t207 105.5q53 0 86 -21t57 -70l32 152h-150l12 53h150zM355 462q-94 0 -150 -101q-44 -80 -44 -171q0 -65 31 -100.5
t86 -35.5q90 0 149 101q46 80 46 172q0 64 -31 99.5t-87 35.5z" />
    <glyph glyph-name="Emacron" unicode="&#x112;" horiz-adv-x="667" 
d="M255 332l-54 -250h429l-17 -82h-523l155 729h506l-17 -82h-412l-50 -233h396l-18 -82h-395zM666 895l-15 -69h-274l15 69h274z" />
    <glyph glyph-name="emacron" unicode="&#x113;" 
d="M563 234h-386q-5 -19 -5 -47q0 -63 32.5 -98t91.5 -35q101 0 156 105h84q-23 -81 -93.5 -131.5t-160.5 -50.5q-85 0 -136 50q-62 60 -62 146q0 61 24.5 136t59.5 122q38 50 97 79t124 29q81 0 136 -49.5t55 -122.5q0 -42 -17 -133zM195 306h294q3 24 3 33
q0 56 -31.5 89.5t-84.5 33.5q-61 0 -111 -43.5t-70 -112.5zM562 696l-15 -69h-274l15 69h274z" />
    <glyph glyph-name="Ebreve" unicode="&#x114;" horiz-adv-x="667" 
d="M255 332l-54 -250h429l-17 -82h-523l155 729h506l-17 -82h-412l-50 -233h396l-18 -82h-395zM384 928h53v-8v-5q0 -23 22 -36.5t59 -13.5q95 0 111 63h56q-14 -57 -46 -86q-54 -49 -133 -49q-56 0 -91.5 27.5t-35.5 71.5q0 14 5 36z" />
    <glyph glyph-name="ebreve" unicode="&#x115;" 
d="M563 234h-386q-5 -19 -5 -46q0 -64 32.5 -99t91.5 -35q101 0 156 105h84q-23 -81 -93.5 -131.5t-160.5 -50.5q-85 0 -136 50q-62 60 -62 146q0 61 24.5 136t59.5 122q38 50 97 79t124 29q81 0 136 -49t55 -122q0 -39 -17 -134zM195 306h294q3 24 3 33q0 56 -31.5 89.5
t-84.5 33.5q-61 0 -111 -43.5t-70 -112.5zM285 729h53v-8v-5q0 -23 22.5 -36.5t59.5 -13.5q94 0 110 63h56q-15 -59 -46 -86q-54 -49 -133 -49q-56 0 -91.5 27.5t-35.5 71.5q0 13 5 36z" />
    <glyph glyph-name="Edotaccent" unicode="&#x116;" horiz-adv-x="667" 
d="M255 332l-54 -250h429l-17 -82h-523l155 729h506l-17 -82h-412l-50 -233h396l-18 -82h-395zM585 914l-22 -103h-104l22 103h104z" />
    <glyph glyph-name="edotaccent" unicode="&#x117;" 
d="M563 234h-386q-5 -19 -5 -47q0 -63 32.5 -98t91.5 -35q101 0 156 105h84q-23 -81 -93.5 -131.5t-160.5 -50.5q-85 0 -136 50q-62 60 -62 146q0 61 24.5 136t59.5 122q38 50 97 79t124 29q81 0 136 -49.5t55 -122.5q0 -42 -17 -133zM195 306h294q3 24 3 33
q0 56 -31.5 89.5t-84.5 33.5q-61 0 -111 -43.5t-70 -112.5zM482 715l-22 -103h-104l22 103h104z" />
    <glyph glyph-name="Eogonek" unicode="&#x118;" horiz-adv-x="667" 
d="M255 332l-54 -250h429l-17 -82q-71 -34 -92 -52q-34 -32 -34 -64q0 -20 18.5 -32t49.5 -12q38 0 68 10l-9 -45q-47 -10 -72 -10q-60 0 -95 20t-35 55q0 56 57 95q23 16 73 35h-452l155 729h506l-17 -82h-412l-50 -233h396l-18 -82h-395z" />
    <glyph glyph-name="eogonek" unicode="&#x119;" 
d="M464 -150l-9 -45q-30 -10 -68 -10q-60 0 -98 19q-36 18 -36 59q0 31 20.5 55.5t72.5 55.5q-36 -7 -66 -7q-83 0 -134 50q-62 60 -62 146q0 61 24.5 136t59.5 122q38 50 97 79t124 29q81 0 136 -49t55 -122q0 -39 -17 -134h-386q-5 -19 -5 -46q0 -64 32.5 -99t91.5 -35
q101 0 156 105h84q-13 -45 -45 -84.5t-96 -88.5q-31 -24 -49.5 -51.5t-18.5 -48.5q0 -20 18.5 -33t48.5 -13q44 0 70 10zM195 306h294q3 24 3 33q0 56 -31.5 89.5t-84.5 33.5q-61 0 -111 -43.5t-70 -112.5z" />
    <glyph glyph-name="Ecaron" unicode="&#x11a;" horiz-adv-x="667" 
d="M255 332l-54 -250h429l-17 -82h-523l155 729h506l-17 -82h-412l-50 -233h396l-18 -82h-395zM555 791h-95l-64 148h63l56 -98l104 98h64z" />
    <glyph glyph-name="ecaron" unicode="&#x11b;" 
d="M563 234h-386q-5 -19 -5 -47q0 -63 32.5 -98t91.5 -35q101 0 156 105h84q-23 -81 -93.5 -131.5t-160.5 -50.5q-85 0 -136 50q-62 60 -62 146q0 61 24.5 136t59.5 122q38 50 97 79t124 29q81 0 136 -49.5t55 -122.5q0 -42 -17 -133zM195 306h294q3 24 3 33
q0 56 -31.5 89.5t-84.5 33.5q-61 0 -111 -43.5t-70 -112.5zM450 592h-95l-64 148h63l56 -98l104 98h64z" />
    <glyph glyph-name="Gcircumflex" unicode="&#x11c;" horiz-adv-x="778" 
d="M793 385l-83 -389h-59l-4 90q-49 -41 -81 -60q-85 -49 -188 -49q-108 0 -179 58q-42 34 -66 94.5t-24 131.5q0 97 41 193.5t113 168.5q118 118 292 118q118 0 186 -58t68 -158v-6v-4v-7h-91q-1 63 -37 100q-50 52 -144 52q-150 0 -244 -122q-40 -53 -64 -124t-24 -137
q0 -91 37 -145q23 -34 68 -54t101 -20q101 0 181 65q74 61 95 154l6 26h-222l18 82h304zM533 940h95l64 -150h-63l-56 99l-104 -99h-64z" />
    <glyph glyph-name="gcircumflex" unicode="&#x11d;" 
d="M525 524h76l-93 -439q-20 -95 -43 -147.5t-61 -88.5q-70 -67 -195 -67q-81 0 -129 34.5t-48 92.5q0 1 0.5 5t1 11t0.5 15h84v-8v-6q0 -34 28.5 -53t79.5 -19q80 0 123.5 44t65.5 146l4 19q-77 -80 -172 -80q-76 0 -124.5 51.5t-48.5 133.5q0 70 25.5 145.5t65.5 125.5
q37 46 91.5 73t112.5 27q51 0 92 -30q27 -20 47 -63zM363 462q-99 0 -155 -102q-46 -80 -46 -176q0 -60 29.5 -94.5t79.5 -34.5q45 0 86 26.5t66 72.5q46 82 46 185q0 56 -28.5 89.5t-77.5 33.5zM353 741h95l64 -150h-63l-56 99l-104 -99h-64z" />
    <glyph glyph-name="Gbreve" unicode="&#x11e;" horiz-adv-x="778" 
d="M793 385l-83 -389h-59l-4 90q-49 -41 -81 -60q-85 -49 -188 -49q-108 0 -179 58q-42 34 -66 94.5t-24 131.5q0 97 41 193.5t113 168.5q118 118 292 118q118 0 186 -58t68 -158v-6v-4v-7h-91q-1 63 -37 100q-50 52 -144 52q-150 0 -244 -122q-40 -53 -64 -124t-24 -137
q0 -91 37 -145q23 -34 68 -54t101 -20q101 0 181 65q74 61 95 154l6 26h-222l18 82h304zM443 928h53v-8v-5q0 -23 22 -36.5t59 -13.5q95 0 111 63h56q-16 -59 -47 -86q-52 -49 -132 -49q-56 0 -91.5 27.5t-35.5 71.5q0 14 5 36z" />
    <glyph glyph-name="gbreve" unicode="&#x11f;" 
d="M525 524h76l-93 -439q-20 -95 -43 -147.5t-61 -88.5q-70 -67 -195 -67q-81 0 -129 34.5t-48 92.5q0 7 2 31h84v-8v-6q0 -34 28.5 -53t79.5 -19q80 0 123.5 43.5t65.5 146.5l4 19q-77 -80 -172 -80q-76 0 -124.5 51.5t-48.5 133.5q0 70 25.5 145.5t65.5 125.5
q37 46 91.5 73t112.5 27q51 0 92 -30q27 -20 47 -63zM363 462q-98 0 -156 -102q-45 -81 -45 -176q0 -60 29.5 -94.5t79.5 -34.5q45 0 86 26.5t66 72.5q46 80 46 186q0 55 -29 88.5t-77 33.5zM288 729h53v-7v-5q0 -23 22.5 -37t59.5 -14q45 0 74 16.5t36 46.5h56
q-15 -59 -46 -86q-54 -49 -132 -49q-57 0 -92.5 27.5t-35.5 71.5q0 13 5 36z" />
    <glyph glyph-name="Gdotaccent" unicode="&#x120;" horiz-adv-x="778" 
d="M791 385l-83 -389h-58l-3 97q-42 -51 -118 -83.5t-153 -32.5q-121 0 -193.5 77.5t-72.5 206.5q0 98 40.5 197t108.5 167q113 116 292 116q153 0 220 -100q36 -51 36 -133h-95q0 43 -13 70q-39 81 -165 81q-141 0 -239 -124q-91 -115 -91 -265q0 -89 34 -140
q23 -32 69 -51.5t101 -19.5q101 0 180 67q81 68 99 157l4 20h-221l17 82h304zM636 915l-22 -104h-104l22 104h104z" />
    <glyph glyph-name="gdotaccent" unicode="&#x121;" 
d="M523 524h77l-93 -438q-20 -95 -44 -150.5t-58 -88.5q-31 -30 -84 -47.5t-113 -17.5q-81 0 -128.5 37t-47.5 100q0 12 1 21h85v-16q0 -34 28.5 -53t79.5 -19q79 0 126 50q40 44 61 142l6 27q-78 -94 -179 -94q-72 0 -119 55t-47 140q0 67 25 141t66 126q37 47 90.5 73.5
t111.5 26.5q47 0 79.5 -21t60.5 -70zM362 462q-82 0 -141 -83.5t-59 -200.5q0 -59 28.5 -91.5t80.5 -32.5q82 0 139.5 84t57.5 202q0 58 -28 90t-78 32zM482 715l-22 -103h-104l22 103h104z" />
    <glyph glyph-name="Gcommaaccent" unicode="&#x122;" horiz-adv-x="778" 
d="M793 385l-83 -389h-59l-4 90q-49 -41 -81 -60q-85 -49 -188 -49q-108 0 -179 58q-42 34 -66 94.5t-24 131.5q0 97 41 193.5t113 168.5q118 118 292 118q118 0 186 -58t68 -158v-6v-4v-7h-91q-1 63 -37 100q-50 52 -144 52q-150 0 -244 -122q-40 -53 -64 -124t-24 -137
q0 -91 37 -145q23 -34 68 -54t101 -20q101 0 181 65q74 61 95 154l6 26h-222l18 82h304zM332 -60h100l-20 -93q-14 -62 -47.5 -96.5t-81.5 -34.5l9 38q57 0 73 88h-54z" />
    <glyph glyph-name="gcommaaccent" unicode="&#x123;" 
d="M510 524h76l-93 -439q-20 -95 -43 -147.5t-61 -88.5q-70 -67 -195 -67q-81 0 -129 34.5t-48 92.5q0 7 2 31h84v-8v-6q0 -34 28.5 -53t79.5 -19q80 0 123.5 43.5t65.5 146.5l4 19q-77 -80 -172 -80q-76 0 -124.5 51.5t-48.5 133.5q0 70 25.5 145.5t65.5 125.5
q37 46 91.5 73t112.5 27q51 0 92 -30q27 -20 47 -63zM348 462q-98 0 -156 -102q-45 -81 -45 -176q0 -60 29.5 -94.5t79.5 -34.5q45 0 86 26.5t66 72.5q46 80 46 186q0 55 -29 88.5t-77 33.5zM444 589h-100l20 93q13 62 47 96.5t81 34.5l-8 -38q-58 0 -74 -88h55z" />
    <glyph glyph-name="Hcircumflex" unicode="&#x124;" horiz-adv-x="722" 
d="M621 332h-373l-71 -332h-94l155 729h94l-67 -315h373l67 315h94l-155 -729h-94zM501 940h95l64 -150h-63l-56 99l-104 -99h-64z" />
    <glyph glyph-name="hcircumflex" unicode="&#x125;" 
d="M225 729h84l-57 -270q48 44 89.5 62t97.5 18q64 0 99.5 -33.5t35.5 -92.5q0 -20 -4 -37l-80 -376h-84l73 343q6 27 6 39q0 38 -23.5 61.5t-61.5 23.5q-68 0 -117.5 -47.5t-67.5 -130.5l-61 -289h-84zM268 940h95l64 -150h-63l-56 99l-104 -99h-64z" />
    <glyph glyph-name="Hbar" unicode="&#x126;" horiz-adv-x="722" 
d="M190 502h-75l15 70h74l34 157h93l-34 -157h375l34 157h93l-34 -157h75l-14 -70h-75l-107 -502h-93l71 332h-374l-71 -332h-94zM283 502l-19 -88h375l19 88h-375z" />
    <glyph glyph-name="hbar" unicode="&#x127;" 
d="M292 653h207l-12 -53h-207l-31 -148q40 46 83.5 66.5t102.5 20.5q65 0 101.5 -30t36.5 -83q0 -16 -3 -30l-84 -396h-83l77 363q3 15 3 34q0 31 -24.5 50t-64.5 19q-62 0 -112.5 -49.5t-67.5 -127.5l-61 -289h-83l127 600h-60l12 53h60l16 76h83z" />
    <glyph glyph-name="Itilde" unicode="&#x128;" horiz-adv-x="278" 
d="M349 729l-155 -729h-94l155 729h94zM438 918h53q-16 -49 -45 -78t-63 -29q-27 0 -103 26q-15 6 -27 6q-17 0 -25.5 -6t-24.5 -27h-53q16 47 32 67q29 36 72 36q22 0 73 -17q43 -15 63 -15q15 0 24.5 7.5t23.5 29.5z" />
    <glyph glyph-name="itilde" unicode="&#x129;" horiz-adv-x="278" 
d="M289 524l-111 -524h-84l111 524h84zM390 719h54q-16 -49 -45.5 -78t-62.5 -29q-27 0 -104 26q-15 6 -26 6q-17 0 -25.5 -5.5t-24.5 -27.5h-53q15 47 31 67q29 36 73 36q21 0 72 -17q43 -15 64 -15q14 0 23.5 7.5t23.5 29.5z" />
    <glyph glyph-name="Imacron" unicode="&#x12a;" horiz-adv-x="278" 
d="M349 729l-155 -729h-94l155 729h94zM458 895l-15 -69h-248l16 69h247z" />
    <glyph glyph-name="imacron" unicode="&#x12b;" horiz-adv-x="278" 
d="M289 524l-111 -524h-84l111 524h84zM401 696l-15 -69h-234l15 69h234z" />
    <glyph glyph-name="Ibreve" unicode="&#x12c;" horiz-adv-x="278" 
d="M349 729l-155 -729h-94l155 729h94zM188 928h53v-8v-5q0 -22 22.5 -36t59.5 -14q94 0 110 63h56q-15 -59 -46 -86q-54 -49 -133 -49q-56 0 -91.5 27.5t-35.5 71.5q0 14 5 36z" />
    <glyph glyph-name="ibreve" unicode="&#x12d;" horiz-adv-x="278" 
d="M290 527l-112 -527h-84l112 527h84zM143 729h53v-8v-5q0 -23 22 -36.5t59 -13.5q95 0 111 63h56q-16 -59 -47 -86q-52 -49 -132 -49q-56 0 -91.5 27.5t-35.5 71.5q0 13 5 36z" />
    <glyph glyph-name="Iogonek" unicode="&#x12e;" horiz-adv-x="278" 
d="M349 729l-155 -729l-16 -12q-75 -58 -75 -103q0 -20 16 -32t44 -12q16 0 46 9l-9 -45q-30 -10 -57 -10q-50 0 -82.5 21t-32.5 55q0 25 12.5 46t44.5 48q25 21 50 35h-35l155 729h94z" />
    <glyph glyph-name="iogonek" unicode="&#x12f;" horiz-adv-x="222" 
d="M261 524l-111 -524q-34 -26 -55.5 -59t-21.5 -57q0 -20 15 -31.5t40 -11.5q13 0 36 9l-9 -45q-31 -10 -53 -10q-45 0 -73.5 21.5t-28.5 55.5q0 62 100 128h-34l111 524h84zM305 729l-23 -103h-84l23 103h84z" />
    <glyph glyph-name="Idotaccent" unicode="&#x130;" horiz-adv-x="278" 
d="M349 729l-155 -729h-94l155 729h94zM389 914l-22 -103h-104l22 103h104z" />
    <glyph glyph-name="dotlessi" unicode="&#x131;" horiz-adv-x="278" 
d="M290 527l-112 -527h-84l112 527h84z" />
    <glyph glyph-name="IJ" unicode="&#x132;" horiz-adv-x="733" 
d="M290 729l-155 -729h-94l155 729h94zM673 729h94l-116 -547q-21 -98 -86.5 -151.5t-165.5 -53.5q-70 0 -111 32q-55 44 -55 113q0 21 6 48l14 64h94l-14 -66q-4 -16 -4 -34q0 -34 24.5 -55t65.5 -21q59 0 98 44q30 34 47 114z" />
    <glyph glyph-name="ij" unicode="&#x133;" horiz-adv-x="444" 
d="M275 524l-111 -524h-84l111 524h84zM319 729l-22 -103h-84l22 103h84zM390 524h84l-134 -633q-13 -61 -52 -85t-125 -24q-12 0 -18 3l15 71q13 -2 25 -2q38 0 53.5 14t24.5 56zM518 729l-23 -103h-84l23 103h84z" />
    <glyph glyph-name="Jcircumflex" unicode="&#x134;" horiz-adv-x="500" 
d="M487 729h94l-116 -547q-21 -98 -86.5 -151.5t-165.5 -53.5q-72 0 -111 32q-55 45 -55 113q0 22 6 48l14 64h94l-14 -66q-4 -16 -4 -34q0 -34 24.5 -55t65.5 -21q59 0 98 44q30 34 47 114zM520 940h95l64 -150h-63l-56 99l-104 -99h-64z" />
    <glyph glyph-name="jcircumflex" unicode="&#x135;" horiz-adv-x="222" 
d="M180 524h84l-134 -633q-14 -62 -52 -85.5t-124 -23.5q-12 0 -19 3l15 71q14 -2 25 -2q38 0 53.5 14t24.5 56zM210 741h95l64 -150h-63l-56 99l-104 -99h-64z" />
    <glyph glyph-name="Kcommaaccent" unicode="&#x136;" horiz-adv-x="667" 
d="M226 249l-53 -249h-94l155 729h94l-79 -373l444 373h120l-361 -298l206 -431h-110l-168 376zM286 -60h100l-19 -93q-14 -62 -48 -96.5t-81 -34.5l8 38q58 0 74 88h-55z" />
    <glyph glyph-name="kcommaaccent" unicode="&#x137;" horiz-adv-x="500" 
d="M297 729l-90 -423l269 218h108l-222 -181l140 -343h-96l-114 291l-107 -88l-43 -203h-84l155 729h84zM208 -60h100l-20 -93q-14 -62 -47.5 -96.5t-81.5 -34.5l8 38q58 0 74 88h-54z" />
    <glyph glyph-name="kgreenlandic" unicode="&#x138;" horiz-adv-x="500" 
d="M179 179l-38 -179h-86l114 524h86l-56 -254l275 254h120l-258 -222l145 -302h-97l-104 262z" />
    <glyph glyph-name="Lacute" unicode="&#x139;" 
d="M329 729l-138 -647h360l-17 -82h-454l155 729h94zM368 939h112l-180 -148h-60z" />
    <glyph glyph-name="lacute" unicode="&#x13a;" horiz-adv-x="222" 
d="M307 729l-155 -729h-84l155 729h84zM351 939h112l-180 -148h-60z" />
    <glyph glyph-name="Lcommaaccent" unicode="&#x13b;" 
d="M329 729l-138 -647h360l-17 -82h-454l155 729h94zM245 -60h100l-20 -93q-14 -62 -47.5 -96.5t-81.5 -34.5l8 38q58 0 74 88h-54z" />
    <glyph glyph-name="lcommaaccent" unicode="&#x13c;" horiz-adv-x="222" 
d="M307 729l-155 -729h-84l155 729h84zM47 -60h100l-19 -93q-14 -62 -48 -96.5t-81 -34.5l8 38q58 0 74 88h-55z" />
    <glyph glyph-name="Lcaron" unicode="&#x13d;" 
d="M329 729l-138 -647h360l-17 -82h-454l155 729h94zM429 729h100l-20 -93q-14 -62 -47.5 -96.5t-80.5 -34.5l8 38q58 0 74 88h-55z" />
    <glyph glyph-name="lcaron" unicode="&#x13e;" horiz-adv-x="299" 
d="M303 729l-155 -729h-84l155 729h84zM363 729h100l-20 -93q-13 -61 -47 -96t-81 -35l8 38q58 0 74 88h-55z" />
    <glyph glyph-name="Ldot" unicode="&#x13f;" 
d="M329 729l-138 -647h360l-17 -82h-454l155 729h94zM547 443l-22 -103h-104l22 103h104z" />
    <glyph glyph-name="ldot" unicode="&#x140;" horiz-adv-x="400" 
d="M324 729l-155 -729h-84l155 729h84zM439 441l-22 -103h-104l22 103h104z" />
    <glyph glyph-name="Lslash" unicode="&#x141;" 
d="M261 315l-50 -233h359l-18 -82h-452l58 276l-83 -51l17 79l83 51l80 374h94l-71 -335l196 118l-17 -79z" />
    <glyph glyph-name="lslash" unicode="&#x142;" horiz-adv-x="222" 
d="M239 414l73 42l-14 -67l-73 -42l-74 -347h-84l67 314l-72 -44l14 67l73 45l73 347h84z" />
    <glyph glyph-name="Nacute" unicode="&#x143;" horiz-adv-x="722" 
d="M801 729l-155 -729h-106l-249 591l-126 -591h-89l155 729h104l250 -598l127 598h89zM594 939h112l-180 -148h-60z" />
    <glyph glyph-name="nacute" unicode="&#x144;" 
d="M181 524h76l-13 -65q78 80 194 80q62 0 99 -34t37 -91q0 -21 -4 -38l-80 -376h-84l74 349q6 26 6 37q0 35 -25 58t-62 23q-67 0 -116.5 -47.5t-67.5 -130.5l-61 -289h-84zM468 740h112l-180 -148h-60z" />
    <glyph glyph-name="Ncommaaccent" unicode="&#x145;" horiz-adv-x="722" 
d="M801 729l-155 -729h-106l-249 591l-126 -591h-89l155 729h104l250 -598l127 598h89zM282 -60h100l-20 -93q-13 -62 -47 -96.5t-81 -34.5l8 38q58 0 74 88h-55z" />
    <glyph glyph-name="ncommaaccent" unicode="&#x146;" 
d="M181 524h76l-13 -65q78 80 194 80q62 0 99 -34t37 -91q0 -21 -4 -38l-80 -376h-84l74 349q6 26 6 37q0 35 -25 58t-62 23q-67 0 -116.5 -47.5t-67.5 -130.5l-61 -289h-84zM218 -60h100l-20 -93q-14 -62 -47.5 -96.5t-81.5 -34.5l8 38q58 0 74 88h-54z" />
    <glyph glyph-name="Ncaron" unicode="&#x147;" horiz-adv-x="722" 
d="M801 729l-155 -729h-106l-249 591l-126 -591h-89l155 729h104l250 -598l127 598h89zM570 791h-95l-64 148h63l56 -98l104 98h64z" />
    <glyph glyph-name="ncaron" unicode="&#x148;" 
d="M181 524h76l-13 -65q78 80 194 80q62 0 99 -34t37 -91q0 -21 -4 -38l-80 -376h-84l74 349q6 26 6 37q0 35 -25 58t-62 23q-67 0 -116.5 -47.5t-67.5 -130.5l-61 -289h-84zM450 592h-95l-64 148h63l56 -98l104 98h64z" />
    <glyph glyph-name="napostrophe" unicode="&#x149;" horiz-adv-x="615" 
d="M223 524h76l-13 -65q78 80 194 80q62 0 99 -34t37 -91q0 -21 -4 -38l-80 -376h-84l74 349q6 26 6 37q0 35 -25 58t-62 23q-67 0 -116.5 -47.5t-67.5 -130.5l-61 -289h-84zM149 729h100l-19 -93q-14 -62 -48 -96.5t-81 -34.5l8 38q58 0 74 88h-55z" />
    <glyph glyph-name="Eng" unicode="&#x14a;" horiz-adv-x="723" 
d="M109 0l154 726h86l-14 -65q44 44 98 62t141 18q182 0 182 -125q0 -21 -4 -38l-146 -687q-14 -63 -53 -86t-133 -23q-12 0 -19 3l17 79q13 -2 25 -2q38 0 53.5 14t24.5 56l129 610q6 27 6 38q0 37 -36.5 58.5t-98.5 21.5q-178 0 -216 -178l-102 -482h-94z" />
    <glyph glyph-name="eng" unicode="&#x14b;" 
d="M70 0l111 524h76l-13 -65q78 80 194 80q62 0 99 -34t37 -91q0 -21 -4 -38l-103 -485q-13 -61 -51.5 -85t-124.5 -24q-12 0 -19 3l15 71q14 -2 25 -2q38 0 53.5 14t24.5 56l90 425q6 26 6 37q0 35 -25 58t-62 23q-67 0 -116.5 -47.5t-67.5 -130.5l-61 -289h-84z" />
    <glyph glyph-name="Omacron" unicode="&#x14c;" horiz-adv-x="778" 
d="M537 741q142 0 219 -77q33 -34 52.5 -87.5t19.5 -112.5q0 -119 -52.5 -231t-140.5 -179q-100 -77 -244 -77q-64 0 -121 20.5t-93 56.5q-73 73 -73 209q0 96 37.5 189t104.5 162q121 127 291 127zM525 660q-70 0 -133.5 -33.5t-107.5 -92.5q-84 -117 -84 -263
q0 -88 41 -141q26 -33 70 -52.5t93 -19.5q73 0 136.5 33t107.5 94q84 116 84 261q0 89 -41 142q-26 33 -70.5 52.5t-95.5 19.5zM712 895l-15 -69h-274l15 69h274z" />
    <glyph glyph-name="omacron" unicode="&#x14d;" 
d="M384 539q88 0 137 -49q55 -52 55 -138q0 -65 -22.5 -138.5t-56.5 -120.5q-84 -116 -228 -116q-84 0 -136.5 52t-52.5 135q0 64 22 137.5t56 121.5q38 55 97 85.5t129 30.5zM371 462q-103 0 -159 -105q-44 -81 -44 -173q0 -61 31 -95.5t84 -34.5q103 0 161 105
q44 79 44 174q0 61 -31 95t-86 34zM558 696l-15 -69h-274l15 69h274z" />
    <glyph glyph-name="Obreve" unicode="&#x14e;" horiz-adv-x="778" 
d="M537 741q142 0 219 -77q33 -34 52.5 -87.5t19.5 -112.5q0 -119 -52.5 -231t-140.5 -179q-100 -77 -244 -77q-64 0 -121 20.5t-93 56.5q-73 73 -73 209q0 96 37.5 189t104.5 162q121 127 291 127zM525 660q-70 0 -133.5 -33.5t-107.5 -92.5q-84 -117 -84 -263
q0 -88 41 -141q26 -33 70 -52.5t93 -19.5q73 0 136.5 33t107.5 94q84 116 84 261q0 89 -41 142q-26 33 -70.5 52.5t-95.5 19.5zM479 928h53v-8v-5q0 -23 22 -36.5t59 -13.5q95 0 111 63h56q-14 -57 -46 -86q-54 -49 -133 -49q-56 0 -91.5 27.5t-35.5 71.5q0 14 5 36z" />
    <glyph glyph-name="obreve" unicode="&#x14f;" 
d="M384 539q87 0 137 -49q55 -53 55 -138q0 -65 -22.5 -138.5t-56.5 -120.5q-84 -116 -228 -116q-84 0 -136.5 52t-52.5 135q0 64 22 137.5t56 121.5q38 55 97 85.5t129 30.5zM371 462q-103 0 -159 -105q-44 -81 -44 -173q0 -61 31 -95.5t84 -34.5q103 0 161 105
q44 79 44 174q0 61 -30.5 95t-86.5 34zM282 729h53v-8v-5q0 -23 22 -36.5t59 -13.5q95 0 111 63h56q-16 -59 -47 -86q-52 -49 -132 -49q-56 0 -91.5 27.5t-35.5 71.5q0 13 5 36z" />
    <glyph glyph-name="Ohungarumlaut" unicode="&#x150;" horiz-adv-x="778" 
d="M537 741q142 0 219 -77q33 -34 52.5 -87.5t19.5 -112.5q0 -119 -52.5 -231t-140.5 -179q-100 -77 -244 -77q-64 0 -121 20.5t-93 56.5q-73 73 -73 209q0 96 37.5 189t104.5 162q121 127 291 127zM525 660q-70 0 -133.5 -33.5t-107.5 -92.5q-84 -117 -84 -263
q0 -88 41 -141q26 -33 70 -52.5t93 -19.5q73 0 136.5 33t107.5 94q84 116 84 261q0 89 -41 142q-26 33 -70.5 52.5t-95.5 19.5zM555 939h112l-180 -150h-60zM729 939h112l-180 -150h-60z" />
    <glyph glyph-name="ohungarumlaut" unicode="&#x151;" 
d="M384 539q88 0 137 -49q55 -52 55 -138q0 -65 -22.5 -138.5t-56.5 -120.5q-84 -116 -228 -116q-84 0 -136.5 52t-52.5 135q0 64 22 137.5t56 121.5q38 55 97 85.5t129 30.5zM371 462q-103 0 -159 -105q-44 -81 -44 -173q0 -61 31 -95.5t84 -34.5q103 0 161 105
q44 79 44 174q0 61 -31 95t-86 34zM397 740h112l-180 -150h-60zM571 740h112l-180 -150h-60z" />
    <glyph glyph-name="OE" unicode="&#x152;" horiz-adv-x="1000" 
d="M687 327l-53 -245h340l-17 -82h-434l16 77q-81 -100 -207 -100q-104 0 -167.5 66.5t-63.5 175.5q0 105 38 218.5t96 178.5q52 58 121.5 91.5t139.5 33.5q121 0 166 -88l16 76h430l-17 -82h-336l-51 -238h327l-18 -82h-326zM562 182l76 357q-28 121 -158 121
q-133 0 -212 -137q-29 -52 -50 -140.5t-21 -160.5q0 -76 41.5 -120t113.5 -44q125 0 210 124z" />
    <glyph glyph-name="oe" unicode="&#x153;" horiz-adv-x="944" 
d="M838 159h84q-24 -82 -94 -132t-161 -50q-99 0 -159 78q-10 12 -17 29q-37 -51 -94 -79t-122 -28q-88 0 -136 49q-54 56 -54 139q0 61 21.5 133.5t55.5 123.5q77 117 224 117q127 0 172 -103q32 45 93.5 74t123.5 29q81 0 136 -49t55 -122q0 -39 -17 -134h-386
q-7 -35 -7 -58q0 -56 34 -89t93 -33q101 0 155 105zM371 462q-83 0 -140.5 -81.5t-57.5 -199.5q0 -59 30 -93t82 -34q102 0 160 105q42 78 42 175q0 60 -31 94t-85 34zM581 306h294q3 21 3 32q0 57 -31 90.5t-83 33.5q-62 0 -112.5 -43t-70.5 -113z" />
    <glyph glyph-name="Racute" unicode="&#x154;" horiz-adv-x="722" 
d="M254 314l-67 -314h-94l155 729h336q96 0 141 -37.5t45 -116.5q0 -47 -18.5 -92.5t-48.5 -73.5q-24 -21 -73 -49q35 -23 47.5 -42.5t12.5 -53.5q0 -23 -21 -138q-6 -33 -6 -50q0 -34 21 -53l-5 -23h-113q-4 28 -4 48q0 23 3 39.5t21 91.5q8 34 8 60q0 75 -101 75h-239z
M271 396h231q92 0 136 53q36 46 36 109q0 38 -21 61q-25 28 -98 28h-230zM577 939h112l-180 -148h-60z" />
    <glyph glyph-name="racute" unicode="&#x155;" horiz-adv-x="333" 
d="M180 524h76l-17 -82q47 53 84.5 75t80.5 22q12 0 32 -3l-18 -85h-10h-5q-75 -1 -125 -47t-67 -132l-58 -272h-84zM386 740h112l-180 -148h-60z" />
    <glyph glyph-name="Rcommaaccent" unicode="&#x156;" horiz-adv-x="722" 
d="M254 314l-67 -314h-94l155 729h336q96 0 141 -37.5t45 -116.5q0 -47 -18.5 -92.5t-48.5 -73.5q-24 -21 -73 -49q35 -23 47.5 -42.5t12.5 -53.5q0 -23 -21 -138q-6 -33 -6 -50q0 -34 21 -53l-5 -23h-113q-4 28 -4 48q0 23 3 39.5t21 91.5q8 34 8 60q0 75 -101 75h-239z
M271 396h231q92 0 136 53q36 46 36 109q0 38 -21 61q-25 28 -98 28h-230zM310 -60h100l-19 -93q-13 -62 -47.5 -96.5t-81.5 -34.5l8 38q58 0 74 88h-55z" />
    <glyph glyph-name="rcommaaccent" unicode="&#x157;" horiz-adv-x="333" 
d="M181 524h75l-17 -82q47 53 84.5 75t80.5 22q12 0 32 -3l-18 -85h-10h-5q-75 -1 -125 -47.5t-67 -131.5l-58 -272h-84zM53 -60h100l-19 -93q-14 -62 -48 -96.5t-81 -34.5l8 38q58 0 74 88h-55z" />
    <glyph glyph-name="Rcaron" unicode="&#x158;" horiz-adv-x="722" 
d="M254 314l-67 -314h-94l155 729h336q96 0 141 -37.5t45 -116.5q0 -47 -18.5 -92.5t-48.5 -73.5q-24 -21 -73 -49q35 -23 47.5 -42.5t12.5 -53.5q0 -23 -21 -138q-6 -33 -6 -50q0 -34 21 -53l-5 -23h-113q-4 28 -4 48q0 23 3 39.5t21 91.5q8 34 8 60q0 75 -101 75h-239z
M271 396h231q92 0 136 53q36 46 36 109q0 38 -21 61q-25 28 -98 28h-230zM556 791h-95l-64 148h63l56 -98l104 98h64z" />
    <glyph glyph-name="rcaron" unicode="&#x159;" horiz-adv-x="333" 
d="M180 524h76l-17 -82q47 53 84.5 75t80.5 22q12 0 32 -3l-18 -85h-10h-5q-75 -1 -124.5 -47t-67.5 -132l-58 -272h-84zM358 592h-95l-64 148h63l56 -98l104 98h64z" />
    <glyph glyph-name="Sacute" unicode="&#x15a;" horiz-adv-x="667" 
d="M706 515h-88q4 25 4 36q0 49 -32 78q-34 31 -120 31q-97 0 -152 -49q-44 -40 -44 -93q0 -33 21.5 -51t79.5 -35l172 -49q67 -19 98 -68q24 -37 24 -78q0 -43 -24 -92t-63 -84q-90 -84 -252 -84q-113 0 -177 50.5t-64 141.5q0 30 9 63h87q-4 -25 -4 -41q0 -68 40 -100.5
t125 -32.5q120 0 180 56q47 44 47 95q0 37 -26 60t-87 40l-171 48q-50 14 -80.5 51t-30.5 84q0 38 20.5 85.5t51.5 78.5q82 85 238 85q113 0 172 -52q54 -47 54 -118q0 -19 -8 -56zM566 939h112l-180 -148h-60z" />
    <glyph glyph-name="sacute" unicode="&#x15b;" horiz-adv-x="500" 
d="M514 378h-84l1 11v5v6q0 62 -92 62q-64 0 -98 -33q-30 -28 -30 -62q0 -39 85 -60l76 -19q66 -16 93.5 -42.5t27.5 -72.5q0 -89 -67 -142.5t-179 -53.5q-88 0 -137 34t-49 94q0 23 6 51h89q-2 -20 -2 -25q0 -77 108 -77q71 0 111 34q13 10 22.5 29t9.5 33q0 16 -13 33
q-11 13 -57 26l-74 19q-77 20 -107.5 45.5t-30.5 71.5q0 77 60 134q63 60 173 60q73 0 118.5 -32.5t45.5 -85.5q0 -18 -6 -43zM433 740h112l-180 -148h-60z" />
    <glyph glyph-name="Scircumflex" unicode="&#x15c;" horiz-adv-x="667" 
d="M706 515h-88q4 27 4 36q0 49 -32 78q-34 31 -120 31q-97 0 -152 -49q-44 -40 -44 -93q0 -33 21.5 -51t79.5 -35l172 -49q67 -19 98 -68q24 -37 24 -78q0 -43 -24 -92t-63 -84q-90 -84 -252 -84q-113 0 -177 50.5t-64 141.5q0 30 9 63h87q-4 -25 -4 -41q0 -69 40 -101
t125 -32q120 0 180 56q47 44 47 95q0 37 -26 60t-87 40l-171 48q-50 14 -80.5 51t-30.5 84q0 38 20.5 85.5t51.5 78.5q82 85 238 85q113 0 172 -52q54 -47 54 -118q0 -19 -8 -56zM473 940h95l64 -150h-63l-56 99l-104 -99h-64z" />
    <glyph glyph-name="scircumflex" unicode="&#x15d;" horiz-adv-x="500" 
d="M514 378h-84l1 11v5v6q0 62 -92 62q-64 0 -98 -33q-30 -30 -30 -62q0 -39 85 -60l76 -19q66 -16 93.5 -42.5t27.5 -72.5q0 -89 -67 -142.5t-179 -53.5q-88 0 -137 34t-49 94q0 23 6 51h89q-2 -20 -2 -25q0 -77 108 -77q71 0 111 34q13 10 22.5 29t9.5 33q0 16 -13 33
q-11 13 -57 26l-74 19q-77 20 -107.5 45.5t-30.5 71.5q0 77 60 134q63 60 173 60q73 0 118.5 -33t45.5 -85q0 -18 -6 -43zM355 741h95l64 -150h-63l-56 99l-104 -99h-64z" />
    <glyph glyph-name="Scedilla" unicode="&#x15e;" horiz-adv-x="667" 
d="M338 -22l-18 -34q13 2 21 2q28 0 47.5 -15t19.5 -36q0 -48 -40.5 -78.5t-104.5 -30.5q-50 0 -118 34l28 38q54 -29 94 -29q28 0 45.5 15.5t17.5 39.5q0 9 -9 15.5t-22 6.5q-6 0 -16 -2q-6 -1 -11 -2l-13 6l37 70q-86 11 -127 37q-80 53 -80 154q0 30 9 63h87
q-4 -25 -4 -41q0 -68 40 -100.5t125 -32.5q120 0 180 56q47 44 47 95q0 37 -26 60t-87 40l-171 48q-50 14 -80.5 51t-30.5 84q0 38 20.5 85.5t51.5 78.5q82 85 238 85q113 0 172 -52q54 -47 54 -118q0 -19 -8 -56h-88q4 25 4 36q0 49 -32 78q-34 31 -120 31q-97 0 -152 -49
q-44 -40 -44 -93q0 -33 21.5 -51t79.5 -35l172 -49q67 -19 98 -68q24 -37 24 -78q0 -54 -35.5 -112t-88.5 -93q-84 -54 -207 -54z" />
    <glyph glyph-name="scedilla" unicode="&#x15f;" horiz-adv-x="500" 
d="M254 -23l-18 -33q13 2 21 2q28 0 47.5 -15t19.5 -36q0 -48 -40.5 -78.5t-103.5 -30.5q-51 0 -119 34l28 38q55 -29 94 -29q28 0 45.5 15.5t17.5 39.5q0 9 -9 15.5t-22 6.5q-5 0 -16 -2q-5 -1 -11 -2l-13 6l38 70q-152 19 -152 127q0 23 6 51h89q-2 -20 -2 -25
q0 -77 108 -77q71 0 111 34q13 10 22.5 29t9.5 33q0 16 -13 33q-11 13 -57 26l-74 19q-77 20 -107.5 45.5t-30.5 71.5q0 77 60 134q63 60 173 60q73 0 118.5 -32.5t45.5 -85.5q0 -18 -6 -43h-84l1 11v5v6q0 62 -92 62q-64 0 -98 -33q-30 -28 -30 -62q0 -39 85 -60l76 -19
q66 -16 93.5 -42.5t27.5 -72.5q0 -48 -23 -90t-62 -66q-59 -36 -154 -40z" />
    <glyph glyph-name="Scaron" unicode="&#x160;" horiz-adv-x="667" 
d="M547 791h-95l-64 148h63l56 -98l104 98h64zM706 515h-88q4 25 4 36q0 49 -32 78q-34 31 -120 31q-97 0 -152 -49q-44 -40 -44 -93q0 -33 21.5 -51t79.5 -35l172 -49q67 -19 98 -68q24 -37 24 -78q0 -43 -24 -92t-63 -84q-90 -84 -252 -84q-113 0 -177 50.5t-64 141.5
q0 30 9 63h87q-4 -25 -4 -41q0 -68 40 -100.5t125 -32.5q120 0 180 56q47 44 47 95q0 37 -26 60t-87 40l-171 48q-50 14 -80.5 51t-30.5 84q0 38 20.5 85.5t51.5 78.5q82 85 238 85q113 0 172 -52q54 -47 54 -118q0 -19 -8 -56z" />
    <glyph glyph-name="scaron" unicode="&#x161;" horiz-adv-x="500" 
d="M419 592h-95l-64 148h63l56 -98l104 98h64zM514 378h-84l1 11v5v6q0 62 -92 62q-64 0 -98 -33q-30 -28 -30 -62q0 -39 85 -60l76 -19q66 -16 93.5 -42.5t27.5 -72.5q0 -89 -67 -142.5t-179 -53.5q-88 0 -137 34t-49 94q0 23 6 51h89q-2 -20 -2 -25q0 -77 108 -77
q71 0 111 34q13 10 22.5 29t9.5 33q0 16 -13 33q-11 13 -57 26l-74 19q-77 20 -107.5 45.5t-30.5 71.5q0 77 60 134q63 60 173 60q73 0 118.5 -32.5t45.5 -85.5q0 -18 -6 -43z" />
    <glyph glyph-name="Tcommaaccent" unicode="&#x162;" horiz-adv-x="611" 
d="M493 647l-138 -647h-94l138 647h-241l17 82h573l-17 -82h-238zM244 -60h100l-19 -93q-14 -62 -48 -96.5t-81 -34.5l8 38q58 0 74 88h-55z" />
    <glyph glyph-name="tcommaaccent" unicode="&#x163;" horiz-adv-x="278" 
d="M366 524l-15 -67h-88l-78 -367q-2 -10 -2 -14q0 -12 9.5 -19.5t25.5 -7.5q12 0 49 8l-16 -73q-26 -7 -65 -7q-41 0 -65 21t-24 58q0 16 3 31l79 370h-71l14 67h71l31 144h84l-31 -144h89zM103 -60h100l-19 -93q-14 -62 -48 -96.5t-81 -34.5l8 38q58 0 74 88h-55z" />
    <glyph glyph-name="Tcaron" unicode="&#x164;" horiz-adv-x="611" 
d="M493 647l-138 -647h-94l138 647h-241l17 82h573l-17 -82h-238zM524 791h-95l-64 148h63l56 -98l104 98h64z" />
    <glyph glyph-name="tcaron" unicode="&#x165;" horiz-adv-x="317" 
d="M365 524l-14 -67h-89l-78 -367q-2 -12 -2 -14q0 -12 10 -19.5t26 -7.5q15 0 48 8l-16 -73q-26 -7 -65 -7q-41 0 -65 21t-24 58q0 16 3 31l79 370h-71l14 67h71l31 144h84l-31 -144h89zM391 801h100l-19 -93q-14 -62 -48 -96.5t-81 -34.5l8 38q58 0 74 88h-55z" />
    <glyph glyph-name="Tbar" unicode="&#x166;" horiz-adv-x="611" 
d="M455 470h160l-14 -67h-160l-86 -403h-94l86 403h-160l14 67h160l38 177h-241l17 82h573l-17 -82h-238z" />
    <glyph glyph-name="tbar" unicode="&#x167;" horiz-adv-x="278" 
d="M366 524l-14 -67h-89l-17 -84h81l-11 -53h-82l-49 -230l-2 -14q-1 -11 9.5 -19t26.5 -8q15 0 48 8l-15 -73q-26 -7 -66 -7q-41 0 -65 21t-24 58q0 16 4 31l49 233h-61l11 53h62l17 84h-71l14 67h72l30 144h84l-30 -144h88z" />
    <glyph glyph-name="Utilde" unicode="&#x168;" horiz-adv-x="722" 
d="M706 729h94l-109 -512q-23 -109 -112.5 -174.5t-215.5 -65.5q-120 0 -184 58q-24 22 -39.5 55.5t-15.5 64.5q0 26 14 96l102 478h94l-109 -512q-5 -25 -5 -44q0 -52 44 -83.5t117 -31.5q85 0 142.5 42.5t73.5 116.5zM647 918h54q-16 -49 -45.5 -78t-62.5 -29
q-27 0 -103 26q-16 6 -27 6q-17 0 -25.5 -5.5t-24.5 -27.5h-53q16 47 32 67q12 16 32 26t40 10q22 0 73 -17q42 -15 63 -15q15 0 24.5 7.5t22.5 29.5z" />
    <glyph glyph-name="utilde" unicode="&#x169;" 
d="M483 0h-76l12 57q-83 -80 -193 -80q-65 0 -101.5 29t-36.5 80q0 19 3 34l86 404h84l-79 -371q-3 -15 -3 -27q0 -36 24 -56.5t65 -20.5q64 0 113 48.5t66 129.5l63 297h84zM529 719h54q-16 -49 -45.5 -78t-62.5 -29q-27 0 -104 26q-15 6 -26 6q-17 0 -25.5 -5.5
t-24.5 -27.5h-53q15 47 31 67q29 36 73 36q21 0 72 -17q43 -15 64 -15q14 0 23.5 7.5t23.5 29.5z" />
    <glyph glyph-name="Umacron" unicode="&#x16a;" horiz-adv-x="722" 
d="M706 729h94l-109 -512q-23 -109 -112.5 -174.5t-215.5 -65.5q-120 0 -184 58q-24 22 -39.5 55.5t-15.5 64.5q0 33 14 96l102 478h94l-109 -512q-5 -25 -5 -43q0 -52 44 -84t117 -32q85 0 142.5 42.5t73.5 116.5zM692 895l-15 -69h-274l15 69h274z" />
    <glyph glyph-name="umacron" unicode="&#x16b;" 
d="M483 0h-76l12 57q-83 -80 -193 -80q-65 0 -101.5 29t-36.5 80q0 19 3 34l86 404h84l-79 -371q-3 -13 -3 -27q0 -36 24 -56.5t65 -20.5q64 0 113 48.5t66 129.5l63 297h84zM559 696l-15 -69h-274l15 69h274z" />
    <glyph glyph-name="Ubreve" unicode="&#x16c;" horiz-adv-x="722" 
d="M706 729h94l-109 -512q-23 -109 -112.5 -174.5t-215.5 -65.5q-120 0 -184 58q-24 22 -39.5 55.5t-15.5 64.5q0 26 14 96l102 478h94l-109 -512q-5 -25 -5 -44q0 -52 44 -83.5t117 -31.5q85 0 142.5 42.5t73.5 116.5zM388 928h53v-8v-5q0 -22 22.5 -36t59.5 -14
q94 0 110 63h56q-15 -59 -46 -86q-54 -49 -132 -49q-57 0 -92.5 27.5t-35.5 71.5q0 14 5 36z" />
    <glyph glyph-name="ubreve" unicode="&#x16d;" 
d="M483 0h-76l12 57q-83 -80 -193 -80q-65 0 -101.5 29t-36.5 80q0 19 3 34l86 404h84l-79 -371q-3 -15 -3 -27q0 -36 24 -56.5t65 -20.5q64 0 113 48.5t66 129.5l63 297h84zM269 729h53v-8v-5q0 -23 22 -36.5t59 -13.5q95 0 111 63h56q-14 -57 -46 -86q-54 -49 -133 -49
q-56 0 -91.5 27.5t-35.5 71.5q0 13 5 36z" />
    <glyph glyph-name="Uring" unicode="&#x16e;" horiz-adv-x="722" 
d="M706 729h94l-109 -512q-23 -109 -112.5 -174.5t-215.5 -65.5q-120 0 -184 58q-24 22 -39.5 55.5t-15.5 64.5q0 33 14 96l102 478h94l-109 -512q-5 -25 -5 -43q0 -52 44 -84t117 -32q85 0 142.5 42.5t73.5 116.5zM567 953q31 0 51.5 -19t20.5 -48q0 -43 -33 -75.5
t-76 -32.5q-30 0 -50.5 20.5t-20.5 49.5q0 40 33.5 72.5t74.5 32.5zM560 909q-22 0 -38.5 -16.5t-16.5 -36.5q0 -15 9.5 -24.5t25.5 -9.5q20 0 37 16t17 36q0 15 -9.5 25t-24.5 10z" />
    <glyph glyph-name="uring" unicode="&#x16f;" 
d="M483 0h-76l12 57q-83 -80 -193 -80q-65 0 -101.5 29t-36.5 80q0 19 3 34l86 404h84l-79 -371q-3 -13 -3 -27q0 -36 24 -56.5t65 -20.5q64 0 113 48.5t66 129.5l63 297h84zM432 754q31 0 51.5 -19t20.5 -48q0 -43 -33 -75.5t-76 -32.5q-30 0 -50.5 20.5t-20.5 49.5
q0 40 33.5 72.5t74.5 32.5zM424 710q-20 0 -37 -16t-17 -36q0 -16 10 -25.5t25 -9.5q21 0 37.5 16.5t16.5 36.5q0 15 -9.5 24.5t-25.5 9.5z" />
    <glyph glyph-name="Uhungarumlaut" unicode="&#x170;" horiz-adv-x="722" 
d="M706 729h94l-109 -512q-23 -109 -112.5 -174.5t-215.5 -65.5q-120 0 -184 58q-24 22 -39.5 55.5t-15.5 64.5q0 33 14 96l102 478h94l-109 -512q-5 -25 -5 -43q0 -52 44 -84t117 -32q85 0 142.5 42.5t73.5 116.5zM520 939h112l-180 -150h-60zM694 939h112l-180 -150h-60z
" />
    <glyph glyph-name="uhungarumlaut" unicode="&#x171;" 
d="M483 0h-76l12 57q-83 -80 -193 -80q-65 0 -101.5 29t-36.5 80q0 19 3 34l86 404h84l-79 -371q-3 -13 -3 -27q0 -36 24 -56.5t65 -20.5q64 0 113 48.5t66 129.5l63 297h84zM397 740h112l-180 -150h-60zM571 740h112l-180 -150h-60z" />
    <glyph glyph-name="Uogonek" unicode="&#x172;" horiz-adv-x="722" 
d="M568 -150l-9 -45q-28 -10 -72 -10q-63 0 -97 20t-34 58q0 63 97 114q-47 -10 -87 -10q-123 0 -187 58q-24 22 -39.5 55.5t-15.5 64.5q0 28 14 96l102 478h94l-109 -512q-5 -25 -5 -44q0 -52 44 -83.5t117 -31.5q85 0 142.5 42.5t73.5 116.5l109 512h94l-109 -512
q-17 -72 -56 -121t-121 -102q-38 -26 -60.5 -56t-22.5 -54q0 -20 18 -32t48 -12q44 0 71 10z" />
    <glyph glyph-name="uogonek" unicode="&#x173;" 
d="M594 524l-111 -524q-28 -14 -70 -53q-35 -32 -35 -62q0 -19 16 -32t39 -13q34 0 62 10l-9 -45q-30 -10 -67 -10q-53 0 -84 21t-31 57t32 69t91 58h-20l12 57q-83 -80 -193 -80q-65 0 -101.5 29t-36.5 80q0 19 3 34l86 404h84l-79 -371q-3 -15 -3 -27q0 -36 24 -56.5
t65 -20.5q64 0 113 48.5t66 129.5l63 297h84z" />
    <glyph glyph-name="Wcircumflex" unicode="&#x174;" horiz-adv-x="944" 
d="M744 0h-102l-41 592l-290 -592h-102l-32 729h100l15 -592l288 592h96l41 -592l263 592h104zM611 940h95l64 -150h-63l-56 99l-104 -99h-64z" />
    <glyph glyph-name="wcircumflex" unicode="&#x175;" horiz-adv-x="722" 
d="M556 0h-95l-12 418l-195 -418h-96l-40 524h91l19 -408l189 408h105l11 -408l196 408h91zM453 741h95l64 -150h-63l-56 99l-104 -99h-64z" />
    <glyph glyph-name="Ycircumflex" unicode="&#x176;" horiz-adv-x="667" 
d="M448 286l-61 -286h-94l61 286l-186 443h112l136 -357l289 357h111zM476 940h95l64 -150h-63l-56 99l-104 -99h-64z" />
    <glyph glyph-name="ycircumflex" unicode="&#x177;" horiz-adv-x="500" 
d="M501 524h89l-368 -634q-62 -108 -165 -108q-27 0 -49 10l16 75q29 -4 43 -4q29 0 45 10t36 42l52 81l-68 528h90l46 -407zM344 741h95l64 -150h-63l-56 99l-104 -99h-64z" />
    <glyph glyph-name="Ydieresis" unicode="&#x178;" horiz-adv-x="667" 
d="M448 286l-61 -286h-94l61 286l-186 443h112l136 -357l289 357h111zM504 914l-23 -103h-103l22 103h104zM665 914l-23 -103h-103l22 103h104z" />
    <glyph glyph-name="Zacute" unicode="&#x179;" horiz-adv-x="611" 
d="M737 729l-18 -84l-556 -563h438l-17 -82h-556l18 84l555 563h-406l17 82h525zM552 939h112l-180 -148h-60z" />
    <glyph glyph-name="zacute" unicode="&#x17a;" horiz-adv-x="500" 
d="M557 524l-18 -75l-392 -377h326l-15 -72h-427l18 74l395 378h-294l15 72h392zM440 740h112l-180 -148h-60z" />
    <glyph glyph-name="Zdotaccent" unicode="&#x17b;" horiz-adv-x="611" 
d="M737 729l-18 -84l-556 -563h438l-17 -82h-556l18 84l555 563h-406l17 82h525zM562 914l-22 -103h-104l22 103h104z" />
    <glyph glyph-name="zdotaccent" unicode="&#x17c;" horiz-adv-x="500" 
d="M557 524l-18 -75l-392 -377h326l-15 -72h-427l18 74l395 378h-294l15 72h392zM450 715l-22 -103h-104l22 103h104z" />
    <glyph glyph-name="Zcaron" unicode="&#x17d;" horiz-adv-x="611" 
d="M737 729l-18 -84l-556 -563h438l-17 -82h-556l18 84l555 563h-406l17 82h525zM531 791h-95l-64 148h63l56 -98l104 98h64z" />
    <glyph glyph-name="zcaron" unicode="&#x17e;" horiz-adv-x="500" 
d="M557 524l-18 -75l-392 -377h326l-15 -72h-427l18 74l395 378h-294l15 72h392zM419 592h-94l-64 148h63l56 -98l103 98h65z" />
    <glyph glyph-name="longs" unicode="&#x17f;" horiz-adv-x="222" 
d="M145 0h-84l97 457h-70l14 67h70l19 89q12 56 51.5 87.5t97.5 31.5q22 0 45 -5l-15 -69q-13 2 -27 2q-33 0 -48.5 -14.5t-23.5 -52.5z" />
    <glyph glyph-name="florin" unicode="&#x192;" 
d="M567 464l-15 -72h-127l-158 -397q-42 -106 -102 -156.5t-145 -50.5q-31 0 -52 10l35 86q23 -19 50 -19q74 0 119 114l165 413h-112l15 72h125l43 103q32 78 90 124.5t123 46.5q38 0 75 -19l-46 -78q-27 20 -48 20q-72 0 -121 -128l-27 -69h113z" />
    <glyph glyph-name="Aringacute" unicode="&#x1fa;" horiz-adv-x="667" 
d="M524 219h-285l-123 -219h-99l415 729h120l101 -729h-102zM514 297l-40 333l-191 -333h231zM535 953q31 0 51.5 -19t20.5 -48q0 -43 -33 -75.5t-76 -32.5q-30 0 -50.5 20.5t-20.5 49.5q0 40 33.5 72.5t74.5 32.5zM527 909q-20 0 -37 -16.5t-17 -35.5q0 -16 10 -25.5
t25 -9.5q21 0 37.5 16.5t16.5 36.5q0 15 -10 24.5t-25 9.5zM494 1070h112l-180 -148h-60z" />
    <glyph glyph-name="aringacute" unicode="&#x1fb;" 
d="M552 51l-13 -65q-2 0 -5.5 -1t-5.5 -1.5t-3 -0.5q-24 -6 -39 -6q-36 0 -56 17.5t-20 48.5v4v7q-49 -43 -88 -57q-57 -20 -114 -20q-67 0 -105 34t-38 94q0 92 82 144q37 23 81 33.5t144 19.5q55 5 74.5 16.5t26.5 42.5l3 18q2 16 2 19q0 28 -30.5 46t-75.5 18
q-72 0 -107 -37q-18 -18 -30 -56h-84q14 83 76 126.5t167 43.5q79 0 126.5 -31t47.5 -82q0 -10 -6 -37l-64 -301q-1 -3 -1 -10q0 -29 38 -29q8 0 17 2zM431 164l20 94q-43 -15 -146 -29q-71 -10 -103 -30q-22 -13 -35.5 -36t-13.5 -48q0 -32 23 -49t66 -17q66 0 122.5 34.5
t66.5 80.5zM436 754q31 0 51.5 -19t20.5 -48q0 -43 -33 -75.5t-76 -32.5q-30 0 -50.5 20.5t-20.5 49.5q0 40 33.5 72.5t74.5 32.5zM429 710q-21 0 -38 -16t-17 -36q0 -16 10 -25.5t25 -9.5q21 0 37.5 16t16.5 36q0 15 -9.5 25t-24.5 10zM395 880h112l-180 -148h-60z" />
    <glyph glyph-name="AEacute" unicode="&#x1fc;" horiz-adv-x="1000" 
d="M513 214h-269l-130 -214h-103l454 729h622l-17 -82h-371l-49 -233h351l-18 -82h-351l-53 -250h388l-17 -82h-482zM531 295l74 352h-100l-212 -352h238zM817 939h112l-180 -148h-60z" />
    <glyph glyph-name="aeacute" unicode="&#x1fd;" horiz-adv-x="889" 
d="M225 369h-84q21 77 53 109q64 61 193 61q87 0 135 -40q21 -18 24 -25q73 65 182 65q77 0 132 -49.5t55 -119.5q0 -42 -17 -136h-386q-5 -21 -5 -53v-12v-6q0 -48 43 -84q29 -25 82 -25q100 0 155 105h84q-24 -82 -94 -132t-161 -50q-117 0 -174 102q-105 -102 -241 -102
q-65 0 -103.5 34.5t-38.5 93.5q0 43 22 81.5t60 62.5q38 23 81.5 33t140.5 18q54 5 73 17t27 44l5 25q2 14 2 19q0 27 -27.5 42t-76.5 15q-59 0 -92 -22t-49 -71zM421 164l20 93q-27 -10 -47 -13.5t-95 -14.5q-70 -9 -103 -30q-49 -31 -49 -84q0 -66 90 -66q63 0 118.5 35
t65.5 80zM530 306h294q3 22 3 33q0 57 -30.5 90t-83.5 33q-63 0 -111.5 -41t-71.5 -115zM603 740h112l-180 -148h-60z" />
    <glyph glyph-name="Oslashacute" unicode="&#x1fe;" horiz-adv-x="778" 
d="M32 15l94 85q-38 66 -38 168q0 91 38 184t103 162q121 127 290 127q73 0 133 -22.5t93 -61.5l87 78l35 -39l-92 -83q37 -64 37 -150q0 -119 -53.5 -232t-140.5 -177q-103 -77 -240 -77q-142 0 -220 80l-91 -81zM202 168l470 424q-57 68 -164 68q-136 0 -230 -114.5
t-94 -281.5q0 -54 18 -96zM700 546l-470 -423q54 -65 161 -65q70 0 134 33.5t107 92.5q39 54 61.5 123.5t22.5 135.5q0 67 -16 103zM563 939h112l-180 -148h-60z" />
    <glyph glyph-name="oslashacute" unicode="&#x1ff;" horiz-adv-x="611" 
d="M19 -2l83 76q-21 45 -21 90q0 64 22 137t56 122q79 116 224 116q105 0 154 -67l76 69l26 -30l-81 -74q19 -42 19 -83q0 -67 -22 -140t-57 -121q-84 -116 -224 -116q-105 0 -151 64l-78 -71zM175 141l295 269q-29 52 -101 52q-100 0 -156 -105q-44 -80 -44 -177
q0 -21 6 -39zM484 370l-294 -268q29 -48 99 -48q48 0 89 27.5t68 77.5q18 34 30.5 83.5t12.5 85.5q0 17 -5 42zM438 740h112l-180 -148h-60z" />
    <glyph glyph-name="Scommaaccent" unicode="&#x218;" horiz-adv-x="667" 
d="M706 515h-88q4 25 4 36q0 49 -32 78q-34 31 -120 31q-97 0 -152 -49q-44 -40 -44 -93q0 -33 21.5 -51t79.5 -35l172 -49q67 -19 98 -68q24 -37 24 -78q0 -43 -24 -92t-63 -84q-90 -84 -252 -84q-113 0 -177 50.5t-64 141.5q0 30 9 63h87q-4 -25 -4 -41q0 -68 40 -100.5
t125 -32.5q120 0 180 56q47 44 47 95q0 37 -26 60t-87 40l-171 48q-50 14 -80.5 51t-30.5 84q0 38 20.5 85.5t51.5 78.5q82 85 238 85q113 0 172 -52q54 -47 54 -118q0 -19 -8 -56zM276 -60h100l-20 -93q-14 -62 -47.5 -96.5t-80.5 -34.5l8 38q58 0 73 88h-54z" />
    <glyph glyph-name="scommaaccent" unicode="&#x219;" horiz-adv-x="500" 
d="M514 378h-84l1 11v5v6q0 62 -92 62q-64 0 -98 -33q-30 -28 -30 -62q0 -39 85 -60l76 -19q66 -16 93.5 -42.5t27.5 -72.5q0 -89 -67 -142.5t-179 -53.5q-88 0 -137 34t-49 94q0 23 6 51h89q-2 -20 -2 -25q0 -77 108 -77q71 0 111 34q13 10 22.5 29t9.5 33q0 16 -13 33
q-11 13 -57 26l-74 19q-77 20 -107.5 45.5t-30.5 71.5q0 77 60 134q63 60 173 60q73 0 118.5 -32.5t45.5 -85.5q0 -18 -6 -43zM191 -60h100l-19 -93q-14 -62 -48 -96.5t-81 -34.5l8 38q58 0 74 88h-55z" />
    <glyph glyph-name="uni021A" unicode="&#x21a;" horiz-adv-x="611" 
d="M493 647l-138 -647h-94l138 647h-241l17 82h573l-17 -82h-238zM244 -60h100l-19 -93q-14 -62 -48 -96.5t-81 -34.5l8 38q58 0 74 88h-55z" />
    <glyph glyph-name="uni021B" unicode="&#x21b;" horiz-adv-x="278" 
d="M366 524l-15 -67h-88l-78 -367q-2 -10 -2 -14q0 -12 9.5 -19.5t25.5 -7.5q12 0 49 8l-16 -73q-26 -7 -65 -7q-41 0 -65 21t-24 58q0 16 3 31l79 370h-71l14 67h71l31 144h84l-31 -144h89zM103 -60h100l-19 -93q-14 -62 -48 -96.5t-81 -34.5l8 38q58 0 74 88h-55z" />
    <glyph glyph-name="circumflex" unicode="&#x2c6;" horiz-adv-x="333" 
d="M274 741h95l64 -150h-63l-56 99l-104 -99h-64z" />
    <glyph glyph-name="caron" unicode="&#x2c7;" horiz-adv-x="333" 
d="M335 592h-95l-64 148h63l56 -98l104 98h64z" />
    <glyph glyph-name="uni02C9" unicode="&#x2c9;" horiz-adv-x="333" 
d="M450 696l-15 -69h-275l15 69h275z" />
    <glyph glyph-name="breve" unicode="&#x2d8;" horiz-adv-x="333" 
d="M170 729h53v-8v-5q0 -22 22.5 -36t59.5 -14q94 0 110 63h56q-15 -59 -46 -86q-54 -49 -133 -49q-56 0 -91.5 27.5t-35.5 71.5q0 13 5 36z" />
    <glyph glyph-name="dotaccent" unicode="&#x2d9;" horiz-adv-x="333" 
d="M370 715l-22 -103h-104l22 103h104z" />
    <glyph glyph-name="ring" unicode="&#x2da;" horiz-adv-x="333" 
d="M324 754q31 0 51.5 -19t20.5 -48q0 -43 -33 -75.5t-76 -32.5q-30 0 -50.5 20.5t-20.5 49.5q0 40 33.5 72.5t74.5 32.5zM316 710q-20 0 -37 -16t-17 -36q0 -16 10 -25.5t25 -9.5q21 0 37.5 16.5t16.5 36.5q0 15 -10 24.5t-25 9.5z" />
    <glyph glyph-name="ogonek" unicode="&#x2db;" horiz-adv-x="333" 
d="M165 0h69q-11 -6 -22 -11q-38 -18 -53.5 -29t-28.5 -26q-20 -23 -20 -50q0 -20 18.5 -32t47.5 -12q43 0 70 10l-9 -45q-30 -10 -68 -10q-64 0 -99 19.5t-35 55.5q0 57 59 96q29 19 71 34z" />
    <glyph glyph-name="tilde" unicode="&#x2dc;" horiz-adv-x="333" 
d="M418 719h53q-16 -49 -45 -78t-63 -29q-27 0 -103 26q-17 6 -27 6q-17 0 -25.5 -5.5t-24.5 -27.5h-53q16 47 32 67q12 16 32 26t40 10q22 0 73 -17q43 -15 63 -15q15 0 24.5 7.5t23.5 29.5z" />
    <glyph glyph-name="hungarumlaut" unicode="&#x2dd;" horiz-adv-x="333" 
d="M219 740h112l-180 -150h-60zM393 740h112l-180 -150h-60z" />
    <glyph glyph-name="tonos" unicode="&#x384;" horiz-adv-x="333" 
d="M291 779h82l-19 -91l-48 -104h-30l-4 104z" />
    <glyph glyph-name="dieresistonos" unicode="&#x385;" horiz-adv-x="333" 
d="M308 859h82l-19 -91l-48 -104h-31l-3 104zM450 708l-22 -103h-92l22 103h92zM276 708l-22 -103h-92l22 103h92z" />
    <glyph glyph-name="Alphatonos" unicode="&#x386;" horiz-adv-x="667" 
d="M524 219h-285l-123 -219h-99l415 729h120l101 -729h-102zM514 297l-40 333l-191 -333h231zM209 729h82l-19 -91l-48 -104h-30l-4 104z" />
    <glyph glyph-name="uni0387" unicode="&#x387;" horiz-adv-x="278" 
d="M293 295l-22 -103h-105l22 103h105z" />
    <glyph glyph-name="Epsilontonos" unicode="&#x388;" horiz-adv-x="789" 
d="M330 332l-53 -250h428l-17 -82h-523l155 729h506l-17 -82h-412l-50 -233h396l-18 -82h-395zM184 729h82l-19 -91l-48 -104h-30l-4 104z" />
    <glyph glyph-name="Etatonos" unicode="&#x389;" horiz-adv-x="846" 
d="M697 332h-373l-71 -332h-94l155 729h94l-67 -315h373l67 315h94l-155 -729h-94zM178 729h82l-19 -91l-48 -104h-30l-4 104z" />
    <glyph glyph-name="Iotatonos" unicode="&#x38a;" horiz-adv-x="389" 
d="M413 729l-155 -729h-94l155 729h94zM183 729h82l-19 -91l-48 -104h-30l-4 104z" />
    <glyph glyph-name="Omicrontonos" unicode="&#x38c;" horiz-adv-x="794" 
d="M544 741q142 0 219 -77q33 -34 52.5 -87.5t19.5 -112.5q0 -119 -52.5 -231t-140.5 -179q-100 -77 -244 -77q-64 0 -121 20.5t-93 56.5q-73 73 -73 209q0 96 37.5 189t104.5 162q121 127 291 127zM532 660q-70 0 -133.5 -33.5t-107.5 -92.5q-84 -117 -84 -263
q0 -88 41 -141q26 -33 70 -52.5t93 -19.5q73 0 136.5 33t107.5 94q84 116 84 261q0 89 -41 142q-26 33 -70.5 52.5t-95.5 19.5zM141 729h82l-19 -91l-48 -104h-31l-3 104z" />
    <glyph glyph-name="Upsilontonos" unicode="&#x38e;" horiz-adv-x="865" 
d="M584 286l-61 -286h-94l61 286l-186 443h112l136 -357l289 357h111zM192 729h82l-19 -91l-48 -104h-30l-4 104z" />
    <glyph glyph-name="Omegatonos" unicode="&#x38f;" horiz-adv-x="775" 
d="M39 0l17 82h193q-44 31 -67 63q-56 75 -56 175q0 76 27.5 153t74.5 132q54 65 131.5 101t162.5 36q132 0 211.5 -80t79.5 -213q0 -123 -66.5 -220t-185.5 -147h188l-17 -82h-288l17 82q114 59 170 132q89 116 89 248q0 89 -55 143.5t-144 54.5q-128 0 -215 -102.5
t-87 -253.5q0 -76 28 -125.5t97 -96.5l-17 -82h-288zM138 729h82l-19 -91l-48 -104h-31l-3 104z" />
    <glyph glyph-name="iotadieresistonos" unicode="&#x390;" horiz-adv-x="222" 
d="M69 0l111 524h84l-111 -524h-84zM253 859h82l-20 -91l-48 -104h-30l-4 104zM395 708l-22 -103h-92l22 103h92zM221 708l-22 -103h-92l22 103h92z" />
    <glyph glyph-name="Alpha" unicode="&#x391;" horiz-adv-x="667" 
d="M524 219h-285l-123 -219h-99l415 729h120l101 -729h-102zM514 297l-40 333l-191 -333h231z" />
    <glyph glyph-name="Beta" unicode="&#x392;" horiz-adv-x="667" 
d="M79 0l155 729h296q97 0 145 -51q36 -39 36 -93q0 -68 -35 -120t-101 -81q53 -23 75 -51.5t22 -74.5q0 -98 -65 -171q-77 -87 -198 -87h-330zM261 415h180q93 0 136 46q38 43 38 100q0 44 -30 65t-94 21h-180zM190 82h227q81 0 125 57q34 44 34 103q0 91 -106 91h-226z
" />
    <glyph glyph-name="Gamma" unicode="&#x393;" horiz-adv-x="570" 
d="M73 0l155 729h497l-18 -82h-402l-138 -647h-94z" />
    <glyph glyph-name="uni0394" unicode="&#x394;" horiz-adv-x="671" 
d="M-10 0l449 729h100l142 -729h-691zM140 82h424l-99 534z" />
    <glyph glyph-name="Epsilon" unicode="&#x395;" horiz-adv-x="667" 
d="M255 332l-54 -250h429l-17 -82h-523l155 729h506l-17 -82h-412l-50 -233h396l-18 -82h-395z" />
    <glyph glyph-name="Zeta" unicode="&#x396;" horiz-adv-x="611" 
d="M737 729l-18 -84l-556 -563h438l-17 -82h-556l18 84l555 563h-406l17 82h525z" />
    <glyph glyph-name="Eta" unicode="&#x397;" horiz-adv-x="722" 
d="M621 332h-373l-71 -332h-94l155 729h94l-67 -315h373l67 315h94l-155 -729h-94z" />
    <glyph glyph-name="Theta" unicode="&#x398;" horiz-adv-x="778" 
d="M622 417l-17 -82h-287l18 82h286zM549 741q131 0 203.5 -73.5t72.5 -206.5q0 -164 -92 -300q-60 -88 -152 -136t-199 -48q-125 0 -200.5 74t-75.5 195q0 159 83 292q61 97 154.5 150t205.5 53zM529 660q-82 0 -150 -41t-111 -116q-66 -113 -66 -244q0 -92 53.5 -146.5
t143.5 -54.5q82 0 150 39t112 111q68 113 68 246q0 77 -36 130q-50 76 -164 76z" />
    <glyph glyph-name="Iota" unicode="&#x399;" horiz-adv-x="278" 
d="M349 729l-155 -729h-94l155 729h94z" />
    <glyph glyph-name="Kappa" unicode="&#x39a;" horiz-adv-x="667" 
d="M226 249l-53 -249h-94l155 729h94l-79 -373l444 373h120l-361 -298l206 -431h-110l-168 376z" />
    <glyph glyph-name="Lambda" unicode="&#x39b;" horiz-adv-x="667" 
d="M551 729l101 -729h-97l-81 629l-358 -629h-100l415 729h120z" />
    <glyph glyph-name="Mu" unicode="&#x39c;" horiz-adv-x="833" 
d="M467 0h-97l-77 605l-129 -605h-89l155 729h129l80 -627l346 627h131l-155 -729h-89l129 605z" />
    <glyph glyph-name="Nu" unicode="&#x39d;" horiz-adv-x="722" 
d="M801 729l-155 -729h-106l-249 591l-126 -591h-89l155 729h104l250 -598l127 598h89z" />
    <glyph glyph-name="Xi" unicode="&#x39e;" horiz-adv-x="648" 
d="M62 0l17 82h523l-17 -82h-523zM163 332l18 82h459l-17 -82h-460zM201 647l17 82h520l-17 -82h-520z" />
    <glyph glyph-name="Omicron" unicode="&#x39f;" horiz-adv-x="778" 
d="M537 741q142 0 219 -77q33 -34 52.5 -87.5t19.5 -112.5q0 -119 -52.5 -231t-140.5 -179q-100 -77 -244 -77q-64 0 -121 20.5t-93 56.5q-73 73 -73 209q0 96 37.5 189t104.5 162q121 127 291 127zM525 660q-70 0 -133.5 -33.5t-107.5 -92.5q-84 -117 -84 -263
q0 -88 41 -141q26 -33 70 -52.5t93 -19.5q73 0 136.5 33t107.5 94q84 116 84 261q0 89 -41 142q-26 33 -70.5 52.5t-95.5 19.5z" />
    <glyph glyph-name="Pi" unicode="&#x3a0;" horiz-adv-x="725" 
d="M314 647l-138 -647h-94l155 729h561l-155 -729h-94l138 647h-373z" />
    <glyph glyph-name="Rho" unicode="&#x3a1;" horiz-adv-x="667" 
d="M251 309l-66 -309h-94l155 729h302q185 0 185 -161q0 -128 -99 -207q-65 -52 -155 -52h-228zM268 391h194q92 0 140 61q35 44 35 98q0 97 -120 97h-194z" />
    <glyph glyph-name="Sigma" unicode="&#x3a3;" horiz-adv-x="600" 
d="M29 0l17 82l316 287l-194 275l18 85h526l-17 -82h-411l199 -278l-317 -287h426l-18 -82h-545z" />
    <glyph glyph-name="Tau" unicode="&#x3a4;" horiz-adv-x="611" 
d="M493 647l-138 -647h-94l138 647h-241l17 82h573l-17 -82h-238z" />
    <glyph glyph-name="Upsilon" unicode="&#x3a5;" horiz-adv-x="667" 
d="M448 286l-61 -286h-94l61 286l-186 443h112l136 -357l289 357h111z" />
    <glyph glyph-name="Phi" unicode="&#x3a6;" horiz-adv-x="837" 
d="M370 -12l19 90q-89 8 -150 43q-50 29 -79 80t-29 109q0 80 42 154.5t114 120.5q90 59 224 66l19 90h94l-19 -90q52 -4 85.5 -14.5t67.5 -31.5q47 -29 74 -79t27 -106q0 -78 -38.5 -150.5t-105.5 -119.5q-91 -65 -232 -72l-19 -90h-94zM406 156l89 417q-102 -10 -168 -65
q-44 -35 -70 -88t-26 -108q0 -83 66 -124q42 -26 109 -32zM588 573l-88 -417q104 8 175 68q42 35 66.5 87.5t24.5 107.5q0 85 -68 126q-40 25 -110 28z" />
    <glyph glyph-name="Chi" unicode="&#x3a7;" horiz-adv-x="667" 
d="M471 374l179 -374h-115l-134 304l-264 -304h-115l339 374l-167 355h113l125 -285l248 285h114z" />
    <glyph glyph-name="Psi" unicode="&#x3a8;" horiz-adv-x="831" 
d="M372 0l29 138q-118 4 -184.5 58t-66.5 144q0 54 25 172l46 217h94l-46 -217q-25 -114 -25 -161q0 -122 174 -131l109 509h92l-108 -509q103 5 173 60q38 32 58 78.5t43 153.5l46 217h94l-46 -217q-29 -142 -63.5 -207t-103.5 -109q-90 -55 -219 -58l-29 -138h-92z" />
    <glyph glyph-name="uni03A9" unicode="&#x3a9;" horiz-adv-x="761" 
d="M32 0l17 82h193q-44 31 -67 63q-56 75 -56 175q0 76 27.5 153t74.5 132q54 65 131.5 101t162.5 36q132 0 211.5 -80t79.5 -213q0 -123 -66.5 -220t-185.5 -147h188l-17 -82h-288l17 82q114 59 170 132q89 116 89 248q0 89 -55 143.5t-144 54.5q-128 0 -215 -102.5
t-87 -253.5q0 -76 28 -125.5t97 -96.5l-17 -82h-288z" />
    <glyph glyph-name="Iotadieresis" unicode="&#x3aa;" horiz-adv-x="278" 
d="M349 729l-155 -729h-94l155 729h94zM304 914l-22 -103h-104l22 103h104zM466 914l-22 -103h-104l22 103h104z" />
    <glyph glyph-name="Upsilondieresis" unicode="&#x3ab;" horiz-adv-x="667" 
d="M448 286l-61 -286h-94l61 286l-186 443h112l136 -357l289 357h111zM499 914l-22 -103h-104l22 103h104zM661 914l-22 -103h-104l22 103h104z" />
    <glyph glyph-name="alphatonos" unicode="&#x3ac;" horiz-adv-x="570" 
d="M691 524l-151 -253l47 -271h-92l-22 164q-56 -96 -115 -141.5t-127 -45.5q-74 0 -110 59q-39 60 -39 152q0 135 73 242q74 108 182 108q90 0 139 -68q24 -34 41 -97l84 151h90zM457 271q-17 106 -38 142q-30 49 -81 49q-70 0 -119 -86q-50 -89 -50 -188q0 -59 19 -96.5
t50 -37.5q50 0 102.5 52t116.5 165zM357 779h82l-19 -91l-48 -104h-30l-4 104z" />
    <glyph glyph-name="epsilontonos" unicode="&#x3ad;" horiz-adv-x="439" 
d="M346 304l-14 -70q-10 1 -22 1q-180 0 -180 -101q0 -80 106 -80q121 0 160 114h93q-27 -80 -75 -123q-74 -68 -186 -68q-83 0 -134 40.5t-51 106.5q0 56 34 96t95 56q-60 43 -60 97q0 68 62 117t150 49q110 0 159 -71q25 -35 26 -99h-85q-3 40 -16 57q-26 36 -88 36
q-50 0 -86 -26t-36 -63t34.5 -53t113.5 -16zM334 779h82l-19 -91l-48 -104h-30l-4 104z" />
    <glyph glyph-name="etatonos" unicode="&#x3ae;" horiz-adv-x="555" 
d="M179 524h77l-18 -88q37 54 82 78.5t106 24.5q64 0 105 -31.5t41 -80.5q0 -19 -11 -71l-122 -574h-84l120 567q9 43 9 59q0 28 -20 43t-57 15q-69 0 -123 -49.5t-71 -127.5l-61 -289h-84zM412 779h82l-20 -91l-48 -104h-30l-4 104z" />
    <glyph glyph-name="iotatonos" unicode="&#x3af;" horiz-adv-x="222" 
d="M69 0l111 524h84l-111 -524h-84zM236 779h82l-20 -91l-48 -104h-30l-4 104z" />
    <glyph glyph-name="upsilondieresistonos" unicode="&#x3b0;" horiz-adv-x="550" 
d="M178 524h84l-73 -339q-8 -38 -8 -56q0 -34 28 -54.5t75 -20.5q56 0 97 27q42 29 57 104l73 339h84l-73 -339q-14 -68 -27 -96.5t-42 -54.5q-63 -57 -169 -57q-85 0 -137.5 35.5t-52.5 93.5q0 27 11 79zM416 859h82l-19 -91l-48 -104h-30l-4 104zM558 708l-22 -103h-92
l22 103h92zM384 708l-22 -103h-92l22 103h92z" />
    <glyph glyph-name="alpha" unicode="&#x3b1;" horiz-adv-x="570" 
d="M691 524l-151 -253l46 -271h-92l-21 164q-57 -97 -115.5 -142t-127.5 -45q-76 0 -113 59q-40 59 -40 152q0 134 75 242q74 108 185 108q91 0 138 -68q26 -37 41 -97l85 151h90zM456 271q-15 103 -38 142q-28 49 -80 49q-73 0 -122 -86q-52 -87 -52 -187q0 -59 20.5 -97
t52.5 -38q50 0 102.5 52t116.5 165z" />
    <glyph glyph-name="beta" unicode="&#x3b2;" horiz-adv-x="571" 
d="M32 -218l152 717q17 76 32.5 112.5t43.5 64.5q65 65 166 65q79 0 129.5 -44t50.5 -114q0 -76 -60 -131q-25 -25 -69 -43q37 -15 56 -32q43 -45 43 -118q0 -116 -80 -199t-191 -83q-91 0 -137 52l-53 -247h-83zM268 504l-85 -401q37 -49 112 -49q82 0 138 58t56 144
q0 64 -42 92q-35 23 -82 23q-8 0 -32 -2l14 68q48 2 72 8.5t44 22.5q56 44 56 108q0 44 -25.5 68t-72.5 24q-64 0 -100 -38q-33 -33 -53 -126z" />
    <glyph glyph-name="gamma" unicode="&#x3b3;" horiz-adv-x="500" 
d="M165 -218l49 234l-91 508h89l65 -389l223 389h99l-301 -508l-49 -234h-84z" />
    <glyph glyph-name="delta" unicode="&#x3b4;" 
d="M377 526l-141 132l15 71h370l-16 -74h-260l133 -123q56 -51 79.5 -97t23.5 -104q0 -62 -22.5 -131.5t-58.5 -116.5q-80 -106 -215 -106q-94 0 -147 53.5t-53 147.5q0 67 23.5 137t62.5 118q73 93 193 93h13zM378 462q-50 0 -91.5 -27.5t-68.5 -78.5q-43 -79 -43 -173
q0 -60 30.5 -94.5t83.5 -34.5q101 0 159 106q43 79 43 173q0 59 -30.5 94t-82.5 35z" />
    <glyph glyph-name="epsilon" unicode="&#x3b5;" horiz-adv-x="439" 
d="M346 304l-14 -70q-10 1 -22 1q-180 0 -180 -101q0 -80 106 -80q121 0 160 114h93q-27 -80 -75 -123q-74 -68 -186 -68q-83 0 -134 40.5t-51 106.5q0 56 34 96t95 56q-60 43 -60 97q0 68 62 117t150 49q110 0 159 -71q25 -35 26 -99h-85q-3 40 -16 57q-26 36 -88 36
q-50 0 -86 -26t-36 -63t34.5 -53t113.5 -16z" />
    <glyph glyph-name="zeta" unicode="&#x3b6;" horiz-adv-x="463" 
d="M236 655l16 74h344l-16 -74q-149 -78 -258 -197q-67 -73 -105.5 -151.5t-38.5 -141.5q0 -53 36 -70q14 -7 25.5 -9.5t64.5 -8.5l39 -5q60 -7 82 -21q28 -19 28 -59q0 -37 -16 -76t-72 -134h-89q14 24 22 37q66 108 66 146q0 18 -12.5 25t-55.5 11l-36 4q-72 8 -106 25
q-29 15 -45.5 47t-16.5 72q0 83 40.5 172t115.5 170q100 109 212 164h-224z" />
    <glyph glyph-name="eta" unicode="&#x3b7;" horiz-adv-x="555" 
d="M179 524h77l-18 -88q37 54 82 78.5t106 24.5q64 0 105 -31.5t41 -80.5q0 -19 -11 -71l-122 -574h-84l120 567q9 43 9 59q0 28 -20 43t-57 15q-69 0 -123 -49.5t-71 -127.5l-61 -289h-84z" />
    <glyph glyph-name="theta" unicode="&#x3b8;" horiz-adv-x="542" 
d="M419 745q85 0 135 -53t50 -142q0 -111 -51 -294q-24 -86 -50.5 -136.5t-65.5 -84.5q-68 -58 -162 -58q-84 0 -133.5 52t-49.5 140q0 114 50 293q24 89 53 141t74 89q69 53 150 53zM214 415h292q16 92 16 129q0 59 -28.5 91.5t-80.5 32.5q-79 0 -126 -67
q-24 -34 -39 -71.5t-34 -114.5zM491 348h-292q-24 -116 -24 -173q0 -58 28 -90t79 -32q102 0 157 116q23 50 52 179z" />
    <glyph glyph-name="iota" unicode="&#x3b9;" horiz-adv-x="222" 
d="M69 0l111 524h84l-111 -524h-84z" />
    <glyph glyph-name="kappa" unicode="&#x3ba;" horiz-adv-x="500" 
d="M204 303l268 221h115l-226 -186l139 -338h-93l-115 286l-111 -91l-41 -195h-84l111 524h84z" />
    <glyph glyph-name="lambda" unicode="&#x3bb;" horiz-adv-x="492" 
d="M18 0l294 519l-36 210h87l113 -729h-87l-58 391l-218 -391h-95z" />
    <glyph glyph-name="uni03BC" unicode="&#x3bc;" horiz-adv-x="548" 
d="M510 524h84l-112 -524h-75l16 73q-73 -96 -171 -96q-59 0 -99 46l-51 -241h-83l158 742h84l-76 -357q-7 -35 -7 -43q0 -30 25.5 -50t63.5 -20q61 0 113 50q28 26 43 56t26 81z" />
    <glyph glyph-name="nu" unicode="&#x3bd;" horiz-adv-x="500" 
d="M287 0h-91l-73 524h89l52 -413l236 413h99z" />
    <glyph glyph-name="xi" unicode="&#x3be;" horiz-adv-x="447" 
d="M185 655l16 74h371l-15 -74h-90q-81 0 -126 -30q-31 -20 -50.5 -53.5t-19.5 -65.5q0 -45 39.5 -66t122.5 -21h47l-16 -74h-50q-108 0 -170 -35q-40 -23 -63.5 -62t-23.5 -83q0 -52 36 -70q21 -11 95 -19l49 -5q43 -4 63.5 -11.5t34.5 -22.5q15 -18 15 -42q0 -62 -89 -213
h-89q58 96 72.5 126.5t14.5 54.5q0 20 -14.5 27t-65.5 11l-50 4q-73 5 -112 34q-51 39 -51 119q0 105 77 171q48 41 123 56q-86 36 -86 115q0 49 30 91.5t80 63.5h-105z" />
    <glyph glyph-name="omicron" unicode="&#x3bf;" 
d="M379 539q93 0 147.5 -56t54.5 -151q0 -67 -23 -136t-61 -118q-81 -101 -213 -101q-91 0 -145.5 56t-54.5 148q0 68 23 138.5t61 118.5t93.5 74.5t117.5 26.5zM376 462q-103 0 -159 -105q-44 -81 -44 -173q0 -61 31 -95.5t84 -34.5q103 0 160 105q44 79 44 174
q0 61 -30.5 95t-85.5 34z" />
    <glyph glyph-name="pi" unicode="&#x3c0;" horiz-adv-x="670" 
d="M725 524l-15 -74h-75l-96 -450h-84l96 450h-239l-96 -450h-84l96 450h-75l15 74h557z" />
    <glyph glyph-name="rho" unicode="&#x3c1;" horiz-adv-x="573" 
d="M13 -218l98 461q20 91 40 137t57 83q77 77 184 77q92 0 147 -57.5t55 -152.5q0 -140 -82 -249q-79 -104 -207 -104q-106 0 -150 78l-58 -273h-84zM391 462q-42 0 -80.5 -21t-62.5 -58q-25 -37 -41.5 -91.5t-16.5 -98.5q0 -65 30 -101.5t83 -36.5q41 0 79.5 21.5
t63.5 57.5q59 86 59 198q0 62 -30 96t-84 34z" />
    <glyph glyph-name="uni03C2" unicode="&#x3c2;" horiz-adv-x="486" 
d="M371 -218h-89q56 91 70.5 119t14.5 46q0 14 -11.5 22.5t-48.5 22.5l-87 31q-144 52 -144 195q0 60 24.5 121.5t65.5 106.5q84 93 210 93q82 0 132.5 -42.5t50.5 -111.5q0 -17 -3 -41h-88q3 18 3 31q0 39 -28.5 63t-75.5 24q-80 0 -142 -69.5t-62 -159.5q0 -68 39 -101
q14 -13 29 -20t68 -28l54 -21q46 -17 55 -21.5t18 -12.5q28 -22 28 -57q0 -30 -14.5 -62.5t-68.5 -127.5z" />
    <glyph glyph-name="sigma" unicode="&#x3c3;" horiz-adv-x="603" 
d="M477 524h205l-16 -74h-119q46 -50 46 -123q0 -62 -23.5 -133t-59.5 -116q-81 -101 -210 -101q-92 0 -147 55.5t-55 149.5q0 68 23 138t61 118q37 48 92.5 74.5t117.5 26.5q44 0 85 -15zM390 462q-103 0 -159 -105q-44 -81 -44 -173q0 -61 31 -95.5t84 -34.5
q103 0 160 105q44 79 44 174q0 61 -30.5 95t-85.5 34z" />
    <glyph glyph-name="tau" unicode="&#x3c4;" horiz-adv-x="374" 
d="M145 0l96 450h-141l16 74h366l-16 -74h-141l-96 -450h-84z" />
    <glyph glyph-name="upsilon" unicode="&#x3c5;" horiz-adv-x="550" 
d="M178 524h84l-73 -339q-8 -38 -8 -56q0 -34 28 -54.5t75 -20.5q56 0 97 27q42 29 57 104l73 339h84l-73 -339q-14 -68 -27 -96.5t-42 -54.5q-63 -57 -169 -57q-85 0 -137.5 35.5t-52.5 93.5q0 27 11 79z" />
    <glyph glyph-name="phi" unicode="&#x3c6;" horiz-adv-x="652" 
d="M234 -218l42 196q-95 9 -139 51q-57 54 -57 155q0 133 75 225q35 44 72 70t94 48l-17 -83q-33 -17 -52.5 -36t-37.5 -54q-41 -76 -41 -164q0 -89 52 -119q23 -13 66 -18l104 485q15 1 30 1q120 0 183.5 -55t63.5 -159q0 -72 -29.5 -140.5t-81.5 -117.5q-79 -78 -201 -89
l-42 -196h-84zM463 463l-88 -410q52 5 85.5 25.5t62.5 63.5q58 85 58 189q0 40 -16 72t-44 46q-23 11 -58 14z" />
    <glyph glyph-name="chi" unicode="&#x3c7;" horiz-adv-x="546" 
d="M323 250l180 274h98l-249 -360l108 -382h-89l-80 303l-202 -303h-96l267 389l-100 353h90z" />
    <glyph glyph-name="psi" unicode="&#x3c8;" horiz-adv-x="728" 
d="M517 524l-99 -466q82 10 125 51t61 127l61 288h84l-62 -291q-22 -125 -87 -182t-198 -70l-43 -199h-84l43 199q-57 7 -89.5 20t-61.5 40q-41 39 -41 100q0 32 13 92l62 291h84l-61 -288q-11 -49 -11 -79q0 -46 29 -69.5t92 -29.5l99 466h84z" />
    <glyph glyph-name="omega" unicode="&#x3c9;" horiz-adv-x="779" 
d="M432 397h84l-42 -200q-12 -55 -12 -78q0 -66 52 -66q28 0 55 19.5t46 53.5q49 90 49 201q0 108 -61 197h91q59 -80 59 -199q0 -73 -23.5 -146t-61.5 -122q-64 -80 -148 -80q-58 0 -91 39q-15 18 -25 50q-63 -89 -145 -89q-62 0 -97.5 45.5t-35.5 124.5q0 136 80 260
q47 75 100 117h104q-91 -80 -143.5 -182t-52.5 -199q0 -43 16.5 -66.5t45.5 -23.5q39 0 70 38q27 30 44 106z" />
    <glyph glyph-name="iotadieresis" unicode="&#x3ca;" horiz-adv-x="222" 
d="M69 0l111 524h84l-111 -524h-84zM230 715l-21 -103h-104l21 103h104zM392 715l-21 -103h-104l21 103h104z" />
    <glyph glyph-name="upsilondieresis" unicode="&#x3cb;" horiz-adv-x="550" 
d="M178 524h84l-73 -339q-8 -38 -8 -56q0 -34 28 -54.5t75 -20.5q56 0 97 27q42 29 57 104l73 339h84l-73 -339q-14 -68 -27 -96.5t-42 -54.5q-63 -57 -169 -57q-85 0 -137.5 35.5t-52.5 93.5q0 27 11 79zM398 715l-22 -103h-104l22 103h104zM560 715l-22 -103h-104l22 103
h104z" />
    <glyph glyph-name="omicrontonos" unicode="&#x3cc;" 
d="M379 539q93 0 147.5 -56t54.5 -151q0 -67 -23 -136t-61 -118q-81 -101 -213 -101q-91 0 -145.5 56t-54.5 148q0 68 23 138.5t61 118.5t93.5 74.5t117.5 26.5zM376 462q-103 0 -159 -105q-44 -81 -44 -173q0 -61 31 -95.5t84 -34.5q103 0 160 105q44 79 44 174
q0 61 -30.5 95t-85.5 34zM392 779h82l-19 -91l-48 -104h-30l-4 104z" />
    <glyph glyph-name="upsilontonos" unicode="&#x3cd;" horiz-adv-x="550" 
d="M178 524h84l-73 -339q-8 -38 -8 -56q0 -34 28 -54.5t75 -20.5q56 0 97 27q42 29 57 104l73 339h84l-73 -339q-14 -68 -27 -96.5t-42 -54.5q-63 -57 -169 -57q-85 0 -137.5 35.5t-52.5 93.5q0 27 11 79zM399 779h82l-19 -91l-48 -104h-30l-4 104z" />
    <glyph glyph-name="omegatonos" unicode="&#x3ce;" horiz-adv-x="779" 
d="M432 397h84l-42 -200q-12 -55 -12 -78q0 -66 52 -66q28 0 55 19.5t46 53.5q49 90 49 201q0 108 -61 197h91q59 -80 59 -199q0 -73 -23.5 -146t-61.5 -122q-64 -80 -148 -80q-58 0 -91 39q-15 18 -25 50q-63 -89 -145 -89q-62 0 -97.5 45.5t-35.5 124.5q0 136 80 260
q47 75 100 117h104q-91 -80 -143.5 -182t-52.5 -199q0 -43 16.5 -66.5t45.5 -23.5q39 0 70 38q27 30 44 106zM514 779h82l-19 -91l-48 -104h-31l-3 104z" />
    <glyph glyph-name="theta1" unicode="&#x3d1;" horiz-adv-x="550" 
d="M67 294h115q-12 -75 -12 -113q0 -129 108 -129q44 0 83.5 25.5t61.5 68.5q38 74 60 191q-115 12 -171 44q-53 30 -83.5 78t-30.5 102q0 78 54.5 130.5t136.5 52.5q94 0 149.5 -58.5t55.5 -156.5q0 -45 -12 -122q29 0 50 1l-18 -73h-24h-24q-27 -146 -77 -231
q-36 -61 -93.5 -94.5t-125.5 -33.5q-87 0 -135 51.5t-48 145.5q0 17 3 54h-38zM499 409q13 55 13 111q0 76 -31 111q-34 40 -93 40q-47 0 -78.5 -30t-31.5 -75q0 -38 24 -71.5t66 -55.5q53 -26 131 -30z" />
    <glyph glyph-name="phi1" unicode="&#x3d5;" 
d="M190 -218l42 196q-52 7 -86 35q-69 56 -69 178q0 82 31.5 161t82.5 125q65 59 160 62l26 123h82l-27 -123q77 -11 120 -68.5t43 -149.5q0 -84 -33.5 -163t-88.5 -123q-65 -53 -160 -57l-42 -196h-81zM248 53l88 411q-67 -7 -111 -64q-26 -34 -42.5 -92.5t-16.5 -116.5
q0 -122 82 -138zM417 464l-88 -411q78 11 120 72q25 35 41 91t16 110q0 126 -89 138z" />
    <glyph glyph-name="omega1" unicode="&#x3d6;" horiz-adv-x="779" 
d="M277 456h-98l15 68h267q151 0 224 -55q79 -58 79 -164q0 -124 -73.5 -220t-168.5 -96q-38 0 -66 20.5t-41 57.5q-63 -78 -142 -78q-62 0 -100.5 46.5t-38.5 120.5q0 88 39 169.5t104 130.5zM423 456h-36q-68 -43 -103 -93q-63 -86 -63 -204q0 -44 16.5 -68.5t46.5 -24.5
q89 0 124 167l15 70h84l-15 -70q-10 -44 -10 -82q0 -86 62 -86q47 0 84 58q46 73 46 162q0 97 -73 141q-50 30 -178 30z" />
    <glyph glyph-name="uni0400" unicode="&#x400;" horiz-adv-x="667" 
d="M255 332l-54 -250h429l-17 -82h-523l155 729h506l-17 -82h-412l-50 -233h396l-18 -82h-395zM482 939l72 -148h-53l-125 148h106z" />
    <glyph glyph-name="afii10023" unicode="&#x401;" horiz-adv-x="667" 
d="M249 332l-54 -250h430l-17 -82h-523l155 729h505l-17 -82h-412l-50 -233h397l-17 -82h-397zM512 914l-22 -103h-104l22 103h104zM673 914l-22 -103h-104l22 103h104z" />
    <glyph glyph-name="afii10051" unicode="&#x402;" horiz-adv-x="843" 
d="M247 0l137 647h-200l17 82h496l-17 -82h-202l-49 -234q45 46 88 62t121 16q106 0 149 -40q44 -41 44 -93q0 -18 -4 -37l-33 -152q-10 -81 -59 -125.5t-126 -43.5h-147l18 82h135q70 0 84 79l33 156q3 14 3 25q0 35 -27 51t-87 16q-111 0 -170 -46q-40 -31 -51 -85
l-59 -278h-94z" />
    <glyph glyph-name="afii10052" unicode="&#x403;" horiz-adv-x="544" 
d="M242 729h454l-17 -82h-361l-138 -647h-93zM501 939h113l-181 -148h-60z" />
    <glyph glyph-name="afii10053" unicode="&#x404;" horiz-adv-x="708" 
d="M222 406h285l-18 -83h-286q-3 -31 -3 -50q0 -101 47 -157.5t130 -56.5q115 0 204 81q48 44 81 117l93 -17q-49 -102 -108 -158q-113 -105 -274 -105q-130 0 -199 82q-66 78 -66 208q0 98 36 193.5t100 163.5q109 117 269 117q147 0 223 -90q39 -46 60 -133l-93 -17
q-11 54 -36 86q-25 34 -68 53t-92 19q-99 0 -173 -65.5t-112 -187.5z" />
    <glyph glyph-name="afii10054" unicode="&#x405;" horiz-adv-x="667" 
d="M708 515h-94q5 21 5 37q0 51 -40 79t-112 28q-80 0 -132 -37q-28 -19 -44 -47.5t-16 -56.5q0 -32 20 -52q18 -20 80 -38l159 -45q133 -38 133 -147q0 -54 -24.5 -104.5t-67.5 -85.5q-85 -69 -224 -69q-124 0 -191.5 52.5t-67.5 149.5q0 23 5 53h94q-5 -27 -5 -43
q0 -62 43 -96t122 -34q109 0 167 54q53 50 53 104q0 35 -25 57t-86 39l-156 43q-59 17 -92 55t-33 91q0 47 22.5 92.5t62.5 77.5q82 69 214 69q109 0 172 -48.5t63 -131.5q0 -21 -5 -46z" />
    <glyph glyph-name="afii10055" unicode="&#x406;" horiz-adv-x="278" 
d="M341 729l-155 -729h-94l155 729h94z" />
    <glyph glyph-name="afii10056" unicode="&#x407;" horiz-adv-x="278" 
d="M341 729l-155 -729h-94l155 729h94zM306 914l-22 -103h-104l22 103h104zM467 914l-22 -103h-104l22 103h104z" />
    <glyph glyph-name="afii10057" unicode="&#x408;" horiz-adv-x="500" 
d="M486 729h93l-116 -547q-22 -100 -83 -152.5t-156 -52.5q-78 0 -127 42.5t-49 110.5q0 29 7 57l10 47h94l-10 -47q-7 -33 -7 -55q0 -36 23 -56.5t64 -20.5q60 0 99 45q32 36 49 116z" />
    <glyph glyph-name="afii10058" unicode="&#x409;" horiz-adv-x="1066" 
d="M478 0l138 647h-229l-78 -369q-17 -75 -38 -120t-54 -81q-77 -80 -167 -77h-16l17 82q58 5 100.5 56.5t62.5 137.5l97 453h416l-65 -309h219q90 0 139.5 -43.5t49.5 -123.5q0 -54 -22.5 -105t-62.5 -86q-71 -62 -187 -62h-320zM644 338l-54 -256h210q74 0 125 46.5
t51 114.5q0 95 -121 95h-211z" />
    <glyph glyph-name="afii10059" unicode="&#x40a;" horiz-adv-x="982" 
d="M535 338h-301l-72 -338h-94l155 729h93l-66 -309h302l66 309h94l-66 -309h153q91 0 140.5 -43.5t49.5 -123.5q0 -54 -22.5 -105t-62.5 -86q-71 -62 -187 -62h-254zM629 338l-54 -256h144q74 0 125 46.5t51 114.5q0 95 -122 95h-144z" />
    <glyph glyph-name="afii10060" unicode="&#x40b;" horiz-adv-x="844" 
d="M247 0l138 647h-198l17 82h461l-17 -82h-169l-50 -234q47 47 89 63t117 16q99 0 144 -40q44 -39 44 -94q0 -12 -5 -37l-68 -321h-94l67 317q4 20 4 25q0 35 -27 51.5t-86 16.5q-185 0 -214 -132l-59 -278h-94z" />
    <glyph glyph-name="afii10061" unicode="&#x40c;" horiz-adv-x="589" 
d="M66 0l155 729h94l-64 -302h66l243 302h109l-278 -345l170 -384h-99l-151 345h-78l-73 -345h-94zM516 939h113l-181 -148h-60z" />
    <glyph glyph-name="uni040D" unicode="&#x40d;" horiz-adv-x="715" 
d="M75 0l155 729h94l-108 -510l467 428l17 82h94l-155 -729h-93l109 513l-468 -430l-18 -83h-94zM485 939l72 -148h-54l-124 148h106z" />
    <glyph glyph-name="afii10062" unicode="&#x40e;" horiz-adv-x="639" 
d="M144 0l17 82h56q32 1 54 18t47 60l-142 569h108l101 -462l286 462h114l-412 -637q-33 -49 -65.5 -70.5t-75.5 -21.5h-88zM364 928h53v-8v-5q0 -23 22 -36.5t59 -13.5q95 0 111 63h56q-16 -59 -47 -86q-52 -49 -132 -49q-56 0 -91.5 27.5t-35.5 71.5q0 14 5 36z" />
    <glyph glyph-name="afii10145" unicode="&#x40f;" horiz-adv-x="724" 
d="M81 0l155 729h94l-138 -647h374l138 647h94l-155 -729h-235l-36 -166h-94l36 166h-233z" />
    <glyph glyph-name="afii10017" unicode="&#x410;" horiz-adv-x="667" 
d="M525 219h-282l-123 -219h-104l415 729h120l101 -729h-99zM515 297l-41 332l-190 -332h231z" />
    <glyph glyph-name="afii10018" unicode="&#x411;" horiz-adv-x="651" 
d="M257 420h219q91 0 140.5 -43.5t49.5 -123.5q0 -54 -22.5 -105t-62.5 -86q-71 -62 -188 -62h-319l155 729h478l-18 -82h-383zM240 338l-55 -256h211q74 0 125 46.5t51 114.5q0 95 -122 95h-210z" />
    <glyph glyph-name="afii10019" unicode="&#x412;" horiz-adv-x="667" 
d="M81 0l155 729h296q83 0 131 -40.5t48 -110.5q0 -78 -53 -137q-30 -35 -84 -56q100 -44 100 -140q0 -46 -19.5 -92.5t-53.5 -80.5q-72 -72 -191 -72h-329zM263 414h179q82 0 126 41q49 44 49 110q0 46 -27.5 64t-97.5 18h-179zM192 82h226q67 0 114 46.5t47 112.5
q0 91 -108 91h-225z" />
    <glyph glyph-name="afii10020" unicode="&#x413;" horiz-adv-x="544" 
d="M239 729h454l-17 -82h-361l-138 -647h-93z" />
    <glyph glyph-name="afii10021" unicode="&#x414;" horiz-adv-x="704" 
d="M582 0h-474l-35 -166h-94l53 248q88 8 151 84t87 202l76 361h430l-138 -647h56l-53 -248h-94zM544 82l120 565h-241l-59 -276q-21 -104 -67 -179.5t-108 -109.5h355z" />
    <glyph glyph-name="afii10022" unicode="&#x415;" horiz-adv-x="667" 
d="M249 332l-54 -250h430l-17 -82h-523l155 729h505l-17 -82h-412l-50 -233h397l-17 -82h-397z" />
    <glyph glyph-name="afii10024" unicode="&#x416;" horiz-adv-x="917" 
d="M411 0l73 345h-92l-297 -345h-110l333 384l-134 345h100l116 -302h102l64 302h94l-64 -302h92l243 302h109l-277 -345l169 -384h-97l-152 345h-105l-73 -345h-94z" />
    <glyph glyph-name="afii10025" unicode="&#x417;" horiz-adv-x="614" 
d="M108 224h96q-6 -36 -6 -57q0 -52 31.5 -80t90.5 -28q82 0 131 54q52 55 52 127q0 49 -31 72t-99 23h-40l17 81h33q71 0 118.5 43t47.5 108q0 44 -26.5 68t-74.5 24q-64 0 -105.5 -41t-54.5 -117h-97q14 81 51 134q35 50 91.5 78t121.5 28q85 0 136.5 -46t51.5 -122
q0 -86 -63 -147q-33 -33 -83 -46q48 -11 75 -47t27 -90q0 -105 -75 -183q-78 -83 -207 -83q-100 0 -158 50t-58 136q0 25 7 61z" />
    <glyph glyph-name="afii10026" unicode="&#x418;" horiz-adv-x="715" 
d="M75 0l155 729h94l-108 -510l467 428l17 82h94l-155 -729h-93l109 513l-468 -430l-18 -83h-94z" />
    <glyph glyph-name="afii10027" unicode="&#x419;" horiz-adv-x="715" 
d="M75 0l155 729h94l-108 -510l467 428l17 82h94l-155 -729h-94l109 513l-467 -430l-18 -83h-94zM401 928h53v-8v-5q0 -23 22 -36.5t59 -13.5q95 0 111 63h56q-14 -57 -46 -86q-54 -49 -133 -49q-56 0 -91.5 27.5t-35.5 71.5q0 14 5 36z" />
    <glyph glyph-name="afii10028" unicode="&#x41a;" horiz-adv-x="589" 
d="M66 0l155 729h94l-64 -302h64l244 302h151l-320 -345l170 -384h-99l-152 345h-76l-73 -345h-94z" />
    <glyph glyph-name="afii10029" unicode="&#x41b;" horiz-adv-x="686" 
d="M530 0l138 647h-300l-78 -369q-17 -75 -38 -120t-54 -81q-77 -80 -167 -77h-16l17 82q58 5 100.5 56.5t62.5 137.5l97 453h487l-155 -729h-94z" />
    <glyph glyph-name="afii10030" unicode="&#x41c;" horiz-adv-x="833" 
d="M466 0h-98l-77 611l-130 -611h-88l155 729h129l81 -635l347 635h129l-155 -729h-88l130 611z" />
    <glyph glyph-name="afii10031" unicode="&#x41d;" horiz-adv-x="722" 
d="M619 332h-374l-71 -332h-94l155 729h93l-67 -315h375l67 315h93l-155 -729h-93z" />
    <glyph glyph-name="afii10032" unicode="&#x41e;" horiz-adv-x="778" 
d="M539 741q132 0 208 -78t76 -212q0 -97 -37 -191.5t-101 -161.5q-118 -121 -292 -121q-132 0 -208.5 77.5t-76.5 211.5q0 94 38 188t103 162q119 125 290 125zM529 659q-71 0 -134.5 -33t-107.5 -93q-85 -115 -85 -260q0 -100 52.5 -157t144.5 -57q73 0 136.5 32.5
t108.5 93.5q85 116 85 260q0 100 -53 157t-147 57z" />
    <glyph glyph-name="afii10033" unicode="&#x41f;" horiz-adv-x="725" 
d="M314 647l-138 -647h-94l155 729h561l-155 -729h-94l138 647h-373z" />
    <glyph glyph-name="afii10034" unicode="&#x420;" horiz-adv-x="667" 
d="M252 309l-66 -309h-94l155 729h301q87 0 135.5 -43.5t48.5 -122.5q0 -108 -72.5 -181t-180.5 -73h-227zM269 391h193q88 0 136 57q37 47 37 102q0 97 -118 97h-193z" />
    <glyph glyph-name="afii10035" unicode="&#x421;" horiz-adv-x="722" 
d="M643 257h96q-24 -124 -123.5 -202t-233.5 -78q-125 0 -195.5 75.5t-70.5 210.5q0 95 34.5 187.5t95.5 159.5q116 131 292 131q107 0 175 -56.5t68 -146.5q0 -20 -5 -42h-94q5 28 5 44q0 54 -42.5 86.5t-112.5 32.5q-134 0 -224 -110q-98 -120 -98 -287
q0 -100 47.5 -151.5t138.5 -51.5q89 0 157.5 55t89.5 143z" />
    <glyph glyph-name="afii10036" unicode="&#x422;" horiz-adv-x="611" 
d="M490 647l-138 -647h-93l138 647h-240l17 82h572l-17 -82h-239z" />
    <glyph glyph-name="afii10037" unicode="&#x423;" horiz-adv-x="639" 
d="M144 0l17 82h56q32 1 54 18t47 60l-142 569h108l101 -462l286 462h114l-412 -637q-33 -49 -65.5 -70.5t-75.5 -21.5h-88z" />
    <glyph glyph-name="afii10038" unicode="&#x424;" horiz-adv-x="795" 
d="M348 -10l19 91q-114 7 -179 68t-65 162q0 81 41.5 154.5t112.5 120.5q89 58 211 62l19 91h94l-19 -91q119 -8 182 -65.5t63 -157.5q0 -83 -37 -156t-103 -119q-95 -66 -226 -69l-19 -91h-94zM384 162l87 405q-101 -7 -170 -63q-41 -33 -65.5 -85t-24.5 -106
q0 -67 45 -106t128 -45zM565 567l-87 -405q115 8 188 79.5t73 175.5q0 39 -18.5 72t-50.5 51q-40 23 -105 27z" />
    <glyph glyph-name="afii10039" unicode="&#x425;" horiz-adv-x="667" 
d="M468 374l179 -374h-110l-134 304l-265 -304h-118l338 374l-167 355h108l126 -286l249 286h116z" />
    <glyph glyph-name="afii10040" unicode="&#x426;" horiz-adv-x="727" 
d="M76 0l155 729h94l-138 -647h374l138 647h94l-138 -647h56l-53 -248h-94l35 166h-523z" />
    <glyph glyph-name="afii10041" unicode="&#x427;" horiz-adv-x="673" 
d="M510 0l58 276q-94 -27 -197 -27q-112 0 -169 36q-64 40 -64 113q0 19 4 36l63 295h94l-62 -290q-3 -14 -3 -27q0 -43 35.5 -62t115.5 -19q84 0 201 30l79 368h94l-155 -729h-94z" />
    <glyph glyph-name="afii10042" unicode="&#x428;" horiz-adv-x="920" 
d="M65 0l155 729h94l-138 -647h255l137 647h94l-137 -647h249l138 647h94l-155 -729h-786z" />
    <glyph glyph-name="afii10043" unicode="&#x429;" horiz-adv-x="923" 
d="M60 0l155 729h94l-138 -647h255l137 647h94l-137 -647h254l138 647h94l-138 -647h55l-52 -248h-94l35 166h-752z" />
    <glyph glyph-name="afii10044" unicode="&#x42a;" horiz-adv-x="805" 
d="M434 420h195q91 0 140.5 -43.5t49.5 -123.5q0 -54 -22.5 -105t-62.5 -86q-71 -62 -188 -62h-295l137 647h-274l17 82h368zM416 338l-54 -256h187q74 0 125 46.5t51 114.5q0 95 -122 95h-187z" />
    <glyph glyph-name="afii10045" unicode="&#x42b;" horiz-adv-x="886" 
d="M268 420h219q91 0 140.5 -43.5t49.5 -123.5q0 -54 -22.5 -105t-62.5 -86q-71 -62 -188 -62h-319l155 729h94zM251 338l-55 -256h211q74 0 125 46.5t51 114.5q0 95 -122 95h-210zM706 0l155 729h94l-155 -729h-94z" />
    <glyph glyph-name="afii10046" unicode="&#x42c;" horiz-adv-x="651" 
d="M258 420h219q91 0 140.5 -43.5t49.5 -123.5q0 -54 -22.5 -105t-62.5 -86q-71 -62 -188 -62h-319l155 729h94zM241 338l-55 -256h211q74 0 125 46.5t51 114.5q0 95 -122 95h-210z" />
    <glyph glyph-name="afii10047" unicode="&#x42d;" horiz-adv-x="694" 
d="M366 406h283q2 38 2 43q0 98 -46.5 154t-128.5 56q-164 0 -264 -159l-92 19q61 107 155 164.5t209 57.5q125 0 191 -79q68 -79 68 -210q0 -98 -35.5 -193.5t-96.5 -162.5q-108 -119 -274 -119q-74 0 -134.5 27.5t-96.5 78.5q-40 57 -53 158l92 16q7 -83 41 -126
q25 -34 67.5 -53t92.5 -19q100 0 175.5 69.5t110.5 194.5h-284z" />
    <glyph glyph-name="afii10048" unicode="&#x42e;" horiz-adv-x="1022" 
d="M345 332h-123l-71 -332h-94l155 729h93l-67 -315h125q49 151 158.5 239t249.5 88q132 0 208 -78t76 -212q0 -98 -37 -192t-101 -161q-118 -121 -289 -121q-135 0 -211.5 77.5t-76.5 214.5q0 33 5 63zM762 659q-72 0 -136.5 -33t-108.5 -93q-87 -117 -87 -261
q0 -99 54 -156t147 -57q154 0 249 126q86 116 86 260q0 101 -54 157.5t-150 56.5z" />
    <glyph glyph-name="afii10049" unicode="&#x42f;" horiz-adv-x="682" 
d="M588 314h-240q-68 -1 -101 -36t-49 -121q-21 -111 -57 -157h-108q28 23 42 56t32 116q20 92 49 131t92 57q-82 49 -82 137q0 51 22.5 99.5t62.5 79.5q64 53 185 53h333l-155 -729h-93zM605 396l54 251h-225q-83 0 -124 -38q-50 -47 -50 -119q0 -54 37 -77q25 -17 84 -17
h224z" />
    <glyph glyph-name="afii10065" unicode="&#x430;" 
d="M547 53l-15 -69q-31 -7 -51 -7q-38 0 -60 16t-22 44q0 9 1 14q-83 -74 -183 -74q-69 0 -109 34.5t-40 93.5q0 47 23 89t62 66q33 20 69 29t145 22q52 7 73 18.5t27 37.5l3 16q4 20 4 25q1 25 -26 39.5t-74 14.5q-61 0 -95.5 -23t-48.5 -72h-87q19 76 60 113q62 59 179 59
q82 0 130 -30t48 -81q0 -16 -5 -43l-62 -290q-3 -12 -3 -22q0 -26 28 -26q11 0 29 6zM424 164l20 94q-36 -14 -140 -29q-83 -12 -113 -39q-35 -32 -35 -75q0 -65 85 -65q75 0 139 50q36 28 44 64z" />
    <glyph glyph-name="afii10066" unicode="&#x431;" horiz-adv-x="563" 
d="M512 784h86q-22 -101 -65.5 -140t-146.5 -52q-106 -18 -141 -114q65 62 154 62q82 0 134 -54.5t52 -140.5q0 -69 -20.5 -137.5t-54.5 -114.5q-82 -116 -227 -116q-89 0 -141.5 53t-52.5 143q0 78 28.5 182t68.5 172q37 63 81.5 95t112.5 46q62 11 88.5 27.5t34.5 48.5z
M382 462q-50 0 -92 -27.5t-69 -78.5q-43 -81 -43 -175q0 -58 31 -92.5t83 -34.5q103 0 161 106q43 79 43 174q0 59 -31 93.5t-83 34.5z" />
    <glyph glyph-name="afii10067" unicode="&#x432;" horiz-adv-x="522" 
d="M53 0l111 524h270q55 0 91.5 -33t36.5 -83q0 -78 -85 -127q58 -37 58 -100q0 -86 -62 -140q-48 -41 -125 -41h-295zM153 74h186q46 0 76.5 29t30.5 73q0 31 -18.5 47.5t-53.5 16.5h-186zM204 314h176q42 0 67.5 24t25.5 62q0 50 -54 50h-186z" />
    <glyph glyph-name="afii10068" unicode="&#x433;" horiz-adv-x="493" 
d="M123 0l111 524h317l-16 -74h-232l-96 -450h-84z" />
    <glyph glyph-name="afii10069" unicode="&#x434;" horiz-adv-x="553" 
d="M-20 -97l36 171q86 28 151.5 146.5t97.5 303.5h334l-96 -450h43l-36 -171h-86l20 97h-357l-20 -97h-87zM419 74l80 376h-167l-8 -35q-55 -246 -182 -341h277z" />
    <glyph glyph-name="afii10070" unicode="&#x435;" 
d="M565 234h-385q-7 -36 -7 -57q0 -55 34 -89t89 -34q101 0 157 105h89q-34 -89 -99.5 -135.5t-156.5 -46.5q-93 0 -146.5 53t-53.5 145q0 70 23 140t61 118q87 106 218 106q90 0 142.5 -53t52.5 -144q0 -46 -18 -108zM195 302h294q5 22 5 40q0 55 -31.5 87.5t-83.5 32.5
q-64 0 -113.5 -43t-70.5 -117z" />
    <glyph glyph-name="afii10072" unicode="&#x436;" horiz-adv-x="688" 
d="M302 0l53 249h-65l-201 -249h-103l228 286l-74 238h93l62 -201h76l42 201h84l-42 -201h65l148 201h102l-174 -238l106 -286h-93l-95 249h-75l-53 -249h-84z" />
    <glyph glyph-name="afii10073" unicode="&#x437;" horiz-adv-x="465" 
d="M80 164h87l-5 -22q-2 -9 -2 -24q0 -64 81 -64q51 0 85.5 31t34.5 77q0 33 -22.5 51.5t-63.5 18.5h-35l16 74h35q37 0 72 23q38 25 38 69q0 29 -19 46.5t-51 17.5q-93 0 -113 -110h-89q17 89 72 138t137 49q67 0 109 -36t42 -94q0 -89 -102 -136q63 -34 63 -101
q0 -83 -63 -139t-155 -56q-73 0 -116.5 36t-43.5 98q0 16 3 31z" />
    <glyph glyph-name="afii10074" unicode="&#x438;" 
d="M79 0l111 524h84l-74 -351l295 307l9 44h84l-111 -524h-84l76 358l-296 -310l-10 -48h-84z" />
    <glyph glyph-name="afii10075" unicode="&#x439;" 
d="M79 0l111 524h84l-74 -351l295 307l9 44h84l-111 -524h-84l76 358l-296 -310l-10 -48h-84zM281 729h53v-8v-5q0 -22 22.5 -36t59.5 -14q94 0 110 63h56q-15 -59 -46 -86q-52 -49 -132 -49q-57 0 -92.5 27.5t-35.5 71.5q0 13 5 36z" />
    <glyph glyph-name="afii10076" unicode="&#x43a;" horiz-adv-x="472" 
d="M54 0l111 524h84l-42 -201h55l148 201h101l-174 -238l106 -286h-94l-95 249h-63l-53 -249h-84z" />
    <glyph glyph-name="afii10077" unicode="&#x43b;" horiz-adv-x="564" 
d="M391 0l96 450h-179l-49 -233q-19 -101 -74.5 -157t-139.5 -60l16 74q41 9 72 46.5t41 89.5l66 314h346l-111 -524h-84z" />
    <glyph glyph-name="afii10078" unicode="&#x43c;" horiz-adv-x="686" 
d="M53 0l111 524h128l62 -439l246 439h128l-112 -524h-84l96 450l-249 -450h-86l-60 450l-96 -450h-84z" />
    <glyph glyph-name="afii10079" unicode="&#x43d;" horiz-adv-x="550" 
d="M71 0l111 524h84l-44 -211h240l45 211h84l-111 -524h-84l50 239h-240l-51 -239h-84z" />
    <glyph glyph-name="afii10080" unicode="&#x43e;" 
d="M385 539q90 0 143 -53t53 -142q0 -69 -21.5 -138.5t-56.5 -116.5q-83 -112 -224 -112q-88 0 -141 53t-53 141q0 69 21.5 139.5t56.5 116.5q40 54 98 83t124 29zM378 462q-49 0 -91.5 -28t-69.5 -78q-43 -81 -43 -175q0 -58 31 -92.5t83 -34.5q103 0 161 106q43 79 43 174
q0 59 -31 93.5t-83 34.5z" />
    <glyph glyph-name="afii10081" unicode="&#x43f;" horiz-adv-x="550" 
d="M75 0l111 524h401l-112 -524h-84l96 450h-232l-96 -450h-84z" />
    <glyph glyph-name="afii10082" unicode="&#x440;" 
d="M12 -218l158 742h82l-16 -74q73 89 176 89q82 0 131 -54t49 -145q0 -157 -82 -260t-206 -103q-100 0 -152 78l-58 -273h-82zM387 461q-81 0 -139.5 -81t-58.5 -194q0 -60 30 -95.5t81 -35.5q83 0 143 80.5t60 191.5q0 62 -31.5 98t-84.5 36z" />
    <glyph glyph-name="afii10083" unicode="&#x441;" horiz-adv-x="500" 
d="M547 348h-89q2 24 2 32q0 39 -24.5 60.5t-68.5 21.5q-90 0 -146 -86q-25 -38 -41 -93.5t-16 -105.5q0 -57 30 -90t81 -33q105 0 151 126h89q-28 -99 -92 -151t-158 -52q-88 0 -138.5 53.5t-50.5 147.5q0 67 22.5 135t60.5 118q83 108 213 108q81 0 128.5 -42.5
t47.5 -114.5q0 -7 -1 -34z" />
    <glyph glyph-name="afii10084" unicode="&#x442;" horiz-adv-x="833" 
d="M375 0l95 450h-223l16 74h530l-16 -74h-223l-95 -450h-84z" />
    <glyph glyph-name="afii10085" unicode="&#x443;" horiz-adv-x="500" 
d="M497 524h94l-369 -634q-35 -60 -71 -84q-38 -24 -83 -24q-24 0 -56 11l16 77q23 -11 44 -11q25 0 42 12t35 44l50 85l-66 524h85l48 -408z" />
    <glyph glyph-name="afii10086" unicode="&#x444;" horiz-adv-x="835" 
d="M329 -218l42 196q-109 9 -166.5 64.5t-57.5 151.5q0 81 37.5 157t101.5 123q81 59 204 65l26 123h84l-26 -123q111 -9 170 -64t59 -150q0 -83 -38.5 -159.5t-103.5 -123.5q-81 -58 -206 -64l-42 -196h-84zM387 53l87 411q-94 -8 -154 -64q-39 -37 -62 -91.5t-23 -110.5
q0 -133 152 -145zM558 464l-87 -411q96 8 157 64q40 36 63.5 90t23.5 111q0 133 -157 146z" />
    <glyph glyph-name="afii10087" unicode="&#x445;" horiz-adv-x="500" 
d="M354 269l121 -269h-90l-86 201l-177 -201h-96l237 269l-126 255h95l84 -190l169 190h101z" />
    <glyph glyph-name="afii10088" unicode="&#x446;" horiz-adv-x="572" 
d="M87 0l111 524h84l-95 -450h218l96 450h84l-96 -450h46l-49 -235h-87l34 161h-346z" />
    <glyph glyph-name="afii10089" unicode="&#x447;" horiz-adv-x="518" 
d="M356 0l43 200q-64 -29 -130 -29q-68 0 -110.5 30t-42.5 78q0 15 3 32l46 213h84l-40 -187q-4 -16 -4 -32q0 -57 82 -57q60 0 126 20l54 256h84l-111 -524h-84z" />
    <glyph glyph-name="afii10090" unicode="&#x448;" horiz-adv-x="830" 
d="M78 0l111 524h86l-96 -450h210l96 450h84l-96 -450h210l96 450h84l-112 -524h-673z" />
    <glyph glyph-name="afii10091" unicode="&#x449;" horiz-adv-x="851" 
d="M84 0l111 524h86l-96 -450h210l96 450h84l-96 -450h210l96 450h84l-96 -450h43l-50 -232h-84l34 158h-632z" />
    <glyph glyph-name="afii10092" unicode="&#x44a;" horiz-adv-x="621" 
d="M185 0l96 450h-210l16 74h293l-44 -210h149q62 0 100.5 -35.5t38.5 -93.5q0 -80 -55 -133q-55 -52 -150 -52h-234zM285 74h147q45 0 74 29.5t29 74.5q0 62 -68 62h-147z" />
    <glyph glyph-name="afii10093" unicode="&#x44b;" horiz-adv-x="736" 
d="M89 0l111 524h84l-44 -210h166q62 0 100.5 -35.5t38.5 -93.5q0 -80 -56 -133q-53 -52 -149 -52h-251zM189 74h163q46 0 75.5 29.5t29.5 74.5q0 62 -69 62h-164zM563 0l111 524h84l-111 -524h-84z" />
    <glyph glyph-name="afii10094" unicode="&#x44c;" horiz-adv-x="526" 
d="M71 0l111 524h84l-44 -210h166q62 0 100.5 -35.5t38.5 -93.5q0 -80 -56 -133q-53 -52 -149 -52h-251zM171 74h163q46 0 75 29.5t29 74.5q0 62 -68 62h-164z" />
    <glyph glyph-name="afii10095" unicode="&#x44d;" horiz-adv-x="492" 
d="M177 350l-85 18q39 81 105 126t147 45q85 0 132.5 -54t47.5 -150q0 -143 -79 -252q-76 -106 -204 -106q-91 0 -141.5 52.5t-50.5 146.5l88 21v-13q0 -61 30 -95.5t82 -34.5q61 0 108 48.5t65 131.5h-169l16 74h166q2 28 2 37q0 53 -27 85t-72 32q-49 0 -92 -30t-69 -82z
" />
    <glyph glyph-name="afii10096" unicode="&#x44e;" horiz-adv-x="752" 
d="M163 524h84l-44 -211h87q32 107 105 166.5t172 59.5q89 0 142.5 -53t53.5 -141q0 -70 -21.5 -139.5t-56.5 -116.5q-40 -54 -97.5 -83t-123.5 -29q-90 0 -143 53t-53 143q0 32 5 66h-86l-51 -239h-84zM560 462q-49 0 -91 -28t-69 -78q-43 -81 -43 -175q0 -58 31 -92.5
t83 -34.5q102 0 160 106q43 79 43 174q0 59 -31 93.5t-83 34.5z" />
    <glyph glyph-name="afii10097" unicode="&#x44f;" horiz-adv-x="534" 
d="M377 0l45 210h-133q-40 1 -66.5 -21.5t-34.5 -64.5l-11 -50q-11 -55 -33 -74h-89q14 10 21 24.5t15 49.5l12 56q19 87 91 103q-76 45 -76 118q0 43 20 80.5t54 60.5q49 32 131 32h250l-112 -524h-84zM438 284l35 166h-166q-43 0 -72 -29.5t-29 -73.5q0 -63 66 -63h166z
" />
    <glyph glyph-name="uni0450" unicode="&#x450;" 
d="M384 740l72 -148h-54l-124 148h106zM563 234h-386q-5 -19 -5 -47q0 -63 32.5 -98t91.5 -35q101 0 156 105h84q-23 -81 -93.5 -131.5t-160.5 -50.5q-85 0 -136 50q-62 60 -62 146q0 61 24.5 136t59.5 122q38 50 97 79t124 29q81 0 136 -49.5t55 -122.5q0 -42 -17 -133z
M195 306h294q3 24 3 33q0 56 -31.5 89.5t-84.5 33.5q-61 0 -111 -43.5t-70 -112.5z" />
    <glyph glyph-name="afii10071" unicode="&#x451;" 
d="M565 234h-385q-7 -36 -7 -57q0 -55 34 -89t89 -34q101 0 157 105h89q-34 -89 -99.5 -135.5t-156.5 -46.5q-93 0 -146.5 53t-53.5 145q0 70 23 140t61 118q87 106 218 106q90 0 142.5 -53t52.5 -144q0 -46 -18 -108zM195 302h294q5 22 5 40q0 55 -31.5 87.5t-83.5 32.5
q-64 0 -113.5 -43t-70.5 -117zM397 715l-22 -103h-104l22 103h104zM558 715l-22 -103h-104l22 103h104z" />
    <glyph glyph-name="afii10099" unicode="&#x452;" 
d="M76 0l124 585h-109l16 74h109l15 70h84l-15 -70h110l-16 -74h-110l-31 -150q98 97 190 97q55 0 93.5 -37.5t38.5 -90.5q0 -26 -5 -46l-65 -307q-17 -83 -77 -133t-144 -51h-130l17 77h129q38 -1 74.5 31.5t46.5 75.5l65 307q2 7 2 23q0 34 -20 54t-53 20q-89 0 -182 -110
l-73 -345h-84z" />
    <glyph glyph-name="afii10100" unicode="&#x453;" horiz-adv-x="378" 
d="M70 0l111 524h317l-16 -74h-232l-96 -450h-84zM399 740h113l-180 -148h-68z" />
    <glyph glyph-name="afii10101" unicode="&#x454;" horiz-adv-x="496" 
d="M555 368l-90 -18q-4 52 -34 82t-80 30q-111 0 -160 -154h164l-15 -74h-168q-3 -32 -3 -47q0 -62 26 -97.5t72 -35.5q112 0 170 143l86 -22q-38 -97 -106 -147.5t-159 -50.5q-84 0 -130 55t-46 155q0 136 72 239q78 113 209 113q58 0 102.5 -23.5t66.5 -66.5
q16 -31 23 -81z" />
    <glyph glyph-name="afii10102" unicode="&#x455;" horiz-adv-x="500" 
d="M524 378h-86q2 18 2 24q0 27 -24.5 43.5t-64.5 16.5q-57 0 -93.5 -26.5t-36.5 -67.5q0 -23 19 -38t64 -26l76 -18q119 -31 119 -119q0 -77 -63 -132q-62 -58 -180 -58q-89 0 -137 34.5t-48 98.5q0 20 5 46h86q-3 -22 -3 -32q0 -70 104 -70q64 0 105.5 27t41.5 69
q0 24 -15.5 38.5t-51.5 24.5l-80 20q-71 18 -101 46.5t-30 77.5q0 80 65 131t165 51q77 0 121.5 -34t44.5 -92q0 -15 -4 -35z" />
    <glyph glyph-name="afii10103" unicode="&#x456;" horiz-adv-x="222" 
d="M264 524l-111 -524h-84l111 524h84zM308 729l-22 -105h-84l22 105h84z" />
    <glyph glyph-name="afii10104" unicode="&#x457;" horiz-adv-x="222" 
d="M267 524l-111 -524h-84l111 524h84zM230 715l-22 -103h-104l22 103h104zM391 715l-22 -103h-104l22 103h104z" />
    <glyph glyph-name="afii10105" unicode="&#x458;" horiz-adv-x="222" 
d="M180 524h84l-135 -633q-16 -61 -60.5 -86t-134.5 -23l16 78q9 -1 21 -1q44 0 63 22q12 15 22 60zM307 729l-22 -105h-84l22 105h84z" />
    <glyph glyph-name="afii10106" unicode="&#x459;" horiz-adv-x="910" 
d="M424 0l95 450h-209l-49 -233q-19 -101 -74.5 -157t-139.5 -60l16 74q41 9 72 46.5t41 89.5l66 314h377l-45 -210h183q62 0 100.5 -35.5t38.5 -93.5q0 -80 -56 -133q-53 -52 -149 -52h-267zM523 74h180q46 0 75 29.5t29 74.5q0 62 -68 62h-180z" />
    <glyph glyph-name="afii10107" unicode="&#x45a;" horiz-adv-x="828" 
d="M60 0l111 524h84l-44 -211h240l45 211h84l-45 -210h166q62 0 100.5 -35.5t38.5 -93.5q0 -80 -55 -133q-55 -52 -150 -52h-250l50 239h-240l-51 -239h-84zM484 74h164q45 0 74 29.5t29 74.5q0 62 -68 62h-163z" />
    <glyph glyph-name="afii10108" unicode="&#x45b;" 
d="M76 0l124 585h-108l16 74h108l15 70h84l-15 -70h111l-16 -74h-111l-31 -150q98 97 190 97q55 0 93.5 -37.5t38.5 -90.5q0 -26 -5 -46l-76 -358h-84l76 358q2 8 2 23q0 33 -20 53.5t-53 20.5q-89 0 -182 -110l-73 -345h-84z" />
    <glyph glyph-name="afii10109" unicode="&#x45c;" horiz-adv-x="472" 
d="M54 0l111 524h84l-42 -201h60l148 201h101l-174 -238l106 -286h-94l-95 249h-68l-53 -249h-84zM415 740h113l-180 -148h-60z" />
    <glyph glyph-name="uni045D" unicode="&#x45d;" 
d="M79 0l111 524h84l-74 -351l295 307l9 44h84l-111 -524h-84l76 358l-296 -310l-10 -48h-84zM365 740l72 -148h-54l-124 148h106z" />
    <glyph glyph-name="afii10110" unicode="&#x45e;" horiz-adv-x="500" 
d="M497 524h94l-369 -634q-35 -60 -71 -84q-38 -24 -83 -24q-24 0 -56 11l16 77q23 -11 44 -11q25 0 42 12t35 44l50 85l-66 524h85l48 -408zM253 729h59q-1 -5 -1 -14q0 -23 21 -35.5t58 -12.5q84 0 106 62h58q-13 -55 -46 -87q-52 -48 -134 -48q-57 0 -91 26t-34 69
q0 15 4 40z" />
    <glyph glyph-name="afii10193" unicode="&#x45f;" 
d="M85 0l111 524h84l-95 -450h218l96 450h84l-111 -524h-150l-35 -161h-84l35 161h-153z" />
    <glyph glyph-name="uni0462" unicode="&#x462;" horiz-adv-x="760" 
d="M235 566h-155l15 69h155l20 94h94l-20 -94h144l-15 -69h-144l-31 -146h243q90 0 140 -44t50 -123q0 -54 -23 -105t-63 -86q-69 -62 -187 -62h-343zM281 338l-54 -256h233q74 0 125.5 46.5t51.5 114.5q0 95 -122 95h-234z" />
    <glyph glyph-name="uni0463" unicode="&#x463;" horiz-adv-x="779" 
d="M271 525h-143l16 74h143l14 70h84l-14 -70h151l-16 -74h-151l-49 -211h260q66 0 102.5 -31.5t36.5 -89.5q0 -83 -58.5 -138t-146.5 -55h-345zM255 74h258q45 0 74.5 29.5t29.5 74.5q0 62 -69 62h-258z" />
    <glyph glyph-name="uni0472" unicode="&#x472;" horiz-adv-x="778" 
d="M527 741q142 0 219 -77q33 -34 52.5 -87.5t19.5 -112.5q0 -119 -52.5 -231t-140.5 -179q-100 -77 -244 -77q-64 0 -121 20.5t-93 56.5q-73 73 -73 209q0 96 37.5 189t104.5 162q121 127 291 127zM194 326q-4 -24 -4 -53q0 -92 41 -143q26 -34 70.5 -53t95.5 -19
q107 0 189 71t118 194l-26 -8q-108 -36 -160 -36q-25 0 -39 6.5t-53 36.5q-40 31 -95 31q-49 0 -137 -27zM208 395l3 1q77 24 103 29.5t59 5.5q53 0 94 -31l33 -26q23 -17 58 -17q53 0 161 36q3 30 3 54q0 89 -41 141q-26 34 -70.5 53t-95.5 19q-106 0 -188.5 -71
t-118.5 -194z" />
    <glyph glyph-name="uni0473" unicode="&#x473;" 
d="M385 539q90 0 143 -53t53 -142q0 -69 -21.5 -138.5t-56.5 -116.5q-83 -112 -224 -112q-88 0 -141 53t-53 141q0 69 21.5 139.5t56.5 116.5q40 54 98 83t124 29zM476 232l-37 -14q-58 -23 -82 -23q-21 0 -47 26q-28 27 -53 27q-28 0 -79 -20q-4 -21 -4 -45
q0 -60 30.5 -94.5t83.5 -34.5q66 0 115 46.5t73 131.5zM469 292l21 8q2 30 2 36q0 58 -31 92t-83 34q-64 0 -112 -43.5t-73 -122.5q64 28 99 28q28 0 62 -30q24 -24 42 -24q16 0 73 22z" />
    <glyph glyph-name="uni0474" unicode="&#x474;" horiz-adv-x="760" 
d="M824 726l-19 -87q-21 12 -41 12q-25 0 -42.5 -13.5t-34.5 -45.5l-312 -592h-100l-107 729h100l83 -617l256 509q31 62 68.5 90t89.5 28q29 0 59 -13z" />
    <glyph glyph-name="uni0475" unicode="&#x475;" horiz-adv-x="590" 
d="M643 524l-15 -72q-13 6 -28 6q-23 0 -38 -12.5t-31 -46.5l-201 -399h-91l-73 524h94l49 -425l144 317q29 62 61.5 88.5t81.5 26.5q19 0 47 -7z" />
    <glyph glyph-name="afii10050" unicode="&#x490;" horiz-adv-x="492" 
d="M607 729l128 148h112l-180 -148l-17 -82h-360l-138 -647h-94l155 729h394z" />
    <glyph glyph-name="afii10098" unicode="&#x491;" horiz-adv-x="339" 
d="M414 524l128 148h112l-180 -148l-16 -74h-232l-96 -450h-84l111 524h257z" />
    <glyph glyph-name="uni0492" unicode="&#x492;" horiz-adv-x="538" 
d="M262 414h256l-17 -82h-256l-71 -332h-94l71 332h-48l18 82h47l67 315h454l-17 -82h-360z" />
    <glyph glyph-name="uni0493" unicode="&#x493;" horiz-adv-x="389" 
d="M224 323h151l-16 -74h-151l-53 -249h-84l53 249h-37l15 74h38l42 201h317l-16 -74h-232z" />
    <glyph glyph-name="uni0496" unicode="&#x496;" horiz-adv-x="1027" 
d="M441 0l73 345h-111l-297 -345h-105l333 384l-134 345h105l116 -302h111l64 302h94l-64 -302h111l244 302h104l-278 -345l133 -302h96l-52 -241h-93l35 159h-52l-151 345h-115l-73 -345h-94z" />
    <glyph glyph-name="uni0497" unicode="&#x497;" horiz-adv-x="819" 
d="M351 0l53 249h-98l-201 -249h-103l228 286l-74 238h93l62 -201h109l42 201h84l-42 -201h98l148 201h102l-174 -238l78 -212h77l-46 -235h-84l31 161h-43l-95 249h-108l-53 -249h-84z" />
    <glyph glyph-name="uni049A" unicode="&#x49a;" horiz-adv-x="666" 
d="M80 0l155 729h94l-64 -302h56l243 302h104l-278 -345l134 -302h102l-53 -248h-94l35 166h-58l-134 345h-75l-73 -345h-94z" />
    <glyph glyph-name="uni049B" unicode="&#x49b;" horiz-adv-x="539" 
d="M71 0l111 524h84l-42 -201h60l148 201h97l-174 -238l78 -212h78l-51 -233h-84l35 159h-48l-95 249h-60l-53 -249h-84z" />
    <glyph glyph-name="uni049C" unicode="&#x49c;" horiz-adv-x="618" 
d="M317 427l39 184h60l-39 -184l243 302h104l-278 -345l170 -384h-104l-151 345h-2l-38 -183h-60l38 183h-52l-73 -345h-94l155 729h94l-64 -302h52z" />
    <glyph glyph-name="uni049D" unicode="&#x49d;" horiz-adv-x="505" 
d="M274 323l27 128h54l-27 -128l147 201h97l-174 -238l106 -286h-98l-94 249l-27 -128h-54l27 128h-50l-53 -249h-84l111 524h84l-42 -201h50z" />
    <glyph glyph-name="uni04A2" unicode="&#x4a2;" horiz-adv-x="722" 
d="M619 332h-373l-71 -332h-94l155 729h93l-67 -315h374l67 315h94l-138 -647h56l-52 -248h-94l35 166h-56z" />
    <glyph glyph-name="uni04A3" unicode="&#x4a3;" horiz-adv-x="550" 
d="M71 0l111 524h84l-44 -211h240l45 211h84l-96 -450h34l-49 -235h-84l34 161h-34l50 239h-240l-51 -239h-84z" />
    <glyph glyph-name="uni04AE" unicode="&#x4ae;" horiz-adv-x="667" 
d="M448 286l-61 -286h-94l61 286l-186 443h112l136 -357l289 357h111z" />
    <glyph glyph-name="uni04AF" unicode="&#x4af;" horiz-adv-x="500" 
d="M502 524h89l-298 -524l-47 -218h-84l47 218l-76 524h89l53 -408z" />
    <glyph glyph-name="uni04B0" unicode="&#x4b0;" horiz-adv-x="667" 
d="M435 222h148l-18 -84h-148l-30 -138h-94l30 138h-155l18 84h155l13 64l-186 443h112l137 -358l288 358h111l-368 -443z" />
    <glyph glyph-name="uni04B1" unicode="&#x4b1;" horiz-adv-x="500" 
d="M292 -2h119l-12 -57h-119l-34 -159h-84l34 159h-121l12 57h121l1 2l-76 524h89l53 -408l227 408h89l-298 -524z" />
    <glyph glyph-name="uni04B2" unicode="&#x4b2;" horiz-adv-x="709" 
d="M468 374l140 -292h98l-52 -248h-94l35 166h-63l-134 304l-265 -304h-113l338 374l-167 355h113l126 -286l249 286h111z" />
    <glyph glyph-name="uni04B3" unicode="&#x4b3;" horiz-adv-x="527" 
d="M350 269l87 -195h83l-49 -233h-84l34 159h-40l-86 201l-177 -201h-96l237 269l-126 255h95l84 -190l175 190h95z" />
    <glyph glyph-name="uni04B6" unicode="&#x4b6;" horiz-adv-x="695" 
d="M521 0l59 277q-117 -28 -214 -28q-104 0 -160.5 38t-56.5 108q0 22 4 39l63 295h94l-62 -290q-3 -14 -3 -25q0 -83 162 -83q78 0 190 28l79 370h94l-138 -647h56l-53 -248h-94l36 166h-56z" />
    <glyph glyph-name="uni04B7" unicode="&#x4b7;" horiz-adv-x="504" 
d="M352 0l42 200q-72 -29 -141 -29q-65 0 -104 27t-39 72q0 16 5 41l45 213h84l-41 -194q-2 -8 -2 -22q0 -60 82 -60q59 0 126 20l54 256h84l-96 -450h34l-51 -233h-84l36 159h-34z" />
    <glyph glyph-name="uni04B8" unicode="&#x4b8;" horiz-adv-x="695" 
d="M421 251l-30 -143h-60l30 141q-212 5 -212 146q0 22 4 39l63 295h94l-62 -290q-3 -14 -3 -25q0 -73 133 -82l48 225h60l-48 -225q74 4 159 27l79 370h94l-155 -729h-94l59 277q-73 -19 -159 -26z" />
    <glyph glyph-name="uni04B9" unicode="&#x4b9;" horiz-adv-x="504" 
d="M306 175l-21 -106h-54l20 102q-66 2 -103.5 28t-37.5 71q0 16 5 41l45 213h84l-41 -194q-2 -8 -2 -22q0 -53 67 -59l26 122h54l-26 -121q46 6 87 18l54 256h84l-111 -524h-84l42 200q-47 -19 -88 -25z" />
    <glyph glyph-name="uni04BA" unicode="&#x4ba;" horiz-adv-x="695" 
d="M310 729l-59 -276q95 27 197 27q113 0 170 -36q64 -40 64 -113q0 -14 -5 -36l-62 -295h-94l61 290q4 20 4 27q2 41 -35 61t-116 20q-83 0 -202 -30l-78 -368h-94l155 729h94z" />
    <glyph glyph-name="uni04BB" unicode="&#x4bb;" horiz-adv-x="567" 
d="M82 0l155 729h84l-62 -294q98 97 190 97q55 0 93.5 -37.5t38.5 -90.5q0 -26 -5 -46l-76 -358h-84l76 358q2 8 2 23q0 33 -20 53.5t-53 20.5q-89 0 -182 -110l-73 -345h-84z" />
    <glyph glyph-name="uni04C0" unicode="&#x4c0;" horiz-adv-x="278" 
d="M341 729l-155 -729h-94l155 729h94z" />
    <glyph glyph-name="uni04CF" unicode="&#x4cf;" horiz-adv-x="278" 
d="M341 729l-155 -729h-94l155 729h94z" />
    <glyph glyph-name="uni04D8" unicode="&#x4d8;" horiz-adv-x="778" 
d="M124 400h607q2 21 2 45q0 101 -54 157.5t-150 56.5q-168 0 -266 -158l-88 18q136 222 372 222q132 0 206.5 -74.5t74.5 -205.5q0 -98 -38.5 -193.5t-105.5 -165.5q-123 -126 -300 -126q-132 0 -206.5 74.5t-74.5 205.5q0 71 21 144zM714 317h-514q-3 -27 -3 -44
q0 -101 54 -158t150 -57q108 0 190.5 68.5t122.5 190.5z" />
    <glyph glyph-name="afii10846" unicode="&#x4d9;" 
d="M104 282h385q7 36 7 57q0 55 -34 89t-89 34q-101 0 -157 -105h-89q34 89 99.5 135.5t156.5 46.5q93 0 146.5 -53t53.5 -145q0 -70 -23 -140t-61 -118q-87 -106 -218 -106q-90 0 -142.5 53t-52.5 144q0 46 18 108zM474 214h-294q-5 -23 -5 -40q0 -55 31.5 -87.5
t83.5 -32.5q64 0 113.5 43t70.5 117z" />
    <glyph glyph-name="uni04E2" unicode="&#x4e2;" horiz-adv-x="667" 
d="M525 219h-282l-123 -219h-104l415 729h120l101 -729h-99zM515 297l-41 332l-190 -332h231zM378 928h53v-8v-5q0 -23 22 -36.5t59 -13.5q95 0 111 63h56q-16 -59 -47 -86q-52 -49 -132 -49q-56 0 -91.5 27.5t-35.5 71.5q0 14 5 36z" />
    <glyph glyph-name="uni04E3" unicode="&#x4e3;" 
d="M547 53l-15 -69q-31 -7 -51 -7q-38 0 -60 16t-22 44q0 9 1 14q-83 -74 -183 -74q-69 0 -109 34.5t-40 93.5q0 47 23 89t62 66q33 20 69 29t145 22q52 7 73 18.5t27 37.5l3 16q4 20 4 25q1 25 -26 39.5t-74 14.5q-61 0 -95.5 -23t-48.5 -72h-87q19 76 60 113q62 59 179 59
q82 0 130 -30t48 -81q0 -16 -5 -43l-62 -290q-3 -12 -3 -22q0 -26 28 -26q11 0 29 6zM424 164l20 94q-36 -14 -140 -29q-83 -12 -113 -39q-35 -32 -35 -75q0 -65 85 -65q75 0 139 50q36 28 44 64zM281 729h53v-8v-5q0 -22 22.5 -36t59.5 -14q45 0 74 16.5t36 46.5h56
q-15 -59 -46 -86q-52 -49 -132 -49q-57 0 -92.5 27.5t-35.5 71.5q0 13 5 36z" />
    <glyph glyph-name="uni04E8" unicode="&#x4e8;" horiz-adv-x="778" 
d="M539 741q132 0 208 -78t76 -213q0 -98 -37 -192t-101 -161q-118 -121 -292 -121q-132 0 -208.5 77.5t-76.5 212.5q0 94 38 188t103 162q119 125 290 125zM709 317h-504q-3 -27 -3 -44q0 -101 53 -158t147 -57q106 0 188 69.5t119 189.5zM222 400h504q3 27 3 44
q0 101 -53 158t-147 57q-106 0 -187.5 -69t-119.5 -190z" />
    <glyph glyph-name="uni04E9" unicode="&#x4e9;" 
d="M385 539q90 0 143 -53t53 -142q0 -69 -21.5 -138.5t-56.5 -116.5q-83 -112 -224 -112q-88 0 -141 53t-53 141q0 69 21.5 139.5t56.5 116.5q40 54 98 83t124 29zM473 221h-296q-3 -25 -3 -39q0 -59 30.5 -93.5t83.5 -34.5q64 0 111.5 43.5t73.5 123.5zM193 295h296
q3 24 3 37q0 61 -30.5 95.5t-83.5 34.5q-64 0 -112.5 -44t-72.5 -123z" />
    <glyph glyph-name="uni04EE" unicode="&#x4ee;" horiz-adv-x="657" 
d="M244 332l-54 -250h430l-17 -82h-523l155 729h505l-17 -82h-412l-50 -233h397l-17 -82h-397zM372 928h53v-8v-5q0 -23 22 -36.5t59 -13.5q95 0 111 63h56q-14 -57 -46 -86q-54 -49 -133 -49q-56 0 -91.5 27.5t-35.5 71.5q0 14 5 36z" />
    <glyph glyph-name="uni04EF" unicode="&#x4ef;" 
d="M565 234h-385q-7 -36 -7 -57q0 -55 34 -89t89 -34q101 0 157 105h89q-34 -89 -99.5 -135.5t-156.5 -46.5q-93 0 -146.5 53t-53.5 145q0 70 23 140t61 118q87 106 218 106q90 0 142.5 -53t52.5 -144q0 -46 -18 -108zM195 302h294q5 22 5 40q0 55 -31.5 87.5t-83.5 32.5
q-64 0 -113.5 -43t-70.5 -117zM282 729h53v-8v-5q0 -23 22.5 -36.5t59.5 -13.5q94 0 110 63h56q-15 -59 -46 -86q-54 -49 -133 -49q-56 0 -91.5 27.5t-35.5 71.5q0 13 5 36z" />
    <glyph glyph-name="Wgrave" unicode="&#x1e80;" horiz-adv-x="944" 
d="M744 0h-102l-41 592l-290 -592h-102l-32 729h100l15 -592l288 592h96l41 -592l263 592h104zM620 932l71 -148h-53l-125 148h107z" />
    <glyph glyph-name="wgrave" unicode="&#x1e81;" horiz-adv-x="722" 
d="M556 0h-95l-12 418l-195 -418h-96l-40 524h91l19 -408l189 408h105l11 -408l196 408h91zM463 740l72 -148h-54l-124 148h106z" />
    <glyph glyph-name="Wacute" unicode="&#x1e82;" horiz-adv-x="944" 
d="M744 0h-102l-41 592l-290 -592h-102l-32 729h100l15 -592l288 592h96l41 -592l263 592h104zM717 939h112l-180 -148h-60z" />
    <glyph glyph-name="wacute" unicode="&#x1e83;" horiz-adv-x="722" 
d="M556 0h-95l-12 418l-195 -418h-96l-40 524h91l19 -408l189 408h105l11 -408l196 408h91zM541 740h112l-180 -148h-60z" />
    <glyph glyph-name="Wdieresis" unicode="&#x1e84;" horiz-adv-x="944" 
d="M744 0h-102l-41 592l-290 -592h-102l-32 729h100l15 -592l288 592h96l41 -592l263 592h104zM631 914l-22 -103h-104l22 103h104zM792 914l-22 -103h-104l22 103h104z" />
    <glyph glyph-name="wdieresis" unicode="&#x1e85;" horiz-adv-x="722" 
d="M556 0h-95l-12 418l-195 -418h-96l-40 524h91l19 -408l189 408h105l11 -408l196 408h91zM473 715l-22 -103h-104l22 103h104zM634 715l-22 -103h-104l22 103h104z" />
    <glyph glyph-name="Ygrave" unicode="&#x1ef2;" horiz-adv-x="667" 
d="M448 286l-61 -286h-94l61 286l-186 443h112l136 -357l289 357h111zM482 939l72 -148h-53l-125 148h106z" />
    <glyph glyph-name="ygrave" unicode="&#x1ef3;" horiz-adv-x="500" 
d="M501 524h89l-368 -634q-62 -108 -165 -108q-27 0 -49 10l16 75q29 -4 43 -4q29 0 45 10t36 42l52 81l-68 528h90l46 -407zM348 740l72 -148h-53l-125 148h106z" />
    <glyph glyph-name="uni2002" unicode="&#x2002;" horiz-adv-x="500" 
 />
    <glyph glyph-name="endash" unicode="&#x2013;" 
d="M628 312l-15 -72h-567l15 72h567z" />
    <glyph glyph-name="emdash" unicode="&#x2014;" horiz-adv-x="1000" 
d="M1068 312l-15 -72h-1011l15 72h1011z" />
    <glyph glyph-name="afii00208" unicode="&#x2015;" horiz-adv-x="1000" 
d="M1068 312l-15 -72h-1011l15 72h1011z" />
    <glyph glyph-name="underscoredbl" unicode="&#x2017;" horiz-adv-x="552" 
d="M560 -76l-11 -50h-599l11 50h599zM536 -186l-11 -50h-599l11 50h599z" />
    <glyph glyph-name="quoteleft" unicode="&#x2018;" horiz-adv-x="222" 
d="M256 477h-93l21 100q14 61 46 95t78 37l-8 -39q-29 -3 -45 -24t-24 -66h47z" />
    <glyph glyph-name="quoteright" unicode="&#x2019;" horiz-adv-x="222" 
d="M215 708h94l-21 -100q-13 -59 -44.5 -93.5t-77.5 -37.5l8 38q52 7 67 90h-48z" />
    <glyph glyph-name="quotesinglbase" unicode="&#x201a;" horiz-adv-x="222" 
d="M86 103h94l-21 -100q-13 -59 -44.5 -93.5t-77.5 -37.5l8 38q52 7 67 90h-48z" />
    <glyph glyph-name="quotereversed" unicode="&#x201b;" horiz-adv-x="222" 
d="M308 708l-21 -103h-49q-6 -25 -6 -43q0 -40 35 -47l-8 -38q-71 6 -71 83q0 21 5 48l21 100h94z" />
    <glyph glyph-name="quotedblleft" unicode="&#x201c;" horiz-adv-x="333" 
d="M239 477h-93l21 100q13 59 44.5 93.5t76.5 38.5l-8 -39q-52 -7 -66 -90h47zM400 477h-93l21 100q13 59 44.5 93.5t76.5 38.5l-8 -39q-51 -7 -67 -90h48z" />
    <glyph glyph-name="quotedblright" unicode="&#x201d;" horiz-adv-x="333" 
d="M199 708h94l-21 -100q-13 -59 -44.5 -93.5t-77.5 -37.5l8 38q52 7 67 90h-48zM358 708h94l-21 -100q-13 -59 -44.5 -93.5t-77.5 -37.5l8 38q52 7 67 90h-48z" />
    <glyph glyph-name="quotedblbase" unicode="&#x201e;" horiz-adv-x="333" 
d="M69 103h94l-21 -100q-13 -59 -44.5 -93.5t-77.5 -37.5l8 38q52 7 67 90h-48zM228 103h94l-21 -100q-13 -59 -44.5 -93.5t-77.5 -37.5l8 38q52 7 67 90h-48z" />
    <glyph glyph-name="dagger" unicode="&#x2020;" 
d="M620 501l-17 -81h-195l-126 -597h-88l126 597h-193l17 81h194l44 208h88l-44 -208h194z" />
    <glyph glyph-name="daggerdbl" unicode="&#x2021;" 
d="M620 501l-17 -81h-191l-66 -308h191l-17 -81h-191l-44 -208h-88l44 208h-190l17 81h190l66 308h-190l17 81h190l44 208h88l-44 -208h191z" />
    <glyph glyph-name="bullet" unicode="&#x2022;" horiz-adv-x="350" 
d="M274 470q45 0 73.5 -27.5t28.5 -70.5q0 -59 -47.5 -105.5t-108.5 -46.5q-42 0 -71 28t-29 69q0 60 47 106.5t107 46.5z" />
    <glyph glyph-name="ellipsis" unicode="&#x2026;" horiz-adv-x="1000" 
d="M241 103l-22 -103h-104l22 103h104zM574 103l-22 -103h-104l22 103h104zM907 103l-22 -103h-104l22 103h104z" />
    <glyph glyph-name="perthousand" unicode="&#x2030;" horiz-adv-x="1000" 
d="M649 738h66l-556 -758h-66zM314 725q53 0 86.5 -32t33.5 -81q0 -73 -56 -127.5t-131 -54.5q-51 0 -85 33t-34 83q0 70 57 124.5t129 54.5zM301 670q-45 0 -79 -34t-34 -80q0 -31 21 -51t53 -20q45 0 78.5 34.5t33.5 80.5q0 29 -21 49.5t-52 20.5zM543 276q53 0 86.5 -32
t33.5 -81q0 -73 -56 -127.5t-131 -54.5q-51 0 -85 33t-34 83q0 70 57 124.5t129 54.5zM530 221q-45 0 -79 -34t-34 -80q0 -31 21 -51t53 -20q45 0 78.5 34.5t33.5 80.5q0 29 -21 49.5t-52 20.5zM904 276q53 0 86.5 -32t33.5 -81q0 -73 -56 -127.5t-131 -54.5q-51 0 -85 33
t-34 83q0 70 57 124.5t129 54.5zM891 221q-45 0 -79 -34t-34 -80q0 -31 21 -51t53 -20q45 0 78.5 34.5t33.5 80.5q0 29 -21 49.5t-52 20.5z" />
    <glyph glyph-name="minute" unicode="&#x2032;" horiz-adv-x="188" 
d="M218 673l-71 -256h-57l54 256h74z" />
    <glyph glyph-name="second" unicode="&#x2033;" horiz-adv-x="354" 
d="M223 673l-71 -256h-57l54 256h74zM356 673l-71 -256h-57l54 256h74z" />
    <glyph glyph-name="guilsinglleft" unicode="&#x2039;" horiz-adv-x="333" 
d="M140 227l19 89l177 122l-18 -83l-121 -84l86 -83l-18 -82z" />
    <glyph glyph-name="guilsinglright" unicode="&#x203a;" horiz-adv-x="333" 
d="M307 317l-19 -89l-179 -122l18 83l123 84l-88 83l18 82z" />
    <glyph glyph-name="exclamdbl" unicode="&#x203c;" horiz-adv-x="500" 
d="M328 729l-74 -350l-67 -211h-40l23 211l74 350h84zM195 103l-22 -103h-84l22 103h84zM585 729l-74 -350l-68 -211h-39l23 211l74 350h84zM452 103l-22 -103h-84l22 103h84z" />
    <glyph glyph-name="uni203E" unicode="&#x203e;" horiz-adv-x="333" 
d="M659 905l-11 -50h-599l11 50h599z" />
    <glyph glyph-name="fraction" unicode="&#x2044;" horiz-adv-x="278" 
d="M484 709h58l-607 -729h-58z" />
    <glyph glyph-name="zerosuperior" unicode="&#x2070;" horiz-adv-x="333" 
d="M309 709q55 0 85.5 -32t30.5 -91q0 -63 -19.5 -132.5t-48.5 -109.5q-52 -74 -133 -74q-53 0 -83.5 32.5t-30.5 89.5q0 64 19.5 133.5t48.5 109.5q53 74 131 74zM300 654q-41 0 -66 -36q-25 -34 -42 -98.5t-17 -122.5q0 -34 15.5 -53t42.5 -19q54 0 87 69q16 34 28 90
t12 98q0 34 -16 53t-44 19z" />
    <glyph glyph-name="foursuperior" unicode="&#x2074;" horiz-adv-x="333" 
d="M272 384h-184l13 60l256 265h47l-57 -270h65l-12 -55h-65l-21 -100h-63zM284 439l34 161l-156 -161h122z" />
    <glyph glyph-name="fivesuperior" unicode="&#x2075;" horiz-adv-x="333" 
d="M444 709l-12 -60h-186l-36 -102q41 20 79 20q54 0 86.5 -29t32.5 -78q0 -67 -42 -120q-57 -70 -144 -70q-84 0 -116 52q-13 22 -13 60v13h64q3 -70 73 -70q49 0 81 33.5t32 85.5q0 33 -19.5 50.5t-54.5 17.5q-26 0 -43.5 -7.5t-45.5 -31.5h-56l84 236h236z" />
    <glyph glyph-name="sixsuperior" unicode="&#x2076;" horiz-adv-x="333" 
d="M432 591h-64l1 11q0 23 -16 37.5t-42 14.5q-44 0 -76 -38t-46 -106q50 42 103 42q52 0 83.5 -29t31.5 -76q0 -59 -41 -111q-54 -66 -135 -66q-57 0 -90.5 31.5t-33.5 84.5q0 57 18.5 124.5t44.5 108.5q60 90 150 90q52 0 82.5 -26.5t30.5 -71.5q0 -8 -1 -20zM276 497
q-44 0 -74 -30.5t-30 -74.5q0 -30 19 -48.5t50 -18.5q42 0 71.5 32.5t29.5 78.5q0 28 -18.5 44.5t-47.5 16.5z" />
    <glyph glyph-name="sevensuperior" unicode="&#x2077;" horiz-adv-x="333" 
d="M471 709l-11 -53q-78 -73 -152.5 -181t-103.5 -191h-70q43 97 97 175.5t156 189.5h-231l13 60h302z" />
    <glyph glyph-name="eightsuperior" unicode="&#x2078;" horiz-adv-x="333" 
d="M357 508q47 -28 47 -80q0 -64 -52.5 -111t-123.5 -47q-60 0 -96 28t-36 75q0 91 92 135q-21 16 -28.5 28.5t-7.5 33.5q0 58 46.5 98.5t113.5 40.5q52 0 84.5 -25.5t32.5 -66.5q0 -69 -72 -109zM301 654q-37 0 -60.5 -21t-23.5 -55q0 -46 61 -46q37 0 61.5 21t24.5 53
q0 23 -16.5 35.5t-46.5 12.5zM264 480q-44 0 -73.5 -28t-29.5 -69q0 -26 20.5 -42t52.5 -16q44 0 74.5 27t30.5 67q0 28 -20 44.5t-55 16.5z" />
    <glyph glyph-name="ninesuperior" unicode="&#x2079;" horiz-adv-x="333" 
d="M102 388h63v-6v-4q1 -24 16.5 -38.5t41.5 -14.5q42 0 73 37t46 105q-44 -40 -102 -40q-53 0 -83.5 29t-30.5 78q0 54 40 109q48 66 135 66q56 0 90.5 -31t34.5 -82q0 -59 -24 -152q-24 -88 -80 -134q-49 -40 -108 -40q-51 0 -82 26.5t-31 70.5q0 13 1 21zM292 654
q-42 0 -71.5 -31.5t-29.5 -76.5q0 -30 17 -47t48 -17q44 0 74.5 31t30.5 75q0 28 -20 47t-49 19z" />
    <glyph glyph-name="nsuperior" unicode="&#x207f;" horiz-adv-x="365" 
d="M177 600h56l-6 -30q47 39 113 39q40 0 64 -21t24 -56q0 -11 -3 -23l-47 -225h-61l44 209q3 12 3 21q0 19 -14 31t-36 12q-40 0 -68 -26.5t-38 -72.5l-37 -174h-61z" />
    <glyph glyph-name="franc" unicode="&#x20a3;" 
d="M189 320l-68 -320h-88l151 710h406l-16 -78h-319l-50 -234h211l-16 -78h-211zM445 494h72l-17 -82q82 97 146 97q7 0 25 -3l-18 -85q-64 2 -115 -48t-67 -131l-51 -242h-80z" />
    <glyph glyph-name="lira" unicode="&#x20a4;" 
d="M298 321l1 -11q2 -15 2 -26h121l-12 -55h-120q-20 -53 -41.5 -76.5t-112.5 -91.5q79 39 133 39q27 0 53 -9q62 -21 102 -21t94 31l25 -70q-66 -54 -142 -54q-47 0 -139 35q-27 11 -63 11q-51 0 -118 -37l-37 66q140 88 167 177h-141l12 55h135q0 8 -9 37h-113l12 55h83
l-1 3q-20 50 -24.5 64.5t-4.5 36.5q0 98 85.5 173.5t196.5 75.5q83 0 134.5 -41.5t51.5 -108.5q0 -28 -9 -82h-88q9 32 9 57q0 45 -31.5 71.5t-84.5 26.5q-71 0 -119.5 -46t-48.5 -114q0 -20 3 -30.5t19 -57.5q6 -20 9 -28h160l-12 -55h-137z" />
    <glyph glyph-name="peseta" unicode="&#x20a7;" horiz-adv-x="1094" 
d="M260 304l-65 -304h-88l151 710h180q96 0 139 -46q43 -43 43 -114q0 -52 -26 -104t-70 -89q-64 -53 -152 -53h-112zM276 382h78q73 0 120 35q58 45 58 115q0 100 -124 100h-79zM685 260l-36 -167q-2 -12 -2 -14q0 -12 9.5 -19.5t25.5 -7.5q15 0 36 5l-13 -72
q-29 -5 -50 -5q-44 0 -67 20.5t-23 58.5q0 16 3 31l37 170h-63l13 64h63l25 117h80l-25 -117h79l-14 -64h-78zM1078 225h-75q2 8 2 18q0 32 -44 32q-31 0 -48.5 -13t-17.5 -36q0 -20 43 -31l46 -11q45 -11 63.5 -28.5t18.5 -48.5q0 -57 -44.5 -92t-117.5 -35q-59 0 -92 22.5
t-33 63.5q0 14 5 37h78q-2 -16 -2 -22q0 -39 54 -39q33 0 53.5 14t20.5 37q0 21 -33 29l-45 11q-53 14 -73 30.5t-20 47.5q0 54 44 90t111 36q50 0 80.5 -22t30.5 -57q0 -12 -5 -33z" />
    <glyph glyph-name="Euro" unicode="&#x20ac;" 
d="M47 313h55q5 30 16 66h-79l35 59h63q38 99 102 170q89 101 219 101q98 0 178 -67l-49 -80q-47 40 -79.5 55.5t-71.5 15.5q-65 0 -114.5 -46t-94.5 -149h285l-36 -59h-270q-10 -29 -15 -66h246l-36 -59h-215v-14q0 -184 127 -184q37 0 73.5 12.5t105.5 48.5l-20 -93
q-85 -46 -178 -46q-199 0 -199 247q0 18 1 29h-84z" />
    <glyph glyph-name="afii61248" unicode="&#x2105;" horiz-adv-x="885" 
d="M629 433l-22 -103h-104l22 103h104z" />
    <glyph glyph-name="Ifraktur" unicode="&#x2111;" horiz-adv-x="722" 
d="M480 234l-60 77q-28 37 -28 82q0 29 15.5 52.5t57.5 56.5q-64 18 -162 18q-148 0 -148 -65q0 -25 21 -38q13 -7 65 -25q20 -7 33.5 -23.5t13.5 -35.5q0 -35 -43 -81q-2 33 -14.5 50t-57.5 49q-53 40 -53 104q0 73 55.5 113.5t155.5 40.5q122 0 259 -47l-2 -14
q-62 -43 -84 -70t-22 -59q0 -26 10 -44.5t50 -61.5q66 -72 66 -134q0 -81 -67 -126q-38 -26 -86 -44.5t-75 -18.5q-22 0 -57 17l-67 33q-26 13 -50 13q-19 0 -57 -15l-10 8q37 49 57.5 66.5t39.5 17.5q20 0 53 -16l94 -45q48 -23 71 -23q27 0 46 28t19 68q0 41 -39 92z" />
    <glyph glyph-name="afii61289" unicode="&#x2113;" horiz-adv-x="323" 
d="M178 292q-34 -181 -34 -231q0 -28 21 -28q28 0 56 61q9 19 21 19q13 0 13 -13q0 -21 -20 -53q-37 -65 -89 -65q-34 0 -53.5 24t-19.5 66t14 149q-50 -50 -63 -50q-4 0 -8.5 5.5t-4.5 10.5q0 8 23 30q21 18 61 62q45 238 96 349t116 111q29 0 47 -23.5t18 -62.5
q0 -92 -66 -203q-35 -61 -128 -158zM188 347q86 94 121 189q25 68 25 120q0 43 -28 43q-34 0 -59 -75.5t-59 -276.5z" />
    <glyph glyph-name="afii61352" unicode="&#x2116;" horiz-adv-x="1083" 
d="M713 729l-155 -729h-85l-192 599l-127 -599h-74l155 729h81l195 -604l128 604h74zM985 741q77 0 123 -57t46 -152q0 -61 -22.5 -126.5t-61.5 -116.5q-76 -102 -188 -102q-79 0 -125.5 54.5t-46.5 147.5q0 64 22 130.5t59 115.5q80 106 194 106zM975 658q-82 0 -138 -87
q-50 -79 -50 -168q0 -61 28.5 -97t76.5 -36q74 0 130 77.5t56 179.5q0 61 -27.5 96t-75.5 35zM629 0l18 83h408l-18 -83h-408z" />
    <glyph glyph-name="weierstrass" unicode="&#x2118;" horiz-adv-x="648" 
d="M294 402l11 -16q-70 -41 -101.5 -84.5t-31.5 -99.5q0 -34 12 -59q118 123 181 167t122 44q44 0 71 -31.5t27 -83.5q0 -86 -63 -158q-75 -88 -154 -88q-38 0 -62.5 22t-24.5 56q0 28 15.5 48.5t37.5 20.5q13 0 21 -8t8 -20q0 -14 -10.5 -24.5t-26.5 -11.5q-21 -2 -21 -21
q0 -17 18 -30.5t41 -13.5q25 0 51 17t45 46q25 37 41.5 88.5t16.5 92.5q0 33 -15.5 53.5t-40.5 20.5q-51 0 -135 -72q-79 -65 -134 -134q56 -116 56 -172q0 -50 -28 -85t-69 -35q-37 0 -61.5 27t-24.5 67q0 31 14 61.5t52 87.5q-23 60 -23 96q0 123 185 232zM141 54
q-38 -57 -47.5 -79.5t-9.5 -51.5q0 -32 18 -53t46 -21q22 0 36.5 15t14.5 38q0 46 -58 152z" />
    <glyph glyph-name="Rfraktur" unicode="&#x211c;" horiz-adv-x="778" 
d="M116 12l-17 5q17 49 38 71.5t52 22.5q25 0 57 -23q13 -8 20 -8t16 11t14 26q13 38 13 110v148v10v10q0 67 -26 104.5t-72 37.5q-39 0 -65.5 -27.5t-26.5 -67.5q0 -39 32 -65q8 -7 63 -35q45 -23 45 -55q0 -36 -45 -89l-11 3q3 15 3 24q0 36 -57 68q-44 25 -60.5 51
t-16.5 72q0 79 51 133.5t125 54.5q81 0 124 -67q63 66 144 66q63 0 105.5 -40.5t42.5 -100.5q0 -40 -32 -69t-102 -54q22 -14 34 -33.5t24 -62.5l29 -111q7 -28 16 -39.5t25 -11.5q6 0 22 6l13 -14q-63 -79 -115 -79q-28 0 -45 67l-42 168q-9 37 -13.5 47.5t-14.5 16.5
q-14 10 -45 10q-9 0 -16 -1v-57q0 -104 -44 -171q-53 -78 -113 -78q-20 0 -29.5 4t-44.5 27q-11 8 -26 8t-29 -23zM402 376v-37q74 18 109 36q49 26 49 80q0 38 -26.5 62t-67.5 24t-78 -27q9 -33 11.5 -55t2.5 -83z" />
    <glyph glyph-name="uni211E" unicode="&#x211e;" horiz-adv-x="759" 
d="M471 284l54 -84l52 80h95l-102 -144l90 -136h-95l-43 66l-44 -66h-91l92 132l-102 151h-134v-283h-85v667h276q99 0 152.5 -50.5t53.5 -144.5q0 -114 -93 -167q-33 -18 -76 -21zM243 358h178q62 0 96 31t34 86t-34.5 86t-95.5 31h-178v-234z" />
    <glyph glyph-name="trademark" unicode="&#x2122;" horiz-adv-x="1000" 
d="M430 674l-81 -382h-68l81 382h-154l12 55h374l-11 -55h-153zM814 292h-71l-48 341l-73 -341h-67l93 437h94l55 -362l209 362h90l-93 -437h-67l73 341z" />
    <glyph glyph-name="uni2126" unicode="&#x2126;" horiz-adv-x="768" 
d="M28 0l17 82h202q-70 46 -102 101.5t-32 132.5q0 171 127 295q135 130 302 130q124 0 203 -74.5t79 -190.5q0 -68 -26 -138.5t-70 -124.5q-61 -74 -172 -131h201l-17 -82h-301l16 78q103 50 162 112q52 55 81.5 125.5t29.5 140.5q0 73 -44 130q-55 74 -156 74
q-130 0 -224.5 -104t-94.5 -247q0 -145 137 -231l-16 -78h-302z" />
    <glyph glyph-name="estimated" unicode="&#x212e;" horiz-adv-x="600" 
d="M546 244h-373v-98q14 -48 37 -68q37 -34 104 -34q100 0 147 76q6 7 15 29h57l-2 -7q-48 -155 -220 -155q-111 0 -174.5 71.5t-63.5 196.5t65 199.5t175 74.5q86 0 147 -47t77 -126q8 -37 9 -105v-7zM460 292v85q-7 22 -21 38q-50 57 -126 57q-52 0 -82.5 -21t-55.5 -74
v-85h285z" />
    <glyph glyph-name="aleph" unicode="&#x2135;" horiz-adv-x="500" 
d="M299 292l67 158h-40q-42 0 -55 14q-22 19 -22 64q0 57 43 103v-16q0 -24 11.5 -33.5t40.5 -9.5h68q33 0 47 -16.5t14 -54.5q0 -41 -13 -86q-3 19 -11.5 27t-24.5 8h-22l-44 -106q-15 -40 -15 -64q0 -25 9.5 -45.5t37.5 -55.5l39 -49q33 -42 33 -71q0 -27 -15 -59
l-299 376q-23 -42 -23 -66q0 -41 46 -103q41 -55 52.5 -79t11.5 -54q0 -44 -22 -59t-88 -15h-82v61h18q35 0 35 28q0 11 -26 54q-29 51 -29 78q0 30 28 81l56 105l-70 87q-27 34 -27 60q0 30 15 63z" />
    <glyph glyph-name="oneeighth" unicode="&#x215b;" horiz-adv-x="834" 
d="M741 709h58l-607 -729h-58zM277 580h-99l10 46q67 5 89 19t47 64h43l-91 -425h-62zM771 224q54 -28 54 -82q0 -63 -52 -109.5t-123 -46.5q-54 0 -85.5 27.5t-31.5 75.5q0 92 99 135q-25 17 -33.5 30.5t-8.5 34.5q0 56 45.5 96t109.5 40q49 0 77.5 -24t28.5 -66
q0 -37 -18.5 -62.5t-61.5 -48.5zM735 378q-38 0 -64 -23.5t-26 -58.5q0 -24 16 -37.5t45 -13.5q38 0 64 23.5t26 58.5q0 24 -16 37.5t-45 13.5zM697 201q-46 0 -77.5 -30t-31.5 -74q0 -29 19.5 -46.5t52.5 -17.5q47 0 78.5 30t31.5 74q0 29 -19.5 46.5t-53.5 17.5z" />
    <glyph glyph-name="threeeighths" unicode="&#x215c;" horiz-adv-x="834" 
d="M770 709h58l-607 -729h-58zM774 224q53 -28 53 -82q0 -63 -52 -109.5t-122 -46.5q-54 0 -85.5 27.5t-31.5 75.5q0 91 98 135q-24 17 -32.5 30.5t-8.5 34.5q0 56 45 96t109 40q49 0 77.5 -24t28.5 -66q0 -37 -18 -62.5t-61 -48.5zM737 378q-37 0 -63 -23.5t-26 -58.5
q0 -51 61 -51q38 0 63.5 23.5t25.5 58.5q0 51 -61 51zM699 201q-45 0 -76.5 -30.5t-31.5 -73.5q0 -29 19.5 -46.5t51.5 -17.5q47 0 78.5 30t31.5 74q0 29 -19.5 46.5t-53.5 17.5zM256 476l11 51q66 0 91 14q34 18 34 66q0 23 -17 36t-46 13q-53 0 -80 -35q-13 -19 -21 -54
h-62q32 142 173 142q56 0 86.5 -24t30.5 -68q0 -82 -78 -113q53 -19 53 -72q0 -69 -53.5 -115.5t-133.5 -46.5q-125 0 -125 105q0 16 4 37h62q-3 -20 -3 -28q0 -61 75 -61q48 0 79 28t31 72q0 53 -79 53h-23h-9z" />
    <glyph glyph-name="fiveeighths" unicode="&#x215d;" horiz-adv-x="834" 
d="M770 709h58l-607 -729h-58zM774 224q53 -28 53 -82q0 -63 -52 -109.5t-123 -46.5q-54 0 -85.5 27.5t-31.5 75.5q0 92 99 135q-25 17 -33.5 30.5t-8.5 34.5q0 56 45.5 96t109.5 40q49 0 77.5 -24t28.5 -66q0 -37 -18 -62.5t-61 -48.5zM737 378q-38 0 -64 -23.5t-26 -58.5
q0 -24 16 -37.5t45 -13.5q38 0 64 23.5t26 58.5q0 24 -16 37.5t-45 13.5zM699 201q-46 0 -77.5 -30t-31.5 -74q0 -29 19.5 -46.5t52.5 -17.5q47 0 78.5 30t31.5 74q0 29 -19.5 46.5t-53.5 17.5zM456 725l-11 -52h-177l-42 -118q41 25 84 25q51 0 81 -28t30 -77
q0 -77 -54 -133t-128 -56q-56 0 -86 27.5t-30 79.5v11h53q3 -71 71 -71q51 0 84.5 36.5t33.5 91.5q0 34 -19.5 53t-54.5 19q-45 0 -87 -39h-49l82 231h219z" />
    <glyph glyph-name="seveneighths" unicode="&#x215e;" horiz-adv-x="834" 
d="M707 709h58l-607 -729h-58zM764 224q53 -28 53 -82q0 -63 -52 -109.5t-122 -46.5q-54 0 -85.5 27.5t-31.5 75.5q0 91 98 135q-24 17 -32.5 30.5t-8.5 34.5q0 56 45 96t109 40q49 0 77.5 -24t28.5 -66q0 -37 -18 -62.5t-61 -48.5zM727 378q-37 0 -63 -23.5t-26 -58.5
q0 -51 61 -51q38 0 63.5 23.5t25.5 58.5q0 51 -61 51zM689 201q-45 0 -76.5 -30.5t-31.5 -73.5q0 -29 19.5 -46.5t51.5 -17.5q47 0 78.5 30t31.5 74q0 29 -19.5 46.5t-53.5 17.5zM493 725l-9 -44q-177 -183 -254 -381h-57q47 106 101 185t153 188h-230l12 52h284z" />
    <glyph glyph-name="arrowleft" unicode="&#x2190;" horiz-adv-x="1000" 
d="M913 281h-661q19 -22 40.5 -65t21.5 -57q0 -6 -5 -11t-11 -5q-12 0 -28 20q-32 36 -64.5 61.5t-92.5 60.5q-27 15 -27 23q0 9 6.5 14.5t46.5 28.5q79 48 129 106q13 15 17.5 18.5t11.5 3.5q17 0 17 -16t-20 -55t-42 -67h661v-60z" />
    <glyph glyph-name="arrowup" unicode="&#x2191;" horiz-adv-x="500" 
d="M278 -102h-60v661q-28 -22 -67 -42t-55 -20t-16 17q0 7 3.5 11.5t18.5 17.5q64 54 117 148q14 25 18.5 29.5t13.5 4.5q8 0 23 -27q35 -60 60.5 -92.5t61.5 -64.5q20 -16 20 -28q0 -6 -5 -11t-11 -5q-14 0 -56.5 21.5t-65.5 40.5v-661z" />
    <glyph glyph-name="arrowright" unicode="&#x2192;" horiz-adv-x="1000" 
d="M86 281v60h661q-22 28 -42 67t-20 55t17 16q7 0 11.5 -3.5t17.5 -18.5q54 -64 148 -117q25 -14 29.5 -18.5t4.5 -13.5q0 -8 -27 -23q-60 -35 -92.5 -60.5t-64.5 -61.5q-16 -20 -28 -20q-6 0 -11 5t-5 11q0 14 21.5 57t40.5 65h-661z" />
    <glyph glyph-name="arrowdown" unicode="&#x2193;" horiz-adv-x="500" 
d="M218 725h60v-661q28 22 67 42t55 20t16 -17q0 -7 -3.5 -11.5t-18.5 -17.5q-64 -54 -117 -148q-14 -25 -18.5 -29.5t-13.5 -4.5q-8 0 -23 27q-35 60 -60.5 92.5t-61.5 64.5q-20 16 -20 28q0 6 5 11t11 5q14 0 57 -21.5t65 -40.5v661z" />
    <glyph glyph-name="arrowboth" unicode="&#x2194;" horiz-adv-x="1000" 
d="M714 280h-427q23 -30 43 -68t20 -53q0 -16 -17 -16q-7 0 -11 3t-18 19q-35 40 -64.5 62.5t-104.5 67.5q-12 7 -12 18q0 6 8.5 12t38.5 23q30 16 73 51t63 60q18 20 24 20q20 0 20 -16q0 -14 -22 -57.5t-41 -65.5h427q-19 22 -40.5 65.5t-21.5 57.5q0 16 21 16q8 0 23 -20
q64 -76 156 -122q27 -14 27 -26q0 -10 -19 -20q-67 -40 -99.5 -65.5t-62.5 -60.5q-12 -15 -16.5 -18.5t-11.5 -3.5q-18 0 -18 16q0 5 8.5 27.5t15.5 35.5q18 33 38 58z" />
    <glyph glyph-name="arrowupdn" unicode="&#x2195;" horiz-adv-x="500" 
d="M219 123v427q-30 -24 -68 -43.5t-53 -19.5q-16 0 -16 17q0 7 3 11t19 18q40 35 62.5 64.5t67.5 104.5q7 12 18 12q6 0 12 -8.5t23 -38.5q16 -30 51 -73t60 -63q20 -18 20 -24q0 -20 -16 -20q-14 0 -57.5 22t-65.5 41v-427q23 19 66 40.5t57 21.5q16 0 16 -21
q0 -8 -20 -23q-76 -64 -122 -156q-14 -27 -26 -27q-10 0 -20 19q-40 67 -65.5 99.5t-60.5 62.5q-15 12 -18.5 16.5t-3.5 11.5q0 18 16 18q5 0 27.5 -8.5t35.5 -15.5q29 -16 58 -38z" />
    <glyph glyph-name="uni2196" unicode="&#x2196;" horiz-adv-x="722" 
d="M194 565l437 -437l-42 -42l-437 437v-148h-61v251h251v-61h-148z" />
    <glyph glyph-name="uni2197" unicode="&#x2197;" horiz-adv-x="722" 
d="M528 565h-148v61h251v-251h-61v148l-437 -437l-42 42z" />
    <glyph glyph-name="uni2198" unicode="&#x2198;" horiz-adv-x="722" 
d="M528 147l-437 437l42 42l437 -437v148h61v-251h-251v61h148z" />
    <glyph glyph-name="uni2199" unicode="&#x2199;" horiz-adv-x="722" 
d="M194 147h148v-61h-251v251h61v-148l437 437l42 -42z" />
    <glyph glyph-name="arrowupdnbse" unicode="&#x21a8;" horiz-adv-x="500" 
d="M121 -68h263v-43h-263v43zM219 191v427q-29 -23 -67.5 -43t-53.5 -20q-16 0 -16 17q0 7 3 11t19 18q40 35 62.5 64.5t67.5 104.5q7 12 18 12q6 0 12 -8.5t23 -38.5q16 -30 51 -73t60 -63q20 -18 20 -24q0 -20 -16 -20q-13 0 -56.5 22t-66.5 41v-427q22 19 65.5 40.5
t57.5 21.5q16 0 16 -21q0 -8 -20 -23q-76 -64 -122 -156q-14 -27 -26 -27q-9 0 -20 19q-41 68 -66 100t-60 63q-15 12 -18.5 16.5t-3.5 11.5q0 18 16 18q17 0 63 -24q29 -16 58 -39z" />
    <glyph glyph-name="carriagereturn" unicode="&#x21b5;" horiz-adv-x="1000" 
d="M884 522v-244h-623l210 -82l-23 -52l-286 128v77l286 127l23 -53l-210 -81h559v180h64z" />
    <glyph glyph-name="arrowdblleft" unicode="&#x21d0;" horiz-adv-x="722" 
d="M79 295l82 -71h552v-42h-503l60 -52v-57l-262 222l262 223v-58l-60 -52h503v-42h-552z" />
    <glyph glyph-name="arrowdblup" unicode="&#x21d1;" horiz-adv-x="722" 
d="M361 577l-71 -82v-495h-42v446l-52 -60h-57l222 262l222 -262h-57l-52 60v-446h-42v495z" />
    <glyph glyph-name="arrowdblright" unicode="&#x21d2;" horiz-adv-x="722" 
d="M643 295l-82 71h-552v42h503l-60 52v58l262 -223l-262 -222v57l60 52h-503v42h552z" />
    <glyph glyph-name="arrowdbldown" unicode="&#x21d3;" horiz-adv-x="722" 
d="M361 71l71 82v495h42v-446l52 60h57l-222 -262l-222 262h57l52 -60v446h42v-495z" />
    <glyph glyph-name="arrowdblboth" unicode="&#x21d4;" horiz-adv-x="722" 
d="M203 408h317l-60 52v58l262 -223l-262 -222v57l60 52h-317l60 -52v-57l-262 222l262 223v-58zM154 366l-82 -71l82 -71h415l82 71l-82 71h-415z" />
    <glyph glyph-name="universal" unicode="&#x2200;" horiz-adv-x="278" 
d="M279 461l69 204h84l-234 -665h-103l-237 665h79l71 -204h271zM259 401h-233l120 -333z" />
    <glyph glyph-name="partialdiff" unicode="&#x2202;" horiz-adv-x="476" 
d="M102 670l-40 52q62 28 132 28q115 0 189.5 -97.5t74.5 -247.5q0 -78 -19 -164.5t-47 -137.5q-66 -118 -180 -118q-80 0 -135 56t-55 138q0 103 74 179q50 50 122 50q40 0 69 -12.5t81 -52.5q11 72 11 113q0 119 -55 195q-37 52 -110 52q-28 0 -42.5 -4t-69.5 -29z
M361 304q-40 61 -104 61q-61 0 -104 -62t-43 -149q0 -65 23.5 -101t65.5 -36q41 0 74 32t53 90q18 56 35 165z" />
    <glyph glyph-name="existential" unicode="&#x2203;" horiz-adv-x="426" 
d="M457 397l54 250h-429l17 82h523l-155 -729h-506l17 82h412l50 233h-396l18 82h395z" />
    <glyph glyph-name="emptyset" unicode="&#x2205;" horiz-adv-x="1000" 
d="M104 38l121 101q-58 91 -58 194q0 143 99.5 244.5t240.5 101.5q139 0 242 -103l110 93l32 -38l-111 -92q66 -95 66 -207q0 -143 -99.5 -244t-239.5 -101q-147 0 -252 114l-120 -100zM263 171l449 375q-87 89 -205 89q-120 0 -205 -88.5t-85 -213.5q0 -87 46 -162z
M743 508l-451 -377q88 -100 215 -100q119 0 204 88.5t85 212.5q0 96 -53 176z" />
    <glyph glyph-name="Delta" unicode="&#x2206;" horiz-adv-x="612" 
d="M-20 0l429 729h100l122 -729h-651zM130 82h384l-79 534z" />
    <glyph glyph-name="gradient" unicode="&#x2207;" horiz-adv-x="741" 
d="M69 630h604l-259 -630h-88zM370 102l183 455h-365z" />
    <glyph glyph-name="element" unicode="&#x2208;" horiz-adv-x="1000" 
d="M767 216h-462q9 -157 171 -154h291v-62h-280q-86 0 -130 18q-59 26 -91.5 86t-32.5 147q0 146 99 211q28 19 60.5 25.5t94.5 6.5h280v-62h-291q-162 3 -171 -155h462v-61z" />
    <glyph glyph-name="notelement" unicode="&#x2209;" horiz-adv-x="1000" 
d="M528 216l-87 -153q9 -1 35 -1h291v-62h-280q-45 0 -80 4l-38 -67l-43 23l33 57q-61 25 -93.5 86t-32.5 148q0 145 98 211q28 19 61 25.5t95 6.5h143l47 83l42 -24l-33 -59h81v-62h-116l-88 -155h204v-61h-239zM472 216h-167q5 -113 86 -141zM595 432h-119
q-162 3 -171 -155h202z" />
    <glyph glyph-name="suchthat" unicode="&#x220b;" horiz-adv-x="1000" 
d="M233 216v61h462q-7 158 -171 155h-291v62h280q86 0 130 -18q58 -25 91 -85t33 -141q0 -153 -98 -218q-28 -19 -61 -25.5t-95 -6.5h-280v62h291q164 -5 171 154h-462z" />
    <glyph glyph-name="product" unicode="&#x220f;" horiz-adv-x="823" 
d="M181 735l5 26h775l-5 -26q-60 -1 -82.5 -20.5t-35.5 -79.5l-126 -597q-6 -25 -8 -49q-2 -26 17.5 -38t64.5 -13l-5 -25h-306l5 25q60 2 83 21.5t35 78.5l142 668h-355l-142 -668q-6 -24 -8 -49q-2 -26 17.5 -38t64.5 -13l-5 -25h-306l5 25q60 2 83 21.5t35 78.5l126 597
q6 25 8 49q2 26 -17.5 38t-64.5 13z" />
    <glyph glyph-name="summation" unicode="&#x2211;" horiz-adv-x="600" 
d="M689 753l-28 -159h-19q-1 67 -21.5 89t-84.5 24h-231l162 -354l-327 -336h301q66 -1 93.5 18t69.5 95h22q-36 -79 -51 -121q-9 -27 -27 -79q0 -1 -1 -3t-2.5 -6.5t-3.5 -8.5h-559l388 397l-209 444h528z" />
    <glyph glyph-name="minus" unicode="&#x2212;" horiz-adv-x="584" 
d="M601 269l-15 -72h-505l15 72h505z" />
    <glyph glyph-name="uni2213" unicode="&#x2213;" horiz-adv-x="1000" 
d="M237 607v55h524v-55h-524zM528 0h-55v239h-237v55h237v239h55v-239h237v-55h-237v-239z" />
    <glyph glyph-name="uni2215" unicode="&#x2215;" horiz-adv-x="278" 
d="M484 709h58l-607 -729h-58z" />
    <glyph glyph-name="asteriskmath" unicode="&#x2217;" horiz-adv-x="1000" 
d="M462 242l-105 37l38 65l84 -73l-19 111h80l-19 -111l84 73l38 -65l-105 -37l105 -38l-38 -65l-84 73l19 -111h-80l19 111l-84 -73l-38 65z" />
    <glyph glyph-name="uni2219" unicode="&#x2219;" horiz-adv-x="278" 
d="M293 295l-22 -103h-105l22 103h105z" />
    <glyph glyph-name="radical" unicode="&#x221a;" horiz-adv-x="453" 
d="M626 913l35 -5l-352 -944l-136 497l-104 -46l-11 33l163 73l110 -396z" />
    <glyph glyph-name="proportional" unicode="&#x221d;" horiz-adv-x="1000" 
d="M682 167v-62q-93 -5 -180 103q-16 -19 -29 -32q-62 -70 -145 -70q-58 0 -94.5 37.5t-36.5 97.5q0 61 37.5 99.5t96.5 38.5q90 0 171 -102q77 102 168 102h12v-61h-6q-61 0 -126 -75q40 -43 67.5 -59t64.5 -17zM453 243q-9 9 -19 18q-36 34 -57.5 45.5t-47.5 11.5
q-34 0 -53.5 -20t-19.5 -55q0 -34 18.5 -55t48.5 -21q56 0 120 65q6 6 10 11z" />
    <glyph glyph-name="infinity" unicode="&#x221e;" horiz-adv-x="713" 
d="M419 297q56 42 86 62q68 45 132 45q48 0 79 -31t31 -80q0 -66 -53 -117.5t-121 -51.5q-41 0 -76 22t-92 85q-77 -60 -124.5 -83.5t-90.5 -23.5q-49 0 -80.5 31t-31.5 80q0 65 52.5 117t119.5 52q60 0 110 -45q25 -22 59 -62zM448 264q22 -27 51 -51q47 -38 83 -38
q43 0 77.5 33.5t34.5 75.5q0 29 -21 49t-51 20q-64 0 -174 -89zM377 264q-72 89 -134 89q-44 0 -78 -33t-34 -75q0 -30 21 -50t52 -20q38 0 100 38q46 28 73 51z" />
    <glyph glyph-name="orthogonal" unicode="&#x221f;" horiz-adv-x="979" 
d="M50 0v870h66v-804h814v-66h-880z" />
    <glyph glyph-name="angle" unicode="&#x2220;" horiz-adv-x="1000" 
d="M643 417l29 -33l-352 -342h469v-42h-578z" />
    <glyph glyph-name="uni2223" unicode="&#x2223;" horiz-adv-x="722" 
d="M351 668v-668h-67v668h67z" />
    <glyph glyph-name="uni2225" unicode="&#x2225;" horiz-adv-x="722" 
d="M468 0h-67v668h67v-668zM315 668v-668h-67v668h67z" />
    <glyph glyph-name="uni2227" unicode="&#x2227;" horiz-adv-x="1000" 
d="M533 513l224 -513h-80l-177 409l-177 -409h-80l224 513h66z" />
    <glyph glyph-name="uni2228" unicode="&#x2228;" horiz-adv-x="1000" 
d="M533 0h-66l-224 513h80l177 -409l177 409h80z" />
    <glyph glyph-name="intersection" unicode="&#x2229;" horiz-adv-x="719" 
d="M597 0h-69l60 283q1 4 3.5 16.5l5.5 27.5t7 31q12 53 12 86q0 56 -39 93t-98 37q-48 0 -95 -23.5t-76 -62.5q-36 -49 -68 -205l-60 -283h-70l60 280q26 127 43.5 173t54.5 84q91 99 221 99q87 0 142 -49.5t55 -128.5q0 -42 -29 -178z" />
    <glyph glyph-name="union" unicode="&#x222a;" horiz-adv-x="1000" 
d="M720 559v-246q0 -111 -7 -151.5t-32 -74.5q-64 -87 -181 -87q-62 0 -112.5 26.5t-78.5 75.5q-18 30 -23.5 69.5t-5.5 141.5v246h60v-249q0 -85 6 -123t23 -63q21 -30 56.5 -47.5t74.5 -17.5q44 0 82.5 22t57.5 58q20 39 20 171v249h60z" />
    <glyph glyph-name="integral" unicode="&#x222b;" horiz-adv-x="274" 
d="M174 423v-229q0 -226 -21 -310q-21 -89 -89 -89q-26 0 -44.5 16t-18.5 39q0 20 14 34.5t34 14.5t35 -15q12 -12 19 -12q18 0 18 28q0 13 -6 76q-14 147 -14 210v228q0 226 21 310q21 89 89 89q26 0 44 -16t18 -38q0 -21 -14 -35.5t-34 -14.5t-35 15q-11 12 -19 12
q-18 0 -18 -28q0 -10 6 -76q15 -146 15 -209z" />
    <glyph glyph-name="uni222E" unicode="&#x222e;" horiz-adv-x="1000" 
d="M455 571v80q1 85 2 102.5t7 37.5q11 39 46.5 62t84.5 23q31 0 68 -11l-17 -80q-21 10 -41 10q-42 0 -54 -35q-5 -14 -5 -70v-119q72 -16 117.5 -72.5t45.5 -129.5t-45.5 -129.5t-117.5 -72.5v-97q0 -90 -4 -118.5t-20 -51.5q-39 -54 -136 -54q-25 0 -48 9l17 80
q22 -11 41 -11q43 0 54 35q5 16 5 95v113q-70 16 -115.5 73t-45.5 129q0 73 44.5 129t116.5 73zM546 522v-305q52 16 83.5 57.5t31.5 94.5t-32 95.5t-83 57.5zM455 217v304q-51 -16 -82 -57.5t-31 -94.5t31.5 -95t81.5 -57z" />
    <glyph glyph-name="therefore" unicode="&#x2234;" horiz-adv-x="1000" 
d="M502 549q24 0 39.5 -16t15.5 -41q0 -24 -16 -40.5t-41 -16.5t-41 16t-16 41q0 26 16 41.5t43 15.5zM255 114q23 0 39 -16.5t16 -40.5q0 -25 -16 -41t-41 -16t-41 16t-16 41t16.5 41t42.5 16zM749 114q23 0 39 -16.5t16 -40.5q0 -25 -16 -41t-41 -16t-41 16t-16 41
t16.5 41t42.5 16z" />
    <glyph glyph-name="uni2235" unicode="&#x2235;" horiz-adv-x="1000" 
d="M501 124q26 0 43.5 -18t17.5 -44q0 -27 -17 -44.5t-44 -17.5q-28 0 -45.5 17t-17.5 45q0 27 18 44.5t45 17.5zM231 598q26 0 43.5 -18t17.5 -44q0 -27 -17.5 -44.5t-43.5 -17.5q-28 0 -45.5 17.5t-17.5 44.5t17.5 44.5t45.5 17.5zM771 598q26 0 43.5 -18t17.5 -44
q0 -27 -17.5 -44.5t-43.5 -17.5q-28 0 -45.5 17.5t-17.5 44.5t17.5 44.5t45.5 17.5z" />
    <glyph glyph-name="uni2237" unicode="&#x2237;" horiz-adv-x="1000" 
d="M259 124q26 0 43.5 -18t17.5 -44q0 -27 -17.5 -44.5t-44.5 -17.5t-44.5 17.5t-17.5 44.5t17.5 44.5t45.5 17.5zM742 124q26 0 43.5 -18t17.5 -44q0 -27 -17.5 -44.5t-44.5 -17.5t-44.5 17.5t-17.5 44.5t17.5 44.5t45.5 17.5zM259 599q26 0 43.5 -17.5t17.5 -44.5
t-17.5 -44.5t-44.5 -17.5t-44.5 17.5t-17.5 44.5t17.5 44.5t45.5 17.5zM742 599q26 0 43.5 -17.5t17.5 -44.5t-17.5 -44.5t-44.5 -17.5t-44.5 17.5t-17.5 44.5t17.5 44.5t45.5 17.5z" />
    <glyph glyph-name="congruent" unicode="&#x2245;" horiz-adv-x="278" 
d="M379 273v-51h-481v51h481zM379 147v-50h-481v50h481zM336 435l36 -31q-44 -78 -132 -78q-22 0 -36 3t-68 20q-83 24 -103 24q-26 0 -42 -10.5t-48 -46.5l-40 31q53 77 132 77q31 0 114 -25q72 -22 91 -22q27 0 45.5 11.5t50.5 46.5z" />
    <glyph glyph-name="approxequal" unicode="&#x2248;" horiz-adv-x="549" 
d="M126 243l-36 27q76 114 160 114q36 0 105 -35q63 -32 90 -32q29 0 52 15t55 54l37 -25q-79 -112 -167 -112q-21 0 -44.5 9t-84.5 39q-37 19 -62 19q-50 0 -105 -73zM96 75l-36 27q78 114 160 114q36 0 105 -35q63 -32 91 -32t51.5 15.5t54.5 53.5l37 -25
q-79 -112 -166 -112q-21 0 -45 9t-84 39q-38 19 -63 19q-50 0 -105 -73z" />
    <glyph glyph-name="notequal" unicode="&#x2260;" horiz-adv-x="549" 
d="M180 111h-123l15 72h161l79 100h-218l14 72h257l96 125l62 -39l-66 -86h135l-15 -72h-174l-78 -100h230l-14 -72h-270l-83 -109l-62 39z" />
    <glyph glyph-name="equivalence" unicode="&#x2261;" horiz-adv-x="584" 
d="M591 269l-15 -72h-484l15 72h484zM622 415l-15 -72h-483l14 72h484zM559 123l-14 -72h-484l15 72h483z" />
    <glyph glyph-name="lessequal" unicode="&#x2264;" horiz-adv-x="549" 
d="M532 72l-15 -72h-489l15 72h489zM94 308l15 69l533 207l-17 -79l-422 -164l353 -163l-17 -77z" />
    <glyph glyph-name="greaterequal" unicode="&#x2265;" horiz-adv-x="549" 
d="M54 72h489l-15 -72h-489zM609 377l-15 -69l-533 -207l17 79l422 164l-353 163l17 77z" />
    <glyph glyph-name="propersubset" unicode="&#x2282;" horiz-adv-x="1000" 
d="M767 62v-62h-280q-86 0 -130 18q-59 26 -91.5 86.5t-32.5 146.5q0 146 99 211q28 19 60.5 25.5t94.5 6.5h280v-62h-291q-91 0 -132 -44t-41 -141t41 -141t132 -44h291z" />
    <glyph glyph-name="propersuperset" unicode="&#x2283;" horiz-adv-x="1000" 
d="M233 62h291q91 0 132 44t41 141t-41 141t-132 44h-291v62h280q86 0 130 -18q58 -25 91 -85.5t33 -143.5q0 -150 -98 -215q-28 -19 -61 -25.5t-95 -6.5h-280v62z" />
    <glyph glyph-name="notsubset" unicode="&#x2284;" horiz-adv-x="1000" 
d="M425 2l-38 -65l-41 26l28 49q-68 22 -104.5 84t-36.5 155q0 145 98 211q28 19 61 25.5t95 6.5h170l43 73l42 -25l-28 -48h53v-62h-90l-217 -370h16h291v-62h-280q-40 0 -62 2zM621 432h-145q-91 0 -132 -44t-41 -141q0 -150 105 -178z" />
    <glyph glyph-name="uni2285" unicode="&#x2285;" horiz-adv-x="1000" 
d="M310 0h-102v67h141l236 402q-23 4 -59 4h-318v67h305q68 0 109 -8l51 87l46 -26l-47 -80q119 -67 119 -247q0 -162 -107 -232q-31 -20 -67 -27t-104 -7h-142l-40 -69l-45 29zM636 451l-225 -384h115q99 0 144 48.5t45 154.5q0 138 -79 181z" />
    <glyph glyph-name="reflexsubset" unicode="&#x2286;" horiz-adv-x="1000" 
d="M767 166v-62h-280q-68 0 -102.5 8.5t-64.5 32.5q-87 68 -87 210q0 147 99 212q28 19 60.5 25.5t94.5 6.5h280v-62h-291q-91 0 -132 -44t-41 -141q0 -98 41 -142t132 -44h291zM767 55v-55h-534v55h534z" />
    <glyph glyph-name="reflexsuperset" unicode="&#x2287;" horiz-adv-x="1000" 
d="M233 166h291q91 0 132 44t41 142q0 97 -41 141t-132 44h-291v62h280q86 0 130 -18q59 -25 91.5 -85.5t32.5 -144.5q0 -150 -98 -215q-28 -19 -61 -25.5t-95 -6.5h-280v62zM767 55v-55h-534v55h534z" />
    <glyph glyph-name="uni2295" unicode="&#x2295;" horiz-adv-x="1000" 
d="M505 629q127 0 218 -92.5t91 -220.5q0 -130 -93 -223t-223 -93t-221.5 91.5t-91.5 220.5q0 133 93 225t227 92zM531 346h225q-11 89 -73.5 151.5t-151.5 73.5v-225zM472 346v225q-89 -11 -151.5 -73.5t-73.5 -151.5h225zM531 287v-225q89 11 152 73.5t73 151.5h-225z
M472 287h-225q10 -89 73 -151.5t152 -73.5v225z" />
    <glyph glyph-name="circlemultiply" unicode="&#x2297;" horiz-adv-x="1000" 
d="M506 629q126 0 217.5 -93t91.5 -221q0 -130 -92 -222.5t-222 -92.5q-131 0 -223 92.5t-92 224.5q0 130 93.5 221t226.5 91zM500 357l159 159q-69 55 -159 55t-159 -55zM458 315l-159 159q-55 -71 -55 -159q0 -87 55 -159zM542 315l159 -159q54 69 54 159q0 89 -54 159z
M500 273l-159 -159q66 -55 159 -55t159 55z" />
    <glyph glyph-name="perpendicular" unicode="&#x22a5;" horiz-adv-x="1000" 
d="M470 598h61v-537h268v-61h-598v61h269v537z" />
    <glyph glyph-name="house" unicode="&#x2302;" horiz-adv-x="604" 
d="M11 0v401l291 328l292 -328v-401h-583zM62 51h481v328l-241 270l-240 -270v-328z" />
    <glyph glyph-name="revlogicalnot" unicode="&#x2310;" horiz-adv-x="584" 
d="M618 377l-15 -72h-435l-46 -219h-70l61 291h505z" />
    <glyph glyph-name="integraltp" unicode="&#x2320;" horiz-adv-x="604" 
d="M352 -205h-73v606q0 226 21 310q21 89 89 89q26 0 44.5 -16t18.5 -39q0 -20 -14 -34.5t-34 -14.5q-18 0 -35 15q-12 12 -19 12q-18 0 -18 -28q0 -13 6 -76q14 -146 14 -210v-614z" />
    <glyph glyph-name="integralbt" unicode="&#x2321;" horiz-adv-x="604" 
d="M279 800h73v-606q0 -226 -21 -310q-21 -89 -89 -89q-26 0 -44.5 16t-18.5 39q0 20 14 34.5t34 14.5q19 0 35 -15q12 -12 19 -12q18 0 18 28q0 13 -6 76q-14 146 -14 210v614z" />
    <glyph glyph-name="angleleft" unicode="&#x2329;" horiz-adv-x="333" 
d="M58 238l174 340q13 24 30 24q13 0 13 -12q0 -10 -5 -23l-131 -329l131 -329q5 -13 5 -23q0 -11 -13 -11q-18 0 -30 23z" />
    <glyph glyph-name="angleright" unicode="&#x232a;" horiz-adv-x="333" 
d="M275 238l-174 -340q-14 -23 -30 -23q-13 0 -13 12q0 10 5 22l131 329l-131 329q-5 15 -5 23q0 12 13 12q17 0 30 -24z" />
    <glyph glyph-name="SF100000" unicode="&#x2500;" horiz-adv-x="708" 
d="M-146 217v66h1000v-66h-1000z" />
    <glyph glyph-name="SF110000" unicode="&#x2502;" horiz-adv-x="625" 
d="M280 -250v1000h66v-1000h-66z" />
    <glyph glyph-name="SF010000" unicode="&#x250c;" horiz-adv-x="708" 
d="M854 283v-66h-467v-467h-66v533h533z" />
    <glyph glyph-name="SF030000" unicode="&#x2510;" horiz-adv-x="708" 
d="M321 217h-467v66h533v-533h-66v467z" />
    <glyph glyph-name="SF020000" unicode="&#x2514;" horiz-adv-x="708" 
d="M387 283h467v-66h-533v533h66v-467z" />
    <glyph glyph-name="SF040000" unicode="&#x2518;" horiz-adv-x="708" 
d="M-146 217v66h467v467h66v-533h-533z" />
    <glyph glyph-name="SF080000" unicode="&#x251c;" horiz-adv-x="708" 
d="M387 283h467v-66h-467v-467h-66v1000h66v-467z" />
    <glyph glyph-name="SF090000" unicode="&#x2524;" horiz-adv-x="708" 
d="M321 217h-467v66h467v467h66v-1000h-66v467z" />
    <glyph glyph-name="SF060000" unicode="&#x252c;" horiz-adv-x="708" 
d="M387 217v-467h-66v467h-467v66h1000v-66h-467z" />
    <glyph glyph-name="SF070000" unicode="&#x2534;" horiz-adv-x="708" 
d="M321 283v467h66v-467h467v-66h-1000v66h467z" />
    <glyph glyph-name="SF050000" unicode="&#x253c;" horiz-adv-x="708" 
d="M321 217h-467v66h467v467h66v-467h467v-66h-467v-467h-66v467z" />
    <glyph glyph-name="SF430000" unicode="&#x2550;" horiz-adv-x="708" 
d="M-146 151v66h1000v-66h-1000zM-146 283v66h1000v-66h-1000z" />
    <glyph glyph-name="SF240000" unicode="&#x2551;" horiz-adv-x="708" 
d="M255 -250v1000h66v-1000h-66zM387 -250v1000h66v-1000h-66z" />
    <glyph glyph-name="SF510000" unicode="&#x2552;" horiz-adv-x="708" 
d="M321 -250v599h533v-66h-467v-66h467v-66h-467v-401h-66z" />
    <glyph glyph-name="SF520000" unicode="&#x2553;" horiz-adv-x="708" 
d="M387 217h-66v-467h-66v533h599v-66h-401v-467h-66v467z" />
    <glyph glyph-name="SF390000" unicode="&#x2554;" horiz-adv-x="708" 
d="M321 283v-533h-66v599h599v-66h-533zM453 151v-401h-66v467h467v-66h-401z" />
    <glyph glyph-name="SF220000" unicode="&#x2555;" horiz-adv-x="708" 
d="M321 151h-467v66h467v66h-467v66h533v-599h-66v401z" />
    <glyph glyph-name="SF210000" unicode="&#x2556;" horiz-adv-x="708" 
d="M321 217v-467h-66v467h-401v66h599v-533h-66v467h-66z" />
    <glyph glyph-name="SF250000" unicode="&#x2557;" horiz-adv-x="708" 
d="M387 283h-533v66h599v-599h-66v533zM255 151h-401v66h467v-467h-66v401z" />
    <glyph glyph-name="SF500000" unicode="&#x2558;" horiz-adv-x="708" 
d="M321 750h66v-401h467v-66h-467v-66h467v-66h-533v599z" />
    <glyph glyph-name="SF490000" unicode="&#x2559;" horiz-adv-x="708" 
d="M387 283v467h66v-467h401v-66h-599v533h66v-467h66z" />
    <glyph glyph-name="SF380000" unicode="&#x255a;" horiz-adv-x="708" 
d="M321 217h533v-66h-599v599h66v-533zM453 349h401v-66h-467v467h66v-401z" />
    <glyph glyph-name="SF280000" unicode="&#x255b;" horiz-adv-x="708" 
d="M321 349v401h66v-599h-533v66h467v66h-467v66h467z" />
    <glyph glyph-name="SF270000" unicode="&#x255c;" horiz-adv-x="708" 
d="M321 283h66v467h66v-533h-599v66h401v467h66v-467z" />
    <glyph glyph-name="SF260000" unicode="&#x255d;" horiz-adv-x="708" 
d="M387 217v533h66v-599h-599v66h533zM255 349v401h66v-467h-467v66h401z" />
    <glyph glyph-name="SF360000" unicode="&#x255e;" horiz-adv-x="708" 
d="M321 750h66v-401h467v-66h-467v-66h467v-66h-467v-401h-66v1000z" />
    <glyph glyph-name="SF370000" unicode="&#x255f;" horiz-adv-x="708" 
d="M453 217v-467h-66v1000h66v-467h401v-66h-401zM321 -250h-66v1000h66v-1000z" />
    <glyph glyph-name="SF420000" unicode="&#x2560;" horiz-adv-x="708" 
d="M255 -250v1000h66v-1000h-66zM453 349h401v-66h-467v467h66v-401zM453 151v-401h-66v467h467v-66h-401z" />
    <glyph glyph-name="SF190000" unicode="&#x2561;" horiz-adv-x="708" 
d="M321 349v401h66v-1000h-66v401h-467v66h467v66h-467v66h467z" />
    <glyph glyph-name="SF200000" unicode="&#x2562;" horiz-adv-x="708" 
d="M255 217h-401v66h401v467h66v-1000h-66v467zM387 -250v1000h66v-1000h-66z" />
    <glyph glyph-name="SF230000" unicode="&#x2563;" horiz-adv-x="708" 
d="M453 -250h-66v1000h66v-1000zM255 349v401h66v-467h-467v66h401zM255 151h-401v66h467v-467h-66v401z" />
    <glyph glyph-name="SF470000" unicode="&#x2564;" horiz-adv-x="708" 
d="M-146 349h1000v-66h-1000v66zM321 151h-467v66h1000v-66h-467v-401h-66v401z" />
    <glyph glyph-name="SF480000" unicode="&#x2565;" horiz-adv-x="708" 
d="M255 217h-401v66h1000v-66h-401v-467h-66v467h-66v-467h-66v467z" />
    <glyph glyph-name="SF410000" unicode="&#x2566;" horiz-adv-x="708" 
d="M-146 349h1000v-66h-1000v66zM453 151v-401h-66v467h467v-66h-401zM255 151h-401v66h467v-467h-66v401z" />
    <glyph glyph-name="SF450000" unicode="&#x2567;" horiz-adv-x="708" 
d="M-146 151v66h1000v-66h-1000zM321 349v401h66v-401h467v-66h-1000v66h467z" />
    <glyph glyph-name="SF460000" unicode="&#x2568;" horiz-adv-x="708" 
d="M-146 217v66h401v467h66v-467h66v467h66v-467h401v-66h-1000z" />
    <glyph glyph-name="SF400000" unicode="&#x2569;" horiz-adv-x="708" 
d="M-146 151v66h1000v-66h-1000zM453 349h401v-66h-467v467h66v-401zM255 349v401h66v-467h-467v66h401z" />
    <glyph glyph-name="SF540000" unicode="&#x256a;" horiz-adv-x="708" 
d="M321 217v66h-467v66h467v401h66v-401h467v-66h-467v-66h467v-66h-467v-401h-66v401h-467v66h467z" />
    <glyph glyph-name="SF530000" unicode="&#x256b;" horiz-adv-x="708" 
d="M255 217h-401v66h401v467h66v-467h66v467h66v-467h401v-66h-401v-467h-66v467h-66v-467h-66v467z" />
    <glyph glyph-name="SF440000" unicode="&#x256c;" horiz-adv-x="708" 
d="M453 349h401v-66h-467v467h66v-401zM255 349v401h66v-467h-467v66h401zM453 151v-401h-66v467h467v-66h-401zM255 151h-401v66h467v-467h-66v401z" />
    <glyph glyph-name="upblock" unicode="&#x2580;" horiz-adv-x="708" 
d="M-146 250v500h1000v-500h-1000z" />
    <glyph glyph-name="dnblock" unicode="&#x2584;" horiz-adv-x="708" 
d="M-146 -250v500h1000v-500h-1000z" />
    </font>
</defs>
</svg>
