<?xml version="1.0" standalone="no"?>
<!DOCTYPE svg PUBLIC "-//W3C//DTD SVG 1.1//EN" "http://www.w3.org/Graphics/SVG/1.1/DTD/svg11.dtd" >
<svg xmlns="http://www.w3.org/2000/svg" xmlns:xlink="http://www.w3.org/1999/xlink" version="1.1">
<metadata>
Created by FontForge 20190801 at Tue Aug 11 14:08:06 2015
 By www-data
Copyright 2014 by (URW)++ Design &#38; Development GmbH
</metadata>
<defs>
<font id="NimbusSanLBolIta" horiz-adv-x="556" >
  <font-face 
    font-family="NimbusSanLBolIta"
    font-weight="700"
    font-style="italic"
    font-stretch="normal"
    units-per-em="1000"
    panose-1="0 0 8 0 0 0 0 0 0 0"
    ascent="729"
    descent="-271"
    x-height="540"
    cap-height="729"
    bbox="-151 -309 1196 1073"
    underline-thickness="69"
    underline-position="-110"
    slope="-12"
    unicode-range="U+0020-FB04"
  />
<missing-glyph horiz-adv-x="278" 
 />
    <glyph glyph-name="ff" unicode="ff" horiz-adv-x="666" 
d="M425 529l-20 -93h-82l-93 -436h-140l93 436h-77l20 93h76l14 65q15 70 56.5 102.5t114.5 32.5q30 0 77 -3l-22 -105q-33 4 -42 4q-37 0 -46 -43l-12 -53h83zM758 529l-20 -93h-82l-93 -436h-140l93 436h-77l20 93h76l14 65q15 70 56.5 102.5t114.5 32.5q30 0 77 -3
l-22 -105q-33 4 -42 4q-37 0 -46 -43l-12 -53h83z" />
    <glyph glyph-name="fi" unicode="fi" horiz-adv-x="611" 
d="M425 529l-20 -93h-82l-93 -436h-140l93 436h-77l20 93h76l14 65q15 70 56.5 102.5t114.5 32.5q30 0 77 -3l-22 -105q-33 4 -42 4q-37 0 -46 -43l-12 -53h83zM655 540l-115 -540h-140l115 540h140zM695 729l-27 -125h-140l27 125h140z" />
    <glyph glyph-name="fl" unicode="fl" horiz-adv-x="611" 
d="M425 529l-20 -93h-82l-93 -436h-140l93 436h-77l20 93h76l14 65q15 70 56.5 102.5t114.5 32.5q30 0 77 -3l-22 -105q-33 4 -42 4q-37 0 -46 -43l-12 -53h83zM695 729l-155 -729h-140l155 729h140z" />
    <glyph glyph-name="ffi" unicode="ffi" horiz-adv-x="943" 
d="M425 529l-20 -93h-82l-93 -436h-140l93 436h-77l20 93h76l14 65q15 70 56.5 102.5t114.5 32.5q30 0 77 -3l-22 -105q-33 4 -42 4q-37 0 -46 -43l-12 -53h83zM758 529l-20 -93h-82l-93 -436h-140l93 436h-77l20 93h76l14 65q15 70 56.5 102.5t114.5 32.5q30 0 77 -3
l-22 -105q-33 4 -42 4q-37 0 -46 -43l-12 -53h83zM988 540l-115 -540h-140l115 540h140zM1028 729l-27 -125h-140l27 125h140z" />
    <glyph glyph-name=".notdef" horiz-adv-x="278" 
 />
    <glyph glyph-name=".null" horiz-adv-x="0" 
 />
    <glyph glyph-name="nonmarkingreturn" horiz-adv-x="333" 
 />
    <glyph glyph-name="space" unicode=" " horiz-adv-x="278" 
 />
    <glyph glyph-name="exclam" unicode="!" horiz-adv-x="333" 
d="M417 726l-45 -210l-107 -309h-67l24 309l45 210h150zM293 146l-31 -146h-150l31 146h150z" />
    <glyph glyph-name="quotedbl" unicode="&#x22;" horiz-adv-x="474" 
d="M343 729l-28 -130l-69 -129h-56l-13 129l28 130h138zM579 729l-28 -130l-69 -129h-56l-13 129l28 130h138z" />
    <glyph glyph-name="numbersign" unicode="#" 
d="M138 -32h-105l83 204h-77l21 100h97l62 152h-99l22 100h118l71 173h106l-72 -173h103l71 173h106l-72 -173h87l-21 -100h-106l-62 -152h99l-21 -100h-119l-84 -204h-105l83 204h-102zM262 272h103l62 152h-102z" />
    <glyph glyph-name="dollar" unicode="$" 
d="M623 498h-128q3 29 3 40q0 60 -58 70l-43 -201q92 -29 134 -69t42 -101q0 -66 -35.5 -126t-92.5 -92q-58 -31 -139 -40l-22 -105h-68l23 105q-87 9 -133.5 52.5t-46.5 116.5q0 27 8 59h130q-1 -14 -1 -33q0 -75 65 -88l46 213q-165 42 -165 176q0 61 34.5 115t92.5 84
q53 28 125 35l11 54h68l-12 -54q78 -7 117 -40q50 -44 50 -122q0 -23 -5 -49zM334 427l38 181q-37 -7 -53 -19q-47 -32 -47 -88q0 -50 62 -74zM371 282l-42 -196q48 11 74.5 40.5t26.5 71.5q0 60 -59 84z" />
    <glyph glyph-name="percent" unicode="%" horiz-adv-x="889" 
d="M756 709h77l-551 -729h-76zM352 701q67 0 110 -40.5t43 -103.5q0 -86 -68.5 -153t-156.5 -67q-65 0 -108 41.5t-43 103.5q0 85 68.5 152t154.5 67zM331 603q-40 0 -71 -31t-31 -71q0 -28 20.5 -47t52.5 -19q41 0 72 30.5t31 70.5q0 29 -21 48t-53 19zM750 344
q67 0 110 -40.5t43 -103.5q0 -86 -68.5 -153t-156.5 -67q-65 0 -108 41.5t-43 103.5q0 85 68.5 152t154.5 67zM729 246q-40 0 -71 -31t-31 -71q0 -28 20.5 -47t52.5 -19q41 0 72 30.5t31 70.5q0 29 -21 48t-53 19z" />
    <glyph glyph-name="ampersand" unicode="&#x26;" horiz-adv-x="722" 
d="M607 373h113q-8 -55 -41 -114t-77 -99l94 -160h-160l-37 60q-69 -50 -111.5 -66.5t-100.5 -16.5q-94 0 -146 47t-52 132q0 116 106 188q37 26 104 57q-53 77 -53 122q0 80 67.5 140t157.5 60q68 0 110.5 -32.5t42.5 -84.5q0 -76 -53 -135q-30 -34 -106 -79l82 -137
q25 23 38.5 49t21.5 69zM347 319l-52 -29q-37 -21 -53 -44.5t-16 -58.5q0 -39 26 -66.5t63 -27.5q26 0 53.5 12.5t77.5 46.5zM419 470q80 42 80 104q0 41 -51 41q-29 0 -47 -17.5t-18 -45.5q0 -13 6 -27t30 -55z" />
    <glyph glyph-name="quotesingle" unicode="'" horiz-adv-x="238" 
d="M343 729l-28 -130l-70 -129h-55l-13 129l28 130h138z" />
    <glyph glyph-name="parenleft" unicode="(" horiz-adv-x="333" 
d="M358 729h100q-98 -134 -143 -216q-112 -203 -112 -401q0 -69 12.5 -136t45.5 -176h-100q-77 175 -77 322q0 152 65.5 297t208.5 310z" />
    <glyph glyph-name="parenright" unicode=")" horiz-adv-x="333" 
d="M79 -200h-100q98 132 145 216q113 202 113 400q0 70 -13 136t-48 177h100q80 -177 80 -323q0 -213 -130 -415q-56 -86 -147 -191z" />
    <glyph glyph-name="asterisk" unicode="*" horiz-adv-x="389" 
d="M246 544l-101 36l37 69l101 -36l24 116h72l-25 -116l117 36l7 -70l-116 -35l47 -94l-67 -43l-47 94l-87 -94l-49 43z" />
    <glyph glyph-name="plus" unicode="+" horiz-adv-x="584" 
d="M596 292l-25 -120h-183l-39 -182h-119l39 182h-182l25 120h182l39 181h119l-39 -181h183z" />
    <glyph glyph-name="comma" unicode="," horiz-adv-x="278" 
d="M95 146h150l-29 -137q-14 -82 -60 -126.5t-129 -56.5l12 56q92 16 111 118h-86z" />
    <glyph glyph-name="hyphen" unicode="-" horiz-adv-x="333" 
d="M371 342l-29 -135h-272l29 135h272z" />
    <glyph glyph-name="period" unicode="." horiz-adv-x="278" 
d="M245 146l-31 -146h-150l31 146h150z" />
    <glyph glyph-name="slash" unicode="/" horiz-adv-x="278" 
d="M360 714h67l-361 -728h-67z" />
    <glyph glyph-name="zero" unicode="0" 
d="M421 724q91 0 142 -52.5t51 -145.5q0 -76 -24 -187t-56 -179q-85 -183 -263 -183q-89 0 -139.5 53t-50.5 146q0 76 24 186t56 179q41 89 108 136t152 47zM394 612q-52 0 -88 -57q-25 -40 -53.5 -169.5t-28.5 -202.5q0 -38 20.5 -61t55.5 -23q44 0 72 32t49 106
q20 71 35 157.5t15 133.5q0 38 -21 61t-56 23z" />
    <glyph glyph-name="one" unicode="1" 
d="M342 489h-170l20 93q184 0 244 127h93l-151 -709h-140z" />
    <glyph glyph-name="two" unicode="2" 
d="M538 125l-26 -125h-482q26 99 72.5 157t150.5 120q143 89 178 127q54 56 54 128q0 37 -22.5 58.5t-62.5 21.5q-52 0 -85 -38.5t-43 -111.5h-134q20 126 93 194t190 68q97 0 152 -45.5t55 -126.5q0 -97 -65 -174q-42 -50 -152 -119q-90 -58 -122.5 -82.5t-50.5 -51.5h300z
" />
    <glyph glyph-name="three" unicode="3" 
d="M284 317l20 94h11q68 0 109 35.5t41 95.5q0 31 -21 50.5t-56 19.5q-63 0 -92 -51q-13 -22 -25 -75h-129q21 108 70 161q69 77 201 77q95 0 147.5 -39.5t52.5 -111.5q0 -119 -120 -193q72 -43 72 -123q0 -104 -65 -185q-78 -95 -228 -95q-97 0 -151 45.5t-54 128.5
q0 24 6 57h136l1 -10v-22q2 -77 90 -77q62 0 100 57q22 35 22 75q0 62 -57 79q-24 7 -81 7z" />
    <glyph glyph-name="four" unicode="4" 
d="M580 273l-25 -116h-73l-34 -157h-140l34 157h-285l25 118l352 434h165l-93 -436h74zM366 273l65 304l-249 -304h184z" />
    <glyph glyph-name="five" unicode="5" 
d="M641 709l-27 -125h-296l-54 -148q65 43 133 43q81 0 128 -48t47 -131q0 -109 -65 -199q-91 -124 -248 -124q-91 0 -145.5 45t-54.5 119q0 19 5 44h138q-2 -18 -2 -23q0 -29 24 -46t64 -17q61 0 101 50.5t40 126.5q0 44 -23 67.5t-67 23.5q-65 0 -101 -53h-126l146 395
h383z" />
    <glyph glyph-name="six" unicode="6" 
d="M624 548h-130q-7 34 -25.5 49t-54.5 15q-43 0 -72 -24t-50 -76q-13 -33 -32 -101q72 56 149 56q79 0 123.5 -44.5t44.5 -122.5q0 -114 -74 -212q-83 -111 -219 -111q-91 0 -145 52.5t-54 141.5q0 91 30 209.5t70 183.5q98 160 258 160q85 0 133.5 -41t48.5 -112
q0 -14 -1 -23zM352 355q-55 0 -96 -49.5t-41 -117.5q0 -39 24 -64t62 -25q55 0 94 50t39 120q0 39 -22.5 62.5t-59.5 23.5z" />
    <glyph glyph-name="seven" unicode="7" 
d="M679 709l-23 -110q-12 -12 -105 -108q-110 -123 -174 -235.5t-104 -255.5h-142q60 182 143.5 312.5t229.5 271.5h-353l27 125h501z" />
    <glyph glyph-name="eight" unicode="8" 
d="M491 386q46 -28 65 -58t19 -75q0 -51 -23 -103.5t-63 -91.5q-84 -81 -213 -81q-100 0 -158 48t-58 130q0 88 59 158q33 39 102 73q-36 27 -50.5 51.5t-14.5 57.5q0 94 78.5 161.5t187.5 67.5q88 0 143 -43t55 -111q0 -76 -60 -134q-20 -21 -69 -50zM398 612
q-51 0 -85.5 -32.5t-34.5 -79.5q0 -34 23 -54.5t62 -20.5q53 0 90 33.5t37 81.5q0 32 -25.5 52t-66.5 20zM342 330q-58 0 -98.5 -43.5t-40.5 -106.5q0 -35 26.5 -58t67.5 -23q59 0 97 41.5t38 106.5q0 38 -24.5 60.5t-65.5 22.5z" />
    <glyph glyph-name="nine" unicode="9" 
d="M72 165h135q-1 -5 -1 -12q0 -24 22 -39t57 -15q79 0 117 83q19 45 34 109q-42 -36 -73.5 -49.5t-73.5 -13.5q-79 0 -124 46.5t-45 128.5q0 135 85 228t208 93q90 0 144 -55.5t54 -149.5q0 -91 -29 -198t-75 -186q-91 -158 -259 -158q-80 0 -130 43t-50 112q0 13 4 33z
M389 612q-55 0 -93.5 -52.5t-38.5 -128.5q0 -40 21.5 -63.5t58.5 -23.5q60 0 102 51t42 124q0 43 -25 68t-67 25z" />
    <glyph glyph-name="colon" unicode=":" horiz-adv-x="333" 
d="M294 146l-31 -146h-150l31 146h150zM374 520l-31 -146h-150l31 146h150z" />
    <glyph glyph-name="semicolon" unicode=";" horiz-adv-x="333" 
d="M144 146h150l-29 -137q-14 -82 -60 -126.5t-129 -56.5l12 56q92 16 111 118h-86zM374 520l-31 -146h-150l31 146h150z" />
    <glyph glyph-name="less" unicode="&#x3c;" horiz-adv-x="584" 
d="M630 474l-27 -129l-340 -113l292 -111l-28 -131l-450 182l26 121z" />
    <glyph glyph-name="equal" unicode="=" horiz-adv-x="584" 
d="M622 412l-25 -120h-485l25 120h485zM571 172l-25 -120h-485l25 120h485z" />
    <glyph glyph-name="greater" unicode="&#x3e;" horiz-adv-x="584" 
d="M38 -10l27 129l340 113l-292 111l28 131l450 -182l-26 -121z" />
    <glyph glyph-name="question" unicode="?" horiz-adv-x="611" 
d="M414 201h-122q5 57 37.5 103t102.5 95q42 29 56 42t25 32q16 30 16 60q0 38 -25.5 62.5t-65.5 24.5q-51 0 -86 -36.5t-48 -102.5h-136q26 117 80 176q81 87 209 87q99 0 152 -44q63 -49 63 -134q0 -88 -50 -153q-32 -41 -117 -93q-51 -32 -66 -51t-25 -68zM418 146
l-31 -146h-150l31 146h150z" />
    <glyph glyph-name="at" unicode="@" horiz-adv-x="975" 
d="M750 508h90l-136 -280q-19 -37 -19 -54q0 -35 39 -35q31 0 71.5 27t74.5 71q69 88 69 188q0 79 -63 146q-85 91 -234 91q-114 0 -209 -48t-161 -139q-99 -135 -99 -279q0 -110 84.5 -180t218.5 -70q86 0 212 41l12 -79q-112 -45 -247 -45q-185 0 -286 95q-94 89 -94 223
q0 97 42.5 196.5t119.5 179.5q86 90 199 139t236 49q192 0 295 -127q67 -80 67 -179q0 -138 -88 -246q-112 -137 -239 -137q-85 0 -108 70q-76 -73 -159 -73q-61 0 -99 38t-38 98q0 95 90 201q52 61 114 94.5t122 33.5q37 0 59 -16t37 -53zM606 446q-42 2 -90.5 -34
t-81.5 -91.5t-33 -105.5q0 -35 18.5 -57t48.5 -22q71 0 140 91q63 81 63 149q0 30 -17.5 49.5t-47.5 20.5z" />
    <glyph glyph-name="A" unicode="A" horiz-adv-x="722" 
d="M532 147h-272l-81 -147h-153l407 729h173l97 -729h-153zM518 272l-35 283l-154 -283h189z" />
    <glyph glyph-name="B" unicode="B" horiz-adv-x="722" 
d="M82 0l155 729h325q107 0 160 -53q40 -43 40 -105q0 -107 -117 -183q38 -30 54.5 -61t16.5 -72q0 -45 -22 -93t-59 -84q-81 -78 -225 -78h-328zM325 439h164q39 0 59.5 6.5t36.5 25.5q28 30 28 71q0 32 -21.5 47t-67.5 15h-164zM259 125h178q43 0 67 10t41 36q23 35 23 74
q0 69 -91 69h-178z" />
    <glyph glyph-name="C" unicode="C" horiz-adv-x="722" 
d="M789 482h-141q0 52 -17 78q-32 53 -115 53q-120 0 -189 -109q-71 -110 -71 -240q0 -159 147 -159q72 0 123 37.5t73 106.5h143q-33 -128 -128 -200t-232 -72q-128 0 -201.5 69t-73.5 189q0 97 30.5 191.5t83.5 160.5q125 154 312 154q116 0 188 -57.5t72 -151.5
q0 -14 -4 -50z" />
    <glyph glyph-name="D" unicode="D" horiz-adv-x="722" 
d="M77 0l155 729h285q136 0 197.5 -59.5t61.5 -190.5q0 -187 -112 -339q-55 -76 -124 -108t-178 -32h-285zM254 125h134q65 0 106 23.5t73 79.5q26 44 43 113t17 128q0 135 -137 135h-135z" />
    <glyph glyph-name="E" unicode="E" horiz-adv-x="667" 
d="M296 314l-40 -189h395l-27 -125h-545l155 729h528l-27 -125h-378l-35 -165h349l-26 -125h-349z" />
    <glyph glyph-name="F" unicode="F" horiz-adv-x="611" 
d="M291 314l-67 -314h-150l155 729h512l-27 -125h-362l-35 -165h320l-27 -125h-319z" />
    <glyph glyph-name="G" unicode="G" horiz-adv-x="778" 
d="M795 392l-84 -394h-90l7 90q-56 -59 -109.5 -85t-123.5 -26q-132 0 -210 77t-78 208q0 87 33.5 176.5t92.5 157.5q125 145 314 145q122 0 197 -58.5t75 -153.5q0 -5 -2 -33h-138q-6 57 -47.5 87t-112.5 30q-129 0 -201 -112q-27 -41 -44.5 -102.5t-17.5 -114.5
q0 -78 48 -128.5t122 -50.5q92 0 162 70q36 34 54 92h-166l27 125h292z" />
    <glyph glyph-name="H" unicode="H" horiz-adv-x="722" 
d="M577 331h-289l-70 -331h-150l155 729h150l-58 -273h288l58 273h151l-155 -729h-150z" />
    <glyph glyph-name="I" unicode="I" horiz-adv-x="278" 
d="M368 729l-155 -729h-150l155 729h150z" />
    <glyph glyph-name="J" unicode="J" 
d="M491 729h150l-115 -539q-24 -118 -100 -167q-71 -46 -179 -46q-88 0 -138 41.5t-50 114.5q0 34 7 65l15 72h150l-16 -77q-4 -16 -4 -34q0 -24 18.5 -39t47.5 -15q82 0 99 85z" />
    <glyph glyph-name="K" unicode="K" horiz-adv-x="722" 
d="M274 234l-50 -234h-150l155 729h150l-68 -320l354 320h178l-361 -319l235 -410h-179l-173 314z" />
    <glyph glyph-name="L" unicode="L" horiz-adv-x="611" 
d="M385 729l-128 -604h349l-27 -125h-499l155 729h150z" />
    <glyph glyph-name="M" unicode="M" horiz-adv-x="833" 
d="M497 0h-150l-7 619l-132 -619h-142l155 729h217l20 -560l254 560h219l-155 -729h-142l132 619z" />
    <glyph glyph-name="N" unicode="N" horiz-adv-x="722" 
d="M816 729l-155 -729h-148l-192 523l-111 -523h-142l155 729h150l192 -515l109 515h142z" />
    <glyph glyph-name="O" unicode="O" horiz-adv-x="778" 
d="M538 741q137 0 213.5 -75t76.5 -211q0 -89 -32.5 -176t-90.5 -155q-64 -76 -138.5 -111.5t-171.5 -35.5q-134 0 -211.5 76.5t-77.5 207.5q0 86 33.5 175t91.5 158q122 147 307 147zM519 613q-116 0 -192 -104q-33 -46 -52.5 -107.5t-19.5 -119.5q0 -82 44 -129.5
t120 -47.5q116 0 190 104q32 46 51 107.5t19 120.5q0 83 -42.5 129.5t-117.5 46.5z" />
    <glyph glyph-name="P" unicode="P" horiz-adv-x="667" 
d="M281 260l-55 -260h-150l155 729h308q94 0 144 -39q64 -48 64 -130q0 -58 -24 -117t-64 -102q-77 -81 -191 -81h-187zM308 385h153q76 0 112 51q25 37 25 89q0 35 -25 57t-65 22h-154z" />
    <glyph glyph-name="Q" unicode="Q" horiz-adv-x="778" 
d="M686 103l64 -76l-93 -81l-69 81q-87 -50 -191 -50q-133 0 -210.5 77t-77.5 208q0 87 32.5 176t89.5 156q123 147 307 147q137 0 215 -76.5t78 -211.5q0 -92 -40.5 -190.5t-104.5 -159.5zM539 278l65 -78q35 44 56.5 109.5t21.5 126.5q0 83 -43.5 130t-120.5 47
q-114 0 -189 -105q-71 -98 -71 -226q0 -82 43 -129.5t117 -47.5q48 0 89 19l-62 73z" />
    <glyph glyph-name="R" unicode="R" horiz-adv-x="722" 
d="M291 289l-61 -289h-150l155 729h377q84 0 130 -46q43 -43 43 -104q0 -42 -17.5 -85.5t-46.5 -73.5q-32 -33 -103 -68q78 -26 78 -82q0 -33 -28 -183q-3 -15 -3 -26q0 -20 18 -34l-6 -27h-159q-8 24 -8 41q0 39 26 132q12 44 12 61q0 55 -85 55h-172zM318 414h181
q70 0 107 41q30 32 30 79q0 29 -22 49q-27 21 -88 21h-168z" />
    <glyph glyph-name="S" unicode="S" horiz-adv-x="667" 
d="M717 507h-140q2 18 2 23q0 83 -132 83q-68 0 -107.5 -28t-39.5 -76q0 -28 25 -43.5t96 -29.5l109 -22q77 -15 117 -53t40 -96q0 -50 -19 -100.5t-50 -85.5q-88 -102 -273 -102q-142 0 -213 65q-56 51 -56 132q0 17 4 44h146q-2 -18 -2 -23q0 -43 37.5 -66.5t105.5 -23.5
q78 0 124.5 30t46.5 81q0 35 -26 53t-94 32l-98 20q-89 18 -129 53.5t-40 97.5q0 53 24.5 105.5t67.5 89.5q84 74 230 74q119 0 185.5 -45.5t66.5 -126.5q0 -25 -8 -62z" />
    <glyph glyph-name="T" unicode="T" horiz-adv-x="611" 
d="M514 604l-129 -604h-150l129 604h-222l27 125h584l-27 -125h-212z" />
    <glyph glyph-name="U" unicode="U" horiz-adv-x="722" 
d="M659 729h150l-105 -494q-26 -120 -107 -184q-94 -74 -231 -74q-113 0 -180 51.5t-67 138.5q0 35 11 88l101 474h150l-105 -494q-5 -27 -5 -45q0 -40 32 -62.5t90 -22.5q69 0 108 31.5t53 98.5z" />
    <glyph glyph-name="V" unicode="V" horiz-adv-x="667" 
d="M400 0h-127l-94 729h151l45 -549l276 549h151z" />
    <glyph glyph-name="W" unicode="W" horiz-adv-x="944" 
d="M730 0h-135l-4 555l-237 -555h-135l-51 729h159l-3 -546l224 546h158l-3 -548l225 548h159z" />
    <glyph glyph-name="X" unicode="X" horiz-adv-x="667" 
d="M499 372l156 -372h-179l-90 249l-189 -249h-175l310 367l-145 362h178l79 -236l183 236h175z" />
    <glyph glyph-name="Y" unicode="Y" horiz-adv-x="667" 
d="M477 270l-58 -270h-150l58 270l-145 459h167l82 -315l207 315h167z" />
    <glyph glyph-name="Z" unicode="Z" horiz-adv-x="611" 
d="M733 729l-27 -125l-474 -479h373l-27 -125h-548l27 125l474 479h-373l27 125h548z" />
    <glyph glyph-name="bracketleft" unicode="[" horiz-adv-x="333" 
d="M463 729l-22 -100h-113l-154 -729h113l-21 -100h-243l197 929h243z" />
    <glyph glyph-name="backslash" unicode="\" horiz-adv-x="278" 
d="M138 709h74l73 -732h-75z" />
    <glyph glyph-name="bracketright" unicode="]" horiz-adv-x="333" 
d="M-25 -200l22 100h113l154 729h-113l21 100h243l-197 -929h-243z" />
    <glyph glyph-name="asciicircum" unicode="^" horiz-adv-x="584" 
d="M580 270h-113l-58 300l-178 -300h-112l255 425h125z" />
    <glyph glyph-name="underscore" unicode="_" 
d="M550 -76l-15 -69h-600l15 69h600z" />
    <glyph glyph-name="grave" unicode="`" horiz-adv-x="333" 
d="M175 757h119l45 -150h-63z" />
    <glyph glyph-name="a" unicode="a" 
d="M527 17l-4 -17h-153q-7 15 -7 27t3 27q-84 -77 -166 -77q-66 0 -103 31q-47 39 -47 100q0 45 23 87.5t63 71.5q45 32 116 44l58 9q54 8 65.5 10.5t26.5 10.5q34 17 34 53q0 43 -73 43q-49 0 -74 -17t-38 -58h-131q21 98 84.5 142.5t181.5 44.5q104 0 151 -38
q18 -14 29.5 -37.5t11.5 -45.5q0 -18 -6 -45l-63 -300q-3 -12 -3 -21q0 -21 21 -45zM400 217l8 38q-13 -8 -26 -10q-2 -1 -9 -2t-12 -2l-16 -3l-50 -8q-49 -8 -75.5 -32t-26.5 -59q0 -50 73 -50q51 0 85.5 33t48.5 95z" />
    <glyph glyph-name="b" unicode="b" horiz-adv-x="611" 
d="M214 729h140l-55 -259q67 79 166 79q79 0 127 -56.5t48 -150.5q0 -143 -90.5 -254t-206.5 -111q-99 0 -132 78l-12 -55h-140zM409 437q-65 0 -113 -70.5t-48 -164.5q0 -51 24 -82t64 -31q64 0 112.5 69t48.5 161q0 55 -23.5 86.5t-64.5 31.5z" />
    <glyph glyph-name="c" unicode="c" 
d="M593 338h-134q-1 48 -11 66q-20 33 -71 33q-80 0 -120 -85q-37 -74 -37 -160q0 -103 89 -103q41 0 68 22.5t50 75.5h134q-31 -100 -101.5 -155t-168.5 -55q-111 0 -165 61q-49 55 -49 134q0 71 28.5 150t72.5 132q77 95 220 95q97 0 151 -55q48 -48 48 -113q0 -11 -4 -43
z" />
    <glyph glyph-name="d" unicode="d" horiz-adv-x="611" 
d="M405 0l12 55q-66 -78 -166 -78q-79 0 -125.5 56.5t-46.5 151.5q0 130 78 243q39 56 96.5 88.5t118.5 32.5q99 0 133 -79l55 259h140l-155 -729h-140zM380 437q-62 0 -110 -70t-48 -161q0 -54 23.5 -85.5t63.5 -31.5q64 0 111.5 69.5t47.5 164.5q0 52 -23.5 83t-64.5 31z
" />
    <glyph glyph-name="e" unicode="e" 
d="M573 226h-363q-3 -37 -3 -45q0 -42 26 -67t69 -25q36 0 66.5 17t45.5 46h138q-41 -84 -113.5 -129.5t-163.5 -45.5q-94 0 -152.5 57.5t-58.5 149.5q0 75 31 154.5t79 130.5q35 37 90.5 58.5t114.5 21.5q112 0 167 -69q45 -58 45 -129q0 -57 -18 -125zM228 319h220
q0 37 -2 47q-4 32 -27 51.5t-58 19.5q-65 0 -103 -51q-17 -21 -30 -67z" />
    <glyph glyph-name="f" unicode="f" horiz-adv-x="333" 
d="M425 529l-20 -93h-82l-93 -436h-140l93 436h-77l20 93h76l14 65q15 70 56.5 102.5t114.5 32.5q30 0 77 -3l-22 -105q-33 4 -42 4q-37 0 -46 -43l-12 -53h83z" />
    <glyph glyph-name="g" unicode="g" horiz-adv-x="611" 
d="M523 540h133l-119 -558q-20 -96 -98.5 -148t-203.5 -52q-90 0 -143 26q-30 15 -48 41t-18 55q0 13 3 31h144l-1 -12q0 -22 24 -36.5t62 -14.5q55 0 95.5 30.5t50.5 79.5l16 73q-48 -44 -84 -61t-82 -17q-76 0 -125.5 53.5t-49.5 136.5q0 73 26 148.5t69 129.5
q39 49 93 76.5t111 27.5q88 0 127 -92zM379 437q-61 0 -109 -72t-48 -164q0 -52 22.5 -82t61.5 -30q67 0 116 67.5t49 158.5q0 56 -25 89t-67 33z" />
    <glyph glyph-name="h" unicode="h" horiz-adv-x="611" 
d="M222 729h140l-58 -271q78 91 180 91q65 0 105 -36.5t40 -95.5q0 -27 -6 -55l-77 -362h-140l67 313q6 33 6 48q0 76 -72 76q-49 0 -85.5 -36t-49.5 -97l-65 -304h-140z" />
    <glyph glyph-name="i" unicode="i" horiz-adv-x="278" 
d="M322 540l-115 -540h-140l115 540h140zM362 729l-27 -125h-140l27 125h140z" />
    <glyph glyph-name="j" unicode="j" horiz-adv-x="278" 
d="M365 729l-27 -125h-140l27 125h140zM325 540l-135 -634q-14 -65 -58.5 -94.5t-129.5 -29.5q-27 0 -45 5l24 111q5 -4 25 -4q23 0 34.5 10t16.5 34l128 602h140z" />
    <glyph glyph-name="k" unicode="k" 
d="M354 729l-85 -399l223 210h159l-232 -206l129 -334h-164l-79 239l-68 -62l-38 -177h-140l155 729h140z" />
    <glyph glyph-name="l" unicode="l" horiz-adv-x="278" 
d="M362 729l-155 -729h-140l155 729h140z" />
    <glyph glyph-name="m" unicode="m" horiz-adv-x="889" 
d="M175 540h139l-17 -81q44 49 82.5 69.5t88.5 20.5q46 0 79.5 -22t44.5 -60q79 82 177 82q68 0 105 -33t37 -93q0 -21 -8 -61l-77 -362h-140l72 340q5 23 5 41q0 56 -58 56q-47 0 -79.5 -29.5t-43.5 -83.5l-69 -324h-140l74 346q3 17 3 33q0 26 -17 42t-46 16
q-44 0 -75.5 -30.5t-42.5 -82.5l-69 -324h-140z" />
    <glyph glyph-name="n" unicode="n" horiz-adv-x="611" 
d="M178 540h140l-18 -82q40 48 83 69.5t99 21.5q67 0 107 -36t40 -96q0 -27 -6 -55l-77 -362h-140l67 313q6 34 6 49q0 75 -74 75q-51 0 -87.5 -35.5t-49.5 -97.5l-65 -304h-140z" />
    <glyph glyph-name="o" unicode="o" horiz-adv-x="611" 
d="M413 549q103 0 162 -53.5t59 -146.5q0 -65 -21.5 -133.5t-57.5 -115.5q-93 -123 -256 -123q-100 0 -158.5 54t-58.5 146q0 65 21.5 133t57.5 116q92 123 252 123zM391 437q-68 0 -117 -68.5t-49 -163.5q0 -53 27 -84.5t72 -31.5q81 0 129 87q38 66 38 144q0 54 -27 85.5
t-73 31.5z" />
    <glyph glyph-name="p" unicode="p" horiz-adv-x="611" 
d="M312 540l-17 -80q68 89 168 89q80 0 127 -56t47 -151q0 -150 -86 -257.5t-207 -107.5q-103 0 -133 87l-60 -282h-140l161 758h140zM406 437q-64 0 -112 -70t-48 -165q0 -51 24 -82t63 -31q65 0 113 69.5t48 164.5q0 52 -23.5 83t-64.5 31z" />
    <glyph glyph-name="q" unicode="q" horiz-adv-x="611" 
d="M519 540h140l-161 -758h-140l60 282q-69 -87 -169 -87q-80 0 -128.5 55.5t-48.5 148.5q0 135 80 249q41 56 98 87.5t119 31.5q103 0 133 -89zM377 437q-65 0 -113.5 -70.5t-48.5 -164.5q0 -51 24.5 -82t64.5 -31q66 0 114 70t48 165q0 52 -24 82.5t-65 30.5z" />
    <glyph glyph-name="r" unicode="r" horiz-adv-x="389" 
d="M178 540h140l-23 -106q74 115 175 115q9 0 17 -1l-30 -142q-24 4 -42 4q-124 0 -151 -123l-61 -287h-140z" />
    <glyph glyph-name="s" unicode="s" 
d="M584 366h-135q3 13 3 19q0 25 -23.5 38.5t-64.5 13.5q-40 0 -64 -14.5t-24 -38.5q0 -15 13.5 -24.5t51.5 -20.5l96 -28q122 -37 122 -124q0 -96 -75.5 -153t-202.5 -57q-92 0 -148 33q-33 19 -53 51t-20 66q0 11 4 30h137q5 -68 106 -68q46 0 75 15.5t29 39.5
q0 17 -14.5 27t-61.5 25l-79 25q-66 22 -97.5 52t-31.5 72q0 37 19.5 76.5t51.5 68.5q67 59 189 59q95 0 148.5 -38.5t53.5 -106.5q0 -16 -5 -38z" />
    <glyph glyph-name="t" unicode="t" horiz-adv-x="333" 
d="M414 529l-20 -93h-78l-62 -294q-6 -26 -6 -34q0 -25 38 -25q12 0 33 3l-20 -98q-39 -11 -85 -11q-113 0 -113 86q0 18 5 41l70 332h-69l20 93h69l31 145h140l-31 -145h78z" />
    <glyph glyph-name="u" unicode="u" horiz-adv-x="611" 
d="M541 0h-140l15 68q-40 -48 -83 -69.5t-99 -21.5q-66 0 -106 36t-40 96q0 27 6 55l80 376h140l-70 -327q-6 -29 -6 -49q0 -75 76 -75q49 0 85 36t49 97l68 318h140z" />
    <glyph glyph-name="v" unicode="v" 
d="M350 0h-147l-74 540h148l30 -395l196 395h148z" />
    <glyph glyph-name="w" unicode="w" horiz-adv-x="778" 
d="M617 0h-145l-4 380l-166 -380h-145l-37 540h145l5 -378l159 378h144v-378l163 378h145z" />
    <glyph glyph-name="x" unicode="x" 
d="M411 274l123 -274h-168l-59 168l-123 -168h-168l233 274l-111 266h168l51 -163l123 163h168z" />
    <glyph glyph-name="y" unicode="y" 
d="M509 540h144l-358 -638q-27 -48 -48 -69.5t-53 -34.5q-48 -17 -113 -17q-27 0 -44 4l23 109q11 -2 28 -2q52 0 82.5 25t30.5 68l-1 15l-76 540h154l36 -393z" />
    <glyph glyph-name="z" unicode="z" horiz-adv-x="500" 
d="M575 540l-24 -113l-332 -314h274l-24 -113h-448l24 113l334 314h-249l24 113h421z" />
    <glyph glyph-name="braceleft" unicode="{" horiz-adv-x="389" 
d="M472 729l-21 -99h-37q-29 -1 -40 -12t-17 -45l-41 -195q-12 -54 -39 -78.5t-82 -30.5q31 -5 45 -12q34 -15 34 -57q0 -16 -5 -41l-42 -195q-5 -28 -5 -40q0 -25 39 -25h35l-21 -99h-77q-44 0 -70.5 27.5t-26.5 72.5q0 23 4 40l45 210q5 25 5 34q0 38 -54 38h-13l-4 1
l20 92h4h12q66 0 78 63l45 211q13 66 52.5 102t100.5 38h76z" />
    <glyph glyph-name="bar" unicode="|" horiz-adv-x="280" 
d="M335 729l-198 -929h-80l198 929h80z" />
    <glyph glyph-name="braceright" unicode="}" horiz-adv-x="389" 
d="M29 -200l21 99h38q28 1 39.5 12t17.5 45l41 195q12 54 39 78.5t82 30.5q-31 5 -45 12q-34 15 -34 57q0 16 5 41l42 195q5 28 5 40q0 25 -39 25h-36l21 99h78q44 0 70.5 -27.5t26.5 -72.5q0 -23 -4 -40l-45 -210q-5 -25 -5 -34q0 -38 54 -38h14l4 -1l-20 -92h-4h-13
q-66 0 -78 -63l-45 -211q-13 -66 -52.5 -102t-100.5 -38h-77z" />
    <glyph glyph-name="asciitilde" unicode="~" horiz-adv-x="584" 
d="M504 411h77q-17 -71 -57.5 -108.5t-100.5 -37.5q-47 0 -77 26l-48 42q-27 24 -56 24q-28 0 -42 -13.5t-25 -51.5h-78q39 145 159 145q47 0 76 -25l49 -42q28 -25 56 -25t42 14t25 52z" />
    <glyph glyph-name="uni00A0" unicode="&#xa0;" horiz-adv-x="278" 
 />
    <glyph glyph-name="exclamdown" unicode="&#xa1;" horiz-adv-x="333" 
d="M26 -186l45 210l107 309h67l-24 -309l-45 -210h-150zM150 394l31 146h150l-31 -146h-150z" />
    <glyph glyph-name="cent" unicode="&#xa2;" 
d="M410 435l-73 -346q31 7 52 30t39 68h134q-27 -92 -94 -148.5t-155 -60.5l-21 -102h-66l22 104q-37 6 -57 15q-51 19 -81.5 68t-30.5 109q0 63 23.5 135.5t60.5 125.5q73 105 205 115l19 86h66l-19 -87q34 -4 55 -12q49 -20 79 -62.5t30 -91.5q0 -11 -4 -43h-134
q0 45 -11 66.5t-39 30.5zM272 93l72 342q-40 -11 -62 -42q-27 -37 -43.5 -92.5t-16.5 -109.5q0 -42 11 -64t39 -34z" />
    <glyph glyph-name="sterling" unicode="&#xa3;" 
d="M455 371l-12 -55h-122q2 -12 2 -25q0 -55 -34 -100.5t-117 -104.5q49 22 67 27.5t41 5.5q21 0 65 -9q42 -8 66 -8q52 0 114 29l18 -109q-87 -45 -155 -45q-35 0 -96 15t-95 15q-50 0 -115 -28l-33 101q78 46 111 87.5t33 93.5q0 20 -5 55h-89l12 55h60q-26 73 -26 107
q0 91 79 164t201 73q204 0 204 -176q0 -22 -4 -55h-131q1 11 1 26q0 93 -93 93q-46 0 -80 -32t-34 -75q0 -16 12 -60q12 -46 16 -65h139z" />
    <glyph glyph-name="currency" unicode="&#xa4;" 
d="M501 528l89 73l54 -69l-91 -75q10 -34 10 -60q0 -79 -56 -151l60 -76l-83 -68l-59 75q-60 -30 -108 -30q-67 0 -103 31l-94 -78l-54 69l94 77q-11 33 -11 63q0 82 55 148l-62 79l83 68l61 -77q57 31 118 31q55 0 97 -30zM377 460q-54 0 -91 -37.5t-37 -92.5
q0 -38 24 -61.5t62 -23.5q54 0 91 37.5t37 92.5q0 38 -24 61.5t-62 23.5z" />
    <glyph glyph-name="yen" unicode="&#xa5;" 
d="M574 352l-13 -60h-144l-11 -52h144l-13 -60h-144l-38 -180h-140l38 180h-146l13 60h146l11 52h-146l12 60h140l-128 352h139l85 -254l187 254h136l-267 -352h139z" />
    <glyph glyph-name="brokenbar" unicode="&#xa6;" horiz-adv-x="280" 
d="M335 729l-83 -389h-80l83 389h80zM220 189l-83 -389h-80l83 389h80z" />
    <glyph glyph-name="section" unicode="&#xa7;" 
d="M589 544h-127q1 7 1 18q0 59 -62 59q-32 0 -53.5 -17.5t-21.5 -44.5q0 -31 71 -74l112 -70q69 -43 69 -113q0 -68 -30.5 -109t-99.5 -67q48 -39 48 -99q0 -73 -54 -138q-76 -90 -210 -90q-81 0 -128.5 38.5t-47.5 103.5q0 26 9 59h131q-3 -26 -3 -34q0 -55 65 -55
q38 0 64 21.5t26 52.5q0 20 -9 30.5t-46 33.5l-150 100q-54 37 -54 98q0 67 39 112q26 30 88 69q-38 39 -38 96q0 76 65 135q69 64 182 64q80 0 125.5 -34t45.5 -95q0 -15 -7 -50zM258 247l125 -77q65 30 65 77q0 18 -10 30.5t-36 28.5l-127 76q-56 -29 -56 -81
q0 -31 39 -54z" />
    <glyph glyph-name="dieresis" unicode="&#xa8;" horiz-adv-x="333" 
d="M283 741l-26 -120h-110l26 120h110zM469 741l-26 -120h-110l26 120h110z" />
    <glyph glyph-name="copyright" unicode="&#xa9;" horiz-adv-x="737" 
d="M644 431h-90q0 41 -18 59.5t-58 18.5q-68 0 -112 -63q-41 -62 -41 -141q0 -94 86 -94q87 0 115 86h92q-21 -79 -82 -124t-146 -45q-74 0 -116 42.5t-42 116.5q0 121 70 211q74 94 191 94q70 0 112 -35t42 -93q0 -8 -3 -33zM530 743q134 0 220.5 -85.5t86.5 -217.5
q0 -118 -67 -225t-178 -172t-232 -65q-133 0 -219.5 86t-86.5 217q0 117 67 224.5t177.5 172.5t231.5 65zM514 671q-148 0 -264 -115t-116 -261q0 -107 68.5 -176t174.5 -69q96 0 184.5 53t142 140.5t53.5 183.5q0 106 -68.5 175t-174.5 69z" />
    <glyph glyph-name="ordfeminine" unicode="&#xaa;" horiz-adv-x="370" 
d="M396 342l-16 -80h-284l17 80h283zM420 409l-2 -10h-92q-4 8 -4 16q0 6 2 16q-50 -46 -107 -46q-38 0 -60.5 21t-22.5 57q0 47 33.5 81t88.5 42l34 6q43 6 56 12q20 10 20 32q0 25 -44 25q-29 0 -44 -10t-23 -34h-79q25 112 161 112q54 0 84 -19t30 -53q0 -11 -3 -28
l-39 -180q-1 -4 -1 -13q0 -12 12 -27zM344 529l5 23q-10 -4 -16 -6l-12 -2l-10 -1l-30 -6q-28 -4 -44 -18.5t-16 -35.5q0 -30 42 -30q31 0 52.5 20t28.5 56z" />
    <glyph glyph-name="guillemotleft" unicode="&#xab;" 
d="M135 218l24 114l199 149l-25 -117l-120 -89l82 -89l-24 -114zM348 218l24 114l199 149l-25 -117l-120 -89l82 -89l-24 -114z" />
    <glyph glyph-name="logicalnot" unicode="&#xac;" horiz-adv-x="584" 
d="M128 376h504l-61 -290h-119l36 170h-385z" />
    <glyph glyph-name="uni00AD" unicode="&#xad;" horiz-adv-x="333" 
d="M371 342l-29 -135h-272l29 135h272z" />
    <glyph glyph-name="registered" unicode="&#xae;" horiz-adv-x="737" 
d="M356 313l-37 -173h-96l94 442h238q99 0 99 -89q0 -96 -97 -140q39 -18 39 -49q0 -20 -15 -109l-1 -13q0 -13 12 -21l-5 -21h-102q-5 16 -5 28q0 21 14 79q6 26 6 31q0 35 -53 35h-91zM373 394h102q47 0 62 21q16 20 16 54q0 18 -12.5 25.5t-42.5 7.5h-102zM530 743
q133 0 220 -86t87 -217q0 -118 -67 -225t-177.5 -172t-231.5 -65q-133 0 -219.5 86t-86.5 217q0 117 67 224.5t177.5 172.5t230.5 65zM514 671q-147 0 -263 -115t-116 -261q0 -106 68.5 -175.5t173.5 -69.5q96 0 184.5 53t142 140.5t53.5 183.5q0 106 -68.5 175t-174.5 69z
" />
    <glyph glyph-name="macron" unicode="&#xaf;" horiz-adv-x="333" 
d="M467 722l-17 -80h-300l17 80h300z" />
    <glyph glyph-name="degree" unicode="&#xb0;" horiz-adv-x="400" 
d="M315 686q63 0 107.5 -44.5t44.5 -106.5q0 -64 -44.5 -108t-108.5 -44q-61 0 -105.5 45t-44.5 107t44.5 106.5t106.5 44.5zM316 623q-37 0 -63 -26t-26 -63q0 -36 26 -62t61 -26q38 0 64 26t26 63t-26 62.5t-62 25.5z" />
    <glyph glyph-name="plusminus" unicode="&#xb1;" horiz-adv-x="584" 
d="M630 452l-25 -120h-183l-35 -162h-119l35 162h-182l25 120h182l39 181h119l-39 -181h183zM559 119l-25 -119h-484l25 119h484z" />
    <glyph glyph-name="twosuperior" unicode="&#xb2;" horiz-adv-x="333" 
d="M391 364l-17 -80h-306q16 61 45.5 97t94.5 73q87 51 110 74q32 32 32 72q0 46 -52 46q-66 0 -75 -89h-91q12 78 58 119.5t121 41.5q62 0 97 -27.5t35 -77.5q0 -57 -40 -105q-29 -31 -95 -71q-86 -52 -101 -73h184z" />
    <glyph glyph-name="threesuperior" unicode="&#xb3;" horiz-adv-x="333" 
d="M224 471l13 63q53 1 73 19q24 21 24 53q0 18 -12.5 29t-32.5 11q-29 0 -44 -16.5t-24 -58.5h-87q15 77 56 112t116 35q61 0 94.5 -24.5t33.5 -68.5q0 -69 -71 -113q43 -27 43 -73q0 -74 -51 -121t-133 -47q-62 0 -96.5 28t-34.5 79q0 15 4 36h91q-2 -8 -2 -18
q0 -47 56 -47q30 0 51.5 21.5t21.5 52.5q0 49 -76 49q-8 0 -13 -1z" />
    <glyph glyph-name="acute" unicode="&#xb4;" horiz-adv-x="333" 
d="M475 757l-158 -150h-70l102 150h126z" />
    <glyph glyph-name="mu" unicode="&#xb5;" horiz-adv-x="611" 
d="M146 -220h-135l162 760h140l-71 -333q-7 -33 -7 -46q0 -29 20.5 -45.5t55.5 -16.5q50 0 86 28t46 75l72 338h140l-83 -390q-7 -32 -7 -50q0 -23 21 -23q8 0 21 4l-18 -86q-36 -18 -74 -18q-35 0 -53 12t-30 43q-36 -31 -67 -43t-74 -12q-61 0 -95 38z" />
    <glyph glyph-name="paragraph" unicode="&#xb6;" 
d="M684 729l-15 -73h-44l-180 -847h-98l180 847h-62l-180 -847h-98l97 458q-75 4 -119 49t-44 119q0 119 89 214q76 80 172 80h302z" />
    <glyph glyph-name="periodcentered" unicode="&#xb7;" horiz-adv-x="278" 
d="M270 282l-22 -100h-105l22 100h105z" />
    <glyph glyph-name="cedilla" unicode="&#xb8;" horiz-adv-x="333" 
d="M154 0h50l-41 -62q24 6 43 6q30 0 47 -15t17 -42q0 -49 -41 -78t-109 -29q-58 0 -133 29l30 51q63 -30 98 -30q29 0 48.5 12.5t19.5 31.5q0 15 -12 24t-32 9q-22 0 -53 -13z" />
    <glyph glyph-name="onesuperior" unicode="&#xb9;" horiz-adv-x="333" 
d="M260 573h-106l13 61q116 0 152 75h63l-90 -425h-94z" />
    <glyph glyph-name="ordmasculine" unicode="&#xba;" horiz-adv-x="365" 
d="M410 342l-17 -80h-301l17 80h301zM339 729q62 0 97 -31.5t35 -87.5q0 -89 -48 -150q-56 -74 -154 -74q-59 0 -94 32.5t-35 87.5q0 96 56.5 159.5t142.5 63.5zM325 661q-40 0 -69 -41.5t-29 -99.5q0 -32 16 -51.5t42 -19.5q41 0 70 41.5t29 99.5q0 33 -16 52t-43 19z" />
    <glyph glyph-name="guillemotright" unicode="&#xbb;" 
d="M326 335l-24 -115l-199 -148l25 117l120 89l-82 89l24 114zM533 335l-24 -115l-199 -148l25 117l120 89l-82 89l24 114z" />
    <glyph glyph-name="onequarter" unicode="&#xbc;" horiz-adv-x="834" 
d="M252 573h-106l13 61q116 0 152 75h63l-90 -425h-94zM737 715h85l-581 -735h-85zM839 166l-16 -73h-46l-19 -93h-94l20 93h-177l16 72l217 260h108l-55 -259h46zM700 166l35 166l-140 -166h105z" />
    <glyph glyph-name="onehalf" unicode="&#xbd;" horiz-adv-x="834" 
d="M245 573h-106l13 61q116 0 152 75h63l-90 -425h-94zM727 715h85l-581 -735h-85zM840 80l-17 -80h-306q16 61 45.5 97t95.5 73q88 53 109 74q32 30 32 72q0 46 -52 46q-64 0 -75 -89h-91q13 78 58.5 119.5t120.5 41.5q62 0 97 -27.5t35 -77.5q0 -57 -40 -105
q-28 -31 -94 -71q-84 -50 -102 -73h184z" />
    <glyph glyph-name="threequarters" unicode="&#xbe;" horiz-adv-x="834" 
d="M236 471l13 63q53 1 73 19q24 21 24 53q0 18 -12.5 29t-32.5 11q-29 0 -44 -16.5t-24 -58.5h-87q15 77 56 112t116 35q61 0 94.5 -24.5t33.5 -68.5q0 -69 -71 -113q43 -27 43 -73q0 -74 -51 -121t-133 -47q-62 0 -96.5 28t-34.5 79q0 15 4 36h91q-2 -8 -2 -18
q0 -47 56 -47q30 0 51.5 21.5t21.5 52.5q0 49 -76 49q-8 0 -13 -1zM757 715h85l-581 -735h-85zM846 166l-16 -73h-46l-20 -93h-93l20 93h-177l15 72l218 260h108l-55 -259h46zM707 166l34 166l-140 -166h106z" />
    <glyph glyph-name="questiondown" unicode="&#xbf;" horiz-adv-x="611" 
d="M310 339h122q-5 -58 -37 -103t-103 -95q-41 -29 -55.5 -42t-25.5 -32q-16 -30 -16 -60q0 -38 26 -62.5t66 -24.5q50 0 85.5 37t47.5 102h136q-26 -117 -80 -176q-80 -87 -209 -87q-99 0 -157 48t-58 130q0 71 37 134q32 52 130 112q51 31 65.5 50t25.5 69zM306 394
l31 146h150l-31 -146h-150z" />
    <glyph glyph-name="Agrave" unicode="&#xc0;" horiz-adv-x="722" 
d="M532 147h-272l-81 -147h-153l407 729h173l97 -729h-153zM518 272l-35 283l-154 -283h189zM407 936h119l45 -150h-63z" />
    <glyph glyph-name="Aacute" unicode="&#xc1;" horiz-adv-x="722" 
d="M532 147h-272l-81 -147h-153l407 729h173l97 -729h-153zM518 272l-35 283l-154 -283h189zM714 936l-158 -150h-70l102 150h126z" />
    <glyph glyph-name="Acircumflex" unicode="&#xc2;" horiz-adv-x="722" 
d="M532 147h-272l-81 -147h-153l407 729h173l97 -729h-153zM518 272l-35 283l-154 -283h189zM511 936h108l71 -147h-78l-61 97l-103 -97h-76z" />
    <glyph glyph-name="Atilde" unicode="&#xc3;" horiz-adv-x="722" 
d="M532 147h-272l-81 -147h-153l407 729h173l97 -729h-153zM518 272l-35 283l-154 -283h189zM685 923h54q-15 -53 -41 -81q-39 -41 -92 -41q-27 0 -51 11l-50 25q-28 15 -44 15q-27 0 -51 -49h-54q37 118 121 118q31 0 71 -18l50 -21q20 -9 33 -9q33 0 54 50z" />
    <glyph glyph-name="Adieresis" unicode="&#xc4;" horiz-adv-x="722" 
d="M532 147h-272l-81 -147h-153l407 729h173l97 -729h-153zM518 272l-35 283l-154 -283h189zM522 920l-26 -120h-110l26 120h110zM708 920l-26 -120h-110l26 120h110z" />
    <glyph glyph-name="Aring" unicode="&#xc5;" horiz-adv-x="722" 
d="M532 147h-272l-81 -147h-153l407 729h173l97 -729h-153zM518 272l-35 283l-154 -283h189zM565 953q31 0 51.5 -20t20.5 -51q0 -43 -34 -76t-78 -33q-31 0 -51.5 20t-20.5 51q0 43 34 76t78 33zM555 903q-20 0 -36.5 -14.5t-16.5 -33.5q0 -14 9.5 -23t24.5 -9q20 0 36 15
t16 34q0 13 -9.5 22t-23.5 9z" />
    <glyph glyph-name="AE" unicode="&#xc6;" horiz-adv-x="1000" 
d="M464 152h-219l-85 -152h-159l420 729h683l-26 -125h-367l-36 -165h339l-26 -125h-339l-40 -189h386l-27 -125h-536zM491 277l70 327h-66l-185 -327h181z" />
    <glyph glyph-name="Ccedilla" unicode="&#xc7;" horiz-adv-x="722" 
d="M389 -23l-26 -40q21 7 43 7q30 0 47 -15t17 -42q0 -49 -41 -78t-110 -29q-60 0 -133 29l30 51q63 -30 100 -30q28 0 47.5 12.5t19.5 31.5q0 15 -12 24t-32 9q-23 0 -54 -13l55 84q-106 8 -169.5 78t-63.5 179q0 97 31 191.5t84 160.5q124 154 311 154q116 0 188 -58
t72 -152q0 -14 -4 -49h-141q0 52 -17 78q-32 53 -115 53q-120 0 -189 -109q-71 -110 -71 -239q0 -160 146 -160q73 0 124 37.5t73 106.5h143q-31 -125 -126 -198t-227 -74z" />
    <glyph glyph-name="Egrave" unicode="&#xc8;" horiz-adv-x="667" 
d="M296 314l-40 -189h395l-27 -125h-545l155 729h528l-27 -125h-378l-35 -165h349l-26 -125h-349zM400 936h119l45 -150h-63z" />
    <glyph glyph-name="Eacute" unicode="&#xc9;" horiz-adv-x="667" 
d="M296 314l-40 -189h395l-27 -125h-545l155 729h528l-27 -125h-378l-35 -165h349l-26 -125h-349zM675 936l-158 -150h-70l102 150h126z" />
    <glyph glyph-name="Ecircumflex" unicode="&#xca;" horiz-adv-x="667" 
d="M296 314l-40 -189h395l-27 -125h-545l155 729h528l-27 -125h-378l-35 -165h349l-26 -125h-349zM494 936h107l72 -147h-78l-61 97l-103 -97h-76z" />
    <glyph glyph-name="Edieresis" unicode="&#xcb;" horiz-adv-x="667" 
d="M296 314l-40 -189h395l-27 -125h-545l155 729h528l-27 -125h-378l-35 -165h349l-26 -125h-349zM502 920l-26 -120h-110l26 120h110zM688 920l-26 -120h-110l26 120h110z" />
    <glyph glyph-name="Igrave" unicode="&#xcc;" horiz-adv-x="278" 
d="M368 729l-155 -729h-150l155 729h150zM181 936h120l44 -150h-63z" />
    <glyph glyph-name="Iacute" unicode="&#xcd;" horiz-adv-x="278" 
d="M368 729l-155 -729h-150l155 729h150zM489 936l-158 -150h-70l102 150h126z" />
    <glyph glyph-name="Icircumflex" unicode="&#xce;" horiz-adv-x="278" 
d="M368 729l-155 -729h-150l155 729h150zM288 936h108l71 -147h-78l-61 97l-103 -97h-76z" />
    <glyph glyph-name="Idieresis" unicode="&#xcf;" horiz-adv-x="278" 
d="M368 729l-155 -729h-150l155 729h150zM297 920l-26 -120h-110l26 120h110zM483 920l-26 -120h-110l26 120h110z" />
    <glyph glyph-name="Eth" unicode="&#xd0;" horiz-adv-x="722" 
d="M150 341h-77l17 80h76l66 308h285q136 0 197.5 -59.5t61.5 -190.5q0 -187 -112 -339q-55 -76 -124 -108t-178 -32h-285zM300 341l-46 -216h134q65 0 106 23.5t73 79.5q26 44 43 113t17 128q0 135 -137 135h-135l-39 -183h174l-17 -80h-173z" />
    <glyph glyph-name="Ntilde" unicode="&#xd1;" horiz-adv-x="722" 
d="M816 729l-155 -729h-148l-192 523l-111 -523h-142l155 729h150l192 -515l109 515h142zM683 923h54q-15 -53 -41 -81q-39 -41 -92 -41q-27 0 -51 11l-50 25q-28 15 -44 15q-27 0 -51 -49h-54q36 118 121 118q31 0 71 -18l50 -21q20 -9 32 -9q34 0 55 50z" />
    <glyph glyph-name="Ograve" unicode="&#xd2;" horiz-adv-x="778" 
d="M450 936h119l45 -150h-64zM538 741q138 0 214 -75t76 -211q0 -89 -32.5 -176t-90.5 -155q-64 -76 -138.5 -111.5t-171.5 -35.5q-134 0 -211.5 76.5t-77.5 207.5q0 86 33.5 175t91.5 159q122 146 307 146zM519 613q-116 0 -192 -104q-33 -46 -52.5 -107.5t-19.5 -119.5
q0 -82 44 -129.5t120 -47.5q116 0 190 105q32 45 51 106.5t19 120.5q0 83 -42.5 129.5t-117.5 46.5z" />
    <glyph glyph-name="Oacute" unicode="&#xd3;" horiz-adv-x="778" 
d="M732 936l-158 -150h-70l101 150h127zM538 741q138 0 214 -75t76 -211q0 -89 -32.5 -176t-90.5 -155q-64 -76 -138.5 -111.5t-171.5 -35.5q-134 0 -211.5 76.5t-77.5 207.5q0 86 33.5 175t91.5 159q122 146 307 146zM519 613q-116 0 -192 -104q-33 -46 -52.5 -107.5
t-19.5 -119.5q0 -82 44 -129.5t120 -47.5q116 0 190 105q32 45 51 106.5t19 120.5q0 83 -42.5 129.5t-117.5 46.5z" />
    <glyph glyph-name="Ocircumflex" unicode="&#xd4;" horiz-adv-x="778" 
d="M541 936h108l71 -147h-78l-61 97l-103 -97h-76zM538 741q138 0 214 -75t76 -211q0 -89 -32.5 -176t-90.5 -155q-64 -76 -138.5 -111.5t-171.5 -35.5q-134 0 -211.5 76.5t-77.5 207.5q0 86 33.5 175t91.5 159q122 146 307 146zM519 613q-116 0 -192 -104
q-33 -46 -52.5 -107.5t-19.5 -119.5q0 -82 44 -129.5t120 -47.5q116 0 190 105q32 45 51 106.5t19 120.5q0 83 -42.5 129.5t-117.5 46.5z" />
    <glyph glyph-name="Otilde" unicode="&#xd5;" horiz-adv-x="778" 
d="M538 741q138 0 214 -75t76 -211q0 -89 -32.5 -176t-90.5 -155q-64 -76 -138.5 -111.5t-171.5 -35.5q-134 0 -211.5 76.5t-77.5 207.5q0 86 33.5 175t91.5 159q122 146 307 146zM519 613q-116 0 -192 -104q-33 -46 -52.5 -107.5t-19.5 -119.5q0 -82 44 -129.5t120 -47.5
q116 0 190 105q32 45 51 106.5t19 120.5q0 83 -42.5 129.5t-117.5 46.5zM714 923h55q-17 -55 -41 -81q-41 -41 -93 -41q-28 0 -50 11l-51 25q-28 15 -44 15q-26 0 -50 -49h-54q36 118 121 118q30 0 70 -18l50 -21q21 -9 33 -9q35 0 54 50z" />
    <glyph glyph-name="Odieresis" unicode="&#xd6;" horiz-adv-x="778" 
d="M550 920l-26 -120h-110l26 120h110zM736 920l-26 -120h-110l26 120h110zM538 741q138 0 214 -75t76 -211q0 -89 -32.5 -176t-90.5 -155q-64 -76 -138.5 -111.5t-171.5 -35.5q-134 0 -211.5 76.5t-77.5 207.5q0 86 33.5 175t91.5 159q122 146 307 146zM519 613
q-116 0 -192 -104q-33 -46 -52.5 -107.5t-19.5 -119.5q0 -82 44 -129.5t120 -47.5q116 0 190 105q32 45 51 106.5t19 120.5q0 83 -42.5 129.5t-117.5 46.5z" />
    <glyph glyph-name="multiply" unicode="&#xd7;" horiz-adv-x="584" 
d="M516 444l66 -84l-157 -129l101 -129l-102 -84l-101 129l-155 -128l-66 84l155 128l-101 128l102 85l101 -129z" />
    <glyph glyph-name="Oslash" unicode="&#xd8;" horiz-adv-x="778" 
d="M181 56l-106 -95l-41 46l111 99q-36 66 -36 157q0 86 33.5 174.5t91.5 157.5q125 146 313 146q141 0 216 -82l101 90l42 -45l-108 -97q34 -69 34 -155q0 -85 -33.5 -172.5t-91.5 -156.5q-123 -146 -312 -146q-143 0 -214 79zM678 500l-384 -343q44 -52 127 -52
q115 0 190 104q72 99 72 230q0 35 -5 61zM264 213l386 344q-44 56 -129 56q-116 0 -191 -104q-33 -47 -52.5 -108t-19.5 -121q0 -32 6 -67z" />
    <glyph glyph-name="Ugrave" unicode="&#xd9;" horiz-adv-x="722" 
d="M430 936h119l45 -150h-63zM659 729h150l-105 -494q-26 -120 -107 -184q-94 -74 -231 -74q-114 0 -180.5 51.5t-66.5 139.5q0 32 11 87l101 474h150l-105 -494q-5 -27 -5 -45q0 -40 32 -62.5t90 -22.5q69 0 108 31.5t53 98.5z" />
    <glyph glyph-name="Uacute" unicode="&#xda;" horiz-adv-x="722" 
d="M692 936l-158 -150h-70l102 150h126zM659 729h150l-105 -494q-26 -120 -107 -184q-94 -74 -231 -74q-114 0 -180.5 51.5t-66.5 139.5q0 32 11 87l101 474h150l-105 -494q-5 -27 -5 -45q0 -40 32 -62.5t90 -22.5q69 0 108 31.5t53 98.5z" />
    <glyph glyph-name="Ucircumflex" unicode="&#xdb;" horiz-adv-x="722" 
d="M516 936h108l71 -147h-78l-61 97l-103 -97h-76zM659 729h150l-105 -494q-26 -120 -107 -184q-94 -74 -231 -74q-114 0 -180.5 51.5t-66.5 139.5q0 32 11 87l101 474h150l-105 -494q-5 -27 -5 -45q0 -40 32 -62.5t90 -22.5q69 0 108 31.5t53 98.5z" />
    <glyph glyph-name="Udieresis" unicode="&#xdc;" horiz-adv-x="722" 
d="M519 920l-26 -120h-110l26 120h110zM705 920l-26 -120h-110l26 120h110zM659 729h150l-105 -494q-26 -120 -107 -184q-94 -74 -231 -74q-114 0 -180.5 51.5t-66.5 139.5q0 32 11 87l101 474h150l-105 -494q-5 -27 -5 -45q0 -40 32 -62.5t90 -22.5q69 0 108 31.5t53 98.5z
" />
    <glyph glyph-name="Yacute" unicode="&#xdd;" horiz-adv-x="667" 
d="M477 270l-58 -270h-150l58 270l-145 459h167l82 -315l207 315h167zM668 936l-158 -150h-70l102 150h126z" />
    <glyph glyph-name="Thorn" unicode="&#xde;" horiz-adv-x="667" 
d="M256 140l-30 -140h-150l155 729h150l-26 -120h159q93 0 143 -39q64 -48 64 -130q0 -58 -24 -117t-64 -102q-77 -81 -190 -81h-187zM282 265h153q76 0 112 51q25 37 25 89q0 36 -24.5 57.5t-65.5 21.5h-153z" />
    <glyph glyph-name="germandbls" unicode="&#xdf;" horiz-adv-x="611" 
d="M359 349l20 95q59 0 92 27q40 30 40 81q0 31 -23.5 48t-65.5 17q-84 0 -101 -80l-114 -537h-140l119 558q17 78 89 124.5t177 46.5q92 0 147 -40t55 -107q0 -59 -33 -105.5t-89 -65.5q47 -11 72.5 -46t25.5 -88q0 -89 -56 -174q-86 -126 -225 -126q-23 0 -68 7l24 112h14
q73 1 114 37q54 48 54 118q0 98 -113 98h-15z" />
    <glyph glyph-name="agrave" unicode="&#xe0;" 
d="M303 757h119l45 -150h-63zM527 17l-4 -17h-153q-7 15 -7 27t3 27q-84 -77 -166 -77q-66 0 -103 31q-47 39 -47 100q0 45 23 87.5t63 71.5q45 32 116 44l58 9q54 8 65.5 10.5t26.5 10.5q34 17 34 53q0 43 -73 43q-49 0 -74 -17t-38 -58h-131q21 98 84.5 142.5t181.5 44.5
q104 0 151 -38q18 -14 29.5 -37.5t11.5 -45.5q0 -18 -6 -45l-63 -300q-3 -12 -3 -21q0 -21 21 -45zM400 217l8 38q-13 -8 -26 -10q-2 -1 -9 -2t-12 -2l-16 -3l-50 -8q-49 -8 -75.5 -32t-26.5 -59q0 -50 73 -50q51 0 85.5 33t48.5 95z" />
    <glyph glyph-name="aacute" unicode="&#xe1;" 
d="M587 757l-158 -150h-70l102 150h126zM527 17l-4 -17h-153q-7 15 -7 27t3 27q-84 -77 -166 -77q-66 0 -103 31q-47 39 -47 100q0 45 23 87.5t63 71.5q45 32 116 44l58 9q54 8 65.5 10.5t26.5 10.5q34 17 34 53q0 43 -73 43q-49 0 -74 -17t-38 -58h-131q21 98 84.5 142.5
t181.5 44.5q104 0 151 -38q18 -14 29.5 -37.5t11.5 -45.5q0 -18 -6 -45l-63 -300q-3 -12 -3 -21q0 -21 21 -45zM400 217l8 38q-13 -8 -26 -10q-2 -1 -9 -2t-12 -2l-16 -3l-50 -8q-49 -8 -75.5 -32t-26.5 -59q0 -50 73 -50q51 0 85.5 33t48.5 95z" />
    <glyph glyph-name="acircumflex" unicode="&#xe2;" 
d="M386 757h108l71 -147h-78l-61 97l-103 -97h-76zM527 17l-4 -17h-153q-7 15 -7 27t3 27q-84 -77 -166 -77q-66 0 -103 31q-47 39 -47 100q0 45 23 87.5t63 71.5q45 32 116 44l58 9q54 8 65.5 10.5t26.5 10.5q34 17 34 53q0 43 -73 43q-49 0 -74 -17t-38 -58h-131
q21 98 84.5 142.5t181.5 44.5q104 0 151 -38q18 -14 29.5 -37.5t11.5 -45.5q0 -18 -6 -45l-63 -300q-3 -12 -3 -21q0 -21 21 -45zM400 217l8 38q-13 -8 -26 -10q-2 -1 -9 -2t-12 -2l-16 -3l-50 -8q-49 -8 -75.5 -32t-26.5 -59q0 -50 73 -50q51 0 85.5 33t48.5 95z" />
    <glyph glyph-name="atilde" unicode="&#xe3;" 
d="M527 17l-4 -17h-153q-7 15 -7 27t3 27q-84 -77 -166 -77q-66 0 -103 31q-47 39 -47 100q0 45 23 87.5t63 71.5q45 32 116 44l58 9q54 8 65.5 10.5t26.5 10.5q34 17 34 53q0 43 -73 43q-49 0 -74 -17t-38 -58h-131q21 98 84.5 142.5t181.5 44.5q104 0 151 -38
q18 -14 29.5 -37.5t11.5 -45.5q0 -18 -6 -45l-63 -300q-3 -12 -3 -21q0 -21 21 -45zM400 217l8 38q-13 -8 -26 -10q-2 -1 -9 -2t-12 -2l-16 -3l-50 -8q-49 -8 -75.5 -32t-26.5 -59q0 -50 73 -50q51 0 85.5 33t48.5 95zM558 744h54q-15 -53 -41 -81q-39 -41 -92 -41
q-27 0 -51 11l-50 25q-30 14 -44 14q-26 0 -51 -48h-54q17 56 48.5 86.5t72.5 30.5q32 0 71 -17l50 -21q21 -10 33 -10q33 0 54 51z" />
    <glyph glyph-name="adieresis" unicode="&#xe4;" 
d="M395 741l-26 -120h-110l26 120h110zM581 741l-26 -120h-110l26 120h110zM527 17l-4 -17h-153q-7 15 -7 27t3 27q-84 -77 -166 -77q-66 0 -103 31q-47 39 -47 100q0 45 23 87.5t63 71.5q45 32 116 44l58 9q54 8 65.5 10.5t26.5 10.5q34 17 34 53q0 43 -73 43
q-49 0 -74 -17t-38 -58h-131q21 98 84.5 142.5t181.5 44.5q104 0 151 -38q18 -14 29.5 -37.5t11.5 -45.5q0 -18 -6 -45l-63 -300q-3 -12 -3 -21q0 -21 21 -45zM400 217l8 38q-13 -8 -26 -10q-2 -1 -9 -2t-12 -2l-16 -3l-50 -8q-49 -8 -75.5 -32t-26.5 -59q0 -50 73 -50
q51 0 85.5 33t48.5 95z" />
    <glyph glyph-name="aring" unicode="&#xe5;" 
d="M527 17l-4 -17h-153q-7 15 -7 27t3 27q-84 -77 -166 -77q-66 0 -103 31q-47 39 -47 100q0 45 23 87.5t63 71.5q45 32 116 44l58 9q54 8 65.5 10.5t26.5 10.5q34 17 34 53q0 43 -73 43q-49 0 -74 -17t-38 -58h-131q21 98 84.5 142.5t181.5 44.5q104 0 151 -38
q18 -14 29.5 -37.5t11.5 -45.5q0 -18 -6 -45l-63 -300q-3 -12 -3 -21q0 -21 21 -45zM400 217l8 38q-13 -8 -26 -10q-2 -1 -9 -2t-12 -2l-16 -3l-50 -8q-49 -8 -75.5 -32t-26.5 -59q0 -50 73 -50q51 0 85.5 33t48.5 95zM441 773q31 0 51.5 -20t20.5 -51q0 -43 -34 -76
t-78 -33q-31 0 -51.5 20t-20.5 51q0 43 34 76t78 33zM431 723q-20 0 -36.5 -14.5t-16.5 -33.5q0 -14 9.5 -23t24.5 -9q20 0 36 15t16 34q0 13 -9.5 22t-23.5 9z" />
    <glyph glyph-name="ae" unicode="&#xe6;" horiz-adv-x="889" 
d="M750 152h138q-40 -80 -116 -127.5t-166 -47.5q-137 0 -181 100q-53 -56 -99.5 -78t-116.5 -22q-73 0 -114 34t-41 95q0 46 22.5 88.5t62.5 71.5q46 33 117 45l57 9q54 8 65.5 10.5t27.5 10.5q34 17 34 53q0 43 -72 43q-49 0 -74.5 -17t-38.5 -58h-131q18 86 63 126
q69 61 205 61q113 0 161 -49q70 49 165 49q109 0 164 -69q45 -56 45 -129q0 -57 -18 -125h-362q-7 -30 -7 -51q0 -39 26.5 -62.5t69.5 -23.5q37 0 68 17t46 46zM404 216l8 38q-13 -6 -26 -10q-2 0 -9 -1t-12 -2l-16 -3l-50 -8q-49 -8 -75.5 -32t-26.5 -59q0 -50 71 -50
q52 0 87 32.5t49 94.5zM784 319v27q0 44 -22 67.5t-63 23.5q-99 0 -131 -118h216z" />
    <glyph glyph-name="ccedilla" unicode="&#xe7;" 
d="M288 -23l-26 -39q23 6 43 6q30 0 47 -15t17 -42q0 -49 -41 -78t-110 -29q-58 0 -133 29l30 52q62 -31 99 -31q29 0 48.5 12.5t19.5 31.5q0 15 -12 24t-32 9q-23 0 -54 -13l57 87q-46 9 -73 23q-41 22 -66 68.5t-25 100.5q0 71 28.5 150t72.5 131q79 95 220 95
q96 0 151 -55q48 -48 48 -113q0 -11 -4 -43h-134q-1 48 -11 66q-20 33 -71 33q-80 0 -120 -85q-37 -74 -37 -160q0 -103 89 -103q41 0 68 22.5t50 75.5h134q-29 -98 -103.5 -155t-169.5 -55z" />
    <glyph glyph-name="egrave" unicode="&#xe8;" 
d="M297 757h119l45 -150h-63zM573 226h-363q-3 -37 -3 -45q0 -41 26 -66.5t69 -25.5q36 0 67 17.5t45 45.5h138q-41 -84 -113.5 -129.5t-163.5 -45.5q-94 0 -152.5 57.5t-58.5 150.5q0 75 31 154.5t79 129.5q35 37 90.5 58.5t114.5 21.5q112 0 167 -69q45 -58 45 -130
q0 -55 -18 -124zM228 319h220q0 37 -2 47q-4 32 -27 51.5t-58 19.5q-101 0 -133 -118z" />
    <glyph glyph-name="eacute" unicode="&#xe9;" 
d="M562 757l-158 -150h-70l102 150h126zM573 226h-363q-3 -37 -3 -45q0 -41 26 -66.5t69 -25.5q36 0 67 17.5t45 45.5h138q-41 -84 -113.5 -129.5t-163.5 -45.5q-94 0 -152.5 57.5t-58.5 150.5q0 75 31 154.5t79 129.5q35 37 90.5 58.5t114.5 21.5q112 0 167 -69
q45 -58 45 -130q0 -55 -18 -124zM228 319h220q0 37 -2 47q-4 32 -27 51.5t-58 19.5q-101 0 -133 -118z" />
    <glyph glyph-name="ecircumflex" unicode="&#xea;" 
d="M378 757h107l71 -147h-77l-61 97l-103 -97h-77zM573 226h-363q-3 -37 -3 -45q0 -41 26 -66.5t69 -25.5q36 0 67 17.5t45 45.5h138q-41 -84 -113.5 -129.5t-163.5 -45.5q-94 0 -152.5 57.5t-58.5 150.5q0 75 31 154.5t79 129.5q35 37 90.5 58.5t114.5 21.5q112 0 167 -69
q45 -58 45 -130q0 -55 -18 -124zM228 319h220q0 37 -2 47q-4 32 -27 51.5t-58 19.5q-101 0 -133 -118z" />
    <glyph glyph-name="edieresis" unicode="&#xeb;" 
d="M392 741l-25 -120h-111l26 120h110zM578 741l-25 -120h-111l26 120h110zM573 226h-363q-3 -37 -3 -45q0 -41 26 -66.5t69 -25.5q36 0 67 17.5t45 45.5h138q-41 -84 -113.5 -129.5t-163.5 -45.5q-94 0 -152.5 57.5t-58.5 150.5q0 75 31 154.5t79 129.5q35 37 90.5 58.5
t114.5 21.5q112 0 167 -69q45 -58 45 -130q0 -55 -18 -124zM228 319h220q0 37 -2 47q-4 32 -27 51.5t-58 19.5q-101 0 -133 -118z" />
    <glyph glyph-name="igrave" unicode="&#xec;" horiz-adv-x="278" 
d="M322 540l-115 -540h-140l115 540h140zM147 757h119l45 -150h-63z" />
    <glyph glyph-name="iacute" unicode="&#xed;" horiz-adv-x="278" 
d="M322 540l-115 -540h-140l115 540h140zM448 757l-158 -150h-70l102 150h126z" />
    <glyph glyph-name="icircumflex" unicode="&#xee;" horiz-adv-x="278" 
d="M322 540l-115 -540h-140l115 540h140zM247 757h108l71 -147h-78l-61 97l-103 -97h-76z" />
    <glyph glyph-name="idieresis" unicode="&#xef;" horiz-adv-x="278" 
d="M322 540l-115 -540h-140l115 540h140zM256 741l-26 -120h-110l26 120h110zM442 741l-26 -120h-110l26 120h110z" />
    <glyph glyph-name="eth" unicode="&#xf0;" horiz-adv-x="611" 
d="M355 609l-97 -45l-41 43l88 41q-29 20 -70 46l70 50q28 -12 54 -27l28 -16q1 -1 3 -2l5 -2.5t5 -3.5l104 45l43 -43l-93 -41q98 -73 138.5 -143t40.5 -166q0 -142 -80 -248q-88 -120 -248 -120q-104 0 -163 53.5t-59 147.5q0 73 26.5 147t70.5 124q71 81 182 81
q41 0 90 -27q-37 63 -97 106zM387 431q-78 0 -123 -80q-37 -63 -37 -145q0 -65 32 -93q30 -24 67 -24q71 0 118 67.5t47 169.5q0 58 -33 82q-33 23 -71 23z" />
    <glyph glyph-name="ntilde" unicode="&#xf1;" horiz-adv-x="611" 
d="M178 540h140l-18 -82q40 48 83 69.5t99 21.5q67 0 107 -36t40 -96q0 -27 -6 -55l-77 -362h-140l67 313q6 34 6 49q0 75 -74 75q-51 0 -87.5 -35.5t-49.5 -97.5l-65 -304h-140zM592 744h54q-15 -53 -41 -81q-39 -41 -92 -41q-27 0 -51 11l-50 25q-30 14 -44 14
q-26 0 -51 -48h-54q17 56 48.5 86.5t72.5 30.5q32 0 71 -17l50 -21q21 -10 33 -10q33 0 54 51z" />
    <glyph glyph-name="ograve" unicode="&#xf2;" horiz-adv-x="611" 
d="M327 757h120l44 -150h-63zM413 549q103 0 162 -53.5t59 -146.5q0 -65 -21.5 -133.5t-57.5 -115.5q-93 -123 -256 -123q-100 0 -158.5 54t-58.5 146q0 65 21.5 133t57.5 116q92 123 252 123zM391 437q-68 0 -117 -68.5t-49 -163.5q0 -53 27 -84.5t72 -31.5q81 0 129 87
q38 66 38 144q0 54 -27 85.5t-73 31.5z" />
    <glyph glyph-name="oacute" unicode="&#xf3;" horiz-adv-x="611" 
d="M599 757l-158 -150h-70l102 150h126zM413 549q103 0 162 -53.5t59 -146.5q0 -65 -21.5 -133.5t-57.5 -115.5q-93 -123 -256 -123q-100 0 -158.5 54t-58.5 146q0 65 21.5 133t57.5 116q92 123 252 123zM391 437q-68 0 -117 -68.5t-49 -163.5q0 -53 27 -84.5t72 -31.5
q81 0 129 87q38 66 38 144q0 54 -27 85.5t-73 31.5z" />
    <glyph glyph-name="ocircumflex" unicode="&#xf4;" horiz-adv-x="611" 
d="M415 757h107l72 -147h-78l-61 97l-103 -97h-76zM413 549q103 0 162 -53.5t59 -146.5q0 -65 -21.5 -133.5t-57.5 -115.5q-93 -123 -256 -123q-100 0 -158.5 54t-58.5 146q0 65 21.5 133t57.5 116q92 123 252 123zM391 437q-68 0 -117 -68.5t-49 -163.5q0 -53 27 -84.5
t72 -31.5q81 0 129 87q38 66 38 144q0 54 -27 85.5t-73 31.5z" />
    <glyph glyph-name="otilde" unicode="&#xf5;" horiz-adv-x="611" 
d="M413 549q103 0 162 -53.5t59 -146.5q0 -65 -21.5 -133.5t-57.5 -115.5q-93 -123 -256 -123q-100 0 -158.5 54t-58.5 146q0 65 21.5 133t57.5 116q92 123 252 123zM391 437q-68 0 -117 -68.5t-49 -163.5q0 -53 27 -84.5t72 -31.5q81 0 129 87q38 66 38 144q0 54 -27 85.5
t-73 31.5zM585 744h54q-28 -58 -69.5 -90t-89.5 -32q-31 0 -48 11l-45 25q-26 14 -42 14q-27 0 -60 -48h-54q61 117 146 117q32 0 67 -17l45 -21q19 -10 31 -10q34 0 65 51z" />
    <glyph glyph-name="odieresis" unicode="&#xf6;" horiz-adv-x="611" 
d="M421 741l-26 -120h-110l26 120h110zM607 741l-26 -120h-110l26 120h110zM413 549q103 0 162 -53.5t59 -146.5q0 -65 -21.5 -133.5t-57.5 -115.5q-93 -123 -256 -123q-100 0 -158.5 54t-58.5 146q0 65 21.5 133t57.5 116q92 123 252 123zM391 437q-68 0 -117 -68.5
t-49 -163.5q0 -53 27 -84.5t72 -31.5q81 0 129 87q38 66 38 144q0 54 -27 85.5t-73 31.5z" />
    <glyph glyph-name="divide" unicode="&#xf7;" horiz-adv-x="584" 
d="M606 292l-25 -120h-504l25 120h504zM318 124q22 0 36 -14t14 -37q0 -28 -23.5 -50.5t-52.5 -22.5q-22 0 -36 14t-14 35q0 29 23.5 52t52.5 23zM390 462q22 0 36 -14t14 -37q0 -28 -23.5 -50.5t-52.5 -22.5q-22 0 -36 14t-14 35q0 29 23.5 52t52.5 23z" />
    <glyph glyph-name="oslash" unicode="&#xf8;" horiz-adv-x="611" 
d="M135 36l-89 -74l-34 40l93 78q-21 46 -21 98q0 64 22 132.5t58 115.5q93 123 253 123q113 0 173 -63l85 71l34 -41l-91 -76q18 -45 18 -95q0 -62 -22.5 -130t-57.5 -115q-45 -59 -110.5 -91t-141.5 -32q-108 0 -169 59zM493 336l-247 -207q27 -40 82 -40q44 0 81.5 30
t59.5 84q25 56 25 118q0 8 -1 15zM228 183l250 209q-28 45 -83 45q-82 0 -130 -87q-38 -68 -38 -142q0 -14 1 -25z" />
    <glyph glyph-name="ugrave" unicode="&#xf9;" horiz-adv-x="611" 
d="M325 757h119l45 -150h-64zM541 0h-140l15 68q-41 -48 -84 -69.5t-98 -21.5q-66 0 -106 36t-40 96q0 27 6 55l80 376h140l-69 -327q-7 -29 -7 -49q0 -75 76 -75q49 0 85 36t49 97l68 318h140z" />
    <glyph glyph-name="uacute" unicode="&#xfa;" horiz-adv-x="611" 
d="M587 757l-158 -150h-70l101 150h127zM541 0h-140l15 68q-41 -48 -84 -69.5t-98 -21.5q-66 0 -106 36t-40 96q0 27 6 55l80 376h140l-69 -327q-7 -29 -7 -49q0 -75 76 -75q49 0 85 36t49 97l68 318h140z" />
    <glyph glyph-name="ucircumflex" unicode="&#xfb;" horiz-adv-x="611" 
d="M406 757h107l71 -147h-77l-61 97l-103 -97h-77zM541 0h-140l15 68q-41 -48 -84 -69.5t-98 -21.5q-66 0 -106 36t-40 96q0 27 6 55l80 376h140l-69 -327q-7 -29 -7 -49q0 -75 76 -75q49 0 85 36t49 97l68 318h140z" />
    <glyph glyph-name="udieresis" unicode="&#xfc;" horiz-adv-x="611" 
d="M420 741l-25 -120h-111l26 120h110zM606 741l-25 -120h-111l26 120h110zM541 0h-140l15 68q-41 -48 -84 -69.5t-98 -21.5q-66 0 -106 36t-40 96q0 27 6 55l80 376h140l-69 -327q-7 -29 -7 -49q0 -75 76 -75q49 0 85 36t49 97l68 318h140z" />
    <glyph glyph-name="yacute" unicode="&#xfd;" 
d="M509 540h144l-358 -638q-27 -49 -48 -70t-54 -34q-45 -17 -111 -17q-28 0 -45 4l23 109q11 -2 28 -2q52 0 82.5 25t30.5 68l-1 15l-76 540h154l36 -393zM566 757l-158 -150h-70l102 150h126z" />
    <glyph glyph-name="thorn" unicode="&#xfe;" horiz-adv-x="611" 
d="M352 729l-57 -269q68 89 169 89q79 0 126 -55.5t47 -150.5q0 -151 -86 -258.5t-207 -107.5q-103 0 -133 87l-60 -282h-140l201 947h140zM406 437q-64 0 -112 -70t-48 -165q0 -51 24 -82t64 -31q65 0 112.5 70t47.5 164q0 52 -23.5 83t-64.5 31z" />
    <glyph glyph-name="ydieresis" unicode="&#xff;" 
d="M509 540h144l-358 -638q-27 -49 -48 -70t-54 -34q-45 -17 -111 -17q-28 0 -45 4l23 109q11 -2 28 -2q52 0 82.5 25t30.5 68l-1 15l-76 540h154l36 -393zM397 741l-26 -120h-110l25 120h111zM583 741l-26 -120h-110l25 120h111z" />
    <glyph glyph-name="Amacron" unicode="&#x100;" horiz-adv-x="722" 
d="M532 147h-272l-81 -147h-153l407 729h173l97 -729h-153zM518 272l-35 283l-154 -283h189zM706 901l-17 -80h-300l17 80h300z" />
    <glyph glyph-name="amacron" unicode="&#x101;" 
d="M527 17l-4 -17h-153q-7 15 -7 27t3 27q-84 -77 -166 -77q-66 0 -103 31q-47 39 -47 100q0 45 23 87.5t63 71.5q45 32 116 44l58 9q54 8 65.5 10.5t26.5 10.5q34 17 34 53q0 43 -73 43q-49 0 -74 -17t-38 -58h-131q21 98 84.5 142.5t181.5 44.5q104 0 151 -38
q18 -14 29.5 -37.5t11.5 -45.5q0 -18 -6 -45l-63 -300q-3 -12 -3 -21q0 -21 21 -45zM400 217l8 38q-13 -8 -26 -10q-2 -1 -9 -2t-12 -2l-16 -3l-50 -8q-49 -8 -75.5 -32t-26.5 -59q0 -50 73 -50q51 0 85.5 33t48.5 95zM579 722l-17 -80h-300l17 80h300z" />
    <glyph glyph-name="Abreve" unicode="&#x102;" horiz-adv-x="722" 
d="M532 147h-272l-81 -147h-153l407 729h173l97 -729h-153zM518 272l-35 283l-154 -283h189zM650 934h43q-11 -62 -56.5 -102.5t-104.5 -40.5q-48 0 -77 28t-29 75q0 19 5 40h43v-8q0 -27 19.5 -42t54.5 -15q78 0 102 65z" />
    <glyph glyph-name="abreve" unicode="&#x103;" 
d="M527 17l-4 -17h-153q-7 15 -7 27t3 27q-84 -77 -166 -77q-66 0 -103 31q-47 39 -47 100q0 45 23 87.5t63 71.5q45 32 116 44l58 9q54 8 65.5 10.5t26.5 10.5q34 17 34 53q0 43 -73 43q-49 0 -74 -17t-38 -58h-131q21 98 84.5 142.5t181.5 44.5q104 0 151 -38
q18 -14 29.5 -37.5t11.5 -45.5q0 -18 -6 -45l-63 -300q-3 -12 -3 -21q0 -21 21 -45zM400 217l8 38q-13 -8 -26 -10q-2 -1 -9 -2t-12 -2l-16 -3l-50 -8q-49 -8 -75.5 -32t-26.5 -59q0 -50 73 -50q51 0 85.5 33t48.5 95zM524 754h43q-10 -61 -56 -102t-105 -41q-48 0 -77 28
t-29 75q0 19 5 40h43q1 -65 74 -65q78 0 102 65z" />
    <glyph glyph-name="Aogonek" unicode="&#x104;" horiz-adv-x="722" 
d="M532 147h-272l-81 -147h-153l407 729h173l97 -729q-59 -24 -96.5 -63.5t-37.5 -76.5q0 -43 55 -43q38 0 72 11l-11 -52q-40 -9 -80 -9q-65 0 -100.5 20.5t-35.5 57.5q0 63 68 112q32 24 88 43h-75zM518 272l-35 283l-154 -283h189z" />
    <glyph glyph-name="aogonek" unicode="&#x105;" 
d="M527 17l-4 -17q-131 -69 -131 -140q0 -43 51 -43q42 0 76 11l-10 -52q-41 -9 -81 -9q-135 0 -135 79q0 95 156 154h-79q-7 15 -7 27t3 27q-84 -77 -166 -77q-66 0 -103 31q-47 39 -47 100q0 45 23 87.5t63 71.5q45 32 116 44l58 9q54 8 65.5 10.5t26.5 10.5q34 17 34 53
q0 43 -73 43q-49 0 -74 -17t-38 -58h-131q21 98 84.5 142.5t181.5 44.5q104 0 151 -38q18 -14 29.5 -37.5t11.5 -45.5q0 -18 -6 -45l-63 -300q-3 -12 -3 -21q0 -21 21 -45zM400 217l8 38q-13 -8 -26 -10q-2 -1 -9 -2t-12 -2l-16 -3l-50 -8q-49 -8 -75.5 -32t-26.5 -59
q0 -50 73 -50q51 0 85.5 33t48.5 95z" />
    <glyph glyph-name="Cacute" unicode="&#x106;" horiz-adv-x="722" 
d="M789 482h-141q0 52 -17 78q-32 53 -115 53q-120 0 -189 -109q-71 -110 -71 -239q0 -160 147 -160q72 0 123 37.5t73 106.5h143q-33 -128 -128 -200t-232 -72q-128 0 -201.5 69t-73.5 189q0 97 30.5 191.5t83.5 160.5q125 154 312 154q116 0 188 -57.5t72 -151.5
q0 -14 -4 -50zM730 936l-165 -150h-63l94 150h134z" />
    <glyph glyph-name="cacute" unicode="&#x107;" 
d="M593 338h-134q-1 48 -11 66q-20 33 -71 33q-80 0 -120 -85q-37 -76 -37 -160q0 -103 89 -103q41 0 68 22.5t50 75.5h134q-31 -100 -101.5 -155t-168.5 -55q-111 0 -165 61q-49 55 -49 134q0 71 28.5 150t72.5 132q77 95 220 95q97 0 151 -55q48 -48 48 -113q0 -11 -4 -43
zM573 757l-158 -150h-70l102 150h126z" />
    <glyph glyph-name="Ccircumflex" unicode="&#x108;" horiz-adv-x="722" 
d="M789 482h-141q0 52 -17 78q-32 53 -115 53q-120 0 -189 -109q-71 -110 -71 -240q0 -159 147 -159q72 0 123 37.5t73 106.5h143q-33 -128 -128 -200t-232 -72q-128 0 -201.5 69t-73.5 189q0 97 30.5 191.5t83.5 160.5q125 154 312 154q116 0 188 -57.5t72 -151.5
q0 -14 -4 -50zM515 937h107l72 -147h-78l-61 97l-103 -97h-76z" />
    <glyph glyph-name="ccircumflex" unicode="&#x109;" 
d="M593 338h-134q-1 48 -11 66q-20 33 -71 33q-80 0 -120 -85q-37 -74 -37 -160q0 -103 89 -103q41 0 68 22.5t50 75.5h134q-31 -100 -101.5 -155t-168.5 -55q-111 0 -165 61q-49 55 -49 134q0 71 28.5 150t72.5 132q77 95 220 95q97 0 151 -55q48 -48 48 -113q0 -11 -4 -43
zM395 757h108l71 -147h-78l-61 97l-103 -97h-76z" />
    <glyph glyph-name="Cdotaccent" unicode="&#x10a;" horiz-adv-x="722" 
d="M784 482h-143q0 34 -5 55q-17 76 -121 76q-105 0 -185 -111q-72 -102 -72 -249q0 -150 140 -150q68 0 120 39.5t73 106.5h147q-29 -110 -101 -178q-47 -44 -118.5 -69t-150.5 -25q-128 0 -195 84q-65 81 -65 188q0 84 30.5 180t79.5 162q51 71 134.5 110.5t181.5 39.5
q119 0 190 -68q64 -64 64 -151q0 -8 -4 -40zM615 922l-26 -122h-110l26 122h110z" />
    <glyph glyph-name="cdotaccent" unicode="&#x10b;" 
d="M593 338h-134q-1 48 -11 66q-20 33 -71 33q-80 0 -120 -85q-37 -76 -37 -160q0 -103 89 -103q41 0 68 22.5t50 75.5h134q-31 -100 -101.5 -155t-168.5 -55q-111 0 -165 61q-49 55 -49 134q0 71 28.5 150t72.5 132q77 95 220 95q97 0 151 -55q48 -48 48 -113q0 -11 -4 -43
zM498 741l-25 -120h-111l26 120h110z" />
    <glyph glyph-name="Ccaron" unicode="&#x10c;" horiz-adv-x="722" 
d="M789 482h-141q0 52 -17 78q-32 53 -115 53q-120 0 -189 -109q-71 -110 -71 -239q0 -160 147 -160q72 0 123 37.5t73 106.5h143q-33 -128 -128 -200t-232 -72q-128 0 -201.5 69t-73.5 189q0 97 30.5 191.5t83.5 160.5q125 154 312 154q116 0 188 -57.5t72 -151.5
q0 -14 -4 -50zM610 789h-108l-71 147h78l61 -97l103 97h76z" />
    <glyph glyph-name="ccaron" unicode="&#x10d;" 
d="M593 338h-134q-1 48 -11 66q-20 33 -71 33q-80 0 -120 -85q-37 -76 -37 -160q0 -103 89 -103q41 0 68 22.5t50 75.5h134q-31 -100 -101.5 -155t-168.5 -55q-111 0 -165 61q-49 55 -49 134q0 71 28.5 150t72.5 132q77 95 220 95q97 0 151 -55q48 -48 48 -113q0 -11 -4 -43
zM467 610h-107l-71 147h77l61 -97l103 97h77z" />
    <glyph glyph-name="Dcaron" unicode="&#x10e;" horiz-adv-x="722" 
d="M77 0l155 729h285q136 0 197.5 -59.5t61.5 -190.5q0 -187 -112 -339q-55 -76 -124 -108t-178 -32h-285zM254 125h134q65 0 106 23.5t73 79.5q26 44 43 113t17 128q0 135 -137 135h-135zM547 789h-107l-72 147h78l61 -97l103 97h76z" />
    <glyph glyph-name="dcaron" unicode="&#x10f;" horiz-adv-x="743" 
d="M416 0l12 55q-66 -78 -166 -78q-79 0 -125.5 56.5t-46.5 151.5q0 130 78 243q39 56 96.5 88.5t118.5 32.5q99 0 133 -79l55 259h140l-155 -729h-140zM391 437q-62 0 -110 -70t-48 -161q0 -54 23.5 -85.5t63.5 -31.5q64 0 111.5 69.5t47.5 164.5q0 52 -23.5 83t-64.5 31z
M771 729h122l-21 -96q-7 -58 -52 -102t-101 -49l10 46q33 6 57 30.5t28 58.5h-67z" />
    <glyph glyph-name="Dcroat" unicode="&#x110;" horiz-adv-x="722" 
d="M150 341h-77l17 80h76l66 308h285q136 0 197.5 -59.5t61.5 -190.5q0 -187 -112 -339q-55 -76 -124 -108t-178 -32h-285zM300 341l-46 -216h134q65 0 106 23.5t73 79.5q26 44 43 113t17 128q0 135 -137 135h-135l-39 -183h174l-17 -80h-173z" />
    <glyph glyph-name="dcroat" unicode="&#x111;" horiz-adv-x="611" 
d="M546 663l14 66h140l-14 -66h60l-14 -67h-60l-127 -596h-140l12 55q-66 -78 -166 -78q-79 0 -125.5 56.5t-46.5 151.5q0 130 78 243q39 56 96.5 88.5t118.5 32.5q99 0 133 -79l27 126h-140l14 67h140zM380 437q-62 0 -110 -70t-48 -161q0 -54 23.5 -85.5t63.5 -31.5
q64 0 111.5 70t47.5 164q0 52 -23.5 83t-64.5 31z" />
    <glyph glyph-name="Emacron" unicode="&#x112;" horiz-adv-x="667" 
d="M296 314l-40 -189h395l-27 -125h-545l155 729h528l-27 -125h-378l-35 -165h349l-26 -125h-349zM686 901l-16 -80h-301l17 80h300z" />
    <glyph glyph-name="emacron" unicode="&#x113;" 
d="M573 226h-363q-3 -37 -3 -45q0 -41 26 -66.5t69 -25.5q36 0 67 17.5t45 45.5h138q-41 -84 -113.5 -129.5t-163.5 -45.5q-94 0 -152.5 57.5t-58.5 150.5q0 75 31 154.5t79 129.5q35 37 90.5 58.5t114.5 21.5q112 0 167 -69q45 -58 45 -130q0 -55 -18 -124zM228 319h220
q0 37 -2 47q-4 32 -27 51.5t-58 19.5q-101 0 -133 -118zM577 722l-17 -80h-300l17 80h300z" />
    <glyph glyph-name="Ebreve" unicode="&#x114;" horiz-adv-x="667" 
d="M296 314l-40 -189h395l-27 -125h-545l155 729h528l-27 -125h-378l-35 -165h349l-26 -125h-349zM630 934h42q-11 -62 -56.5 -102.5t-104.5 -40.5q-48 0 -77 28t-29 75q0 20 6 40h42v-8q0 -27 19.5 -42t54.5 -15q77 0 103 65z" />
    <glyph glyph-name="ebreve" unicode="&#x115;" 
d="M573 226h-363q-3 -37 -3 -45q0 -42 26 -67t69 -25q36 0 66.5 17t45.5 46h138q-41 -84 -113.5 -129.5t-163.5 -45.5q-94 0 -152.5 57.5t-58.5 149.5q0 75 31 154.5t79 130.5q35 37 90.5 58.5t114.5 21.5q112 0 167 -69q45 -58 45 -129q0 -57 -18 -125zM228 319h220
q0 37 -2 47q-4 32 -27 51.5t-58 19.5q-65 0 -103 -51q-17 -21 -30 -67zM521 754h42q-11 -62 -56.5 -102.5t-104.5 -40.5q-48 0 -77 28t-29 75q0 20 6 40h42v-8q0 -27 19.5 -42t54.5 -15q79 0 103 65z" />
    <glyph glyph-name="Edotaccent" unicode="&#x116;" horiz-adv-x="667" 
d="M296 314l-40 -189h395l-27 -125h-545l155 729h528l-27 -125h-378l-35 -165h349l-26 -125h-349zM592 918l-26 -120h-110l26 120h110z" />
    <glyph glyph-name="edotaccent" unicode="&#x117;" 
d="M573 226h-363q-3 -37 -3 -45q0 -41 26 -66.5t69 -25.5q36 0 67 17.5t45 45.5h138q-41 -84 -113.5 -129.5t-163.5 -45.5q-94 0 -152.5 57.5t-58.5 150.5q0 75 31 154.5t79 129.5q35 37 90.5 58.5t114.5 21.5q112 0 167 -69q45 -58 45 -130q0 -55 -18 -124zM228 319h220
q0 37 -2 47q-4 32 -27 51.5t-58 19.5q-101 0 -133 -118zM482 741l-26 -120h-110l26 120h110z" />
    <glyph glyph-name="Eogonek" unicode="&#x118;" horiz-adv-x="667" 
d="M296 314l-40 -189h395l-27 -125q-68 -38 -98.5 -72t-30.5 -71q0 -40 54 -40q39 0 73 11l-11 -52q-40 -9 -80 -9q-65 0 -100.5 20t-35.5 57q0 65 68 113q32 24 88 43h-472l155 729h528l-27 -125h-378l-35 -165h349l-26 -125h-349z" />
    <glyph glyph-name="eogonek" unicode="&#x119;" 
d="M443 -172l-11 -52q-40 -9 -76 -9q-64 0 -99 21t-35 60q0 38 24 67t89 68q-31 -7 -59 -7q-95 0 -153.5 57.5t-58.5 150.5q0 75 31 155t79 130q35 37 90.5 58.5t114.5 21.5q112 0 167 -69q45 -58 45 -129q0 -57 -18 -125h-363q-3 -37 -3 -45q0 -42 26 -67t69 -25
q36 0 66.5 17t45.5 46h138q-37 -77 -137 -153q-42 -34 -68 -72.5t-26 -66.5q0 -43 51 -43q42 0 71 11zM228 319h220q0 37 -2 47q-4 32 -27 51.5t-58 19.5q-65 0 -103 -51q-17 -21 -30 -67z" />
    <glyph glyph-name="Ecaron" unicode="&#x11a;" horiz-adv-x="667" 
d="M296 314l-40 -189h395l-27 -125h-545l155 729h528l-27 -125h-378l-35 -165h349l-26 -125h-349zM563 789h-108l-71 147h78l61 -97l103 97h76z" />
    <glyph glyph-name="ecaron" unicode="&#x11b;" 
d="M573 226h-363q-3 -37 -3 -45q0 -41 26 -66.5t69 -25.5q36 0 67 17.5t45 45.5h138q-41 -84 -113.5 -129.5t-163.5 -45.5q-94 0 -152.5 57.5t-58.5 150.5q0 75 31 154.5t79 129.5q35 37 90.5 58.5t114.5 21.5q112 0 167 -69q45 -58 45 -130q0 -55 -18 -124zM228 319h220
q0 37 -2 47q-4 32 -27 51.5t-58 19.5q-101 0 -133 -118zM454 610h-107l-72 147h78l61 -97l103 97h76z" />
    <glyph glyph-name="Gcircumflex" unicode="&#x11c;" horiz-adv-x="778" 
d="M795 392l-84 -394h-90l7 90q-56 -59 -109.5 -85t-123.5 -26q-132 0 -210 77t-78 208q0 87 33.5 176.5t92.5 157.5q125 145 314 145q122 0 197 -58.5t75 -153.5q0 -5 -2 -33h-138q-6 57 -47.5 87t-112.5 30q-129 0 -201 -112q-27 -41 -44.5 -102.5t-17.5 -114.5
q0 -78 48 -128.5t122 -50.5q92 0 162 70q36 34 54 92h-166l27 125h292zM535 936h108l71 -147h-78l-61 97l-103 -97h-76z" />
    <glyph glyph-name="gcircumflex" unicode="&#x11d;" horiz-adv-x="611" 
d="M523 540h133l-119 -558q-20 -96 -98.5 -148t-203.5 -52q-90 0 -143 26q-30 15 -48 41t-18 55q0 13 3 31h144l-1 -12q0 -22 24 -36.5t62 -14.5q55 0 95.5 30.5t50.5 79.5l16 73q-48 -44 -84 -61t-82 -17q-76 0 -125.5 53.5t-49.5 136.5q0 73 26 148.5t69 129.5
q39 49 93 76.5t111 27.5q88 0 127 -92zM379 437q-61 0 -109 -72t-48 -164q0 -52 22.5 -82t61.5 -30q67 0 116 67.5t49 158.5q0 56 -25 89t-67 33zM384 757h108l71 -147h-78l-61 97l-103 -97h-76z" />
    <glyph glyph-name="Gbreve" unicode="&#x11e;" horiz-adv-x="778" 
d="M795 392l-84 -394h-90l7 90q-56 -59 -109.5 -85t-123.5 -26q-132 0 -210 77t-78 208q0 87 33.5 176.5t92.5 157.5q124 145 314 145q122 0 197 -58.5t75 -154.5q0 -4 -2 -32h-138q-6 57 -47.5 87t-112.5 30q-129 0 -201 -112q-27 -41 -44.5 -102.5t-17.5 -114.5
q0 -78 48 -128.5t122 -50.5q92 0 162 70q36 34 54 92h-166l27 125h292zM678 934h43q-11 -62 -56.5 -102.5t-104.5 -40.5q-48 0 -77 28.5t-29 75.5q0 18 5 39h43v-8q0 -27 19.5 -42t54.5 -15q78 0 102 65z" />
    <glyph glyph-name="gbreve" unicode="&#x11f;" horiz-adv-x="611" 
d="M523 540h133l-119 -558q-20 -96 -98.5 -148t-203.5 -52q-90 0 -143 26q-30 15 -48 41t-18 55q0 13 3 31h144l-1 -12q0 -22 24 -36.5t62 -14.5q55 0 95.5 30.5t50.5 79.5l16 73q-48 -44 -84 -61t-82 -17q-76 0 -125.5 54t-49.5 136q0 73 26 148.5t69 129.5q84 104 204 104
q88 0 127 -92zM379 437q-61 0 -109 -72t-48 -164q0 -52 22.5 -82t61.5 -30q67 0 116 67.5t49 158.5q0 56 -25 89t-67 33zM555 754h42q-10 -61 -56 -102t-105 -41q-48 0 -77 28t-29 75q0 20 6 40h43q-1 -4 -1 -8q0 -27 19.5 -42t54.5 -15q79 0 103 65z" />
    <glyph glyph-name="Gdotaccent" unicode="&#x120;" horiz-adv-x="778" 
d="M794 392l-84 -394h-90l3 96q-28 -36 -44.5 -51.5t-42.5 -28.5q-72 -37 -154 -37q-72 0 -123.5 26t-92.5 84q-57 81 -57 184q0 83 32.5 171t89.5 158q54 67 138.5 104t181.5 37q121 0 193 -65q73 -65 73 -154q0 -14 -1 -26h-141q-6 54 -27 75q-39 42 -120 42
q-118 0 -201 -115q-68 -93 -68 -224q0 -78 43.5 -123.5t117.5 -45.5q86 0 164 72q40 37 57 90h-166l27 125h292zM627 922l-26 -122h-110l26 122h110z" />
    <glyph glyph-name="gdotaccent" unicode="&#x121;" horiz-adv-x="611" 
d="M522 540h133l-118 -558q-42 -200 -299 -200q-88 0 -138 27q-31 16 -51.5 46t-20.5 60q0 2 2 20h145q0 -25 12 -38q23 -25 74 -25q50 0 91 32t51 78l16 73q-58 -78 -167 -78q-74 0 -119 48q-53 59 -53 153q0 68 25 140t67 127q37 49 91.5 76.5t112.5 27.5q55 0 92 -43
q26 -30 36 -49zM381 432q-62 0 -110.5 -72.5t-48.5 -164.5q0 -48 21.5 -74.5t60.5 -26.5q67 0 117 67t50 157q0 55 -23.5 84.5t-66.5 29.5zM500 743l-26 -122h-110l26 122h110z" />
    <glyph glyph-name="Gcommaaccent" unicode="&#x122;" horiz-adv-x="778" 
d="M795 392l-84 -394h-90l7 90q-56 -59 -109.5 -85t-123.5 -26q-132 0 -210 77t-78 208q0 87 33.5 176.5t92.5 157.5q124 145 314 145q122 0 197 -58.5t75 -154.5q0 -4 -2 -32h-138q-6 57 -47.5 87t-112.5 30q-129 0 -201 -112q-27 -41 -44.5 -102.5t-17.5 -114.5
q0 -78 48 -128.5t122 -50.5q92 0 162 70q36 34 54 92h-166l27 125h292zM323 -60h122l-21 -96q-7 -58 -52 -102t-101 -49l10 46q33 7 57 31.5t28 57.5h-67z" />
    <glyph glyph-name="gcommaaccent" unicode="&#x123;" horiz-adv-x="611" 
d="M523 540h133l-119 -558q-20 -96 -98.5 -148t-203.5 -52q-90 0 -143 26q-30 15 -48 41t-18 55q0 13 3 31h144l-1 -12q0 -22 24 -36.5t62 -14.5q55 0 95.5 30.5t50.5 79.5l16 73q-48 -44 -84 -61t-82 -17q-76 0 -125.5 54t-49.5 136q0 73 26 148.5t69 129.5q84 104 204 104
q88 0 127 -92zM379 437q-61 0 -109 -72t-48 -164q0 -52 22.5 -82t61.5 -30q67 0 116 67.5t49 158.5q0 56 -25 89t-67 33zM492 607h-121l20 96q8 59 52.5 103t101.5 48l-10 -46q-34 -6 -57.5 -30.5t-28.5 -58.5h67z" />
    <glyph glyph-name="Hcircumflex" unicode="&#x124;" horiz-adv-x="722" 
d="M577 331h-289l-70 -331h-150l155 729h150l-58 -273h288l58 273h151l-155 -729h-150zM504 936h107l72 -147h-78l-61 97l-103 -97h-76z" />
    <glyph glyph-name="hcircumflex" unicode="&#x125;" horiz-adv-x="611" 
d="M222 729h140l-58 -271q78 91 180 91q65 0 105 -36.5t40 -95.5q0 -27 -6 -55l-77 -362h-140l67 313q6 33 6 48q0 76 -72 76q-49 0 -85.5 -36t-49.5 -97l-65 -304h-140zM283 936h107l71 -147h-78l-60 97l-103 -97h-77z" />
    <glyph glyph-name="Hbar" unicode="&#x126;" horiz-adv-x="722" 
d="M577 331h-289l-70 -331h-150l114 537h-67l17 80h67l24 112h150l-24 -112h289l23 112h151l-24 -112h67l-17 -80h-67l-114 -537h-150zM604 456l17 81h-289l-17 -81h289z" />
    <glyph glyph-name="hbar" unicode="&#x127;" horiz-adv-x="611" 
d="M350 672h180l-17 -80h-180l-28 -130q21 27 33.5 38.5t31.5 21.5q54 27 110 27q66 0 105 -36t39 -97q0 -27 -6 -54l-77 -362h-140l70 330q6 24 6 41q0 27 -18.5 43t-50.5 16q-46 0 -84 -30.5t-48 -75.5l-69 -324h-140l126 592h-62l17 80h62l12 57h140z" />
    <glyph glyph-name="Itilde" unicode="&#x128;" horiz-adv-x="278" 
d="M368 729l-155 -729h-150l155 729h150zM464 923h54q-15 -53 -41 -81q-39 -41 -92 -41q-27 0 -51 11l-50 25q-28 15 -44 15q-26 0 -51 -49h-54q37 118 122 118q29 0 70 -18l50 -21q21 -9 33 -9q33 0 54 50z" />
    <glyph glyph-name="itilde" unicode="&#x129;" horiz-adv-x="278" 
d="M322 540l-115 -540h-140l115 540h140zM418 744h55q-15 -53 -41 -81q-41 -41 -93 -41q-26 0 -50 11l-51 25q-28 14 -44 14q-27 0 -50 -48h-54q36 117 121 117q31 0 70 -17l50 -21q21 -10 33 -10q34 0 54 51z" />
    <glyph glyph-name="Imacron" unicode="&#x12a;" horiz-adv-x="278" 
d="M368 729l-155 -729h-150l155 729h150zM466 901l-17 -80h-273l17 80h273z" />
    <glyph glyph-name="imacron" unicode="&#x12b;" horiz-adv-x="278" 
d="M322 540l-115 -540h-140l115 540h140zM424 722l-17 -80h-267l17 80h267z" />
    <glyph glyph-name="Ibreve" unicode="&#x12c;" horiz-adv-x="278" 
d="M369 729l-155 -729h-150l155 729h150zM419 934h43q-11 -62 -56.5 -102.5t-104.5 -40.5q-48 0 -77 28t-29 75q0 19 5 40h43v-8q0 -27 19.5 -42t54.5 -15q78 0 102 65z" />
    <glyph glyph-name="ibreve" unicode="&#x12d;" horiz-adv-x="278" 
d="M322 540l-115 -540h-140l115 540h140zM385 754h43q-10 -61 -56 -102t-105 -41q-48 0 -77 28t-29 75q0 19 5 40h43q1 -65 74 -65q78 0 102 65z" />
    <glyph glyph-name="Iogonek" unicode="&#x12e;" horiz-adv-x="278" 
d="M368 729l-155 -729q-45 -24 -77 -65t-32 -74q0 -44 46 -44q27 0 60 11l-11 -52q-44 -9 -71 -9q-56 0 -88.5 20.5t-32.5 57.5q0 82 132 155h-76l155 729h150z" />
    <glyph glyph-name="iogonek" unicode="&#x12f;" horiz-adv-x="278" 
d="M318 540l-115 -540q-100 -70 -100 -140q0 -42 47 -42q17 0 50 10l-11 -52q-41 -9 -63 -9q-56 0 -87.5 22t-31.5 61t29.5 73.5t99.5 76.5h-73l115 540h140zM358 729l-26 -125h-140l26 125h140z" />
    <glyph glyph-name="Idotaccent" unicode="&#x130;" horiz-adv-x="278" 
d="M368 729l-155 -729h-150l155 729h150zM388 918l-26 -120h-110l26 120h110z" />
    <glyph glyph-name="dotlessi" unicode="&#x131;" horiz-adv-x="278" 
d="M322 540l-115 -540h-140l115 540h140z" />
    <glyph glyph-name="IJ" unicode="&#x132;" horiz-adv-x="782" 
d="M368 729l-155 -729h-150l155 729h150zM722 729h150l-114 -539q-26 -118 -101 -167q-71 -46 -179 -46q-88 0 -138 41.5t-50 114.5q0 27 7 65l16 72h150l-17 -77q-4 -26 -4 -34q0 -24 18.5 -39t47.5 -15q81 0 100 85z" />
    <glyph glyph-name="ij" unicode="&#x133;" 
d="M342 540l-115 -540h-140l115 540h140zM382 729l-27 -125h-140l27 125h140zM633 729l-27 -125h-140l27 125h140zM593 540l-135 -634q-14 -65 -58.5 -94.5t-129.5 -29.5q-28 0 -45 5l24 111q5 -4 25 -4q23 0 34.5 10t16.5 34l128 602h140z" />
    <glyph glyph-name="Jcircumflex" unicode="&#x134;" 
d="M491 729h150l-115 -539q-24 -118 -100 -167q-71 -46 -179 -46q-88 0 -138 41.5t-50 114.5q0 34 7 65l15 72h150l-16 -77q-4 -16 -4 -34q0 -24 18.5 -39t47.5 -15q82 0 99 85zM548 936h107l71 -147h-78l-60 97l-103 -97h-77z" />
    <glyph glyph-name="jcircumflex" unicode="&#x135;" horiz-adv-x="278" 
d="M325 540l-135 -634q-14 -65 -58.5 -94.5t-129.5 -29.5q-27 0 -45 5l24 111q5 -4 25 -4q23 0 34.5 10t16.5 34l128 602h140zM247 757h107l72 -147h-78l-61 97l-103 -97h-76z" />
    <glyph glyph-name="Kcommaaccent" unicode="&#x136;" horiz-adv-x="722" 
d="M274 234l-50 -234h-150l155 729h150l-68 -320l354 320h178l-361 -319l235 -410h-179l-173 314zM305 -60h122l-20 -96q-8 -59 -52.5 -103t-101.5 -48l10 46q33 6 56.5 31t28.5 58h-66z" />
    <glyph glyph-name="kcommaaccent" unicode="&#x137;" 
d="M354 729l-85 -399l223 210h159l-232 -206l129 -334h-164l-79 239l-68 -62l-38 -177h-140l155 729h140zM220 -60h122l-21 -96q-7 -58 -52 -102t-101 -49l10 46q33 6 56.5 31t28.5 58h-67z" />
    <glyph glyph-name="kgreenlandic" unicode="&#x138;" 
d="M312 540l-43 -210l223 210h159l-232 -206l129 -334h-164l-79 239l-68 -62l-38 -177h-140l113 540h140z" />
    <glyph glyph-name="Lacute" unicode="&#x139;" horiz-adv-x="611" 
d="M385 729l-128 -604h349l-27 -125h-499l155 729h150zM494 936l-158 -150h-70l102 150h126z" />
    <glyph glyph-name="lacute" unicode="&#x13a;" horiz-adv-x="278" 
d="M362 729l-155 -729h-140l155 729h140zM474 936l-158 -150h-70l102 150h126z" />
    <glyph glyph-name="Lcommaaccent" unicode="&#x13b;" horiz-adv-x="611" 
d="M385 729l-128 -604h349l-27 -125h-499l155 729h150zM265 -62h121l-20 -96q-7 -58 -52 -102t-101 -49l9 46q34 6 57.5 31t28.5 58h-67z" />
    <glyph glyph-name="lcommaaccent" unicode="&#x13c;" horiz-adv-x="278" 
d="M362 729l-155 -729h-140l155 729h140zM63 -60h122l-21 -96q-8 -59 -52 -103t-101 -48l10 46q33 6 57 30.5t28 58.5h-67z" />
    <glyph glyph-name="Lcaron" unicode="&#x13d;" horiz-adv-x="611" 
d="M385 729l-128 -604h349l-27 -125h-499l155 729h150zM485 729h122l-21 -96q-8 -59 -52 -103t-101 -48l10 46q33 6 57 30.5t28 58.5h-67z" />
    <glyph glyph-name="lcaron" unicode="&#x13e;" horiz-adv-x="400" 
d="M362 729l-155 -729h-140l155 729h140zM422 729h122l-21 -96q-8 -59 -52 -103t-101 -48l10 46q33 6 57 30.5t28 58.5h-67z" />
    <glyph glyph-name="Ldot" unicode="&#x13f;" horiz-adv-x="611" 
d="M385 729l-128 -604h349l-27 -125h-499l155 729h150zM630 476l-32 -146h-149l31 146h150z" />
    <glyph glyph-name="ldot" unicode="&#x140;" horiz-adv-x="479" 
d="M363 729l-155 -729h-140l155 729h140zM546 447l-31 -146h-150l31 146h150z" />
    <glyph glyph-name="Lslash" unicode="&#x141;" horiz-adv-x="611" 
d="M338 421l187 110l-20 -94l-187 -110l-43 -202h349l-27 -125h-499l56 262l-100 -61l20 94l100 61l79 373h150z" />
    <glyph glyph-name="lslash" unicode="&#x142;" horiz-adv-x="278" 
d="M296 435l76 45l-17 -82l-76 -45l-75 -353h-140l62 294l-76 -48l17 83l76 47l76 353h140z" />
    <glyph glyph-name="Nacute" unicode="&#x143;" horiz-adv-x="722" 
d="M816 729l-155 -729h-148l-192 523l-111 -523h-142l155 729h150l192 -515l109 515h142zM690 936l-159 -150h-69l101 150h127z" />
    <glyph glyph-name="nacute" unicode="&#x144;" horiz-adv-x="611" 
d="M178 540h140l-18 -82q40 48 83 69.5t99 21.5q67 0 107 -36t40 -96q0 -27 -6 -55l-77 -362h-140l67 313q6 34 6 49q0 75 -74 75q-51 0 -87.5 -35.5t-49.5 -97.5l-65 -304h-140zM594 757l-158 -150h-70l102 150h126z" />
    <glyph glyph-name="Ncommaaccent" unicode="&#x145;" horiz-adv-x="722" 
d="M816 729l-155 -729h-148l-192 523l-111 -523h-142l155 729h150l192 -515l109 515h142zM288 -60h121l-20 -96q-7 -58 -52 -102t-101 -49l9 46q34 6 57.5 31t28.5 58h-67z" />
    <glyph glyph-name="ncommaaccent" unicode="&#x146;" horiz-adv-x="611" 
d="M178 540h140l-18 -82q40 48 83 69.5t99 21.5q67 0 107 -36t40 -96q0 -27 -6 -55l-77 -362h-140l67 313q6 34 6 49q0 75 -74 75q-51 0 -87.5 -35.5t-49.5 -97.5l-65 -304h-140zM231 -60h122l-21 -96q-8 -59 -52 -103t-101 -48l10 46q33 6 56.5 31t28.5 58h-67z" />
    <glyph glyph-name="Ncaron" unicode="&#x147;" horiz-adv-x="722" 
d="M816 729l-155 -729h-148l-192 523l-111 -523h-142l155 729h150l192 -515l109 515h142zM577 789h-107l-72 147h78l61 -97l103 97h76z" />
    <glyph glyph-name="ncaron" unicode="&#x148;" horiz-adv-x="611" 
d="M178 540h140l-18 -82q40 48 83 69.5t99 21.5q67 0 107 -36t40 -96q0 -27 -6 -55l-77 -362h-140l67 313q6 34 6 49q0 75 -74 75q-51 0 -87.5 -35.5t-49.5 -97.5l-65 -304h-140zM478 610h-107l-72 147h78l61 -97l103 97h76z" />
    <glyph glyph-name="napostrophe" unicode="&#x149;" horiz-adv-x="708" 
d="M273 540h140l-18 -82q40 48 83.5 69.5t98.5 21.5q67 0 107 -36t40 -96q0 -27 -6 -55l-77 -362h-140l66 313q7 28 7 49q0 75 -74 75q-51 0 -87.5 -35.5t-49.5 -97.5l-65 -304h-140zM157 729h122l-21 -96q-8 -59 -52 -103t-101 -48l10 46q33 6 57 30.5t28 58.5h-67z" />
    <glyph glyph-name="Eng" unicode="&#x14a;" horiz-adv-x="723" 
d="M75 0l156 732h150l-18 -82q49 50 98 70.5t120 20.5q93 0 143.5 -34.5t50.5 -97.5q0 -27 -6 -55l-138 -648q-13 -66 -58 -95t-133 -29q-34 0 -52 5l26 120q6 -3 24 -3q23 0 35 10t17 33l117 550q6 31 6 48q0 74 -105 74q-79 0 -122 -31.5t-57 -99.5l-104 -488h-150z" />
    <glyph glyph-name="eng" unicode="&#x14b;" horiz-adv-x="611" 
d="M63 0l115 540h140l-18 -82q40 48 83 69.5t99 21.5q67 0 107 -36t40 -96q0 -27 -6 -55l-97 -456q-14 -65 -58.5 -94.5t-129.5 -29.5q-28 0 -45 5l24 111q5 -4 25 -4q23 0 34.5 10t16.5 34l80 375q6 34 6 49q0 75 -74 75q-51 0 -87.5 -35.5t-49.5 -97.5l-65 -304h-140z" />
    <glyph glyph-name="Omacron" unicode="&#x14c;" horiz-adv-x="778" 
d="M538 741q137 0 213.5 -75t76.5 -211q0 -89 -32.5 -176t-90.5 -155q-64 -76 -138.5 -111.5t-171.5 -35.5q-134 0 -211.5 76.5t-77.5 207.5q0 86 33.5 175t91.5 159q122 146 307 146zM519 613q-116 0 -192 -104q-33 -46 -52.5 -107.5t-19.5 -119.5q0 -82 44 -129.5
t120 -47.5q116 0 190 105q32 45 51 106.5t19 120.5q0 83 -42.5 129.5t-117.5 46.5zM733 901l-17 -80h-300l17 80h300z" />
    <glyph glyph-name="omacron" unicode="&#x14d;" horiz-adv-x="611" 
d="M413 549q103 0 162 -53.5t59 -146.5q0 -65 -21.5 -133.5t-57.5 -115.5q-93 -123 -256 -123q-100 0 -158.5 54t-58.5 146q0 65 21.5 133t57.5 116q92 123 252 123zM391 437q-68 0 -117 -68.5t-49 -163.5q0 -53 27 -84.5t72 -31.5q81 0 129 87q38 66 38 144q0 54 -27 85.5
t-73 31.5zM606 722l-17 -80h-300l17 80h300z" />
    <glyph glyph-name="Obreve" unicode="&#x14e;" horiz-adv-x="778" 
d="M538 741q137 0 213.5 -75t76.5 -211q0 -89 -32.5 -176t-90.5 -155q-64 -76 -138.5 -111.5t-171.5 -35.5q-134 0 -211.5 76.5t-77.5 207.5q0 86 33.5 175t91.5 158q122 147 307 147zM519 613q-116 0 -192 -104q-33 -46 -52.5 -107.5t-19.5 -119.5q0 -82 44 -129.5
t120 -47.5q116 0 190 104q32 46 51 107.5t19 120.5q0 83 -42.5 129.5t-117.5 46.5zM669 934h42q-10 -61 -56 -102t-105 -41q-48 0 -77 28t-29 75q0 20 6 40h43q-1 -4 -1 -8q0 -27 19.5 -42t55.5 -15q78 0 102 65z" />
    <glyph glyph-name="obreve" unicode="&#x14f;" horiz-adv-x="611" 
d="M413 549q103 0 162 -53.5t59 -146.5q0 -65 -21.5 -133.5t-57.5 -115.5q-93 -123 -256 -123q-100 0 -158.5 54t-58.5 146q0 65 21.5 133t57.5 116q92 123 252 123zM391 437q-68 0 -117 -68.5t-49 -163.5q0 -53 27 -84.5t72 -31.5q81 0 129 87q38 66 38 144q0 54 -27 85.5
t-73 31.5zM552 754h42q-11 -62 -56.5 -102.5t-104.5 -40.5q-48 0 -77 28t-29 75q0 20 6 40h42v-8q0 -27 19.5 -42t54.5 -15q77 0 103 65z" />
    <glyph glyph-name="Ohungarumlaut" unicode="&#x150;" horiz-adv-x="778" 
d="M538 741q137 0 213.5 -75t76.5 -211q0 -89 -32.5 -176t-90.5 -155q-64 -76 -138.5 -111.5t-171.5 -35.5q-134 0 -211.5 76.5t-77.5 207.5q0 86 33.5 175t91.5 159q122 146 307 146zM519 613q-116 0 -192 -104q-33 -46 -52.5 -107.5t-19.5 -119.5q0 -82 44 -129.5
t120 -47.5q116 0 190 105q32 45 51 106.5t19 120.5q0 83 -42.5 129.5t-117.5 46.5zM653 936l-158 -147h-70l101 147h127zM841 936l-158 -147h-70l101 147h127z" />
    <glyph glyph-name="ohungarumlaut" unicode="&#x151;" horiz-adv-x="611" 
d="M413 549q103 0 162 -53.5t59 -146.5q0 -65 -21.5 -133.5t-57.5 -115.5q-93 -123 -256 -123q-100 0 -158.5 54t-58.5 146q0 65 21.5 133t57.5 116q92 123 252 123zM391 437q-68 0 -117 -68.5t-49 -163.5q0 -53 27 -84.5t72 -31.5q81 0 129 87q38 66 38 144q0 54 -27 85.5
t-73 31.5zM522 757l-157 -147h-71l102 147h126zM710 757l-157 -147h-71l102 147h126z" />
    <glyph glyph-name="OE" unicode="&#x152;" horiz-adv-x="1000" 
d="M692 314l-40 -189h345l-26 -125h-490l12 59q-42 -45 -79.5 -63.5t-87.5 -18.5q-106 0 -171 73.5t-65 194.5q0 99 38.5 202t100.5 172q111 122 253 122q49 0 82 -14.5t61 -49.5l11 52h471l-27 -125h-326l-35 -165h298l-27 -125h-298zM513 178l77 362q-27 73 -108 73
q-118 0 -189 -131q-54 -97 -54 -208q0 -80 38 -124.5t106 -44.5q40 0 70.5 17t59.5 56z" />
    <glyph glyph-name="oe" unicode="&#x153;" horiz-adv-x="944" 
d="M809 152h138q-40 -80 -116 -127.5t-165 -47.5q-55 0 -101 20t-67 53q-83 -73 -210 -73q-101 0 -159 53.5t-58 145.5q0 65 22 133.5t58 116.5q45 59 110.5 91t141.5 32q127 0 180 -72q74 72 195 72q108 0 163 -69q45 -58 45 -129q0 -57 -18 -125h-362q-7 -30 -7 -52
q0 -38 26.5 -61.5t69.5 -23.5q37 0 68 17t46 46zM380 437q-68 0 -117 -68.5t-49 -163.5q0 -53 27 -84.5t72 -31.5q81 0 129 87q38 66 38 144q0 54 -27 85.5t-73 31.5zM843 319v28q0 43 -22.5 66.5t-62.5 23.5q-99 0 -131 -118h216z" />
    <glyph glyph-name="Racute" unicode="&#x154;" horiz-adv-x="722" 
d="M291 289l-61 -289h-150l155 729h377q84 0 130 -46q43 -43 43 -104q0 -42 -17.5 -85.5t-46.5 -73.5q-32 -33 -103 -68q78 -26 78 -82q0 -33 -28 -183q-3 -15 -3 -26q0 -20 18 -34l-6 -27h-159q-8 24 -8 41q0 39 26 132q12 44 12 61q0 55 -85 55h-172zM318 414h181
q70 0 107 41q30 32 30 79q0 29 -22 49q-27 21 -88 21h-168zM673 936l-158 -150h-70l101 150h127z" />
    <glyph glyph-name="racute" unicode="&#x155;" horiz-adv-x="389" 
d="M178 540h140l-23 -106q74 115 175 115q9 0 17 -1l-30 -142q-24 4 -42 4q-124 0 -151 -123l-61 -287h-140zM500 757l-158 -150h-70l101 150h127z" />
    <glyph glyph-name="Rcommaaccent" unicode="&#x156;" horiz-adv-x="722" 
d="M291 289l-61 -289h-150l155 729h377q84 0 130 -46q43 -43 43 -104q0 -42 -17.5 -85.5t-46.5 -73.5q-32 -33 -103 -68q78 -26 78 -82q0 -33 -28 -183q-3 -15 -3 -26q0 -20 18 -34l-6 -27h-159q-8 24 -8 41q0 39 26 132q12 44 12 61q0 55 -85 55h-172zM318 414h181
q70 0 107 41q30 32 30 79q0 29 -22 49q-27 21 -88 21h-168zM298 -60h122l-20 -96q-8 -59 -52.5 -103t-101.5 -48l10 46q33 6 56.5 31t28.5 58h-66z" />
    <glyph glyph-name="rcommaaccent" unicode="&#x157;" horiz-adv-x="389" 
d="M178 540h140l-22 -106q34 55 80 85t94 30q9 0 17 -1l-30 -142q-23 4 -42 4q-124 0 -151 -123l-61 -287h-140zM60 -60h122l-21 -96q-8 -59 -52 -103t-101 -48l10 46q33 6 57 30.5t28 58.5h-67z" />
    <glyph glyph-name="Rcaron" unicode="&#x158;" horiz-adv-x="722" 
d="M291 289l-61 -289h-150l155 729h377q84 0 130 -46q43 -43 43 -104q0 -42 -17.5 -85.5t-46.5 -73.5q-32 -33 -103 -68q78 -26 78 -82q0 -33 -28 -183q-3 -15 -3 -26q0 -20 18 -34l-6 -27h-159q-8 24 -8 41q0 39 26 132q12 44 12 61q0 55 -85 55h-172zM318 414h181
q70 0 107 41q30 32 30 79q0 29 -22 49q-27 21 -88 21h-168zM564 789h-108l-71 147h78l61 -97l103 97h76z" />
    <glyph glyph-name="rcaron" unicode="&#x159;" horiz-adv-x="389" 
d="M178 540h140l-23 -106q34 55 80 85t95 30q9 0 17 -1l-30 -142q-24 4 -42 4q-125 0 -151 -123l-61 -287h-140zM394 610h-108l-71 147h78l61 -97l103 97h76z" />
    <glyph glyph-name="Sacute" unicode="&#x15a;" horiz-adv-x="667" 
d="M717 507h-140q2 18 2 23q0 83 -132 83q-68 0 -107.5 -28t-39.5 -76q0 -28 25 -43.5t96 -29.5l109 -22q77 -15 117 -53t40 -96q0 -49 -18.5 -99.5t-50.5 -86.5q-88 -102 -273 -102q-142 0 -213 65q-56 51 -56 132q0 17 4 44h146q-2 -18 -2 -22q0 -43 37 -67t105 -24
q79 0 125.5 30t46.5 81q0 35 -26 53t-94 32l-98 20q-89 18 -129 53.5t-40 97.5q0 53 24.5 105.5t67.5 89.5q84 74 230 74q119 0 185.5 -45.5t66.5 -126.5q0 -25 -8 -62zM649 936l-158 -150h-70l101 150h127z" />
    <glyph glyph-name="sacute" unicode="&#x15b;" 
d="M584 366h-135q3 13 3 19q0 25 -23.5 38.5t-64.5 13.5q-40 0 -64 -14.5t-24 -38.5q0 -15 13.5 -24.5t51.5 -20.5l96 -28q122 -37 122 -124q0 -96 -75.5 -153t-202.5 -57q-92 0 -148 33q-33 19 -53 51t-20 67q0 10 4 29h137q5 -68 106 -68q46 0 75 15.5t29 39.5
q0 17 -14.5 27t-61.5 25l-79 25q-66 22 -97.5 52t-31.5 72q0 38 19 77.5t52 67.5q67 59 189 59q95 0 148.5 -38.5t53.5 -106.5q0 -16 -5 -38zM570 757l-158 -150h-70l101 150h127z" />
    <glyph glyph-name="Scircumflex" unicode="&#x15c;" horiz-adv-x="667" 
d="M717 507h-140q2 18 2 23q0 83 -132 83q-68 0 -107.5 -28t-39.5 -76q0 -28 25 -43.5t96 -29.5l109 -22q77 -15 117 -53t40 -96q0 -50 -19 -100.5t-50 -85.5q-88 -102 -273 -102q-142 0 -213 65q-56 51 -56 132q0 17 4 44h146q-2 -18 -2 -23q0 -43 37.5 -66.5t105.5 -23.5
q78 0 124.5 30t46.5 81q0 35 -26 53t-94 32l-98 20q-89 18 -129 53.5t-40 97.5q0 53 24.5 105.5t67.5 89.5q84 74 230 74q119 0 185.5 -45.5t66.5 -126.5q0 -25 -8 -62zM455 936h108l71 -147h-78l-61 97l-103 -97h-76z" />
    <glyph glyph-name="scircumflex" unicode="&#x15d;" 
d="M584 366h-135q3 13 3 19q0 25 -23.5 38.5t-64.5 13.5q-40 0 -64 -14.5t-24 -38.5q0 -15 13.5 -24.5t51.5 -20.5l96 -28q122 -37 122 -124q0 -96 -75.5 -153t-202.5 -57q-92 0 -148 33q-33 19 -53 51t-20 67q0 10 4 29h137q5 -68 106 -68q46 0 75 15.5t29 39.5
q0 17 -14.5 27t-61.5 25l-79 25q-66 22 -97.5 52t-31.5 72q0 38 19 77.5t52 67.5q67 59 189 59q95 0 148.5 -38.5t53.5 -106.5q0 -16 -5 -38zM391 757h107l71 -147h-77l-61 97l-103 -97h-77z" />
    <glyph glyph-name="Scedilla" unicode="&#x15e;" horiz-adv-x="667" 
d="M347 -23l-27 -39q24 6 44 6q29 0 46 -15t17 -42q0 -49 -41 -78t-109 -29q-58 0 -133 29l30 51q63 -30 99 -30q29 0 48 12.5t19 31.5q0 15 -12 24t-32 9q-22 0 -53 -13l55 84q-59 9 -88.5 18t-53.5 26q-80 55 -80 152q0 17 4 44h146q-2 -18 -2 -22q0 -43 37 -67t105 -24
q79 0 125.5 30t46.5 81q0 35 -26 53t-94 32l-98 20q-89 18 -129 53.5t-40 97.5q0 53 24.5 105.5t67.5 89.5q84 74 230 74q119 0 185.5 -45.5t66.5 -126.5q0 -25 -8 -62h-140q2 18 2 23q0 83 -132 83q-68 0 -107.5 -28t-39.5 -76q0 -28 25 -43.5t96 -29.5l109 -22
q77 -15 117 -53t40 -96q0 -62 -27.5 -121.5t-73.5 -95.5q-87 -70 -239 -71z" />
    <glyph glyph-name="scedilla" unicode="&#x15f;" 
d="M288 -22l-26 -40q23 6 43 6q29 0 46 -15t17 -42q0 -49 -41 -78t-109 -29q-58 0 -133 29l30 51q63 -30 98 -30q29 0 48.5 12.5t19.5 31.5q0 15 -12 24t-32 9q-22 0 -53 -13l54 85q-32 0 -79 19q-45 17 -72 52.5t-27 76.5q0 11 4 30h137q5 -68 106 -68q46 0 75 15.5
t29 39.5q0 17 -14.5 27t-61.5 25l-79 25q-66 22 -97.5 52t-31.5 72q0 37 19.5 76.5t51.5 68.5q67 59 189 59q95 0 148.5 -38.5t53.5 -106.5q0 -16 -5 -38h-135q3 13 3 19q0 25 -23.5 38.5t-64.5 13.5q-40 0 -64 -14.5t-24 -38.5q0 -15 13.5 -24.5t51.5 -20.5l96 -28
q122 -37 122 -124q0 -95 -73.5 -152t-197.5 -57z" />
    <glyph glyph-name="Scaron" unicode="&#x160;" horiz-adv-x="667" 
d="M537 789h-108l-71 147h78l61 -97l103 97h76zM717 507h-140q2 18 2 23q0 83 -132 83q-68 0 -107.5 -28t-39.5 -76q0 -28 25 -43.5t96 -29.5l109 -22q77 -15 117 -53t40 -96q0 -49 -18.5 -99.5t-50.5 -86.5q-88 -102 -273 -102q-142 0 -213 65q-56 51 -56 132q0 17 4 44
h146q-2 -18 -2 -22q0 -43 37 -67t105 -24q79 0 125.5 30t46.5 81q0 35 -26 53t-94 32l-98 20q-89 18 -129 53.5t-40 97.5q0 53 24.5 105.5t67.5 89.5q84 74 230 74q119 0 185.5 -45.5t66.5 -126.5q0 -25 -8 -62z" />
    <glyph glyph-name="scaron" unicode="&#x161;" 
d="M458 610h-108l-71 147h78l61 -97l103 97h76zM584 366h-135q3 13 3 19q0 25 -23.5 38.5t-64.5 13.5q-40 0 -64 -14.5t-24 -38.5q0 -15 13.5 -24.5t51.5 -20.5l96 -28q122 -37 122 -124q0 -96 -75.5 -153t-202.5 -57q-92 0 -148 33q-33 19 -53 51t-20 67q0 10 4 29h137
q5 -68 106 -68q46 0 75 15.5t29 39.5q0 17 -14.5 27t-61.5 25l-79 25q-66 22 -97.5 52t-31.5 72q0 38 19 77.5t52 67.5q67 59 189 59q95 0 148.5 -38.5t53.5 -106.5q0 -16 -5 -38z" />
    <glyph glyph-name="Tcommaaccent" unicode="&#x162;" horiz-adv-x="611" 
d="M514 604l-129 -604h-150l129 604h-222l27 125h584l-27 -125h-212zM237 -60h122l-20 -96q-8 -59 -52.5 -103t-101.5 -48l10 46q34 6 57 30.5t28 58.5h-66z" />
    <glyph glyph-name="tcommaaccent" unicode="&#x163;" horiz-adv-x="333" 
d="M414 529l-20 -93h-78l-63 -294q-5 -27 -5 -34q0 -25 38 -25q12 0 33 3l-21 -98q-37 -11 -84 -11q-113 0 -113 86q0 23 5 41l70 332h-69l19 93h70l31 145h140l-31 -145h78zM114 -60h122l-21 -96q-8 -59 -52 -103t-101 -48l10 46q33 6 57 30.5t28 58.5h-67z" />
    <glyph glyph-name="Tcaron" unicode="&#x164;" horiz-adv-x="611" 
d="M514 604l-129 -604h-150l129 604h-222l27 125h584l-27 -125h-212zM531 789h-107l-71 147h78l60 -97l103 97h77z" />
    <glyph glyph-name="tcaron" unicode="&#x165;" horiz-adv-x="389" 
d="M414 529l-20 -93h-78l-62 -294q-6 -26 -6 -34q0 -25 38 -25q12 0 33 3l-20 -98q-39 -11 -85 -11q-113 0 -113 86q0 18 5 41l70 332h-69l20 93h69l31 145h140l-31 -145h78zM456 829h121l-20 -96q-7 -58 -52 -102t-101 -49l9 46q34 6 58 30.5t28 58.5h-67z" />
    <glyph glyph-name="Tbar" unicode="&#x166;" horiz-adv-x="611" 
d="M481 451h153l-17 -80h-153l-79 -371h-150l79 371h-153l17 80h153l33 153h-222l27 125h584l-27 -125h-212z" />
    <glyph glyph-name="tbar" unicode="&#x167;" horiz-adv-x="333" 
d="M414 529l-20 -93h-78l-20 -96h71l-14 -67h-72l-28 -131q-5 -27 -5 -34q0 -25 38 -25q12 0 33 3l-20 -98q-39 -11 -85 -11q-113 0 -113 86q0 23 5 41l35 169h-59l14 67h60l20 96h-69l19 93h70l31 145h140l-31 -145h78z" />
    <glyph glyph-name="Utilde" unicode="&#x168;" horiz-adv-x="722" 
d="M659 729h150l-105 -494q-26 -120 -107 -184q-94 -74 -231 -74q-113 0 -180 51.5t-67 138.5q0 35 11 88l101 474h150l-105 -494q-5 -27 -5 -45q0 -40 32 -62.5t90 -22.5q69 0 108 31.5t53 98.5zM640 923h55q-17 -55 -41 -81q-41 -41 -93 -41q-28 0 -50 11l-51 25
q-28 15 -44 15q-27 0 -50 -49h-54q36 118 121 118q29 0 70 -18l50 -21q21 -9 33 -9q33 0 54 50z" />
    <glyph glyph-name="utilde" unicode="&#x169;" horiz-adv-x="611" 
d="M541 0h-140l15 68q-40 -48 -83 -69.5t-99 -21.5q-66 0 -106 36t-40 96q0 27 6 55l80 376h140l-70 -327q-6 -29 -6 -49q0 -75 76 -75q49 0 85 36t49 97l68 318h140zM585 744h54q-15 -53 -41 -81q-39 -41 -92 -41q-27 0 -51 11l-50 25q-30 14 -44 14q-26 0 -51 -48h-54
q17 56 48.5 86.5t72.5 30.5q32 0 71 -17l50 -21q21 -10 33 -10q33 0 54 51z" />
    <glyph glyph-name="Umacron" unicode="&#x16a;" horiz-adv-x="722" 
d="M659 729h150l-105 -494q-26 -120 -107 -184q-94 -74 -231 -74q-114 0 -180.5 51.5t-66.5 139.5q0 32 11 87l101 474h150l-105 -494q-5 -27 -5 -45q0 -40 32 -62.5t90 -22.5q69 0 108 31.5t53 98.5zM707 901l-17 -80h-300l17 80h300z" />
    <glyph glyph-name="umacron" unicode="&#x16b;" horiz-adv-x="611" 
d="M541 0h-140l15 68q-41 -48 -84 -69.5t-98 -21.5q-66 0 -106 36t-40 96q0 27 6 55l80 376h140l-69 -327q-7 -30 -7 -49q0 -75 76 -75q49 0 85 36t49 97l68 318h140zM604 722l-17 -80h-300l17 80h300z" />
    <glyph glyph-name="Ubreve" unicode="&#x16c;" horiz-adv-x="722" 
d="M659 729h150l-105 -494q-26 -120 -107 -184q-94 -74 -231 -74q-113 0 -180 51.5t-67 138.5q0 35 11 88l101 474h150l-105 -494q-5 -27 -5 -45q0 -40 32 -62.5t90 -22.5q69 0 108 31.5t53 98.5zM633 934h43q-10 -61 -56 -102t-105 -41q-48 0 -77 28t-29 75q0 19 5 40h43
q1 -65 74 -65q78 0 102 65z" />
    <glyph glyph-name="ubreve" unicode="&#x16d;" horiz-adv-x="611" 
d="M541 0h-140l15 68q-40 -48 -83 -69.5t-99 -21.5q-66 0 -106 36t-40 96q0 27 6 55l80 376h140l-70 -327q-6 -29 -6 -49q0 -75 76 -75q49 0 85 36t49 97l68 318h140zM535 754h42q-11 -62 -56.5 -102.5t-104.5 -40.5q-48 0 -77 28t-29 75q0 20 6 40h42v-8q0 -27 19.5 -42
t54.5 -15q79 0 103 65z" />
    <glyph glyph-name="Uring" unicode="&#x16e;" horiz-adv-x="722" 
d="M659 729h150l-105 -494q-26 -120 -107 -184q-94 -74 -231 -74q-114 0 -180.5 51.5t-66.5 139.5q0 32 11 87l101 474h150l-105 -494q-5 -27 -5 -45q0 -40 32 -62.5t90 -22.5q69 0 108 31.5t53 98.5zM567 953q31 0 51.5 -20t20.5 -51q0 -43 -34 -76t-78 -33q-31 0 -51.5 20
t-20.5 51q0 43 34 76t78 33zM557 903q-20 0 -36.5 -14.5t-16.5 -33.5q0 -14 9.5 -23t24.5 -9q20 0 36 15t16 34q0 13 -9.5 22t-23.5 9z" />
    <glyph glyph-name="uring" unicode="&#x16f;" horiz-adv-x="611" 
d="M541 0h-140l15 68q-41 -48 -84 -69.5t-98 -21.5q-66 0 -106 36t-40 96q0 27 6 55l80 376h140l-69 -327q-7 -29 -7 -49q0 -75 76 -75q49 0 85 36t49 97l68 318h140zM464 773q32 0 52.5 -20t20.5 -51q0 -43 -34 -76t-78 -33q-31 0 -51.5 20t-20.5 51q0 43 34 76t77 33z
M455 723q-20 0 -36.5 -14.5t-16.5 -33.5q0 -14 9.5 -23t24.5 -9q20 0 36 15t16 34q0 13 -9.5 22t-23.5 9z" />
    <glyph glyph-name="Uhungarumlaut" unicode="&#x170;" horiz-adv-x="722" 
d="M659 729h150l-105 -494q-26 -120 -107 -184q-94 -74 -231 -74q-114 0 -180.5 51.5t-66.5 139.5q0 32 11 87l101 474h150l-105 -494q-5 -27 -5 -45q0 -40 32 -62.5t90 -22.5q69 0 108 31.5t53 98.5zM608 936l-158 -147h-70l102 147h126zM796 936l-158 -147h-70l102 147
h126z" />
    <glyph glyph-name="uhungarumlaut" unicode="&#x171;" horiz-adv-x="611" 
d="M541 0h-140l15 68q-41 -48 -84 -69.5t-98 -21.5q-66 0 -106 36t-40 96q0 27 6 55l80 376h140l-69 -327q-7 -29 -7 -49q0 -75 76 -75q49 0 85 36t49 97l68 318h140zM509 757l-158 -147h-70l102 147h126zM697 757l-158 -147h-70l102 147h126z" />
    <glyph glyph-name="Uogonek" unicode="&#x172;" horiz-adv-x="722" 
d="M569 -172l-11 -52q-46 -9 -76 -9q-67 0 -103.5 20t-36.5 56q0 55 47 97q25 23 84 50q-65 -13 -105 -13q-115 0 -182 51t-67 139q0 35 11 88l101 474h150l-105 -494q-5 -27 -5 -45q0 -40 32 -62.5t90 -22.5q69 0 108 31.5t53 98.5l105 494h150l-105 -494q-16 -73 -45 -118
t-88 -89q-73 -58 -97 -91q-32 -44 -32 -76q0 -44 56 -44q42 0 71 11z" />
    <glyph glyph-name="uogonek" unicode="&#x173;" horiz-adv-x="611" 
d="M656 540l-115 -540q-125 -64 -125 -142q0 -41 53 -41q36 0 68 11l-11 -52l-15 -3q-29 -6 -55 -6q-139 0 -139 79q0 88 149 154h-65l15 68q-40 -48 -83 -69.5t-99 -21.5q-66 0 -106 36t-40 96q0 27 6 55l80 376h140l-70 -327q-6 -29 -6 -49q0 -75 76 -75q49 0 85 36t49 97
l68 318h140z" />
    <glyph glyph-name="Wcircumflex" unicode="&#x174;" horiz-adv-x="944" 
d="M730 0h-135l-4 555l-237 -555h-135l-51 729h159l-3 -546l224 546h158l-3 -548l225 548h159zM603 936h107l72 -147h-78l-61 97l-103 -97h-76z" />
    <glyph glyph-name="wcircumflex" unicode="&#x175;" horiz-adv-x="778" 
d="M617 0h-145l-4 380l-166 -380h-145l-37 540h145l5 -378l159 378h144v-378l163 378h145zM490 757h107l72 -147h-78l-61 97l-103 -97h-76z" />
    <glyph glyph-name="Ycircumflex" unicode="&#x176;" horiz-adv-x="667" 
d="M477 270l-58 -270h-150l58 270l-145 459h167l82 -315l207 315h167zM467 936h108l71 -147h-78l-61 97l-103 -97h-76z" />
    <glyph glyph-name="ycircumflex" unicode="&#x177;" 
d="M509 540h144l-358 -638q-27 -48 -48 -69.5t-53 -34.5q-48 -17 -113 -17q-27 0 -44 4l23 109q11 -2 28 -2q52 0 82.5 25t30.5 68l-1 15l-76 540h154l36 -393zM375 757h107l71 -147h-78l-60 97l-103 -97h-77z" />
    <glyph glyph-name="Ydieresis" unicode="&#x178;" horiz-adv-x="667" 
d="M477 270l-58 -270h-150l58 270l-145 459h167l82 -315l207 315h167zM495 920l-26 -120h-110l26 120h110zM681 920l-26 -120h-110l26 120h110z" />
    <glyph glyph-name="Zacute" unicode="&#x179;" horiz-adv-x="611" 
d="M733 729l-27 -125l-474 -479h373l-27 -125h-548l27 125l474 479h-373l27 125h548zM624 936l-158 -150h-70l102 150h126z" />
    <glyph glyph-name="zacute" unicode="&#x17a;" horiz-adv-x="500" 
d="M575 540l-24 -113l-332 -314h274l-24 -113h-448l24 113l334 314h-249l24 113h421zM542 757l-158 -150h-70l101 150h127z" />
    <glyph glyph-name="Zdotaccent" unicode="&#x17b;" horiz-adv-x="611" 
d="M733 729l-27 -125l-474 -479h373l-27 -125h-548l27 125l474 479h-373l27 125h548zM549 918l-25 -120h-111l26 120h110z" />
    <glyph glyph-name="zdotaccent" unicode="&#x17c;" horiz-adv-x="500" 
d="M575 540l-24 -113l-332 -314h274l-24 -113h-448l24 113l334 314h-249l24 113h421zM464 741l-26 -120h-110l26 120h110z" />
    <glyph glyph-name="Zcaron" unicode="&#x17d;" horiz-adv-x="611" 
d="M733 729l-27 -125l-474 -479h373l-27 -125h-548l27 125l474 479h-373l27 125h548zM523 789h-108l-71 147h78l61 -97l102 97h77z" />
    <glyph glyph-name="zcaron" unicode="&#x17e;" horiz-adv-x="500" 
d="M575 540l-24 -113l-332 -314h274l-24 -113h-448l24 113l334 314h-249l24 113h421zM434 610h-107l-71 147h78l60 -97l103 97h77z" />
    <glyph glyph-name="longs" unicode="&#x17f;" horiz-adv-x="278" 
d="M202 0h-140l93 436h-77l20 93h76l14 65q15 70 56.5 102.5t114.5 32.5q30 0 77 -3l-22 -105q-33 4 -42 4q-37 0 -46 -43z" />
    <glyph glyph-name="florin" unicode="&#x192;" 
d="M603 483l-21 -100h-137l-140 -382q-42 -115 -99.5 -168t-140.5 -53q-45 0 -86 22l49 115q27 -21 52 -21q27 0 47 24.5t43 86.5l139 376h-123l21 100h138l23 59q41 104 96 153t134 49q40 0 92 -17l-44 -114q-31 16 -52 16q-58 0 -99 -105l-15 -41h123z" />
    <glyph glyph-name="Aringacute" unicode="&#x1fa;" horiz-adv-x="722" 
d="M532 147h-272l-81 -147h-153l407 729h173l97 -729h-153zM518 272l-35 283l-154 -283h189zM554 953q31 0 51.5 -20t20.5 -51q0 -43 -34 -76t-78 -33q-31 0 -51.5 20t-20.5 51q0 43 34 76t78 33zM544 903q-20 0 -36.5 -14.5t-16.5 -33.5q0 -14 9.5 -23t24.5 -9q20 0 36 15
t16 34q0 13 -9.5 22t-23.5 9zM597 1073l-158 -150h-70l102 150h126z" />
    <glyph glyph-name="aringacute" unicode="&#x1fb;" 
d="M527 17l-4 -17h-153q-7 15 -7 27t3 27q-84 -77 -166 -77q-66 0 -103 31q-47 39 -47 100q0 45 23 87.5t63 71.5q45 32 116 44l58 9q54 8 65.5 10.5t26.5 10.5q34 17 34 53q0 43 -73 43q-49 0 -74 -17t-38 -58h-131q21 98 84.5 142.5t181.5 44.5q104 0 151 -38
q18 -14 29.5 -37.5t11.5 -45.5q0 -18 -6 -45l-63 -300q-3 -12 -3 -21q0 -21 21 -45zM400 217l8 38q-13 -8 -26 -10q-2 -1 -9 -2t-12 -2l-16 -3l-50 -8q-49 -8 -75.5 -32t-26.5 -59q0 -50 73 -50q51 0 85.5 33t48.5 95zM438 773q31 0 51.5 -20t20.5 -51q0 -43 -34 -76
t-78 -33q-31 0 -51.5 20t-20.5 51q0 43 34 76t78 33zM428 723q-20 0 -36.5 -14.5t-16.5 -33.5q0 -14 9.5 -23t24.5 -9q20 0 36 15t16 34q0 13 -9.5 22t-23.5 9zM490 884l-158 -150h-70l101 150h127z" />
    <glyph glyph-name="AEacute" unicode="&#x1fc;" horiz-adv-x="1000" 
d="M464 152h-219l-85 -152h-159l420 729h683l-26 -125h-367l-36 -165h339l-26 -125h-339l-40 -189h386l-27 -125h-536zM491 277l70 327h-66l-185 -327h181zM889 936l-158 -150h-70l101 150h127z" />
    <glyph glyph-name="aeacute" unicode="&#x1fd;" horiz-adv-x="889" 
d="M750 152h138q-40 -80 -116 -127.5t-166 -47.5q-137 0 -181 100q-53 -56 -99.5 -78t-116.5 -22q-73 0 -114 34t-41 95q0 46 22.5 88.5t62.5 71.5q46 33 117 45l57 9q54 8 65.5 10.5t27.5 10.5q34 17 34 53q0 43 -72 43q-49 0 -74.5 -17t-38.5 -58h-131q18 86 63 126
q69 61 205 61q113 0 161 -49q70 49 165 49q109 0 164 -69q45 -56 45 -129q0 -57 -18 -125h-362q-7 -30 -7 -51q0 -39 26.5 -62.5t69.5 -23.5q37 0 68 17t46 46zM404 216l8 38q-13 -6 -26 -10q-2 0 -9 -1t-12 -2l-16 -3l-50 -8q-49 -8 -75.5 -32t-26.5 -59q0 -50 71 -50
q52 0 87 32.5t49 94.5zM784 319v27q0 44 -22 67.5t-63 23.5q-99 0 -131 -118h216zM707 756l-158 -150h-70l101 150h127z" />
    <glyph glyph-name="Oslashacute" unicode="&#x1fe;" horiz-adv-x="778" 
d="M181 56l-106 -95l-41 46l111 99q-36 66 -36 157q0 86 33.5 174.5t91.5 157.5q125 146 313 146q141 0 216 -82l101 90l42 -45l-108 -97q34 -69 34 -155q0 -85 -33.5 -172.5t-91.5 -156.5q-123 -146 -312 -146q-143 0 -214 79zM678 500l-384 -343q44 -52 127 -52
q115 0 190 104q72 99 72 230q0 35 -5 61zM264 213l386 344q-44 56 -129 56q-116 0 -191 -104q-33 -47 -52.5 -108t-19.5 -121q0 -32 6 -67zM685 936l-158 -150h-70l101 150h127z" />
    <glyph glyph-name="oslashacute" unicode="&#x1ff;" horiz-adv-x="611" 
d="M135 36l-89 -74l-34 40l93 78q-21 46 -21 98q0 64 22 132.5t58 115.5q93 123 253 123q113 0 173 -63l85 71l34 -41l-91 -76q18 -45 18 -95q0 -62 -22.5 -130t-57.5 -115q-45 -59 -110.5 -91t-141.5 -32q-108 0 -169 59zM493 336l-247 -207q27 -40 82 -40q44 0 81.5 30
t59.5 84q25 56 25 118q0 8 -1 15zM228 183l250 209q-28 45 -83 45q-82 0 -130 -87q-38 -68 -38 -142q0 -14 1 -25zM575 757l-158 -150h-70l102 150h126z" />
    <glyph glyph-name="Scommaaccent" unicode="&#x218;" horiz-adv-x="667" 
d="M717 507h-140q2 18 2 23q0 83 -132 83q-68 0 -107.5 -28t-39.5 -76q0 -28 25 -43.5t96 -29.5l109 -22q77 -15 117 -53t40 -96q0 -49 -18.5 -99.5t-50.5 -86.5q-88 -102 -273 -102q-142 0 -213 65q-56 51 -56 132q0 17 4 44h146q-2 -18 -2 -22q0 -43 37 -67t105 -24
q79 0 125.5 30t46.5 81q0 35 -26 53t-94 32l-98 20q-89 18 -129 53.5t-40 97.5q0 53 24.5 105.5t67.5 89.5q84 74 230 74q119 0 185.5 -45.5t66.5 -126.5q0 -25 -8 -62zM272 -60h121l-20 -96q-8 -59 -52.5 -103t-101.5 -48l10 46q34 6 57.5 31t28.5 58h-67z" />
    <glyph glyph-name="scommaaccent" unicode="&#x219;" 
d="M584 366h-135q3 13 3 18q0 25 -23 39t-65 14q-40 0 -64 -14.5t-24 -38.5q0 -15 13.5 -24.5t51.5 -20.5l96 -28q122 -37 122 -124q0 -96 -75.5 -153t-202.5 -57q-92 0 -148 33q-33 19 -53 51t-20 67q0 12 4 29h137q1 -29 21 -46q30 -22 85 -22q46 0 75 15.5t29 39.5
q0 17 -14.5 27t-61.5 25l-79 25q-67 22 -98 51.5t-31 72.5q0 38 19 77.5t52 67.5q67 59 189 59q95 0 148.5 -38.5t53.5 -106.5q0 -16 -5 -38zM210 -60h122l-21 -96q-7 -58 -52 -102t-101 -49l10 46q33 7 56.5 31t28.5 58h-67z" />
    <glyph glyph-name="uni021A" unicode="&#x21a;" horiz-adv-x="611" 
d="M514 604l-129 -604h-150l129 604h-222l27 125h584l-27 -125h-212zM237 -60h122l-20 -96q-8 -59 -52.5 -103t-101.5 -48l10 46q34 6 57 30.5t28 58.5h-66z" />
    <glyph glyph-name="uni021B" unicode="&#x21b;" horiz-adv-x="333" 
d="M414 529l-20 -93h-78l-63 -294q-5 -27 -5 -34q0 -25 38 -25q12 0 33 3l-21 -98q-37 -11 -84 -11q-113 0 -113 86q0 23 5 41l70 332h-69l19 93h70l31 145h140l-31 -145h78zM114 -60h122l-21 -96q-8 -59 -52 -103t-101 -48l10 46q33 6 57 30.5t28 58.5h-67z" />
    <glyph glyph-name="circumflex" unicode="&#x2c6;" horiz-adv-x="333" 
d="M274 757h108l71 -147h-78l-61 97l-103 -97h-76z" />
    <glyph glyph-name="caron" unicode="&#x2c7;" horiz-adv-x="333" 
d="M346 610h-108l-71 147h78l61 -97l103 97h76z" />
    <glyph glyph-name="uni02C9" unicode="&#x2c9;" horiz-adv-x="333" 
d="M467 722l-17 -80h-300l17 80h300z" />
    <glyph glyph-name="breve" unicode="&#x2d8;" horiz-adv-x="333" 
d="M413 754h42q-11 -62 -56.5 -102.5t-104.5 -40.5q-48 0 -77 28t-29 75q0 20 6 40h42v-8q0 -27 19.5 -42t54.5 -15q77 0 103 65z" />
    <glyph glyph-name="dotaccent" unicode="&#x2d9;" horiz-adv-x="333" 
d="M377 741l-26 -120h-110l26 120h110z" />
    <glyph glyph-name="ring" unicode="&#x2da;" horiz-adv-x="333" 
d="M326 773q31 0 51.5 -20t20.5 -51q0 -43 -34 -76t-78 -33q-31 0 -51.5 20t-20.5 51q0 43 34 76t78 33zM316 723q-20 0 -36.5 -14.5t-16.5 -33.5q0 -14 9.5 -23t24.5 -9q20 0 36 15t16 34q0 13 -9.5 22t-23.5 9z" />
    <glyph glyph-name="ogonek" unicode="&#x2db;" horiz-adv-x="333" 
d="M174 0h74q-50 -29 -63.5 -38.5t-27.5 -27.5q-34 -43 -34 -77q0 -40 50 -40q42 0 71 11l-10 -52q-41 -9 -77 -9q-62 0 -98 20.5t-36 55.5q0 68 67 114q28 20 84 43z" />
    <glyph glyph-name="tilde" unicode="&#x2dc;" horiz-adv-x="333" 
d="M446 744h54q-15 -53 -41 -81q-39 -41 -92 -41q-27 0 -51 11l-50 25q-30 14 -44 14q-26 0 -51 -48h-54q17 56 48.5 86.5t72.5 30.5q32 0 71 -17l50 -21q21 -10 33 -10q33 0 54 51z" />
    <glyph glyph-name="hungarumlaut" unicode="&#x2dd;" horiz-adv-x="333" 
d="M310 757l-158 -147h-70l102 147h126zM498 757l-158 -147h-70l102 147h126z" />
    <glyph glyph-name="tonos" unicode="&#x384;" horiz-adv-x="333" 
d="M385 789l-21 -100l-54 -99h-39l-9 99l21 100h102z" />
    <glyph glyph-name="dieresistonos" unicode="&#x385;" horiz-adv-x="333" 
d="M273 743l-26 -122h-97l26 122h97zM472 743l-26 -122h-97l26 122h97zM406 889l-19 -90l-54 -99h-39l-9 99l19 90h102z" />
    <glyph glyph-name="Alphatonos" unicode="&#x386;" horiz-adv-x="722" 
d="M532 147h-272l-81 -147h-153l407 729h173l97 -729h-153zM518 272l-35 283l-154 -283h189zM316 729l-21 -100l-54 -99h-39l-9 99l21 100h102z" />
    <glyph glyph-name="uni0387" unicode="&#x387;" horiz-adv-x="278" 
d="M270 282l-22 -100h-105l22 100h105z" />
    <glyph glyph-name="Epsilontonos" unicode="&#x388;" horiz-adv-x="854" 
d="M431 314l-40 -189h395l-27 -125h-545l155 729h528l-26 -125h-378l-35 -165h348l-26 -125h-349zM309 729l-21 -100l-54 -99h-39l-9 99l21 100h102z" />
    <glyph glyph-name="Etatonos" unicode="&#x389;" horiz-adv-x="906" 
d="M717 331h-289l-71 -331h-150l155 729h150l-58 -273h289l58 273h150l-155 -729h-150zM302 729l-21 -100l-54 -99h-39l-9 99l21 100h102z" />
    <glyph glyph-name="Iotatonos" unicode="&#x38a;" horiz-adv-x="473" 
d="M515 729l-155 -729h-150l155 729h150zM305 729l-21 -100l-54 -99h-39l-9 99l21 100h102z" />
    <glyph glyph-name="Omicrontonos" unicode="&#x38c;" horiz-adv-x="844" 
d="M591 741q137 0 213.5 -75t76.5 -211q0 -89 -32.5 -176t-90.5 -155q-64 -76 -138.5 -111.5t-171.5 -35.5q-134 0 -211.5 76.5t-77.5 207.5q0 86 33.5 175t91.5 158q122 147 307 147zM572 613q-116 0 -192 -104q-33 -46 -52.5 -107.5t-19.5 -119.5q0 -82 44 -129.5
t120 -47.5q116 0 190 104q32 46 51 107.5t19 120.5q0 83 -42.5 129.5t-117.5 46.5zM269 729l-21 -100l-54 -99h-39l-9 99l21 100h102z" />
    <glyph glyph-name="Upsilontonos" unicode="&#x38e;" horiz-adv-x="930" 
d="M661 270l-57 -270h-150l57 270l-145 459h168l82 -315l206 315h167zM336 729l-21 -100l-54 -99h-39l-9 99l21 100h102z" />
    <glyph glyph-name="Omegatonos" unicode="&#x38f;" horiz-adv-x="847" 
d="M420 125l-27 -125h-312l27 125h173q-112 87 -112 218q0 78 33.5 155.5t89.5 131.5q118 112 283 112q141 0 230 -87q83 -83 83 -200q0 -63 -23 -126.5t-63 -107.5q-46 -52 -131 -96h164l-27 -125h-312l26 125q56 31 82 51t49 49q37 46 59.5 112t22.5 126q0 71 -44.5 114.5
t-118.5 43.5q-108 0 -180.5 -90.5t-72.5 -226.5q0 -86 45 -132q23 -23 56 -47zM251 729l-22 -100l-53 -99h-39l-10 99l22 100h102z" />
    <glyph glyph-name="iotadieresistonos" unicode="&#x390;" horiz-adv-x="278" 
d="M324 540l-115 -540h-140l115 540h140zM246 743l-26 -122h-97l26 122h97zM445 743l-26 -122h-97l26 122h97zM379 889l-19 -90l-54 -99h-39l-9 99l19 90h102z" />
    <glyph glyph-name="Alpha" unicode="&#x391;" horiz-adv-x="722" 
d="M532 147h-272l-81 -147h-153l407 729h173l97 -729h-153zM518 272l-35 283l-154 -283h189z" />
    <glyph glyph-name="Beta" unicode="&#x392;" horiz-adv-x="722" 
d="M82 0l155 729h325q107 0 160 -53q40 -43 40 -105q0 -107 -117 -183q38 -30 54.5 -61t16.5 -72q0 -45 -22 -93t-59 -84q-81 -78 -225 -78h-328zM325 439h164q39 0 59.5 6.5t36.5 25.5q28 30 28 71q0 32 -21.5 47t-67.5 15h-164zM259 125h178q43 0 67 10t41 36q23 35 23 74
q0 69 -91 69h-178z" />
    <glyph glyph-name="Gamma" unicode="&#x393;" horiz-adv-x="610" 
d="M78 0l155 729h512l-27 -125h-362l-128 -604h-150z" />
    <glyph glyph-name="uni0394" unicode="&#x394;" horiz-adv-x="671" 
d="M-18 0l415 729h186l105 -729h-706zM208 125h318l-61 460z" />
    <glyph glyph-name="Epsilon" unicode="&#x395;" horiz-adv-x="667" 
d="M296 314l-40 -189h395l-27 -125h-545l155 729h528l-27 -125h-378l-35 -165h349l-26 -125h-349z" />
    <glyph glyph-name="Zeta" unicode="&#x396;" horiz-adv-x="611" 
d="M733 729l-27 -125l-474 -479h373l-27 -125h-548l27 125l474 479h-373l27 125h548z" />
    <glyph glyph-name="Eta" unicode="&#x397;" horiz-adv-x="722" 
d="M577 331h-289l-70 -331h-150l155 729h150l-58 -273h288l58 273h151l-155 -729h-150z" />
    <glyph glyph-name="Theta" unicode="&#x398;" horiz-adv-x="778" 
d="M611 407l-21 -98h-267l21 98h267zM531 741q136 0 216.5 -81t80.5 -218q0 -88 -32 -174.5t-88 -150.5q-123 -140 -305 -140q-133 0 -215 82t-82 215q0 86 34 176.5t92 154.5q119 136 299 136zM519 613q-116 0 -192 -104q-33 -46 -52.5 -107.5t-19.5 -119.5
q0 -82 44 -129.5t120 -47.5q116 0 190 104q32 46 51 107.5t19 120.5q0 83 -42.5 129.5t-117.5 46.5z" />
    <glyph glyph-name="Iota" unicode="&#x399;" horiz-adv-x="278" 
d="M368 729l-155 -729h-150l155 729h150z" />
    <glyph glyph-name="Kappa" unicode="&#x39a;" horiz-adv-x="722" 
d="M274 234l-50 -234h-150l155 729h150l-68 -320l354 320h178l-361 -319l235 -410h-179l-173 314z" />
    <glyph glyph-name="Lambda" unicode="&#x39b;" horiz-adv-x="667" 
d="M-5 0l414 729h159l104 -729h-148l-67 557l-304 -557h-158z" />
    <glyph glyph-name="Mu" unicode="&#x39c;" horiz-adv-x="833" 
d="M497 0h-150l-7 619l-132 -619h-142l155 729h217l20 -560l254 560h219l-155 -729h-142l132 619z" />
    <glyph glyph-name="Nu" unicode="&#x39d;" horiz-adv-x="722" 
d="M816 729l-155 -729h-148l-192 523l-111 -523h-142l155 729h150l192 -515l109 515h142z" />
    <glyph glyph-name="Xi" unicode="&#x39e;" horiz-adv-x="657" 
d="M34 0l27 125h589l-27 -125h-589zM136 314l27 125h511l-27 -125h-511zM168 604l26 125h578l-26 -125h-578z" />
    <glyph glyph-name="Omicron" unicode="&#x39f;" horiz-adv-x="778" 
d="M538 741q137 0 213.5 -75t76.5 -211q0 -89 -32.5 -176t-90.5 -155q-64 -76 -138.5 -111.5t-171.5 -35.5q-134 0 -211.5 76.5t-77.5 207.5q0 86 33.5 175t91.5 158q122 147 307 147zM519 613q-116 0 -192 -104q-33 -46 -52.5 -107.5t-19.5 -119.5q0 -82 44 -129.5
t120 -47.5q116 0 190 104q32 46 51 107.5t19 120.5q0 83 -42.5 129.5t-117.5 46.5z" />
    <glyph glyph-name="Pi" unicode="&#x3a0;" horiz-adv-x="718" 
d="M64 0l155 729h589l-155 -729h-151l128 604h-288l-128 -604h-150z" />
    <glyph glyph-name="Rho" unicode="&#x3a1;" horiz-adv-x="667" 
d="M281 260l-55 -260h-150l155 729h308q94 0 144 -39q64 -48 64 -130q0 -58 -24 -117t-64 -102q-77 -81 -191 -81h-187zM308 385h153q76 0 112 51q25 37 25 89q0 35 -25 57t-65 22h-154z" />
    <glyph glyph-name="Sigma" unicode="&#x3a3;" horiz-adv-x="590" 
d="M21 0l28 131l288 257l-182 230l24 111h523l-25 -122h-338l181 -232l-287 -250h377l-26 -125h-563z" />
    <glyph glyph-name="Tau" unicode="&#x3a4;" horiz-adv-x="611" 
d="M514 604l-129 -604h-150l129 604h-222l27 125h584l-27 -125h-212z" />
    <glyph glyph-name="Upsilon" unicode="&#x3a5;" horiz-adv-x="667" 
d="M477 270l-58 -270h-150l58 270l-145 459h167l82 -315l207 315h167z" />
    <glyph glyph-name="Phi" unicode="&#x3a6;" horiz-adv-x="822" 
d="M346 -14l19 89q-76 14 -124 45q-52 33 -82 87.5t-30 117.5q0 88 47 163t128 118q80 44 184 48l19 89h125l-19 -89q111 -17 174 -82.5t63 -162.5q0 -88 -45.5 -164.5t-122.5 -118.5q-82 -45 -192 -51l-19 -89h-125zM390 192l73 343q-65 -9 -107 -39q-38 -28 -60 -71
t-22 -90q0 -58 30 -95t86 -48zM588 535l-73 -343q66 10 108 40q38 28 60 71t22 90q0 58 -30.5 95t-86.5 47z" />
    <glyph glyph-name="Chi" unicode="&#x3a7;" horiz-adv-x="667" 
d="M499 372l156 -372h-179l-90 249l-189 -249h-175l310 367l-145 362h178l79 -236l183 236h175z" />
    <glyph glyph-name="Psi" unicode="&#x3a8;" horiz-adv-x="829" 
d="M341 0l28 130q-71 4 -118 31q-50 27 -78 72.5t-28 97.5t27 180l47 218h150l-47 -218q-27 -137 -27 -161q0 -43 27 -69t73 -27l101 475h147l-101 -475q63 0 112 50q22 25 35 64t35 143l47 218h150l-47 -218q-16 -80 -25 -120q-33 -137 -109.5 -197t-223.5 -64l-28 -130
h-147z" />
    <glyph glyph-name="uni03A9" unicode="&#x3a9;" horiz-adv-x="781" 
d="M366 125l-27 -125h-312l27 125h173q-112 87 -112 218q0 78 33.5 155.5t89.5 131.5q118 112 283 112q141 0 230 -87q83 -83 83 -200q0 -63 -23 -126.5t-63 -107.5q-46 -52 -131 -96h164l-27 -125h-312l26 125q56 31 82 51t49 49q37 46 59.5 112t22.5 126q0 71 -44.5 114.5
t-118.5 43.5q-108 0 -180.5 -90.5t-72.5 -226.5q0 -86 45 -132q23 -23 56 -47z" />
    <glyph glyph-name="Iotadieresis" unicode="&#x3aa;" horiz-adv-x="278" 
d="M368 729l-155 -729h-150l155 729h150zM297 922l-26 -122h-110l26 122h110zM483 922l-26 -122h-110l26 122h110z" />
    <glyph glyph-name="Upsilondieresis" unicode="&#x3ab;" horiz-adv-x="667" 
d="M477 270l-58 -270h-150l58 270l-145 459h167l82 -315l207 315h167zM492 922l-26 -122h-110l26 122h110zM678 922l-26 -122h-110l26 122h110z" />
    <glyph glyph-name="alphatonos" unicode="&#x3ac;" horiz-adv-x="620" 
d="M566 265l66 -265h-140l-20 135q-37 -57 -64 -88q-62 -70 -153 -70q-75 0 -120 59t-45 158q0 139 76 251q74 104 183 104q82 0 131 -59q22 -26 41 -92l74 142h140zM448 274q-16 162 -92 162q-26 0 -50 -20t-41 -56q-35 -76 -35 -156q0 -53 14 -83.5t39 -30.5q39 0 87 54
q26 30 78 130zM489 789l-21 -100l-54 -99h-39l-9 99l21 100h102z" />
    <glyph glyph-name="epsilontonos" unicode="&#x3ad;" horiz-adv-x="479" 
d="M373 311l-19 -90q-88 -1 -112 -12q-45 -22 -45 -71q0 -26 18 -40.5t50 -14.5q43 0 73 19t54 63h140q-22 -77 -77 -122q-79 -66 -201 -66q-91 0 -143.5 40t-52.5 110q0 61 36 104q23 28 73 47q-36 34 -36 95q0 79 65 130q59 46 158 46q101 0 158.5 -43t57.5 -119
q0 -6 -1 -11h-140q-1 67 -79 67q-39 0 -64 -21.5t-25 -54.5q0 -31 24 -43t88 -13zM448 789l-21 -100l-54 -99h-39l-9 99l21 100h102z" />
    <glyph glyph-name="etatonos" unicode="&#x3ae;" horiz-adv-x="611" 
d="M181 540h140l-17 -78q41 47 80.5 67t94.5 20q68 0 111 -36.5t43 -93.5q0 -26 -7 -57l-123 -580h-140l112 531q9 41 9 56q0 29 -20 45t-55 16q-48 0 -85 -28q-38 -28 -53 -95l-65 -307h-140zM545 789l-22 -100l-53 -99h-39l-10 99l22 100h102z" />
    <glyph glyph-name="iotatonos" unicode="&#x3af;" horiz-adv-x="278" 
d="M324 540l-115 -540h-140l115 540h140zM358 789l-21 -100l-54 -99h-39l-9 99l21 100h102z" />
    <glyph glyph-name="upsilondieresistonos" unicode="&#x3b0;" horiz-adv-x="591" 
d="M309 540l-68 -322q-9 -45 -9 -61q0 -30 23 -48.5t60 -18.5q49 0 84 30q30 27 44 98l69 322h140l-70 -328q-27 -128 -78 -173q-67 -62 -201 -62q-130 0 -185 67q-30 35 -30 80q0 37 14 101l67 315h140zM403 743l-26 -122h-97l26 122h97zM602 743l-26 -122h-97l26 122h97z
M536 889l-19 -90l-54 -99h-39l-9 99l19 90h102z" />
    <glyph glyph-name="alpha" unicode="&#x3b1;" horiz-adv-x="620" 
d="M565 265l67 -265h-140l-20 135q-37 -57 -64 -88q-64 -70 -154 -70q-77 0 -123 59t-46 158q0 140 78 251q74 104 185 104q83 0 132 -59q22 -26 41 -92l73 142h140zM448 274q-9 84 -31 123t-61 39q-52 0 -91.5 -70.5t-39.5 -163.5q0 -49 15 -80.5t38 -31.5q27 0 57.5 21.5
t53.5 57.5q22 34 59 105z" />
    <glyph glyph-name="beta" unicode="&#x3b2;" horiz-adv-x="621" 
d="M26 -218l148 697q16 74 32.5 112.5t46.5 70.5q72 78 204 78q90 0 144 -43.5t54 -116.5q0 -113 -127 -180q54 -22 78 -55t24 -86q0 -114 -79 -198.5t-186 -84.5q-91 0 -147 53l-52 -247h-140zM317 493l-80 -378q39 -36 96 -36q64 0 111 53t47 124q0 54 -41 85
q-25 18 -74 18q-12 0 -19 -1l18 82q50 3 75 15q30 15 49.5 48.5t19.5 69.5q0 32 -20 51.5t-53 19.5q-58 0 -91 -45q-21 -28 -38 -106z" />
    <glyph glyph-name="gamma" unicode="&#x3b3;" 
d="M166 -218l49 228l-86 530h148l35 -384l195 384h150l-311 -530l-48 -228h-132z" />
    <glyph glyph-name="delta" unicode="&#x3b4;" horiz-adv-x="610" 
d="M377 532l-130 120l21 97h399l-24 -111h-230l122 -111q54 -49 77.5 -94t23.5 -100q0 -64 -22.5 -131.5t-57.5 -111.5q-90 -113 -239 -113q-106 0 -169 59t-63 160q0 74 29.5 145.5t78.5 117.5q40 38 81.5 54.5t102.5 18.5zM399 436q-71 0 -121.5 -68.5t-50.5 -163.5
q0 -52 25.5 -83t69.5 -31q80 0 130 81q42 69 42 147q0 55 -25.5 86.5t-69.5 31.5z" />
    <glyph glyph-name="epsilon" unicode="&#x3b5;" horiz-adv-x="479" 
d="M373 311l-19 -90q-93 -1 -117 -12q-47 -21 -47 -71q0 -55 74 -55q45 0 74.5 19t53.5 63h140q-22 -77 -77 -122q-79 -66 -202 -66q-93 0 -147.5 40t-54.5 110q0 60 39 104q25 29 77 47q-43 34 -43 96q0 78 67 129q62 46 162 46q101 0 159 -43t58 -119v-11h-140
q-3 67 -81 67q-41 0 -68 -21.5t-27 -54.5q0 -31 26 -43t93 -13z" />
    <glyph glyph-name="zeta" unicode="&#x3b6;" horiz-adv-x="492" 
d="M214 616l24 113h381l-21 -100q-134 -62 -234 -165q-66 -69 -104.5 -142t-38.5 -130q0 -46 28 -62q19 -12 92 -20l37 -4q60 -8 83 -24q28 -21 28 -60q0 -77 -110 -240h-131q105 152 105 189q0 14 -11.5 20.5t-43.5 10.5l-47 4q-171 18 -171 154q0 143 129 292
q44 52 89 88.5t113 75.5h-197z" />
    <glyph glyph-name="eta" unicode="&#x3b7;" horiz-adv-x="611" 
d="M181 540h140l-17 -78q41 47 80.5 67t94.5 20q68 0 111 -36.5t43 -93.5q0 -26 -7 -57l-123 -580h-140l112 531q9 41 9 56q0 29 -20 45t-55 16q-48 0 -85 -28q-38 -28 -53 -95l-65 -307h-140z" />
    <glyph glyph-name="theta" unicode="&#x3b8;" horiz-adv-x="558" 
d="M423 738q99 0 151.5 -62.5t52.5 -179.5q0 -83 -28.5 -192.5t-66.5 -173.5q-93 -154 -237 -154q-103 0 -157 68q-53 67 -53 170q0 94 30 207t73 181q85 136 235 136zM256 418h227q12 69 12 108q0 99 -83 99q-41 0 -73.5 -26t-50.5 -72q-16 -37 -32 -109zM463 325h-227
q-19 -85 -19 -135q0 -47 22 -73.5t61 -26.5q79 0 121 94q24 54 42 141z" />
    <glyph glyph-name="iota" unicode="&#x3b9;" horiz-adv-x="278" 
d="M324 540l-115 -540h-140l115 540h140z" />
    <glyph glyph-name="kappa" unicode="&#x3ba;" horiz-adv-x="566" 
d="M274 330l222 210h170l-243 -216l119 -324h-147l-78 237l-77 -70l-36 -167h-140l115 540h140z" />
    <glyph glyph-name="lambda" unicode="&#x3bb;" 
d="M16 0l295 491l-42 238h140l136 -729h-146l-49 344l-188 -344h-146z" />
    <glyph glyph-name="uni03BC" unicode="&#x3bc;" horiz-adv-x="603" 
d="M175 540h140l-72 -337q-4 -26 -4 -37q0 -32 22.5 -51t60.5 -19q47 0 80.5 28.5t43.5 77.5l72 338h140l-115 -540h-140l15 68q-62 -86 -137 -86q-60 0 -78 63l-56 -263h-133z" />
    <glyph glyph-name="nu" unicode="&#x3bd;" 
d="M349 0h-147l-74 540h145l33 -395l193 395h151z" />
    <glyph glyph-name="xi" unicode="&#x3be;" horiz-adv-x="450" 
d="M360 -218h-131q105 146 105 187q0 12 -9 19q-11 8 -52 12l-44 5q-76 7 -115 35q-57 43 -57 124q0 97 71 162q43 41 121 59q-78 30 -78 105q0 70 78 126h-82l24 113h398l-24 -113h-89q-68 0 -104 -16q-28 -13 -45.5 -37.5t-17.5 -51.5q0 -75 129 -75h62l-24 -113h-64
q-108 0 -152 -29q-62 -41 -62 -108q0 -42 29 -58q18 -10 72 -17l67 -7q55 -6 78 -26q25 -22 25 -58q0 -71 -109 -238z" />
    <glyph glyph-name="omicron" unicode="&#x3bf;" horiz-adv-x="611" 
d="M411 549q107 0 166.5 -59.5t59.5 -168.5q0 -68 -28.5 -139t-74.5 -117q-88 -88 -220 -88q-106 0 -167.5 58.5t-61.5 159.5q0 74 28 145.5t76 121.5q85 87 222 87zM398 436q-70 0 -120 -68.5t-50 -163.5q0 -54 25.5 -84t71.5 -30q80 0 129 84q41 69 41 145q0 56 -25 86.5
t-72 30.5z" />
    <glyph glyph-name="pi" unicode="&#x3c0;" horiz-adv-x="712" 
d="M781 540l-24 -112h-70l-91 -428h-140l91 428h-200l-91 -428h-140l91 428h-77l24 112h627z" />
    <glyph glyph-name="rho" unicode="&#x3c1;" horiz-adv-x="605" 
d="M12 -218l98 463q19 87 41 135.5t61 87.5q84 82 202 82q105 0 165.5 -61t60.5 -167q0 -139 -83 -242t-196 -103q-82 0 -127 53q-8 9 -22 35l-60 -283h-140zM407 436q-73 0 -116 -75q-44 -77 -44 -164q0 -47 26.5 -77t67.5 -30q64 0 110.5 69t46.5 163q0 114 -91 114z" />
    <glyph glyph-name="uni03C2" unicode="&#x3c2;" horiz-adv-x="532" 
d="M596 332h-140q1 4 1 10q0 44 -23 69t-64 25q-61 0 -105.5 -57t-44.5 -134q0 -51 26 -83.5t86 -54.5l51 -19q67 -25 86 -44q25 -24 25 -59q0 -34 -17.5 -73t-74.5 -130h-131q16 23 53 80q32 51 32 76q0 19 -10.5 28.5t-45.5 22.5l-51 19q-83 30 -126.5 88.5t-43.5 139.5
q0 60 24 121.5t65 105.5q80 87 204 87q65 0 115.5 -24t77.5 -67q30 -49 31 -127z" />
    <glyph glyph-name="sigma" unicode="&#x3c3;" horiz-adv-x="664" 
d="M509 540h229l-24 -112h-115q53 -57 53 -144q0 -60 -26 -120.5t-69 -102.5q-87 -84 -217 -84q-106 0 -168.5 59.5t-62.5 160.5q0 73 28 144.5t76 121.5q84 87 216 87q35 0 80 -10zM422 436q-70 0 -120 -68.5t-50 -163.5q0 -53 25.5 -83.5t71.5 -30.5q79 0 129 84
q40 70 40 145q0 56 -25 86.5t-71 30.5z" />
    <glyph glyph-name="tau" unicode="&#x3c4;" horiz-adv-x="409" 
d="M135 0l91 428h-120l24 112h373l-24 -112h-113l-91 -428h-140z" />
    <glyph glyph-name="upsilon" unicode="&#x3c5;" horiz-adv-x="591" 
d="M309 540l-68 -322q-9 -45 -9 -61q0 -30 23 -48.5t60 -18.5q49 0 84 30q30 27 44 98l69 322h140l-70 -328q-27 -128 -78 -173q-67 -62 -201 -62q-130 0 -185 67q-30 35 -30 80q0 37 14 101l67 315h140z" />
    <glyph glyph-name="phi" unicode="&#x3c6;" horiz-adv-x="704" 
d="M301 87l98 458q33 4 65 4q136 0 205.5 -53t69.5 -157q0 -80 -32.5 -153.5t-88.5 -121.5q-80 -69 -207 -77l-44 -205h-131l44 205q-116 8 -166 67q-45 49 -45 131q0 128 72 222.5t191 123.5l-18 -87q-49 -32 -80 -97t-31 -136q0 -75 44 -106q18 -14 54 -18zM508 444
l-76 -357q78 8 126 76q49 70 49 158q0 75 -44 106q-20 13 -55 17z" />
    <glyph glyph-name="chi" unicode="&#x3c7;" horiz-adv-x="578" 
d="M347 295l165 245h152l-266 -363l122 -395h-148l-68 273l-184 -273h-155l288 391l-112 367h146z" />
    <glyph glyph-name="psi" unicode="&#x3c8;" horiz-adv-x="773" 
d="M274 -218l43 204q-59 5 -95.5 20t-67.5 46q-46 46 -46 109q0 34 10 87l62 292h140l-60 -285q-10 -47 -10 -75q0 -43 21.5 -64t68.5 -23l95 447h133l-95 -447q62 1 97 39.5t52 122.5l60 285h140l-62 -292q-19 -95 -43.5 -138.5t-77.5 -78.5q-74 -45 -189 -45l-43 -204
h-133z" />
    <glyph glyph-name="omega" unicode="&#x3c9;" horiz-adv-x="834" 
d="M627 540h144q53 -91 53 -204q0 -153 -75 -262q-67 -98 -170 -98q-72 0 -113 52q-15 21 -30 57q-54 -110 -153 -110q-75 0 -122 54.5t-47 140.5q0 91 43 189.5t118 180.5h159q-185 -188 -185 -373q0 -35 15.5 -55.5t40.5 -20.5q46 0 72 54q12 25 26 89l37 170h126
l-34 -156q-14 -70 -14 -96q0 -28 13 -44t36 -16q26 0 49 20t39 56q34 79 34 165q0 110 -62 207z" />
    <glyph glyph-name="iotadieresis" unicode="&#x3ca;" horiz-adv-x="278" 
d="M324 540l-115 -540h-140l115 540h140zM259 743l-26 -122h-110l26 122h110zM445 743l-26 -122h-110l26 122h110z" />
    <glyph glyph-name="upsilondieresis" unicode="&#x3cb;" horiz-adv-x="591" 
d="M309 540l-68 -322q-9 -45 -9 -61q0 -30 23 -48.5t60 -18.5q49 0 84 30q30 27 44 98l69 322h140l-70 -328q-27 -128 -78 -173q-67 -62 -201 -62q-130 0 -185 67q-30 35 -30 80q0 37 14 101l67 315h140zM416 743l-26 -122h-110l26 122h110zM602 743l-26 -122h-110l26 122
h110z" />
    <glyph glyph-name="omicrontonos" unicode="&#x3cc;" horiz-adv-x="611" 
d="M411 549q107 0 166.5 -59.5t59.5 -168.5q0 -68 -28.5 -139t-74.5 -117q-88 -88 -220 -88q-106 0 -167.5 58.5t-61.5 159.5q0 74 28 145.5t76 121.5q85 87 222 87zM398 436q-70 0 -120 -68.5t-50 -163.5q0 -54 25.5 -84t71.5 -30q80 0 129 84q41 69 41 145q0 56 -25 86.5
t-72 30.5zM514 789l-21 -100l-54 -99h-39l-9 99l21 100h102z" />
    <glyph glyph-name="upsilontonos" unicode="&#x3cd;" horiz-adv-x="591" 
d="M309 540l-68 -322q-9 -45 -9 -61q0 -30 23 -48.5t60 -18.5q49 0 84 30q30 27 44 98l69 322h140l-70 -328q-27 -128 -78 -173q-67 -62 -201 -62q-130 0 -185 67q-30 35 -30 80q0 37 14 101l67 315h140zM514 789l-21 -100l-53 -99h-40l-9 99l21 100h102z" />
    <glyph glyph-name="omegatonos" unicode="&#x3ce;" horiz-adv-x="834" 
d="M627 540h144q53 -91 53 -204q0 -153 -75 -262q-67 -98 -170 -98q-72 0 -113 52q-15 21 -30 57q-54 -110 -153 -110q-75 0 -122 54.5t-47 140.5q0 91 43 189.5t118 180.5h159q-185 -188 -185 -373q0 -35 15.5 -55.5t40.5 -20.5q46 0 72 54q12 25 26 89l37 170h126
l-34 -156q-14 -70 -14 -96q0 -28 13 -44t36 -16q26 0 49 20t39 56q34 79 34 165q0 110 -62 207zM636 789l-22 -100l-53 -99h-39l-10 99l22 100h102z" />
    <glyph glyph-name="theta1" unicode="&#x3d1;" horiz-adv-x="591" 
d="M74 302h159q-10 -63 -10 -106q0 -106 83 -106q77 0 118 84q26 52 50 165q-134 14 -213 73.5t-79 147.5q0 79 58 128.5t150 49.5q117 0 184 -79q55 -64 55 -184q0 -26 -1 -44q24 1 42 5l-21 -96l-16 -1l-20 -1q-27 -140 -99 -243q-81 -118 -212 -118q-122 0 -176 99
q-32 58 -32 120v13h-40zM492 433q7 41 7 68q0 59 -29.5 93t-80.5 34q-38 0 -60.5 -20t-22.5 -54q0 -98 186 -121z" />
    <glyph glyph-name="phi1" unicode="&#x3d5;" horiz-adv-x="757" 
d="M267 -218l43 205q-78 12 -121 40q-91 58 -91 177q0 83 37.5 158.5t100.5 119.5q40 28 83.5 40.5t108.5 16.5l26 124h131l-26 -124q70 -10 116 -38q45 -28 70.5 -76.5t25.5 -105.5q0 -84 -39 -159.5t-104 -119.5q-39 -26 -80.5 -37.5t-106.5 -15.5l-43 -205h-131zM332 87
l75 353q-67 -6 -113 -57q-63 -71 -63 -176q0 -65 38 -98q21 -17 63 -22zM538 440l-75 -353q72 8 118 65q57 72 57 168q0 70 -42 101q-19 15 -58 19z" />
    <glyph glyph-name="omega1" unicode="&#x3d6;" horiz-adv-x="834" 
d="M231 435h-69l22 105h288q151 0 226 -54q92 -67 92 -196q0 -117 -79 -209t-180 -92q-71 0 -113 56q-67 -56 -138 -56q-70 0 -114 49t-44 128q0 107 56 201q21 35 53 68zM426 435h-29q-54 -34 -87 -78q-56 -79 -56 -182q0 -72 47 -72q28 0 50 28t34 88l23 109h140l-23 -109
q-8 -37 -8 -59q0 -26 11.5 -42t30.5 -16q34 0 61 43q44 68 44 147q0 77 -55 110t-183 33z" />
    <glyph glyph-name="uni0400" unicode="&#x400;" horiz-adv-x="667" 
d="M296 314l-40 -189h395l-27 -125h-545l155 729h528l-27 -125h-378l-35 -165h349l-26 -125h-349zM415 936h119l45 -150h-63z" />
    <glyph glyph-name="afii10023" unicode="&#x401;" horiz-adv-x="667" 
d="M290 314l-40 -189h395l-27 -125h-545l155 729h527l-27 -125h-377l-35 -165h349l-26 -125h-349zM490 920l-26 -120h-110l26 120h110zM676 920l-26 -120h-110l26 120h110z" />
    <glyph glyph-name="afii10051" unicode="&#x402;" horiz-adv-x="886" 
d="M255 0l128 604h-180l27 125h549l-26 -125h-220l-38 -181q51 40 90 54t97 14q71 0 111 -20q32 -15 52 -50t20 -75q0 -22 -5 -41l-31 -149q-16 -71 -67 -113.5t-121 -42.5h-128l26 125h72q26 -1 46 14t27 40l21 103q4 13 4 25q0 55 -91 55q-76 0 -119 -37q-10 -8 -32 -33
l-62 -292h-150z" />
    <glyph glyph-name="afii10052" unicode="&#x403;" horiz-adv-x="614" 
d="M79 0l155 729h462l-26 -125h-313l-128 -604h-150zM407 787l93 122h133l-115 -122h-111z" />
    <glyph glyph-name="afii10053" unicode="&#x404;" horiz-adv-x="719" 
d="M555 314h-302q-3 -30 -3 -53q0 -71 38.5 -113.5t103.5 -42.5q136 0 220 162l140 -48q-72 -125 -163.5 -183.5t-214.5 -58.5q-124 0 -199.5 78t-75.5 205q0 84 30.5 174t81.5 156q117 151 302 151q108 0 177.5 -49t95.5 -142l-139 -62q-31 126 -146 126q-94 0 -160 -75
q-31 -34 -60 -100h300z" />
    <glyph glyph-name="afii10054" unicode="&#x405;" horiz-adv-x="667" 
d="M714 507h-146q3 15 3 26q0 40 -34 63t-92 23q-66 0 -107 -30.5t-41 -79.5q0 -28 26.5 -43.5t94.5 -29.5l110 -22q153 -30 153 -162q0 -51 -22 -102t-59 -88q-85 -85 -256 -85q-123 0 -195.5 52t-72.5 141q0 19 4 48h146q-2 -20 -2 -27q0 -43 37 -67.5t101 -24.5
q77 0 123.5 32.5t46.5 85.5q0 34 -27 54t-90 33l-97 19q-88 18 -129 54.5t-41 97.5q0 58 24.5 110.5t67.5 86.5q85 69 221 69q119 0 193 -49q65 -43 65 -130q0 -21 -5 -55z" />
    <glyph glyph-name="afii10055" unicode="&#x406;" horiz-adv-x="278" 
d="M369 729l-155 -729h-150l155 729h150z" />
    <glyph glyph-name="afii10056" unicode="&#x407;" horiz-adv-x="278" 
d="M368 729l-155 -729h-150l155 729h150zM296 920l-26 -120h-110l25 120h111zM482 920l-26 -120h-110l25 120h111z" />
    <glyph glyph-name="afii10057" unicode="&#x408;" 
d="M495 729h150l-116 -542q-23 -109 -85 -155q-74 -55 -183 -55q-92 0 -144 44q-55 49 -55 116q0 26 7 57l16 76h150l-16 -76q-5 -23 -5 -39q0 -50 65 -50q82 0 102 89z" />
    <glyph glyph-name="afii10058" unicode="&#x409;" horiz-adv-x="1094" 
d="M16 0l27 125h53q34 -2 43 35l121 569h531l-59 -277h147q96 0 150 -50t54 -139q0 -61 -27 -116.5t-75 -93.5q-37 -29 -81 -41t-114 -12h-300l129 604h-232l-97 -455q-11 -59 -67.5 -104.5t-118.5 -44.5h-84zM663 125h159q45 0 77 38t32 91q0 33 -17 55q-15 18 -55 18h-153
z" />
    <glyph glyph-name="afii10059" unicode="&#x40a;" horiz-adv-x="1042" 
d="M276 331l-70 -331h-150l155 729h150l-58 -273h275l58 273h150l-59 -277h130q96 0 150 -50t54 -139q0 -61 -27 -116.5t-75 -93.5q-37 -29 -81 -41t-114 -12h-283l70 331h-275zM657 125h144q44 0 76 38t32 91q0 33 -17 55q-15 18 -55 18h-137z" />
    <glyph glyph-name="afii10060" unicode="&#x40b;" horiz-adv-x="854" 
d="M204 0l129 604h-173l27 125h533l-27 -125h-210l-39 -181q51 39 89 53.5t89 14.5q65 0 105 -21q29 -14 49.5 -48.5t20.5 -69.5q0 -20 -6 -47l-65 -305h-150l60 282q4 15 4 27q0 53 -82 53q-46 0 -77.5 -15.5t-64.5 -54.5l-62 -292h-150z" />
    <glyph glyph-name="afii10061" unicode="&#x40c;" horiz-adv-x="622" 
d="M60 0l155 729h149l-58 -273h92l149 273h160l-187 -337l75 -392h-150l-64 331h-102l-70 -331h-149zM404 794l90 113h135l-113 -113h-112z" />
    <glyph glyph-name="uni040D" unicode="&#x40d;" horiz-adv-x="719" 
d="M65 0l155 729h150l-96 -451l366 360l19 91h150l-155 -729h-150l95 447l-365 -358l-19 -89h-150zM391 936h120l44 -150h-63z" />
    <glyph glyph-name="afii10062" unicode="&#x40e;" horiz-adv-x="677" 
d="M79 0l27 125h115q24 1 34 6.5t24 26.5l32 49l-122 522h149l76 -369l233 369h161l-419 -636q-31 -49 -69 -70t-97 -23h-144zM366 931h92q-1 -4 -1 -8q-2 -30 15.5 -49t47.5 -19q66 0 97 76h91q-11 -42 -24 -64.5t-39 -45.5q-57 -51 -143 -51q-71 0 -104 32q-37 35 -37 81
q0 16 5 48z" />
    <glyph glyph-name="afii10145" unicode="&#x40f;" horiz-adv-x="719" 
d="M77 0l155 729h150l-128 -604h265l129 604h150l-155 -729h-208l-33 -159h-150l33 159h-208z" />
    <glyph glyph-name="afii10017" unicode="&#x410;" horiz-adv-x="722" 
d="M539 147h-273l-80 -147h-163l414 729h175l88 -729h-144zM525 272l-34 285l-157 -285h191z" />
    <glyph glyph-name="afii10018" unicode="&#x411;" horiz-adv-x="708" 
d="M69 0l155 729h529l-27 -125h-379l-35 -165h202q88 0 144.5 -55t56.5 -141q0 -59 -29.5 -113t-79.5 -87q-64 -43 -186 -43h-351zM246 125h214q41 0 72 35.5t31 82.5q0 32 -17 51.5t-46 19.5h-214z" />
    <glyph glyph-name="afii10019" unicode="&#x412;" horiz-adv-x="722" 
d="M79 0l155 729h329q89 0 141.5 -45t52.5 -121q0 -121 -132 -176q51 -36 72.5 -69.5t21.5 -77.5q0 -50 -22.5 -98.5t-60.5 -79.5q-42 -34 -92.5 -48t-135.5 -14h-329zM357 604l-35 -165h157q62 0 90 21q42 29 42 81q0 63 -90 63h-164zM296 314l-40 -189h182q58 0 94 33
t36 87q0 69 -94 69h-178z" />
    <glyph glyph-name="afii10020" unicode="&#x413;" horiz-adv-x="614" 
d="M86 0l155 729h455l-27 -125h-305l-128 -604h-150z" />
    <glyph glyph-name="afii10021" unicode="&#x414;" horiz-adv-x="722" 
d="M-27 -136l55 261h25q65 1 119 46t66 109l96 449h461l-128 -604h66l-55 -261h-150l29 136h-405l-29 -136h-150zM517 125l101 479h-161l-70 -330q-9 -43 -40 -83t-75 -66h245z" />
    <glyph glyph-name="afii10022" unicode="&#x415;" horiz-adv-x="667" 
d="M290 314l-40 -189h395l-27 -125h-545l155 729h527l-27 -125h-377l-35 -165h349l-26 -125h-349z" />
    <glyph glyph-name="afii10024" unicode="&#x416;" horiz-adv-x="927" 
d="M389 0l71 331h-99l-204 -331h-167l242 392l-44 337h144l33 -273h121l58 273h149l-58 -273h101l149 273h159l-186 -337l75 -392h-150l-64 331h-110l-71 -331h-149z" />
    <glyph glyph-name="afii10025" unicode="&#x417;" horiz-adv-x="643" 
d="M118 242h150q-7 -39 -7 -57q0 -37 23 -58.5t63 -21.5q55 0 91.5 39t36.5 97q0 33 -24 53t-63 20h-55l27 125h45q50 0 84.5 32.5t34.5 78.5q0 28 -21.5 45.5t-56.5 17.5q-42 0 -71.5 -24t-38.5 -66l-5 -25h-150l5 25q24 111 90 163q69 55 180 55q99 0 159.5 -47t60.5 -124
q0 -71 -46 -123q-26 -32 -84 -58q81 -54 81 -146q0 -114 -83 -190t-208 -76q-98 0 -164 53.5t-66 132.5q0 21 6 51z" />
    <glyph glyph-name="afii10026" unicode="&#x418;" horiz-adv-x="719" 
d="M65 0l155 729h150l-96 -451l366 360l19 91h150l-155 -729h-150l95 447l-365 -358l-19 -89h-150z" />
    <glyph glyph-name="afii10027" unicode="&#x419;" horiz-adv-x="719" 
d="M65 0l155 729h150l-96 -451l366 360l19 91h150l-155 -729h-150l95 447l-365 -358l-19 -89h-150zM385 907h89q0 -30 6 -41q14 -33 56 -33q64 0 93 74h89q-11 -41 -23.5 -63t-37.5 -44q-57 -50 -138 -50q-68 0 -103 30q-36 34 -36 81q0 16 5 46z" />
    <glyph glyph-name="afii10028" unicode="&#x41a;" horiz-adv-x="615" 
d="M56 0l155 729h149l-58 -273h91l149 273h159l-186 -337l75 -392h-150l-64 331h-101l-70 -331h-149z" />
    <glyph glyph-name="afii10029" unicode="&#x41b;" horiz-adv-x="687" 
d="M-3 0l27 125h53q34 0 43 35l121 569h531l-155 -729h-150l129 604h-232l-97 -455q-11 -59 -67.5 -104.5t-118.5 -44.5h-84z" />
    <glyph glyph-name="afii10030" unicode="&#x41c;" horiz-adv-x="833" 
d="M332 568l-121 -568h-150l155 729h224l9 -580l251 580h226l-155 -729h-150l121 568l-250 -568h-150z" />
    <glyph glyph-name="afii10031" unicode="&#x41d;" horiz-adv-x="722" 
d="M286 331l-70 -331h-150l155 729h150l-58 -273h289l58 273h150l-155 -729h-150l70 331h-289z" />
    <glyph glyph-name="afii10032" unicode="&#x41e;" horiz-adv-x="778" 
d="M533 741q134 0 211.5 -81.5t77.5 -223.5q0 -84 -30 -167t-83 -149q-118 -143 -311 -143q-133 0 -211.5 82.5t-78.5 222.5q0 83 30.5 166.5t83.5 146.5q124 146 311 146zM519 613q-112 0 -186 -103q-73 -101 -73 -231q0 -82 39.5 -128t109.5 -46q114 0 189 104
q72 101 72 230q0 82 -40 128t-111 46z" />
    <glyph glyph-name="afii10033" unicode="&#x41f;" horiz-adv-x="719" 
d="M72 0l155 729h576l-155 -729h-150l129 606h-276l-129 -606h-150z" />
    <glyph glyph-name="afii10034" unicode="&#x420;" horiz-adv-x="667" 
d="M274 260l-55 -260h-150l155 729h322q37 0 75 -12.5t61 -32.5q25 -21 40 -56.5t15 -74.5q0 -62 -22.5 -120t-60.5 -96q-76 -77 -193 -77h-187zM301 385h140q82 0 117 52q27 38 27 92q0 75 -98 75h-140z" />
    <glyph glyph-name="afii10035" unicode="&#x421;" horiz-adv-x="722" 
d="M782 482h-150q2 24 2 31q0 45 -34 72.5t-90 27.5q-117 0 -187 -112q-67 -104 -67 -241q0 -75 36.5 -116t103.5 -41q70 0 119 38t71 108h150q-16 -95 -92 -171q-101 -101 -260 -101q-127 0 -198 69q-82 77 -82 211q0 94 32.5 187t88.5 160q114 137 291 137
q119 0 194 -61.5t75 -159.5q0 -10 -3 -38z" />
    <glyph glyph-name="afii10036" unicode="&#x422;" horiz-adv-x="611" 
d="M513 604l-128 -604h-150l128 604h-221l27 125h584l-27 -125h-213z" />
    <glyph glyph-name="afii10037" unicode="&#x423;" horiz-adv-x="677" 
d="M79 0l27 125h115q24 1 34 6.5t24 26.5l32 49l-122 522h149l76 -369l233 369h161l-419 -636q-31 -49 -69 -70t-97 -23h-144z" />
    <glyph glyph-name="afii10038" unicode="&#x424;" horiz-adv-x="781" 
d="M299 0l21 101h-60q-74 0 -119 61.5t-45 161.5q0 125 74 214.5t178 89.5h79l21 101h151l-21 -101h66q76 0 123 -61.5t47 -160.5q0 -61 -23.5 -124t-61.5 -106q-67 -75 -172 -75h-86l-21 -101h-151zM399 503h-51q-44 0 -75.5 -50t-31.5 -122q0 -48 14 -76.5t37 -28.5h51z
M555 503l-56 -277h58q46 0 78.5 51t32.5 122q0 48 -15 76t-40 28h-58z" />
    <glyph glyph-name="afii10039" unicode="&#x425;" horiz-adv-x="667" 
d="M493 370l151 -370h-167l-84 253l-193 -253h-178l305 370l-150 359h174l76 -240l188 240h184z" />
    <glyph glyph-name="afii10040" unicode="&#x426;" horiz-adv-x="729" 
d="M68 0l155 729h150l-128 -604h265l129 604h150l-129 -604h67l-60 -281h-150l33 156h-482z" />
    <glyph glyph-name="afii10041" unicode="&#x427;" horiz-adv-x="708" 
d="M495 0l53 249q-94 -29 -183 -29q-113 0 -177.5 44.5t-64.5 121.5q0 27 6 54l61 289h150l-61 -289q-2 -14 -2 -20q0 -34 28.5 -53t80.5 -19q71 0 190 29l74 352h150l-155 -729h-150z" />
    <glyph glyph-name="afii10042" unicode="&#x428;" horiz-adv-x="979" 
d="M67 0l155 729h150l-128 -604h197l128 604h150l-128 -604h198l128 604h150l-155 -729h-845z" />
    <glyph glyph-name="afii10043" unicode="&#x429;" horiz-adv-x="989" 
d="M63 0l155 729h150l-128 -604h192l129 604h150l-129 -604h193l128 604h150l-128 -604h67l-61 -286h-150l34 161h-752z" />
    <glyph glyph-name="afii10044" unicode="&#x42a;" horiz-adv-x="854" 
d="M163 729h396l-59 -277h146q96 0 150 -50t54 -139q0 -61 -27 -116.5t-75 -93.5q-37 -29 -81 -41t-114 -12h-299l128 604h-246zM430 125h160q44 0 76 38t32 91q0 33 -17 55q-15 18 -55 18h-153z" />
    <glyph glyph-name="afii10045" unicode="&#x42b;" horiz-adv-x="1000" 
d="M117 0l155 729h150l-59 -277h146q96 0 150 -50t54 -139q0 -61 -27 -116.5t-75 -93.5q-37 -29 -81 -41t-113 -12h-300zM294 125h159q45 0 76.5 38t31.5 91q0 33 -17 55q-15 18 -54 18h-153zM732 0l155 729h150l-155 -729h-150z" />
    <glyph glyph-name="afii10046" unicode="&#x42c;" horiz-adv-x="708" 
d="M94 0l155 729h150l-59 -277h146q96 0 150 -50t54 -139q0 -61 -27 -116.5t-75 -93.5q-37 -29 -81 -41t-113 -12h-300zM271 125h159q45 0 76.5 38t31.5 91q0 33 -17 55q-15 18 -54 18h-153z" />
    <glyph glyph-name="afii10047" unicode="&#x42d;" horiz-adv-x="719" 
d="M600 314h-302l26 125h297q0 62 -16 99q-15 36 -48.5 55.5t-78.5 19.5q-117 0 -200 -124l-126 68q55 72 109 112q102 72 227 72q132 0 208.5 -82t76.5 -224q0 -82 -29.5 -165t-81.5 -148q-118 -145 -297 -145q-122 0 -198 64t-95 182l148 44q16 -162 151 -162q79 0 138 54
t91 155z" />
    <glyph glyph-name="afii10048" unicode="&#x42e;" horiz-adv-x="1042" 
d="M374 331h-103l-70 -331h-150l155 729h150l-58 -273h107q50 132 155.5 208.5t236.5 76.5q138 0 215 -86q74 -83 74 -218q0 -175 -113 -317q-56 -68 -136 -105.5t-171 -37.5q-136 0 -215 82t-79 224q0 8 2 48zM783 613q-112 0 -186 -103q-73 -101 -73 -231q0 -82 39.5 -128
t109.5 -46q114 0 189 104q72 101 72 230q0 82 -40 128t-111 46z" />
    <glyph glyph-name="afii10049" unicode="&#x42f;" horiz-adv-x="729" 
d="M498 0l59 275h-190q-33 -1 -48.5 -13.5t-22.5 -44.5l-26 -133q-18 -70 -63 -84h-152q24 7 37.5 27.5t27.5 67.5l25 121q11 51 40.5 81t71.5 31q-35 20 -55.5 58.5t-20.5 85.5q0 49 23.5 100t63.5 86q80 71 188 71h347l-155 -729h-150zM583 400l44 204h-174q-49 0 -85 -38
t-36 -90q0 -36 20.5 -56t56.5 -20h174z" />
    <glyph glyph-name="afii10065" unicode="&#x430;" 
d="M527 17l-3 -17h-153q-8 15 -8 27q0 5 3 27q-78 -77 -172 -77q-65 0 -102 34.5t-37 95.5q0 85 61 143q49 46 136 59l57 10q62 10 79.5 15t30.5 18q18 16 18 43q0 41 -71 41q-50 0 -76 -17t-36 -57h-136q12 74 70 129q64 58 194 58q106 0 157 -39q41 -32 41 -85
q0 -23 -5 -42l-63 -300q-3 -13 -3 -23q0 -19 18 -43zM400 217l8 38q-19 -9 -62 -17l-51 -9q-50 -10 -71 -30q-26 -26 -26 -59q0 -50 64 -50q53 0 89 33t49 94z" />
    <glyph glyph-name="afii10066" unicode="&#x431;" horiz-adv-x="619" 
d="M560 847h141q-29 -118 -74.5 -165.5t-150.5 -69.5q-95 -20 -136.5 -45t-60.5 -74q66 56 150 56q94 0 153.5 -58.5t59.5 -150.5q0 -67 -22.5 -136t-59.5 -116q-88 -111 -240 -111q-104 0 -167 56t-63 149q0 91 39 207.5t93 186.5q45 59 97.5 92.5t141.5 60.5
q43 11 64 36.5t35 81.5zM403 436q-70 0 -120 -68.5t-50 -163.5q0 -53 26 -83.5t70 -30.5q82 0 131 86q39 66 39 145q0 53 -26 84t-70 31z" />
    <glyph glyph-name="afii10067" unicode="&#x432;" horiz-adv-x="604" 
d="M82 0l115 540h304q53 0 87.5 -33.5t34.5 -84.5q0 -62 -44 -103q-22 -21 -68 -38q81 -29 81 -103q0 -35 -16.5 -71t-42.5 -59q-56 -48 -140 -48h-311zM246 113h132q28 0 49.5 21.5t21.5 50.5q0 22 -12.5 35t-33.5 13h-132zM290 322h132q24 0 41.5 20t17.5 48q0 40 -36 40
h-132z" />
    <glyph glyph-name="afii10068" unicode="&#x433;" horiz-adv-x="534" 
d="M68 0l115 540h393l-24 -113h-253l-91 -427h-140z" />
    <glyph glyph-name="afii10069" unicode="&#x434;" horiz-adv-x="618" 
d="M-9 -112l48 225h56q36 0 65 35.5t40 94.5l64 297h396l-91 -427h51l-48 -225h-140l24 112h-301l-24 -112h-140zM429 113l67 314h-116l-36 -165q-23 -100 -93 -149h178z" />
    <glyph glyph-name="afii10070" unicode="&#x435;" 
d="M580 226h-363q-6 -33 -6 -53q0 -41 22.5 -63.5t64.5 -22.5q74 0 113 65h144q-39 -85 -108 -130.5t-160 -45.5q-98 0 -155.5 54t-57.5 148q0 72 23.5 143.5t63.5 121.5q84 106 218 106q97 0 156.5 -55.5t59.5 -146.5q0 -54 -15 -121zM239 319h215q2 30 2 34q0 40 -23 63
t-62 23q-93 0 -132 -120z" />
    <glyph glyph-name="afii10072" unicode="&#x436;" horiz-adv-x="736" 
d="M438 0h-140l50 239h-63l-140 -239h-149l176 301l-39 239h137l29 -188h73l40 188h140l-40 -188h62l110 188h148l-142 -239l48 -301h-138l-30 239h-82z" />
    <glyph glyph-name="afii10073" unicode="&#x437;" horiz-adv-x="510" 
d="M79 179h140q-4 -25 -4 -35q0 -26 16.5 -41.5t43.5 -15.5q35 0 60.5 25.5t25.5 60.5q0 29 -20 41q-14 10 -57 10h-28l20 95h28q44 0 69 20t25 55q0 20 -15 32.5t-40 12.5q-66 0 -78 -70h-140q8 46 18 69t30 44q66 67 183 67q83 0 132.5 -35.5t49.5 -95.5q0 -45 -27 -82.5
t-74 -57.5q66 -41 66 -107q0 -81 -70.5 -137.5t-172.5 -56.5q-83 0 -134.5 40.5t-51.5 107.5q0 19 5 54z" />
    <glyph glyph-name="afii10074" unicode="&#x438;" horiz-adv-x="611" 
d="M68 0l115 540h140l-69 -325l249 254l15 71h140l-115 -540h-140l69 325l-249 -254l-15 -71h-140z" />
    <glyph glyph-name="afii10075" unicode="&#x439;" horiz-adv-x="611" 
d="M68 0l115 540h140l-69 -325l249 254l15 71h140l-115 -540h-140l69 325l-249 -254l-15 -71h-140zM320 726h66l-1 -16q0 -40 62 -40q36 0 55 12.5t29 43.5h68q-8 -31 -16 -47.5t-26 -32.5q-52 -50 -125 -50q-50 0 -83.5 26t-33.5 64q0 13 5 40z" />
    <glyph glyph-name="afii10076" unicode="&#x43a;" horiz-adv-x="507" 
d="M167 540h140l-40 -188h61l110 188h148l-142 -239l48 -301h-139l-39 239h-71l-51 -239h-140z" />
    <glyph glyph-name="afii10077" unicode="&#x43b;" horiz-adv-x="622" 
d="M30 0l24 113h49q18 1 32.5 15t18.5 33l80 379h425l-115 -540h-140l91 427h-145l-62 -294q-11 -54 -59 -93t-103 -40h-96z" />
    <glyph glyph-name="afii10078" unicode="&#x43c;" horiz-adv-x="740" 
d="M659 0h-134l88 412l-190 -412h-111l-12 412l-88 -412h-131l115 540h188l12 -405l189 405h189z" />
    <glyph glyph-name="afii10079" unicode="&#x43d;" horiz-adv-x="604" 
d="M64 0l115 540h140l-43 -200h196l42 200h140l-115 -540h-140l49 227h-196l-48 -227h-140z" />
    <glyph glyph-name="afii10080" unicode="&#x43e;" horiz-adv-x="611" 
d="M409 549q107 0 167.5 -57.5t60.5 -158.5q0 -66 -24 -134.5t-64 -117.5q-85 -104 -236 -104q-107 0 -167.5 57.5t-60.5 158.5q0 67 24 135t64 117q87 104 236 104zM399 436q-70 0 -120.5 -68.5t-50.5 -163.5q0 -52 25.5 -83t69.5 -31q82 0 132 86q39 67 39 145
q0 53 -26 84t-69 31z" />
    <glyph glyph-name="afii10081" unicode="&#x43f;" horiz-adv-x="611" 
d="M76 0l115 540h458l-115 -540h-140l91 427h-178l-91 -427h-140z" />
    <glyph glyph-name="afii10082" unicode="&#x440;" horiz-adv-x="611" 
d="M315 540l-17 -80q67 89 169 89q76 0 124.5 -57.5t48.5 -149.5q0 -148 -77 -253q-81 -112 -210 -112q-107 0 -139 87l-60 -282h-140l161 758h140zM409 437q-64 0 -112 -70t-48 -165q0 -51 24 -82t64 -31q65 0 112.5 70t47.5 164q0 52 -23.5 83t-64.5 31z" />
    <glyph glyph-name="afii10083" unicode="&#x441;" 
d="M596 338h-140q4 17 4 30q0 31 -21.5 49.5t-57.5 18.5q-73 0 -116 -81q-41 -76 -41 -163q0 -101 85 -101q38 0 64.5 22.5t49.5 73.5h143q-25 -83 -83 -140q-70 -69 -186 -69q-99 0 -157.5 53.5t-58.5 142.5q0 77 30 158.5t76 130.5q81 86 206 86q107 0 163 -63
q42 -47 42 -109q0 -9 -2 -39z" />
    <glyph glyph-name="afii10084" unicode="&#x442;" horiz-adv-x="889" 
d="M375 0l91 427h-244l24 113h604l-24 -113h-220l-91 -427h-140z" />
    <glyph glyph-name="afii10085" unicode="&#x443;" 
d="M513 540h149l-358 -638q-30 -55 -58.5 -79.5t-71.5 -33.5t-125 -7l24 113h18h12q45 -1 71 18t41 65l-82 562h149l36 -393z" />
    <glyph glyph-name="afii10086" unicode="&#x444;" horiz-adv-x="885" 
d="M327 -218l46 218q-51 0 -91 14q-76 25 -118 78.5t-42 124.5q0 96 55 176.5t148 119.5q67 27 163 27l41 196h140l-41 -196q110 1 180.5 -60t70.5 -156q0 -91 -54 -171.5t-143 -120.5q-72 -32 -169 -32l-46 -218h-140zM397 113l67 314q-45 -4 -72.5 -13.5t-53.5 -31.5
q-77 -61 -77 -147q0 -72 55 -102q27 -16 81 -20zM604 427l-67 -314q77 5 121 39q38 28 60 70.5t22 86.5q0 69 -54 99q-30 16 -82 19z" />
    <glyph glyph-name="afii10087" unicode="&#x445;" 
d="M415 272l122 -272h-163l-55 168l-128 -168h-173l238 272l-119 268h163l53 -163l122 163h173z" />
    <glyph glyph-name="afii10088" unicode="&#x446;" horiz-adv-x="646" 
d="M87 0l115 540h140l-91 -427h173l91 427h140l-91 -427h56l-58 -268h-140l34 155h-369z" />
    <glyph glyph-name="afii10089" unicode="&#x447;" horiz-adv-x="583" 
d="M385 0l38 180q-75 -26 -157 -26q-73 0 -118.5 31t-45.5 81q0 18 7 53l47 221h140l-47 -221q-1 -3 -1 -9q0 -20 19.5 -31.5t51.5 -11.5q61 0 130 24l53 249h140l-115 -540h-142z" />
    <glyph glyph-name="afii10090" unicode="&#x448;" horiz-adv-x="889" 
d="M62 0l115 540h140l-91 -427h173l91 427h140l-91 -427h173l90 427h140l-114 -540h-766z" />
    <glyph glyph-name="afii10091" unicode="&#x449;" horiz-adv-x="935" 
d="M75 0l115 540h140l-91 -427h173l91 427h140l-91 -427h173l90 427h140l-90 -427h56l-59 -270h-140l35 157h-682z" />
    <glyph glyph-name="afii10092" unicode="&#x44a;" horiz-adv-x="707" 
d="M129 540h319l-43 -200h143q63 0 107 -41.5t44 -100.5q0 -43 -21 -84.5t-57 -70.5q-56 -43 -145 -43h-283l91 427h-179zM357 113h136q26 0 45 21.5t19 50.5q0 19 -11 30.5t-29 11.5h-136z" />
    <glyph glyph-name="afii10093" unicode="&#x44b;" horiz-adv-x="854" 
d="M101 0l115 540h140l-43 -200h143q64 0 108 -41.5t44 -100.5q0 -43 -21 -84.5t-57 -70.5q-56 -43 -146 -43h-283zM265 113h136q26 0 45.5 21.5t19.5 50.5q0 19 -11 30.5t-30 11.5h-136zM612 0l115 540h140l-115 -540h-140z" />
    <glyph glyph-name="afii10094" unicode="&#x44c;" horiz-adv-x="594" 
d="M82 0l115 540h140l-43 -200h143q64 0 108 -41.5t44 -100.5q0 -43 -21 -84.5t-57 -70.5q-56 -43 -146 -43h-283zM246 113h136q26 0 45.5 21.5t19.5 50.5q0 19 -11 30.5t-30 11.5h-136z" />
    <glyph glyph-name="afii10095" unicode="&#x44d;" horiz-adv-x="552" 
d="M218 226l21 95h211l1 11q2 43 -26.5 73.5t-69.5 30.5q-73 0 -126 -75l-115 62q94 126 250 126q106 0 168 -58.5t62 -159.5q0 -68 -25 -138t-68 -119q-39 -46 -100 -71.5t-131 -25.5q-61 0 -110.5 20.5t-77.5 58.5q-27 38 -39 105l141 35q3 -38 14 -58q24 -48 82 -48
q50 0 90.5 35.5t62.5 100.5h-215z" />
    <glyph glyph-name="afii10096" unicode="&#x44e;" horiz-adv-x="865" 
d="M337 227h-92l-48 -227h-140l115 540h140l-43 -200h94q40 102 115.5 155.5t180.5 53.5q106 0 167 -57.5t61 -158.5q0 -67 -24 -135t-64 -117q-87 -104 -234 -104q-109 0 -169.5 57.5t-60.5 160.5q0 18 2 32zM649 436q-70 0 -120.5 -68.5t-50.5 -163.5q0 -52 25.5 -83
t69.5 -31q70 0 120.5 68.5t50.5 162.5q0 53 -26 84t-69 31z" />
    <glyph glyph-name="afii10097" unicode="&#x44f;" horiz-adv-x="589" 
d="M376 0l43 201h-92q-38 0 -56 -14.5t-25 -51.5l-8 -34q-13 -67 -42 -101h-144q36 41 55 112l7 33q9 41 25 62t49 36q-62 40 -62 114q0 79 58.5 131t147.5 52h299l-115 -540h-140zM443 314l24 113h-141q-26 0 -44 -20.5t-18 -50.5q0 -42 38 -42h141z" />
    <glyph glyph-name="uni0450" unicode="&#x450;" 
d="M297 757h119l45 -150h-63zM573 226h-363q-3 -37 -3 -45q0 -41 26 -66.5t69 -25.5q36 0 67 17.5t45 45.5h138q-41 -84 -113.5 -129.5t-163.5 -45.5q-94 0 -152.5 57.5t-58.5 150.5q0 75 31 154.5t79 129.5q35 37 90.5 58.5t114.5 21.5q112 0 167 -69q45 -58 45 -130
q0 -55 -18 -124zM228 319h220q0 37 -2 47q-4 32 -27 51.5t-58 19.5q-101 0 -133 -118z" />
    <glyph glyph-name="afii10071" unicode="&#x451;" 
d="M580 226h-363q-6 -33 -6 -53q0 -41 22.5 -63.5t64.5 -22.5q74 0 113 65h144q-39 -85 -108 -130.5t-160 -45.5q-98 0 -155.5 54t-57.5 148q0 72 23.5 143.5t63.5 121.5q84 106 218 106q97 0 156.5 -55.5t59.5 -146.5q0 -54 -15 -121zM239 319h215q2 30 2 34q0 40 -23 63
t-62 23q-93 0 -132 -120zM395 741l-26 -120h-110l25 120h111zM581 741l-26 -120h-110l25 120h111z" />
    <glyph glyph-name="afii10099" unicode="&#x452;" horiz-adv-x="611" 
d="M142 0l112 530h-106l20 93h106l24 113h140l-24 -113h134l-20 -93h-134l-43 -204q77 46 135 46q53 0 85.5 -30t32.5 -79q0 -23 -4 -42l-39 -181q-35 -171 -210 -180h-124l19 93h96q28 1 49 19.5t26 46.5l43 202q1 6 1 17q0 14 -11.5 23t-30.5 9q-40 0 -90 -49l-47 -221
h-140z" />
    <glyph glyph-name="afii10100" unicode="&#x453;" horiz-adv-x="469" 
d="M63 0l115 540h365l-24 -113h-225l-91 -427h-140zM310 598l123 158h134l-168 -158h-89z" />
    <glyph glyph-name="afii10101" unicode="&#x454;" horiz-adv-x="563" 
d="M433 226h-215q-1 -11 -1 -29q0 -47 26.5 -77t67.5 -30q92 0 144 106l132 -37q-29 -68 -83 -111q-86 -71 -201 -71q-107 0 -168 59q-28 28 -45 71t-17 88q0 70 26 140.5t69 117.5q90 96 226 96q112 0 175 -63q25 -26 42 -67l-132 -58q-21 75 -92 75q-46 0 -85.5 -31.5
t-59.5 -83.5h211z" />
    <glyph glyph-name="afii10102" unicode="&#x455;" 
d="M585 366h-140q5 11 5 20q0 53 -87 53q-41 0 -67 -16.5t-26 -42.5q0 -34 42 -46l165 -52q34 -10 55.5 -38t21.5 -63q0 -32 -16.5 -68.5t-44.5 -63.5q-74 -72 -219 -72q-104 0 -158.5 39t-54.5 114q0 14 2 27h140q-2 -9 -2 -18q0 -52 92 -52q55 0 86 16.5t31 45.5
q0 28 -37 42l-156 51q-90 29 -90 105q0 39 21 79.5t55 67.5q69 55 173 55q96 0 153.5 -41t57.5 -110q0 -8 -2 -32z" />
    <glyph glyph-name="afii10103" unicode="&#x456;" horiz-adv-x="278" 
d="M324 540l-115 -540h-140l115 540h140zM364 729l-27 -125h-140l27 125h140z" />
    <glyph glyph-name="afii10104" unicode="&#x457;" horiz-adv-x="278" 
d="M322 540l-115 -540h-140l115 540h140zM256 741l-26 -120h-110l25 120h111zM442 741l-26 -120h-110l25 120h111z" />
    <glyph glyph-name="afii10105" unicode="&#x458;" horiz-adv-x="278" 
d="M326 540l-135 -637q-15 -71 -60 -101q-32 -20 -104 -20h-53h-15l24 113h16q30 0 42 8.5t17 34.5l128 602h140zM366 729l-26 -125h-140l26 125h140z" />
    <glyph glyph-name="afii10106" unicode="&#x459;" horiz-adv-x="969" 
d="M33 0l24 113h49q18 1 32.5 15t18.5 33l80 379h451l-43 -200h164q63 0 107 -41.5t44 -100.5q0 -43 -21 -84.5t-57 -70.5q-56 -43 -145 -43h-304l90 427h-170l-62 -294q-11 -54 -59 -93t-103 -40h-96zM597 113h157q26 0 45 21.5t19 50.5q0 19 -11 30.5t-29 11.5h-157z" />
    <glyph glyph-name="afii10107" unicode="&#x45a;" horiz-adv-x="906" 
d="M70 0l115 540h140l-43 -200h196l42 200h140l-42 -200h143q63 0 107 -41.5t44 -100.5q0 -43 -21 -84.5t-57 -70.5q-56 -43 -146 -43h-283l49 227h-196l-48 -227h-140zM569 113h136q26 0 45.5 21.5t19.5 50.5q0 19 -11 30.5t-29 11.5h-136z" />
    <glyph glyph-name="afii10108" unicode="&#x45b;" horiz-adv-x="611" 
d="M95 0l115 542h-103l20 93h103l21 101h140l-21 -101h137l-20 -93h-137l-24 -115q99 68 177 68q58 0 99.5 -38t41.5 -91q0 -22 -4 -39l-70 -327h-140l63 295q2 12 2 20q0 31 -17.5 48.5t-48.5 17.5q-71 0 -131 -86l-63 -295h-140z" />
    <glyph glyph-name="afii10109" unicode="&#x45c;" horiz-adv-x="507" 
d="M172 540h140l-40 -188h60l110 188h147l-141 -239l47 -301h-138l-39 239h-70l-51 -239h-140zM339 598l126 158h131l-165 -158h-92z" />
    <glyph glyph-name="uni045D" unicode="&#x45d;" horiz-adv-x="611" 
d="M68 0l115 540h140l-69 -325l249 254l15 71h140l-115 -540h-140l69 325l-249 -254l-15 -71h-140zM312 757h119l45 -150h-64z" />
    <glyph glyph-name="afii10110" unicode="&#x45e;" 
d="M513 540h149l-358 -638q-30 -55 -58.5 -79.5t-71.5 -33.5t-125 -7l24 113h18h12q45 -1 71 18t41 65l-82 562h149l36 -393zM302 739h68q-1 -6 -1 -17q0 -40 63 -40q38 0 56.5 12t29.5 45h69q-14 -54 -43 -83q-52 -50 -126 -50q-52 0 -86 26t-34 66q0 20 4 41z" />
    <glyph glyph-name="afii10193" unicode="&#x45f;" horiz-adv-x="611" 
d="M79 0l115 540h140l-91 -427h173l91 427h140l-115 -540h-157l-32 -157h-140l32 157h-156z" />
    <glyph glyph-name="uni0462" unicode="&#x462;" horiz-adv-x="822" 
d="M237 561h-137l17 80h137l19 88h150l-19 -88h154l-17 -80h-154l-23 -109h196q96 0 150 -50t54 -139q0 -61 -27 -116.5t-75 -93.5q-37 -29 -81 -41t-114 -12h-349zM294 125h209q45 0 77 38t32 91q0 33 -17 55q-15 18 -55 18h-203z" />
    <glyph glyph-name="uni0463" unicode="&#x463;" horiz-adv-x="847" 
d="M279 479h-132l20 93h131l22 100h140l-22 -100h170l-20 -93h-169l-29 -139h234q72 0 112.5 -34.5t40.5 -95.5q0 -85 -67 -147.5t-158 -62.5h-375zM341 113h228q26 0 45.5 21.5t19.5 50.5q0 20 -10.5 31t-29.5 11h-228z" />
    <glyph glyph-name="uni0472" unicode="&#x472;" horiz-adv-x="778" 
d="M538 741q137 0 213.5 -75t76.5 -211q0 -89 -32.5 -176t-90.5 -155q-64 -76 -138.5 -111.5t-171.5 -35.5q-134 0 -211.5 76.5t-77.5 207.5q0 86 33.5 175t91.5 158q122 147 307 147zM477 400l33 -26q22 -17 58 -17q42 0 106 18q5 37 5 61q0 83 -42 130t-118 47
q-81 0 -144 -52t-97 -147q61 17 105 17q53 0 94 -31zM656 305q-78 -26 -128 -26q-25 0 -39 6.5t-53 36.5q-40 31 -95 31q-37 0 -81 -11q-5 -37 -5 -60q0 -83 44 -130t122 -47q80 0 141.5 52.5t93.5 147.5z" />
    <glyph glyph-name="uni0473" unicode="&#x473;" horiz-adv-x="611" 
d="M388 549q107 0 167.5 -57.5t60.5 -158.5q0 -66 -24 -134.5t-64 -117.5q-85 -104 -236 -104q-107 0 -167.5 57.5t-60.5 158.5q0 67 24 135t64 117q87 104 236 104zM224 302q62 22 86 22q28 0 62 -30q24 -24 42 -24q14 0 57 16q2 30 2 36q0 52 -25.5 83t-69.5 31
q-50 0 -90.5 -35t-63.5 -99zM453 216q-60 -21 -78 -21q-21 0 -47 26q-28 27 -55 27q-19 0 -65 -15q-1 -12 -1 -28q0 -53 25.5 -84t69.5 -31q49 0 88.5 33.5t62.5 92.5z" />
    <glyph glyph-name="uni0474" unicode="&#x474;" horiz-adv-x="784" 
d="M886 726l-23 -104q-23 14 -44 14q-47 0 -70 -44l-311 -592h-150l-107 729h149l62 -559l230 451q33 65 73.5 93t99.5 28q47 0 91 -16z" />
    <glyph glyph-name="uni0475" unicode="&#x475;" horiz-adv-x="614" 
d="M666 535l-24 -115q-38 15 -48 15q-14 0 -22.5 -8t-21.5 -33l-205 -394h-123l-85 540h141l46 -348l108 229q57 125 165 125q30 0 69 -11z" />
    <glyph glyph-name="afii10050" unicode="&#x490;" horiz-adv-x="575" 
d="M565 729l93 122h133l-114 -122l-27 -125h-249l-128 -604h-150l155 729h287z" />
    <glyph glyph-name="afii10098" unicode="&#x491;" horiz-adv-x="467" 
d="M453 540l123 158h133l-167 -158l-24 -113h-218l-91 -427h-140l115 540h269z" />
    <glyph glyph-name="uni0492" unicode="&#x492;" horiz-adv-x="479" 
d="M318 439h189l-27 -125h-188l-67 -314h-150l67 314h-48l26 125h48l62 290h399l-27 -125h-249z" />
    <glyph glyph-name="uni0493" unicode="&#x493;" horiz-adv-x="400" 
d="M272 321h160l-20 -95h-160l-48 -226h-140l48 226h-44l20 95h44l47 219h330l-24 -113h-190z" />
    <glyph glyph-name="uni0496" unicode="&#x496;" horiz-adv-x="1126" 
d="M462 0l71 331h-107l-205 -331h-166l242 392l-44 337h144l33 -273h129l58 273h150l-58 -273h118l149 273h159l-186 -337l51 -267h101l-60 -282h-150l33 157h-51l-63 331h-127l-71 -331h-150z" />
    <glyph glyph-name="uni0497" unicode="&#x497;" horiz-adv-x="896" 
d="M495 0h-140l51 239h-73l-140 -239h-149l176 301l-39 239h137l29 -188h83l40 188h140l-40 -188h74l110 188h147l-141 -239l29 -188h89l-63 -274h-140l39 161h-45l-39 239h-84z" />
    <glyph glyph-name="uni049A" unicode="&#x49a;" horiz-adv-x="728" 
d="M67 0l155 729h150l-58 -273h94l149 273h160l-186 -337l51 -267h100l-61 -281h-150l35 156h-51l-63 331h-105l-70 -331h-150z" />
    <glyph glyph-name="uni049B" unicode="&#x49b;" horiz-adv-x="605" 
d="M179 540h140l-40 -188h61l110 188h148l-142 -239l30 -188h89l-59 -273h-140l35 160h-45l-39 239h-72l-51 -239h-140z" />
    <glyph glyph-name="uni049C" unicode="&#x49c;" horiz-adv-x="678" 
d="M374 456l30 140h79l-30 -140h18l149 273h160l-187 -337l75 -392h-150l-63 331h-28l-30 -140h-79l29 140h-60l-70 -331h-150l155 729h150l-58 -273h60z" />
    <glyph glyph-name="uni049D" unicode="&#x49d;" horiz-adv-x="559" 
d="M324 352l25 120h60l-25 -120l110 188h143l-142 -239l48 -301h-143l-40 239l-26 -120h-60l26 120h-46l-51 -239h-140l115 540h140l-40 -188h46z" />
    <glyph glyph-name="uni04A2" unicode="&#x4a2;" horiz-adv-x="722" 
d="M287 331l-70 -331h-150l155 729h150l-58 -273h289l58 273h150l-128 -604h66l-61 -282h-150l34 157h-66l70 331h-289z" />
    <glyph glyph-name="uni04A3" unicode="&#x4a3;" horiz-adv-x="603" 
d="M64 0l115 540h140l-43 -200h196l42 200h140l-91 -427h56l-60 -272h-140l36 159h-56l49 227h-196l-48 -227h-140z" />
    <glyph glyph-name="uni04AE" unicode="&#x4ae;" horiz-adv-x="667" 
d="M477 270l-58 -270h-150l58 270l-145 459h167l82 -315l207 315h167z" />
    <glyph glyph-name="uni04AF" unicode="&#x4af;" horiz-adv-x="543" 
d="M511 540h144l-307 -540l-46 -218h-140l46 218l-82 540h154l36 -393z" />
    <glyph glyph-name="uni04B0" unicode="&#x4b0;" horiz-adv-x="667" 
d="M470 239h131l-27 -125h-131l-24 -114h-150l24 114h-131l27 125h131l6 32l-144 458h167l81 -321l207 321h168l-329 -458z" />
    <glyph glyph-name="uni04B1" unicode="&#x4b1;" horiz-adv-x="543" 
d="M348 0h107l-20 -95h-107l-26 -123h-140l26 123h-107l20 95h107l-82 540h154l36 -393l195 393h144z" />
    <glyph glyph-name="uni04B2" unicode="&#x4b2;" horiz-adv-x="717" 
d="M493 370l100 -245h128l-62 -282h-150l35 157h-67l-84 253l-193 -253h-178l305 370l-150 359h174l76 -240l188 240h184z" />
    <glyph glyph-name="uni04B3" unicode="&#x4b3;" horiz-adv-x="589" 
d="M409 272l71 -159h122l-57 -272h-140l33 159h-70l-55 168l-128 -168h-173l238 272l-119 268h163l53 -163l122 163h173z" />
    <glyph glyph-name="uni04B6" unicode="&#x4b6;" horiz-adv-x="717" 
d="M500 0l53 249q-115 -29 -187 -29q-113 0 -175.5 44t-62.5 123q0 26 6 53l61 289h150l-61 -289q-2 -12 -2 -20q0 -34 29 -53t81 -19q75 0 189 29l74 352h150l-128 -604h66l-62 -281h-150l35 156h-66z" />
    <glyph glyph-name="uni04B7" unicode="&#x4b7;" horiz-adv-x="601" 
d="M394 0l39 180q-95 -26 -173 -26q-71 0 -109.5 28t-38.5 79q0 30 7 58l47 221h140l-47 -221q-1 -2 -1 -9q0 -20 19.5 -31.5t52.5 -11.5q60 0 129 24l53 249h140l-91 -427h56l-58 -272h-140l34 159h-59z" />
    <glyph glyph-name="uni04B8" unicode="&#x4b8;" horiz-adv-x="717" 
d="M433 224l-30 -139h-79l28 135q-73 1 -125 23q-47 20 -73 57.5t-26 85.5q0 27 6 54l61 289h150l-61 -289q-2 -12 -2 -20q0 -65 98 -72l32 152h79l-31 -147q60 7 121 24l74 352h150l-155 -729h-150l53 249q-83 -21 -120 -25z" />
    <glyph glyph-name="uni04B9" unicode="&#x4b9;" horiz-adv-x="601" 
d="M358 163l-26 -124h-66l25 116q-8 -1 -21 -1q-158 0 -158 107q0 30 7 58l47 221h140l-47 -221q-1 -2 -1 -9q0 -18 11 -26.5t46 -16.5l26 125h66l-26 -121q41 7 78 20l53 249h140l-115 -540h-143l39 180q-34 -10 -75 -17z" />
    <glyph glyph-name="uni04BA" unicode="&#x4ba;" horiz-adv-x="717" 
d="M372 729l-53 -249q94 29 183 29q113 0 177.5 -44.5t64.5 -121.5q0 -24 -5 -54l-62 -289h-150l61 289q2 7 2 20q0 34 -28.5 53t-80.5 19q-71 0 -189 -29l-75 -352h-150l155 729h150z" />
    <glyph glyph-name="uni04BB" unicode="&#x4bb;" horiz-adv-x="585" 
d="M82 0l156 736h140l-65 -309q98 69 177 69q58 0 99.5 -38.5t41.5 -91.5q0 -20 -4 -39l-70 -327h-140l63 295q2 14 2 21q0 31 -17.5 48.5t-48.5 17.5q-71 0 -131 -87l-63 -295h-140z" />
    <glyph glyph-name="uni04C0" unicode="&#x4c0;" horiz-adv-x="278" 
d="M369 729l-155 -729h-150l155 729h150z" />
    <glyph glyph-name="uni04CF" unicode="&#x4cf;" horiz-adv-x="278" 
d="M369 729l-155 -729h-150l155 729h150z" />
    <glyph glyph-name="uni04D8" unicode="&#x4d8;" horiz-adv-x="778" 
d="M132 423h543q1 7 1 19q0 83 -39.5 127t-113.5 44q-64 0 -113.5 -29.5t-94.5 -95.5l-117 64q136 189 355 189q130 0 202 -75t72 -209q0 -88 -33.5 -175.5t-93.5 -158.5q-126 -146 -315 -146q-158 0 -228 101q-53 74 -53 183q0 79 28 162zM649 298h-393v-20
q0 -81 41.5 -127t114.5 -46q78 0 139 50t98 143z" />
    <glyph glyph-name="afii10846" unicode="&#x4d9;" horiz-adv-x="575" 
d="M99 300h363q7 31 7 53q0 41 -22.5 63t-64.5 22q-76 0 -113 -64h-144q39 85 108 130t159 45q99 0 156.5 -54t57.5 -148q0 -72 -23.5 -143t-63.5 -121q-84 -106 -218 -106q-97 0 -157 55.5t-60 146.5q0 54 15 121zM441 207h-215q-3 -23 -3 -34q0 -40 23 -63t62 -23
q93 0 133 120z" />
    <glyph glyph-name="uni04E2" unicode="&#x4e2;" horiz-adv-x="722" 
d="M539 147h-273l-80 -147h-163l414 729h175l88 -729h-144zM525 272l-34 285l-157 -285h191zM400 907h89q0 -27 6 -41q14 -33 57 -33q63 0 93 74h88q-11 -41 -23.5 -63t-36.5 -44q-57 -50 -138 -50q-70 0 -103 30q-36 34 -36 81q0 22 4 46z" />
    <glyph glyph-name="uni04E3" unicode="&#x4e3;" 
d="M527 17l-3 -17h-153q-8 15 -8 27q0 5 3 27q-78 -77 -172 -77q-65 0 -102 34.5t-37 95.5q0 85 61 143q49 46 136 59l57 10q62 10 79.5 15t30.5 18q18 16 18 43q0 41 -71 41q-50 0 -76 -17t-36 -57h-136q12 74 70 129q64 58 194 58q106 0 157 -39q41 -32 41 -85
q0 -23 -5 -42l-63 -300q-3 -13 -3 -23q0 -19 18 -43zM400 217l8 38q-19 -9 -62 -17l-51 -9q-50 -10 -71 -30q-26 -26 -26 -59q0 -50 64 -50q53 0 89 33t49 94zM292 726h67q-1 -6 -1 -16q0 -40 62 -40q36 0 54.5 12.5t29.5 43.5h67q-11 -52 -41 -80q-53 -50 -125 -50
q-50 0 -83.5 26t-33.5 64q0 19 4 40z" />
    <glyph glyph-name="uni04E8" unicode="&#x4e8;" horiz-adv-x="778" 
d="M533 741q134 0 211.5 -81.5t77.5 -223.5q0 -84 -30 -167t-83 -149q-118 -143 -311 -143q-133 0 -211.5 82.5t-78.5 222.5q0 83 30.5 166.5t83.5 146.5q124 146 311 146zM260 298v-21q0 -81 40.5 -126.5t111.5 -45.5q76 0 138 51.5t95 141.5h-385zM286 423h384
q2 190 -151 190q-76 0 -137.5 -50t-95.5 -140z" />
    <glyph glyph-name="uni04E9" unicode="&#x4e9;" horiz-adv-x="611" 
d="M409 549q107 0 167.5 -57.5t60.5 -158.5q0 -66 -24 -134.5t-64 -117.5q-85 -104 -236 -104q-107 0 -167.5 57.5t-60.5 158.5q0 67 24 135t64 117q87 104 236 104zM228 216v-14q0 -51 26 -81.5t69 -30.5q100 0 151 126h-246zM248 310h246q0 47 -13 76q-11 23 -33 36.5
t-49 13.5q-100 0 -151 -126z" />
    <glyph glyph-name="uni04EE" unicode="&#x4ee;" horiz-adv-x="655" 
d="M284 314l-40 -189h395l-27 -125h-545l155 729h527l-27 -125h-377l-35 -165h349l-26 -125h-349zM360 907h89q0 -30 5 -41q16 -33 57 -33q64 0 93 74h89q-11 -41 -23.5 -63t-37.5 -44q-57 -50 -138 -50q-68 0 -103 30q-36 34 -36 81q0 16 5 46z" />
    <glyph glyph-name="uni04EF" unicode="&#x4ef;" horiz-adv-x="575" 
d="M590 226h-363q-6 -33 -6 -53q0 -41 22.5 -63.5t64.5 -22.5q74 0 113 65h144q-39 -85 -108 -130.5t-160 -45.5q-98 0 -155.5 54t-57.5 148q0 72 23.5 143.5t63.5 121.5q84 106 218 106q97 0 156.5 -55.5t59.5 -146.5q0 -54 -15 -121zM249 319h215q2 30 2 34q0 40 -23 63
t-62 23q-93 0 -132 -120zM302 726h67q-1 -6 -1 -16q0 -40 62 -40q36 0 54.5 12.5t29.5 43.5h67q-11 -52 -41 -80q-53 -50 -125 -50q-50 0 -83.5 26t-33.5 64q0 19 4 40z" />
    <glyph glyph-name="Wgrave" unicode="&#x1e80;" horiz-adv-x="944" 
d="M730 0h-135l-4 555l-237 -555h-135l-51 729h159l-3 -546l224 546h158l-3 -548l225 548h159zM525 933h119l45 -150h-63z" />
    <glyph glyph-name="wgrave" unicode="&#x1e81;" horiz-adv-x="778" 
d="M617 0h-145l-4 380l-166 -380h-145l-37 540h145l5 -378l159 378h144v-378l163 378h145zM405 757h119l45 -150h-64z" />
    <glyph glyph-name="Wacute" unicode="&#x1e82;" horiz-adv-x="944" 
d="M730 0h-135l-4 555l-237 -555h-135l-51 729h159l-3 -546l224 546h158l-3 -548l225 548h159zM821 936l-158 -150h-70l101 150h127z" />
    <glyph glyph-name="wacute" unicode="&#x1e83;" horiz-adv-x="778" 
d="M617 0h-145l-4 380l-166 -380h-145l-37 540h145l5 -378l159 378h144v-378l163 378h145zM655 757l-158 -150h-70l102 150h126z" />
    <glyph glyph-name="Wdieresis" unicode="&#x1e84;" horiz-adv-x="944" 
d="M730 0h-135l-4 555l-237 -555h-135l-51 729h159l-3 -546l224 546h158l-3 -548l225 548h159zM623 920l-26 -120h-110l26 120h110zM809 920l-26 -120h-110l26 120h110z" />
    <glyph glyph-name="wdieresis" unicode="&#x1e85;" horiz-adv-x="778" 
d="M617 0h-145l-4 380l-166 -380h-145l-37 540h145l5 -378l159 378h144v-378l163 378h145zM498 741l-25 -120h-111l26 120h110zM684 741l-25 -120h-111l26 120h110z" />
    <glyph glyph-name="Ygrave" unicode="&#x1ef2;" horiz-adv-x="667" 
d="M477 270l-58 -270h-150l58 270l-145 459h167l82 -315l207 315h167zM401 936h119l45 -150h-63z" />
    <glyph glyph-name="ygrave" unicode="&#x1ef3;" 
d="M509 540h144l-358 -638q-27 -48 -48 -69.5t-53 -34.5q-48 -17 -113 -17q-27 0 -44 4l23 109q11 -2 28 -2q52 0 82.5 25t30.5 68l-1 15l-76 540h154l36 -393zM307 757h119l45 -150h-64z" />
    <glyph glyph-name="uni2002" unicode="&#x2002;" horiz-adv-x="500" 
 />
    <glyph glyph-name="endash" unicode="&#x2013;" 
d="M624 311l-22 -104h-567l22 104h567z" />
    <glyph glyph-name="emdash" unicode="&#x2014;" horiz-adv-x="1000" 
d="M1070 311l-22 -104h-1011l22 104h1011z" />
    <glyph glyph-name="afii00208" unicode="&#x2015;" horiz-adv-x="1000" 
d="M1070 311l-22 -104h-1011l22 104h1011z" />
    <glyph glyph-name="underscoredbl" unicode="&#x2017;" horiz-adv-x="552" 
d="M518 -218l-15 -69h-600l15 69h600zM548 -76l-15 -69h-600l15 69h600z" />
    <glyph glyph-name="quoteleft" unicode="&#x2018;" horiz-adv-x="278" 
d="M302 469h-135l23 109q10 65 55 105.5t112 45.5l-10 -46q-86 -15 -99 -89h81z" />
    <glyph glyph-name="quoteright" unicode="&#x2019;" horiz-adv-x="278" 
d="M220 729h136l-23 -109q-9 -66 -53.5 -106t-114.5 -45l10 46q86 15 99 89h-81z" />
    <glyph glyph-name="quotesinglbase" unicode="&#x201a;" horiz-adv-x="278" 
d="M92 125h136l-23 -109q-9 -66 -53.5 -106t-114.5 -45l10 46q86 15 99 89h-81z" />
    <glyph glyph-name="quotereversed" unicode="&#x201b;" horiz-adv-x="278" 
d="M368 729l-26 -125h-81q-3 -21 -3 -29q0 -47 64 -60l-9 -46q-50 3 -81 30t-31 68q0 16 8 53l23 109h136z" />
    <glyph glyph-name="quotedblleft" unicode="&#x201c;" horiz-adv-x="500" 
d="M306 469h-135l23 109q10 65 55 105.5t112 45.5l-10 -46q-86 -15 -99 -89h81zM533 469h-135l23 109q10 65 55 105.5t112 45.5l-10 -46q-86 -15 -99 -89h81z" />
    <glyph glyph-name="quotedblright" unicode="&#x201d;" horiz-adv-x="500" 
d="M228 729h135l-23 -109q-10 -65 -55 -105.5t-112 -45.5l10 46q86 15 99 89h-81zM460 729h135l-23 -109q-10 -65 -55 -105.5t-112 -45.5l10 46q86 15 99 89h-81z" />
    <glyph glyph-name="quotedblbase" unicode="&#x201e;" horiz-adv-x="500" 
d="M92 125h135l-23 -109q-10 -65 -55 -105.5t-112 -45.5l10 46q86 15 99 89h-81zM327 125h135l-23 -109q-10 -65 -55 -105.5t-112 -45.5l10 46q86 15 99 89h-81z" />
    <glyph glyph-name="dagger" unicode="&#x2020;" 
d="M626 485l-25 -116h-179l-119 -563h-134l119 563h-179l25 116h179l48 224h133l-47 -224h179z" />
    <glyph glyph-name="daggerdbl" unicode="&#x2021;" 
d="M623 485l-25 -116h-178l-48 -223h179l-25 -116h-178l-48 -224h-134l48 224h-179l25 116h178l48 223h-179l25 116h178l48 224h134l-48 -224h179z" />
    <glyph glyph-name="bullet" unicode="&#x2022;" horiz-adv-x="350" 
d="M258 425q46 0 77.5 -30t31.5 -74q0 -57 -45.5 -101.5t-104.5 -44.5q-46 0 -76 29.5t-30 74.5q0 58 44.5 102t102.5 44z" />
    <glyph glyph-name="ellipsis" unicode="&#x2026;" horiz-adv-x="1000" 
d="M273 146l-31 -146h-150l31 146h150zM606 146l-31 -146h-150l31 146h150zM939 146l-31 -146h-150l31 146h150z" />
    <glyph glyph-name="perthousand" unicode="&#x2030;" horiz-adv-x="1000" 
d="M654 738h67l-583 -759h-66zM316 739q54 0 89 -33t35 -84q0 -70 -55.5 -124.5t-127.5 -54.5q-53 0 -88 33.5t-35 83.5q0 70 55.5 124.5t126.5 54.5zM299 661q-33 0 -59 -26t-26 -60q0 -23 17.5 -38.5t43.5 -15.5q34 0 59.5 25t25.5 59q0 24 -17.5 40t-43.5 16zM528 276
q54 0 89 -33t35 -84q0 -70 -55.5 -124.5t-127.5 -54.5q-52 0 -87 33.5t-35 83.5q0 70 55 124.5t126 54.5zM512 198q-34 0 -59.5 -26t-25.5 -60q0 -23 17 -38.5t43 -15.5q34 0 59.5 25t25.5 58q0 25 -17 41t-43 16zM897 276q54 0 89 -33t35 -84q0 -70 -55.5 -124.5
t-127.5 -54.5q-52 0 -87 33.5t-35 83.5q0 70 55 124.5t126 54.5zM881 198q-34 0 -59.5 -26t-25.5 -60q0 -23 17 -38.5t43 -15.5q34 0 59.5 25t25.5 58q0 25 -17 41t-43 16z" />
    <glyph glyph-name="minute" unicode="&#x2032;" horiz-adv-x="240" 
d="M231 673l-71 -256h-57l54 256h74z" />
    <glyph glyph-name="second" unicode="&#x2033;" horiz-adv-x="479" 
d="M255 673l-71 -256h-57l54 256h74zM388 673l-71 -256h-57l54 256h74z" />
    <glyph glyph-name="guilsinglleft" unicode="&#x2039;" horiz-adv-x="333" 
d="M128 218l24 114l199 149l-25 -117l-120 -89l82 -89l-24 -114z" />
    <glyph glyph-name="guilsinglright" unicode="&#x203a;" horiz-adv-x="333" 
d="M319 335l-24 -115l-199 -148l25 117l120 89l-82 89l24 114z" />
    <glyph glyph-name="exclamdbl" unicode="&#x203c;" horiz-adv-x="604" 
d="M386 726l-45 -210l-107 -309h-67l24 309l45 210h150zM262 146l-31 -146h-150l31 146h150zM677 726l-45 -210l-107 -309h-68l25 309l45 210h150zM553 146l-31 -146h-150l31 146h150z" />
    <glyph glyph-name="uni203E" unicode="&#x203e;" horiz-adv-x="333" 
d="M640 874l-15 -69h-600l15 69h600z" />
    <glyph glyph-name="fraction" unicode="&#x2044;" horiz-adv-x="278" 
d="M459 715h85l-581 -735h-85z" />
    <glyph glyph-name="zerosuperior" unicode="&#x2070;" horiz-adv-x="333" 
d="M311 718q58 0 91 -32.5t33 -89.5q0 -46 -14.5 -110.5t-33.5 -104.5q-53 -110 -165 -110q-57 0 -89.5 32.5t-32.5 89.5q0 46 14.5 110.5t33.5 104.5q25 53 67.5 81.5t95.5 28.5zM295 646q-26 0 -42.5 -18.5t-29.5 -62.5q-30 -101 -30 -169q0 -21 12.5 -34t33.5 -13
q27 0 43.5 18t29.5 61q30 103 30 170q0 22 -13 35t-34 13z" />
    <glyph glyph-name="foursuperior" unicode="&#x2074;" horiz-adv-x="333" 
d="M416 450l-16 -73h-46l-19 -93h-94l20 93h-177l16 72l217 260h108l-55 -259h46zM277 450l35 166l-140 -166h105z" />
    <glyph glyph-name="fivesuperior" unicode="&#x2075;" horiz-adv-x="333" 
d="M451 709l-17 -80h-184l-28 -76q39 21 76 21q52 0 82.5 -29.5t30.5 -80.5q0 -81 -57 -137t-139 -56q-58 0 -93 27.5t-35 72.5q0 8 3 29h92l-1 -16q0 -16 14.5 -25.5t39.5 -9.5q36 0 59.5 28.5t23.5 71.5q0 53 -54 53q-42 0 -62 -32h-85l91 239h243z" />
    <glyph glyph-name="sixsuperior" unicode="&#x2076;" horiz-adv-x="333" 
d="M442 608h-87q-4 21 -15 29.5t-33 8.5q-34 0 -53.5 -24.5t-34.5 -83.5q42 29 87 29q50 0 79 -27.5t29 -75.5q0 -79 -54 -136t-130 -57q-58 0 -92.5 32t-34.5 86q0 57 17.5 126t42.5 107q60 96 162 96q55 0 86 -25t31 -69v-16zM271 495q-33 0 -57 -28t-24 -66
q0 -23 14.5 -37.5t37.5 -14.5q33 0 56 28t23 68q0 23 -13.5 36.5t-36.5 13.5z" />
    <glyph glyph-name="sevensuperior" unicode="&#x2077;" horiz-adv-x="333" 
d="M475 709l-15 -69q-103 -98 -153.5 -174.5t-80.5 -181.5h-95q37 110 86 184.5t138 160.5h-215l17 80h318z" />
    <glyph glyph-name="eightsuperior" unicode="&#x2078;" horiz-adv-x="333" 
d="M363 516q49 -29 49 -79q0 -69 -54.5 -117.5t-133.5 -48.5q-62 0 -99.5 29.5t-37.5 79.5q0 89 95 136q-38 29 -38 65q0 56 49.5 96.5t118.5 40.5q56 0 91 -26t35 -68q0 -65 -75 -108zM295 646q-31 0 -51 -18t-20 -44q0 -19 14 -30.5t37 -11.5q32 0 54 18.5t22 45.5
q0 18 -15.5 29t-40.5 11zM264 479q-36 0 -60 -24t-24 -60q0 -20 16 -33t42 -13q36 0 58.5 23t22.5 59q0 22 -14.5 35t-40.5 13z" />
    <glyph glyph-name="ninesuperior" unicode="&#x2079;" horiz-adv-x="333" 
d="M95 389h90q-1 -4 -1 -9q0 -14 13 -22.5t34 -8.5q33 0 53 24t33 79q-40 -32 -86 -32q-50 0 -79.5 29t-29.5 78q0 81 53 136t131 55q58 0 92.5 -34t34.5 -92q0 -118 -62 -225q-56 -96 -164 -96q-51 0 -83 26.5t-32 68.5q0 6 3 23zM291 646q-32 0 -54 -29t-22 -72
q0 -23 12.5 -36.5t34.5 -13.5q35 0 59.5 28.5t24.5 69.5q0 25 -14.5 39t-40.5 14z" />
    <glyph glyph-name="nsuperior" unicode="&#x207f;" horiz-adv-x="396" 
d="M174 609h94l-9 -41l4 5q42 42 103 42q42 0 68.5 -22.5t26.5 -58.5q0 -18 -4 -33l-46 -217h-93l40 188q3 16 3 27q0 44 -43 44q-31 0 -52 -20t-29 -56l-39 -183h-93z" />
    <glyph glyph-name="franc" unicode="&#x20a3;" 
d="M373 428l9 42h131l-22 -106q34 55 77 85t86 30q9 0 17 -1l-30 -142q-24 4 -41 4q-55 0 -91.5 -32t-48.5 -91l-47 -217h-131l66 308h-115l-66 -308h-140l151 712h394l-25 -120h-254l-36 -164h116z" />
    <glyph glyph-name="lira" unicode="&#x20a4;" 
d="M443 316h-122q2 -14 2 -25v-5h110l-12 -55h-110q-24 -65 -139 -145q48 22 66.5 27.5t41.5 5.5q21 0 65 -9q42 -8 66 -8q50 0 114 30l18 -110q-87 -45 -155 -45q-35 0 -96 15t-95 15q-50 0 -115 -28l-33 101q68 40 100.5 74.5t39.5 76.5h-112l12 55h103l-3 21v4l-1 5h-89
l12 55h60l-3 7q-23 67 -23 99q0 92 79 165t200 73q205 0 205 -176q0 -22 -4 -55h-131q1 11 1 26q0 93 -93 93q-46 0 -80 -32t-34 -75q0 -14 12 -60q11 -39 15 -59l1 -6h139z" />
    <glyph glyph-name="peseta" unicode="&#x20a7;" horiz-adv-x="1104" 
d="M267 248l-53 -248h-140l151 712h208q90 0 138 -40q61 -48 61 -133q0 -55 -22.5 -111.5t-60.5 -98.5q-74 -81 -185 -81h-97zM292 365h63q78 0 114 51q26 38 26 92q0 40 -24 62t-68 22h-63zM761 86l-21 -98q-32 -11 -63 -11q-116 0 -116 86q0 18 5 41l28 129h-52l18 86h52
l25 119h131l-25 -119h66l-18 -86h-66l-20 -91q-6 -27 -6 -34q-1 -11 9.5 -18t27.5 -7q10 0 25 3zM1106 226h-99q4 7 4 13q0 21 -38 21q-42 0 -42 -25q0 -8 5 -12t23 -9l55 -17q78 -23 78 -78q0 -66 -46.5 -104t-127.5 -38q-62 0 -99.5 26t-37.5 69q0 10 2 21h101
q2 -33 51 -33q48 0 48 30q0 7 -6 10.5t-30 11.5l-44 15q-43 13 -62 32.5t-19 48.5q0 55 44 96q42 39 119 39q58 0 92 -24t34 -65q0 -10 -5 -28z" />
    <glyph glyph-name="Euro" unicode="&#x20ac;" 
d="M60 318h39q7 39 15 68h-64l39 68h48q56 128 145.5 199t196.5 71q53 0 88 -14t81 -54l-73 -129q-39 37 -68 52t-62 15q-98 0 -162 -140h251l-39 -68h-240q-9 -32 -16 -68h217l-38 -68h-181q11 -142 103 -142q30 0 60.5 10t96.5 42l-31 -149q-110 -34 -161 -34
q-58 0 -108.5 31t-73.5 80q-28 62 -29 162h-73z" />
    <glyph glyph-name="afii61248" unicode="&#x2105;" horiz-adv-x="885" 
d="M544 456l-31 -146h-150l31 146h150z" />
    <glyph glyph-name="Ifraktur" unicode="&#x2111;" horiz-adv-x="722" 
d="M480 234l-60 77q-28 37 -28 82q0 29 15.5 52.5t57.5 56.5q-64 18 -162 18q-148 0 -148 -65q0 -25 21 -38q13 -7 65 -25q20 -7 33.5 -23.5t13.5 -35.5q0 -35 -43 -81q-2 33 -14.5 50t-57.5 49q-53 40 -53 104q0 73 55.5 113.5t155.5 40.5q122 0 259 -47l-2 -14
q-62 -43 -84 -70t-22 -59q0 -26 10 -44.5t50 -61.5q66 -72 66 -134q0 -81 -67 -126q-38 -26 -86 -44.5t-75 -18.5q-22 0 -57 17l-67 33q-26 13 -50 13q-19 0 -57 -15l-10 8q37 49 57.5 66.5t39.5 17.5q20 0 53 -16l94 -45q48 -23 71 -23q27 0 46 28t19 68q0 41 -39 92z" />
    <glyph glyph-name="afii61289" unicode="&#x2113;" horiz-adv-x="516" 
d="M284 292q-43 -178 -43 -231q0 -28 26 -28q19 0 34.5 13t36.5 48q11 19 26 19q16 0 16 -13q0 -19 -24 -53q-49 -65 -113 -65q-42 0 -66 24t-24 67q0 37 17 148q-63 -50 -79 -50q-5 0 -10.5 5t-5.5 10q0 10 29 31q20 12 76 62q56 237 120.5 348.5t144.5 111.5q38 0 60 -23
t22 -63q0 -92 -83 -204q-46 -62 -160 -157zM296 347q107 92 152 189q32 69 32 120q0 20 -10 31.5t-26 11.5q-42 0 -74 -76.5t-74 -275.5z" />
    <glyph glyph-name="afii61352" unicode="&#x2116;" horiz-adv-x="1146" 
d="M434 0l-141 514l-108 -514h-125l154 729h123l139 -506l107 506h124l-154 -729h-119zM654 0l20 95h433l-20 -95h-433zM1011 741q83 0 134 -53.5t51 -140.5q0 -64 -20.5 -138t-50.5 -119q-81 -121 -210 -121q-83 0 -133.5 53.5t-50.5 141.5q0 62 20.5 136t49.5 119
q80 122 210 122zM979 628q-56 3 -99 -67t-43 -165q0 -53 21.5 -83.5t58.5 -30.5q58 0 99.5 68.5t41.5 162.5q0 110 -79 115z" />
    <glyph glyph-name="weierstrass" unicode="&#x2118;" horiz-adv-x="685" 
d="M313 402l11 -16q-70 -41 -101.5 -84.5t-31.5 -99.5q0 -34 12 -59q118 123 181 167t122 44q44 0 71 -31.5t27 -83.5q0 -86 -63 -158q-75 -88 -154 -88q-38 0 -62.5 22t-24.5 56q0 28 15.5 48.5t37.5 20.5q13 0 21 -8t8 -20q0 -14 -10.5 -24.5t-26.5 -11.5q-21 -2 -21 -21
q0 -17 18 -30.5t41 -13.5q25 0 51 17t45 46q25 37 41.5 88.5t16.5 92.5q0 33 -15.5 53.5t-40.5 20.5q-51 0 -135 -72q-79 -65 -134 -134q56 -116 56 -172q0 -50 -28 -85t-69 -35q-37 0 -61.5 27t-24.5 67q0 31 14 61.5t52 87.5q-23 60 -23 96q0 123 185 232zM160 54
q-38 -57 -47.5 -79.5t-9.5 -51.5q0 -32 18 -53t46 -21q22 0 36.5 15t14.5 38q0 46 -58 152z" />
    <glyph glyph-name="Rfraktur" unicode="&#x211c;" horiz-adv-x="778" 
d="M116 12l-17 5q17 49 38 71.5t52 22.5q25 0 57 -23q13 -8 20 -8t16 11t14 26q13 38 13 110v148v10v10q0 67 -26 104.5t-72 37.5q-39 0 -65.5 -27.5t-26.5 -67.5q0 -39 32 -65q8 -7 63 -35q45 -23 45 -55q0 -36 -45 -89l-11 3q3 15 3 24q0 36 -57 68q-44 25 -60.5 51
t-16.5 72q0 79 51 133.5t125 54.5q81 0 124 -67q63 66 144 66q63 0 105.5 -40.5t42.5 -100.5q0 -40 -32 -69t-102 -54q22 -14 34 -33.5t24 -62.5l29 -111q7 -28 16 -39.5t25 -11.5q6 0 22 6l13 -14q-63 -79 -115 -79q-28 0 -45 67l-42 168q-9 37 -13.5 47.5t-14.5 16.5
q-14 10 -45 10q-9 0 -16 -1v-57q0 -104 -44 -171q-53 -78 -113 -78q-20 0 -29.5 4t-44.5 27q-11 8 -26 8t-29 -23zM402 376v-37q74 18 109 36q49 26 49 80q0 38 -26.5 62t-67.5 24t-78 -27q9 -33 11.5 -55t2.5 -83z" />
    <glyph glyph-name="uni211E" unicode="&#x211e;" horiz-adv-x="759" 
d="M471 284l54 -84l52 80h95l-102 -144l90 -136h-95l-43 66l-44 -66h-91l92 132l-102 151h-134v-283h-85v667h276q99 0 152.5 -50.5t53.5 -144.5q0 -114 -93 -167q-33 -18 -76 -21zM243 358h178q62 0 96 31t34 86t-34.5 86t-95.5 31h-178v-234z" />
    <glyph glyph-name="trademark" unicode="&#x2122;" horiz-adv-x="1000" 
d="M445 649l-80 -376h-95l80 376h-137l17 80h365l-17 -80h-133zM816 273h-94l-10 349l-75 -349h-91l97 456h138l11 -351l158 351h137l-97 -456h-91l74 349z" />
    <glyph glyph-name="uni2126" unicode="&#x2126;" horiz-adv-x="768" 
d="M21 0l27 125h170q-41 32 -59 52q-48 54 -48 141q0 171 128.5 297t302.5 126q126 0 204.5 -72.5t78.5 -188.5q0 -68 -23 -135t-63 -115q-24 -30 -52 -52t-82 -53h170l-27 -125h-312l27 125q56 32 79.5 51t47.5 49q38 48 61.5 115.5t23.5 129.5q0 72 -43.5 115.5
t-115.5 43.5q-107 0 -181.5 -94.5t-74.5 -231.5q0 -78 38 -124q22 -24 62 -54l-27 -125h-312z" />
    <glyph glyph-name="estimated" unicode="&#x212e;" horiz-adv-x="600" 
d="M548 240h-373l-1 -94q14 -46 36 -66q37 -32 102 -32q55 0 95.5 24.5t60.5 69.5q2 6 4 10h64l-2 -7l-2 -5q-48 -156 -222 -156q-113 0 -177.5 72t-64.5 198q0 127 66 202.5t178 75.5q74 0 131 -36t83 -98q20 -51 22 -142v-9v-7zM455 295v81q-7 21 -21 37q-47 55 -123 55
q-50 0 -80 -20.5t-54 -71.5v-81h278z" />
    <glyph glyph-name="aleph" unicode="&#x2135;" horiz-adv-x="500" 
d="M299 292l67 158h-40q-42 0 -55 14q-22 19 -22 64q0 57 43 103v-16q0 -24 11.5 -33.5t40.5 -9.5h68q33 0 47 -16.5t14 -54.5q0 -41 -13 -86q-3 19 -11.5 27t-24.5 8h-22l-44 -106q-15 -40 -15 -64q0 -25 9.5 -45.5t37.5 -55.5l39 -49q33 -42 33 -71q0 -27 -15 -59
l-299 376q-23 -42 -23 -66q0 -41 46 -103q41 -55 52.5 -79t11.5 -54q0 -44 -22 -59t-88 -15h-82v61h18q35 0 35 28q0 11 -26 54q-29 51 -29 78q0 30 28 81l56 105l-70 87q-27 34 -27 60q0 30 15 63z" />
    <glyph glyph-name="oneeighth" unicode="&#x215b;" horiz-adv-x="834" 
d="M716 715h85l-581 -735h-85zM247 573h-106l13 61q116 0 152 75h63l-90 -425h-94zM789 232q50 -31 50 -80q0 -69 -52.5 -117.5t-127.5 -48.5q-59 0 -94 29t-35 78q0 92 97 139q-40 29 -40 65q0 56 47.5 96.5t112.5 40.5q52 0 85.5 -25.5t33.5 -66.5q0 -64 -77 -110z
M732 367q-30 0 -51 -19.5t-21 -47.5q0 -20 14 -32.5t37 -12.5q32 0 54.5 20t22.5 49q0 20 -15.5 31.5t-40.5 11.5zM699 198q-35 0 -59 -26.5t-24 -64.5q0 -21 16 -34.5t41 -13.5q35 0 57.5 25t22.5 64q0 23 -14.5 36.5t-39.5 13.5z" />
    <glyph glyph-name="threeeighths" unicode="&#x215c;" horiz-adv-x="834" 
d="M749 715h85l-581 -735h-85zM795 232q50 -31 50 -80q0 -69 -52.5 -117.5t-127.5 -48.5q-59 0 -94 29t-35 78q0 92 97 139q-39 28 -39 65q0 56 47 96.5t113 40.5q52 0 85 -25.5t33 -66.5q0 -64 -77 -110zM739 367q-31 0 -51.5 -19t-20.5 -48q0 -20 14 -32.5t37 -12.5
q32 0 54 20t22 49q0 19 -15 31t-40 12zM705 198q-35 0 -59 -26.5t-24 -64.5q0 -21 16 -34.5t41 -13.5q35 0 57.5 25t22.5 64q0 23 -14.5 36.5t-39.5 13.5zM242 471l13 63q53 1 73 19q24 21 24 53q0 18 -12.5 29t-32.5 11q-29 0 -44 -16.5t-24 -58.5h-87q15 77 56 112t116 35
q61 0 94.5 -24.5t33.5 -68.5q0 -69 -71 -113q43 -27 43 -73q0 -74 -51 -121t-133 -47q-62 0 -96.5 28t-34.5 79q0 15 4 36h91q-2 -8 -2 -18q0 -47 56 -47q30 0 51.5 21.5t21.5 52.5q0 49 -76 49q-8 0 -13 -1z" />
    <glyph glyph-name="fiveeighths" unicode="&#x215d;" horiz-adv-x="834" 
d="M736 715h85l-581 -735h-85zM795 232q51 -30 51 -80q0 -69 -52.5 -117.5t-127.5 -48.5q-59 0 -94 29t-35 78q0 92 96 139q-39 30 -39 65q0 56 47.5 96.5t112.5 40.5q52 0 85.5 -25.5t33.5 -66.5q0 -65 -78 -110zM739 367q-30 0 -51 -19.5t-21 -47.5q0 -20 14 -32.5
t37 -12.5q32 0 54.5 20t22.5 49q0 20 -15.5 31.5t-40.5 11.5zM706 198q-35 0 -59 -26.5t-24 -64.5q0 -21 16 -34.5t41 -13.5q35 0 57.5 25t22.5 64q0 23 -14.5 36.5t-39.5 13.5zM453 725l-16 -75h-178l-32 -88q39 25 80 25q49 0 77 -28.5t28 -78.5q0 -81 -54.5 -137.5
t-133.5 -56.5q-54 0 -87 27t-33 72q0 8 3 26h83q-2 -10 -2 -14q0 -17 14.5 -27.5t38.5 -10.5q37 0 61 30t24 76q0 55 -54 55q-40 0 -61 -32h-75l88 237h229z" />
    <glyph glyph-name="seveneighths" unicode="&#x215e;" horiz-adv-x="834" 
d="M713 715h85l-581 -735h-85zM786 232q50 -31 50 -80q0 -69 -52.5 -117.5t-127.5 -48.5q-59 0 -94 29t-35 78q0 92 97 139q-40 29 -40 65q0 56 47.5 96.5t112.5 40.5q52 0 85.5 -25.5t33.5 -66.5q0 -64 -77 -110zM729 367q-30 0 -51 -19.5t-21 -47.5q0 -20 14 -32.5
t37 -12.5q32 0 54.5 20t22.5 49q0 20 -15.5 31.5t-40.5 11.5zM696 198q-35 0 -59 -26.5t-24 -64.5q0 -21 16 -34.5t41 -13.5q35 0 57.5 25t22.5 64q0 23 -14.5 36.5t-39.5 13.5zM507 724l-14 -66q-26 -26 -63 -65q-66 -73 -104.5 -140.5t-62.5 -153.5h-85q36 109 86 187
t138 163h-212l16 75h301z" />
    <glyph glyph-name="arrowleft" unicode="&#x2190;" horiz-adv-x="1000" 
d="M913 281h-661q19 -22 40.5 -65t21.5 -57q0 -6 -5 -11t-11 -5q-12 0 -28 20q-32 36 -64.5 61.5t-92.5 60.5q-27 15 -27 23q0 9 6.5 14.5t46.5 28.5q79 48 129 106q13 15 17.5 18.5t11.5 3.5q17 0 17 -16t-20 -55t-42 -67h661v-60z" />
    <glyph glyph-name="arrowup" unicode="&#x2191;" horiz-adv-x="500" 
d="M218 -102v661q-23 -19 -65.5 -40.5t-56.5 -21.5q-6 0 -11 5t-5 11q0 12 20 28q36 32 61.5 64.5t60.5 92.5q15 27 23 27q9 0 14.5 -6.5t28.5 -46.5q48 -79 106 -129q15 -13 18.5 -17.5t3.5 -11.5q0 -17 -16 -17t-55 20t-67 42v-661h-60z" />
    <glyph glyph-name="arrowright" unicode="&#x2192;" horiz-adv-x="1000" 
d="M86 281v60h661q-22 28 -42 67t-20 55t17 16q7 0 11.5 -3.5t17.5 -18.5q54 -64 148 -117q25 -14 29.5 -18.5t4.5 -13.5q0 -8 -27 -23q-60 -35 -92.5 -60.5t-64.5 -61.5q-16 -20 -28 -20q-6 0 -11 5t-5 11q0 14 21.5 57t40.5 65h-661z" />
    <glyph glyph-name="arrowdown" unicode="&#x2193;" horiz-adv-x="500" 
d="M218 725h60v-661q28 22 67 42t55 20t16 -17q0 -7 -3.5 -11.5t-18.5 -17.5q-64 -54 -117 -148q-14 -25 -18.5 -29.5t-13.5 -4.5q-8 0 -23 27q-35 60 -60.5 92.5t-61.5 64.5q-20 16 -20 28q0 6 5 11t11 5q14 0 57 -21.5t65 -40.5v661z" />
    <glyph glyph-name="arrowboth" unicode="&#x2194;" horiz-adv-x="1000" 
d="M714 280h-427q23 -30 43 -68t20 -53q0 -16 -17 -16q-7 0 -11 3t-18 19q-35 40 -64.5 62.5t-104.5 67.5q-12 7 -12 18q0 6 8.5 12t38.5 23q30 16 73 51t63 60q18 20 24 20q20 0 20 -16q0 -14 -22 -57.5t-41 -65.5h427q-19 22 -40.5 65.5t-21.5 57.5q0 16 21 16q8 0 23 -20
q64 -76 156 -122q27 -14 27 -26q0 -10 -19 -20q-67 -40 -99.5 -65.5t-62.5 -60.5q-12 -15 -16.5 -18.5t-11.5 -3.5q-18 0 -18 16q0 5 8.5 27.5t15.5 35.5q18 33 38 58z" />
    <glyph glyph-name="arrowupdn" unicode="&#x2195;" horiz-adv-x="500" 
d="M219 130v427q-29 -23 -67.5 -43t-53.5 -20q-16 0 -16 17q0 7 3 11t19 18q40 35 62.5 64.5t67.5 104.5q7 12 18 12q6 0 12 -8.5t23 -38.5q16 -30 51 -73t60 -63q20 -18 20 -24q0 -20 -16 -20q-14 0 -57.5 22t-65.5 41v-427q23 19 66 40.5t57 21.5q16 0 16 -21
q0 -8 -20 -23q-76 -64 -122 -156q-14 -27 -26 -27q-10 0 -20 19q-40 67 -65.5 99.5t-60.5 62.5q-15 12 -18.5 16.5t-3.5 11.5q0 18 16 18q5 0 27.5 -8.5t35.5 -15.5q29 -16 58 -38z" />
    <glyph glyph-name="uni2196" unicode="&#x2196;" horiz-adv-x="722" 
d="M194 565l437 -437l-42 -42l-437 437v-148h-61v251h251v-61h-148z" />
    <glyph glyph-name="uni2197" unicode="&#x2197;" horiz-adv-x="722" 
d="M528 565h-148v61h251v-251h-61v148l-437 -437l-42 42z" />
    <glyph glyph-name="uni2198" unicode="&#x2198;" horiz-adv-x="722" 
d="M528 147l-437 437l42 42l437 -437v148h61v-251h-251v61h148z" />
    <glyph glyph-name="uni2199" unicode="&#x2199;" horiz-adv-x="722" 
d="M194 147h148v-61h-251v251h61v-148l437 437l42 -42z" />
    <glyph glyph-name="arrowupdnbse" unicode="&#x21a8;" horiz-adv-x="500" 
d="M121 -68h263v-43h-263v43zM219 190v427q-29 -23 -67.5 -43t-53.5 -20q-16 0 -16 17q0 7 3 11t19 18q40 35 62.5 64.5t67.5 104.5q7 12 18 12q6 0 12 -8.5t23 -38.5q16 -30 51 -73t60 -63q20 -18 20 -24q0 -20 -16 -20q-14 0 -57.5 22t-65.5 41v-427q23 19 66 40.5
t57 21.5q16 0 16 -21q0 -8 -20 -23q-76 -64 -122 -156q-14 -27 -26 -27q-10 0 -20 19q-40 67 -65.5 99.5t-60.5 62.5q-15 12 -18.5 16.5t-3.5 11.5q0 18 16 18q5 0 27.5 -8.5t35.5 -15.5q29 -16 58 -38z" />
    <glyph glyph-name="carriagereturn" unicode="&#x21b5;" horiz-adv-x="1000" 
d="M884 517v-245h-623l210 -82l-23 -52l-286 128v77l286 127l23 -52l-210 -82h559v181h64z" />
    <glyph glyph-name="arrowdblleft" unicode="&#x21d0;" horiz-adv-x="722" 
d="M79 295l82 -71h552v-42h-503l60 -52v-57l-262 222l262 222v-57l-60 -52h503v-42h-552z" />
    <glyph glyph-name="arrowdblup" unicode="&#x21d1;" horiz-adv-x="722" 
d="M361 577l-71 -82v-495h-42v446l-52 -60h-57l222 262l222 -262h-57l-52 60v-446h-42v495z" />
    <glyph glyph-name="arrowdblright" unicode="&#x21d2;" horiz-adv-x="722" 
d="M643 295l-82 71h-552v42h503l-60 52v57l262 -222l-262 -222v57l60 52h-503v42h552z" />
    <glyph glyph-name="arrowdbldown" unicode="&#x21d3;" horiz-adv-x="722" 
d="M361 71l71 82v495h42v-446l52 60h57l-222 -262l-222 262h57l52 -60v446h42v-495z" />
    <glyph glyph-name="arrowdblboth" unicode="&#x21d4;" horiz-adv-x="722" 
d="M149 408h425l-60 52v57l262 -222l-262 -222v57l60 52h-425l60 -52v-57l-262 222l262 222v-57zM100 366l-82 -71l82 -71h523l82 71l-82 71h-523z" />
    <glyph glyph-name="universal" unicode="&#x2200;" horiz-adv-x="278" 
d="M268 467l68 200h95l-234 -667h-110l-238 667h91l70 -200h258zM244 396h-212l109 -304z" />
    <glyph glyph-name="partialdiff" unicode="&#x2202;" horiz-adv-x="494" 
d="M106 670l-40 52q62 28 132 28q115 0 189.5 -97.5t74.5 -247.5q0 -78 -19 -164.5t-47 -137.5q-66 -118 -180 -118q-80 0 -135 56t-55 138q0 103 74 179q50 50 122 50q40 0 69 -12.5t81 -52.5q10 75 10 112q0 120 -55 196q-37 52 -109 52q-28 0 -42 -4t-70 -29zM365 304
q-40 61 -105 61q-61 0 -104 -62t-43 -149q0 -65 23.5 -101t65.5 -36q41 0 74 31.5t53 90.5q21 60 36 165z" />
    <glyph glyph-name="existential" unicode="&#x2203;" horiz-adv-x="426" 
d="M424 415l40 189h-395l27 125h545l-155 -729h-528l27 125h378l35 165h-349l26 125h349z" />
    <glyph glyph-name="emptyset" unicode="&#x2205;" horiz-adv-x="1000" 
d="M104 38l121 101q-58 91 -58 194q0 143 99.5 244.5t240.5 101.5q139 0 242 -103l110 93l32 -38l-111 -92q66 -94 66 -206q0 -143 -99.5 -244.5t-239.5 -101.5q-147 0 -252 114l-120 -100zM263 171l449 375q-86 89 -206 89t-204.5 -88.5t-84.5 -213.5q0 -84 46 -162z
M743 508l-451 -377q88 -100 215 -100q119 0 204 88.5t85 212.5q0 98 -53 176z" />
    <glyph glyph-name="Delta" unicode="&#x2206;" horiz-adv-x="612" 
d="M-50 0l436 729h146l131 -729h-713zM172 125h319l-66 439z" />
    <glyph glyph-name="gradient" unicode="&#x2207;" horiz-adv-x="741" 
d="M69 630h604l-259 -630h-88zM370 102l183 455h-365z" />
    <glyph glyph-name="element" unicode="&#x2208;" horiz-adv-x="1000" 
d="M767 216h-462q9 -157 171 -154h291v-62h-280q-86 0 -130 18q-59 26 -91.5 86t-32.5 147q0 146 99 211q28 19 60.5 25.5t94.5 6.5h280v-62h-291q-162 3 -171 -155h462v-61z" />
    <glyph glyph-name="notelement" unicode="&#x2209;" horiz-adv-x="1000" 
d="M528 216l-87 -153q9 -1 35 -1h291v-62h-280q-45 0 -80 4l-38 -67l-43 23l33 57q-61 25 -93.5 86t-32.5 148q0 145 98 211q28 19 61 25.5t95 6.5h143l47 83l42 -24l-33 -59h81v-62h-116l-88 -155h204v-61h-239zM472 216h-167q5 -113 86 -141zM595 432h-119
q-162 3 -171 -155h202z" />
    <glyph glyph-name="suchthat" unicode="&#x220b;" horiz-adv-x="1000" 
d="M233 216v61h462q-7 158 -171 155h-291v62h280q86 0 130 -18q58 -25 91 -85t33 -141q0 -153 -98 -218q-28 -19 -61 -25.5t-95 -6.5h-280v62h291q164 -5 171 154h-462z" />
    <glyph glyph-name="product" unicode="&#x220f;" horiz-adv-x="823" 
d="M181 735l5 25h775l-5 -25q-60 -2 -82.5 -21.5t-35.5 -78.5l-126 -597q-6 -25 -8 -49q-2 -26 17.5 -38t64.5 -13l-5 -25h-306l5 25q60 2 83 21.5t35 78.5l142 668h-355l-142 -668q-6 -24 -8 -49q-2 -26 17.5 -38t64.5 -13l-5 -25h-306l5 25q60 2 83 21.5t35 78.5l126 597
q6 25 8 49q2 26 -17.5 38t-64.5 13z" />
    <glyph glyph-name="summation" unicode="&#x2211;" horiz-adv-x="600" 
d="M687 753l-28 -159h-19q-1 67 -21.5 89t-84.5 24h-231l162 -354l-327 -336h301q66 -1 93.5 18t69.5 95h22q-36 -79 -51 -121q-9 -27 -27 -79q0 -1 -1 -3t-2.5 -6.5t-3.5 -8.5h-559l388 397l-209 444h528z" />
    <glyph glyph-name="minus" unicode="&#x2212;" horiz-adv-x="584" 
d="M606 292l-25 -120h-504l25 120h504z" />
    <glyph glyph-name="uni2213" unicode="&#x2213;" horiz-adv-x="1000" 
d="M237 607v55h524v-55h-524zM528 0h-55v239h-237v55h237v239h55v-239h237v-55h-237v-239z" />
    <glyph glyph-name="uni2215" unicode="&#x2215;" horiz-adv-x="278" 
d="M459 715h85l-581 -735h-85z" />
    <glyph glyph-name="asteriskmath" unicode="&#x2217;" horiz-adv-x="1000" 
d="M462 242l-105 37l38 65l84 -73l-19 111h80l-19 -111l84 73l38 -65l-105 -37l105 -38l-38 -65l-84 73l19 -111h-80l19 111l-84 -73l-38 65z" />
    <glyph glyph-name="uni2219" unicode="&#x2219;" horiz-adv-x="278" 
d="M270 282l-22 -100h-105l22 100h105z" />
    <glyph glyph-name="radical" unicode="&#x221a;" horiz-adv-x="549" 
d="M674 913l35 -5l-353 -944l-135 497l-104 -46l-11 33l163 73l110 -396z" />
    <glyph glyph-name="proportional" unicode="&#x221d;" horiz-adv-x="1000" 
d="M682 167v-62q-93 -5 -180 103q-16 -19 -29 -32q-62 -70 -145 -70q-58 0 -94.5 37.5t-36.5 97.5q0 61 37.5 99.5t96.5 38.5q90 0 171 -102q77 102 168 102h12v-61h-6q-61 0 -126 -75q40 -43 67.5 -59t64.5 -17zM453 243q-9 9 -19 18q-36 34 -57.5 45.5t-47.5 11.5
q-34 0 -53.5 -20t-19.5 -55q0 -34 18.5 -55t48.5 -21q56 0 120 65q6 6 10 11z" />
    <glyph glyph-name="infinity" unicode="&#x221e;" horiz-adv-x="713" 
d="M419 297q56 42 86 62q68 45 132 45q48 0 79 -31t31 -80q0 -66 -53 -117.5t-121 -51.5q-41 0 -76 22t-92 85q-77 -60 -124.5 -83.5t-90.5 -23.5q-49 0 -80.5 31t-31.5 80q0 65 52.5 117t119.5 52q60 0 110 -45q25 -22 59 -62zM448 264q22 -28 51 -52q47 -38 83 -38
q43 0 77.5 34t34.5 76q0 29 -21 49.5t-51 20.5q-63 0 -174 -90zM377 264q-72 90 -134 90q-44 0 -78 -33t-34 -76q0 -30 21 -50.5t52 -20.5q38 0 100 38q42 25 73 52z" />
    <glyph glyph-name="orthogonal" unicode="&#x221f;" horiz-adv-x="979" 
d="M50 0v870h66v-804h814v-66h-880z" />
    <glyph glyph-name="angle" unicode="&#x2220;" horiz-adv-x="1000" 
d="M643 417l29 -33l-352 -342h469v-42h-578z" />
    <glyph glyph-name="uni2223" unicode="&#x2223;" horiz-adv-x="722" 
d="M395 668v-668h-67v668h67z" />
    <glyph glyph-name="uni2225" unicode="&#x2225;" horiz-adv-x="722" 
d="M471 0h-67v668h67v-668zM318 668v-668h-67v668h67z" />
    <glyph glyph-name="uni2227" unicode="&#x2227;" horiz-adv-x="1000" 
d="M533 513l224 -513h-80l-177 409l-177 -409h-80l224 513h66z" />
    <glyph glyph-name="uni2228" unicode="&#x2228;" horiz-adv-x="1000" 
d="M533 0h-66l-224 513h80l177 -409l177 409h80z" />
    <glyph glyph-name="intersection" unicode="&#x2229;" horiz-adv-x="722" 
d="M625 0h-119l63 299q24 122 24 149q0 49 -33 81t-84 32q-44 0 -84.5 -21.5t-65.5 -57.5q-29 -43 -58 -183l-64 -299h-119l63 296q27 129 46 177t58 89q100 105 245 105q97 0 158.5 -53t61.5 -136q0 -43 -29 -182z" />
    <glyph glyph-name="union" unicode="&#x222a;" horiz-adv-x="1000" 
d="M720 559v-246q0 -111 -7 -151.5t-32 -74.5q-64 -87 -181 -87q-62 0 -112.5 26.5t-78.5 75.5q-18 30 -23.5 69.5t-5.5 141.5v246h60v-249q0 -85 6 -123t23 -63q21 -30 56.5 -47.5t74.5 -17.5q44 0 82.5 22t57.5 58q20 39 20 171v249h60z" />
    <glyph glyph-name="integral" unicode="&#x222b;" horiz-adv-x="274" 
d="M174 423v-229q0 -226 -21 -310q-21 -89 -89 -89q-26 0 -44.5 16t-18.5 39q0 20 14 34.5t34 14.5q19 0 35 -14q12 -12 19 -12q18 0 18 28q0 13 -6 76q-14 146 -14 209v228q0 226 21 310q21 89 89 89q26 0 44 -16t18 -38q0 -21 -14 -35.5t-34 -14.5q-19 0 -35 14
q-12 12 -19 12q-18 0 -18 -28q0 -10 6 -76q15 -145 15 -208z" />
    <glyph glyph-name="uni222E" unicode="&#x222e;" horiz-adv-x="1000" 
d="M416 119v57q-60 24 -96 76.5t-36 116.5t36 117t96 76v9q1 110 2.5 132.5t8.5 50.5q15 56 64 88.5t118 32.5q38 0 87 -11l-24 -133q-26 11 -45 11q-41 0 -55 -36q-5 -12 -5 -64v-80q59 -23 95 -76t36 -117t-36 -117t-95 -76v-27q0 -109 -1.5 -132.5t-9.5 -53.5
q-16 -58 -66.5 -88.5t-128.5 -30.5q-47 0 -74 9l24 133q26 -11 43 -11q44 0 57 36q5 13 5 108zM416 269v201q-50 -38 -50 -101t50 -100zM567 469v-200q49 40 49 100t-49 100z" />
    <glyph glyph-name="therefore" unicode="&#x2234;" horiz-adv-x="1000" 
d="M502 549q24 0 39.5 -16t15.5 -41q0 -24 -16 -40.5t-41 -16.5t-41 16t-16 41q0 26 16 41.5t43 15.5zM255 114q23 0 39 -16.5t16 -40.5q0 -25 -16 -41t-41 -16t-41 16t-16 41t16.5 41t42.5 16zM749 114q23 0 39 -16.5t16 -40.5q0 -25 -16 -41t-41 -16t-41 16t-16 41
t16.5 41t42.5 16z" />
    <glyph glyph-name="uni2235" unicode="&#x2235;" horiz-adv-x="1000" 
d="M501 124q26 0 43.5 -18t17.5 -44q0 -27 -17 -44.5t-44 -17.5q-28 0 -45.5 17t-17.5 45q0 27 18 44.5t45 17.5zM231 598q26 0 43.5 -18t17.5 -44q0 -27 -17.5 -44.5t-43.5 -17.5q-28 0 -45.5 17.5t-17.5 44.5t17.5 44.5t45.5 17.5zM771 598q26 0 43.5 -18t17.5 -44
q0 -27 -17.5 -44.5t-43.5 -17.5q-28 0 -45.5 17.5t-17.5 44.5t17.5 44.5t45.5 17.5z" />
    <glyph glyph-name="uni2237" unicode="&#x2237;" horiz-adv-x="1000" 
d="M259 124q26 0 43.5 -18t17.5 -44q0 -27 -17.5 -44.5t-44.5 -17.5t-44.5 17.5t-17.5 44.5t17.5 44.5t45.5 17.5zM742 124q26 0 43.5 -18t17.5 -44q0 -27 -17.5 -44.5t-44.5 -17.5t-44.5 17.5t-17.5 44.5t17.5 44.5t45.5 17.5zM259 599q26 0 43.5 -17.5t17.5 -44.5
t-17.5 -44.5t-44.5 -17.5t-44.5 17.5t-17.5 44.5t17.5 44.5t45.5 17.5zM742 599q26 0 43.5 -17.5t17.5 -44.5t-17.5 -44.5t-44.5 -17.5t-44.5 17.5t-17.5 44.5t17.5 44.5t45.5 17.5z" />
    <glyph glyph-name="congruent" unicode="&#x2245;" horiz-adv-x="278" 
d="M379 273v-51h-481v51h481zM379 147v-50h-481v50h481zM336 435l36 -31q-44 -78 -132 -78q-22 0 -36 3t-68 20q-83 24 -103 24q-26 0 -42 -10.5t-48 -46.5l-40 31q53 77 132 77q31 0 114 -25q72 -22 91 -22q27 0 45.5 11.5t50.5 46.5z" />
    <glyph glyph-name="approxequal" unicode="&#x2248;" horiz-adv-x="549" 
d="M157 240l-57 43q47 74 86.5 104t90.5 30q33 0 100 -27q58 -25 83 -25t43.5 11.5t43.5 42.5l59 -39q-50 -73 -91 -100q-46 -29 -93 -29q-28 0 -92 26q-66 26 -84 26q-25 0 -44 -13.5t-45 -49.5zM113 36l-56 43q46 74 86 104t91 30q32 0 99 -27q59 -25 83 -25q26 0 44 11.5
t43 42.5l60 -39q-31 -44 -50 -64.5t-41 -35.5q-46 -29 -93 -29q-27 0 -93 26t-84 26q-25 0 -43.5 -13t-45.5 -50z" />
    <glyph glyph-name="notequal" unicode="&#x2260;" horiz-adv-x="549" 
d="M112 52h-68l25 120h134l93 120h-201l25 120h268l102 132l95 -63l-53 -69h73l-25 -120h-140l-93 -120h207l-25 -120h-273l-97 -126l-95 63z" />
    <glyph glyph-name="equivalence" unicode="&#x2261;" horiz-adv-x="583" 
d="M594 280l-22 -100h-485l22 100h485zM634 470l-22 -100h-485l22 100h485zM554 90l-22 -100h-485l22 100h485z" />
    <glyph glyph-name="lessequal" unicode="&#x2264;" horiz-adv-x="549" 
d="M529 104l-22 -104h-489l22 104h489zM640 624l-28 -129l-339 -113l292 -111l-28 -131l-450 182l25 121z" />
    <glyph glyph-name="greaterequal" unicode="&#x2265;" horiz-adv-x="549" 
d="M538 104l-22 -104h-489l22 104h489zM57 140l28 129l339 113l-292 111l28 131l450 -182l-26 -121z" />
    <glyph glyph-name="propersubset" unicode="&#x2282;" horiz-adv-x="1000" 
d="M767 62v-62h-280q-86 0 -130 18q-59 26 -91.5 86.5t-32.5 146.5q0 146 99 211q28 19 60.5 25.5t94.5 6.5h280v-62h-291q-91 0 -132 -44t-41 -141t41 -141t132 -44h291z" />
    <glyph glyph-name="propersuperset" unicode="&#x2283;" horiz-adv-x="1000" 
d="M233 62h291q91 0 132 44t41 141t-41 141t-132 44h-291v62h280q86 0 130 -18q58 -25 91 -85.5t33 -143.5q0 -150 -98 -215q-28 -19 -61 -25.5t-95 -6.5h-280v62z" />
    <glyph glyph-name="notsubset" unicode="&#x2284;" horiz-adv-x="1000" 
d="M425 2l-38 -65l-41 26l28 49q-68 22 -104.5 84t-36.5 155q0 145 98 211q28 19 61 25.5t95 6.5h170l43 73l42 -25l-28 -48h53v-62h-90l-217 -370h16h291v-62h-280q-40 0 -62 2zM621 432h-145q-91 0 -132 -44t-41 -141q0 -150 105 -178z" />
    <glyph glyph-name="uni2285" unicode="&#x2285;" horiz-adv-x="1000" 
d="M310 0h-102v67h141l236 402q-23 4 -59 4h-318v67h305q68 0 109 -8l51 87l46 -26l-47 -80q119 -67 119 -247q0 -162 -107 -232q-31 -20 -67 -27t-104 -7h-142l-40 -69l-45 29zM636 451l-225 -384h115q99 0 144 48.5t45 154.5q0 138 -79 181z" />
    <glyph glyph-name="reflexsubset" unicode="&#x2286;" horiz-adv-x="1000" 
d="M767 166v-62h-280q-68 0 -102.5 8.5t-64.5 32.5q-87 68 -87 210q0 147 99 212q28 19 60.5 25.5t94.5 6.5h280v-62h-291q-91 0 -132 -44t-41 -141q0 -98 41 -142t132 -44h291zM767 55v-55h-534v55h534z" />
    <glyph glyph-name="reflexsuperset" unicode="&#x2287;" horiz-adv-x="1000" 
d="M233 166h291q91 0 132 44t41 142q0 97 -41 141t-132 44h-291v62h280q86 0 130 -18q59 -25 91.5 -85.5t32.5 -144.5q0 -150 -98 -215q-28 -19 -61 -25.5t-95 -6.5h-280v62zM767 55v-55h-534v55h534z" />
    <glyph glyph-name="uni2295" unicode="&#x2295;" horiz-adv-x="1000" 
d="M505 629q127 0 218 -92.5t91 -220.5q0 -130 -93 -223t-223 -93t-221.5 91.5t-91.5 220.5q0 133 93 225t227 92zM531 346h225q-11 89 -73.5 151.5t-151.5 73.5v-225zM472 346v225q-89 -11 -151.5 -73.5t-73.5 -151.5h225zM531 287v-225q89 11 152 73.5t73 151.5h-225z
M472 287h-225q10 -89 73 -151.5t152 -73.5v225z" />
    <glyph glyph-name="circlemultiply" unicode="&#x2297;" horiz-adv-x="1000" 
d="M506 629q126 0 217.5 -93t91.5 -221q0 -130 -92 -222.5t-222 -92.5q-131 0 -223 92.5t-92 224.5q0 130 93.5 221t226.5 91zM500 357l159 159q-69 55 -159 55t-159 -55zM458 315l-159 159q-55 -71 -55 -159q0 -87 55 -159zM542 315l159 -159q54 69 54 159q0 89 -54 159z
M500 273l-159 -159q66 -55 159 -55t159 55z" />
    <glyph glyph-name="perpendicular" unicode="&#x22a5;" horiz-adv-x="1000" 
d="M470 598h61v-537h268v-61h-598v61h269v537z" />
    <glyph glyph-name="house" unicode="&#x2302;" horiz-adv-x="604" 
d="M11 0v401l291 328l292 -328v-401h-583zM62 51h481v328l-241 270l-240 -270v-328z" />
    <glyph glyph-name="revlogicalnot" unicode="&#x2310;" horiz-adv-x="584" 
d="M632 376l-25 -120h-385l-36 -170h-119l61 290h504z" />
    <glyph glyph-name="integraltp" unicode="&#x2320;" horiz-adv-x="604" 
d="M352 -205h-73v606q0 226 21 310q21 89 89 89q26 0 44.5 -16t18.5 -39q0 -20 -14 -34.5t-34 -14.5q-19 0 -35 14q-12 12 -19 12q-18 0 -18 -28q0 -13 6 -76q14 -146 14 -209v-614z" />
    <glyph glyph-name="integralbt" unicode="&#x2321;" horiz-adv-x="604" 
d="M279 800h73v-606q0 -226 -21 -310q-21 -89 -89 -89q-26 0 -44.5 16t-18.5 39q0 20 14 34.5t34 14.5q19 0 35 -14q12 -12 19 -12q18 0 18 28q0 13 -6 76q-14 146 -14 209v614z" />
    <glyph glyph-name="angleleft" unicode="&#x2329;" horiz-adv-x="333" 
d="M58 238l174 340q13 24 30 24q13 0 13 -12q0 -10 -5 -23l-131 -329l131 -329q5 -13 5 -23q0 -11 -13 -11q-18 0 -30 23z" />
    <glyph glyph-name="angleright" unicode="&#x232a;" horiz-adv-x="333" 
d="M275 238l-174 -340q-14 -23 -30 -23q-13 0 -13 12q0 10 5 22l131 329l-131 329q-5 15 -5 23q0 12 13 12q17 0 30 -24z" />
    <glyph glyph-name="SF100000" unicode="&#x2500;" horiz-adv-x="708" 
d="M-146 217v66h1000v-66h-1000z" />
    <glyph glyph-name="SF110000" unicode="&#x2502;" horiz-adv-x="625" 
d="M280 -250v1000h66v-1000h-66z" />
    <glyph glyph-name="SF010000" unicode="&#x250c;" horiz-adv-x="708" 
d="M854 283v-66h-467v-467h-66v533h533z" />
    <glyph glyph-name="SF030000" unicode="&#x2510;" horiz-adv-x="708" 
d="M321 217h-467v66h533v-533h-66v467z" />
    <glyph glyph-name="SF020000" unicode="&#x2514;" horiz-adv-x="708" 
d="M387 283h467v-66h-533v533h66v-467z" />
    <glyph glyph-name="SF040000" unicode="&#x2518;" horiz-adv-x="708" 
d="M-146 217v66h467v467h66v-533h-533z" />
    <glyph glyph-name="SF080000" unicode="&#x251c;" horiz-adv-x="708" 
d="M387 283h467v-66h-467v-467h-66v1000h66v-467z" />
    <glyph glyph-name="SF090000" unicode="&#x2524;" horiz-adv-x="708" 
d="M321 217h-467v66h467v467h66v-1000h-66v467z" />
    <glyph glyph-name="SF060000" unicode="&#x252c;" horiz-adv-x="708" 
d="M387 217v-467h-66v467h-467v66h1000v-66h-467z" />
    <glyph glyph-name="SF070000" unicode="&#x2534;" horiz-adv-x="708" 
d="M321 283v467h66v-467h467v-66h-1000v66h467z" />
    <glyph glyph-name="SF050000" unicode="&#x253c;" horiz-adv-x="708" 
d="M321 217h-467v66h467v467h66v-467h467v-66h-467v-467h-66v467z" />
    <glyph glyph-name="SF430000" unicode="&#x2550;" horiz-adv-x="708" 
d="M-146 151v66h1000v-66h-1000zM-146 283v66h1000v-66h-1000z" />
    <glyph glyph-name="SF240000" unicode="&#x2551;" horiz-adv-x="708" 
d="M255 -250v1000h66v-1000h-66zM387 -250v1000h66v-1000h-66z" />
    <glyph glyph-name="SF510000" unicode="&#x2552;" horiz-adv-x="708" 
d="M321 -250v599h533v-66h-467v-66h467v-66h-467v-401h-66z" />
    <glyph glyph-name="SF520000" unicode="&#x2553;" horiz-adv-x="708" 
d="M387 217h-66v-467h-66v533h599v-66h-401v-467h-66v467z" />
    <glyph glyph-name="SF390000" unicode="&#x2554;" horiz-adv-x="708" 
d="M321 283v-533h-66v599h599v-66h-533zM453 151v-401h-66v467h467v-66h-401z" />
    <glyph glyph-name="SF220000" unicode="&#x2555;" horiz-adv-x="708" 
d="M321 151h-467v66h467v66h-467v66h533v-599h-66v401z" />
    <glyph glyph-name="SF210000" unicode="&#x2556;" horiz-adv-x="708" 
d="M321 217v-467h-66v467h-401v66h599v-533h-66v467h-66z" />
    <glyph glyph-name="SF250000" unicode="&#x2557;" horiz-adv-x="708" 
d="M387 283h-533v66h599v-599h-66v533zM255 151h-401v66h467v-467h-66v401z" />
    <glyph glyph-name="SF500000" unicode="&#x2558;" horiz-adv-x="708" 
d="M321 750h66v-401h467v-66h-467v-66h467v-66h-533v599z" />
    <glyph glyph-name="SF490000" unicode="&#x2559;" horiz-adv-x="708" 
d="M387 283v467h66v-467h401v-66h-599v533h66v-467h66z" />
    <glyph glyph-name="SF380000" unicode="&#x255a;" horiz-adv-x="708" 
d="M321 217h533v-66h-599v599h66v-533zM453 349h401v-66h-467v467h66v-401z" />
    <glyph glyph-name="SF280000" unicode="&#x255b;" horiz-adv-x="708" 
d="M321 349v401h66v-599h-533v66h467v66h-467v66h467z" />
    <glyph glyph-name="SF270000" unicode="&#x255c;" horiz-adv-x="708" 
d="M321 283h66v467h66v-533h-599v66h401v467h66v-467z" />
    <glyph glyph-name="SF260000" unicode="&#x255d;" horiz-adv-x="708" 
d="M387 217v533h66v-599h-599v66h533zM255 349v401h66v-467h-467v66h401z" />
    <glyph glyph-name="SF360000" unicode="&#x255e;" horiz-adv-x="708" 
d="M321 750h66v-401h467v-66h-467v-66h467v-66h-467v-401h-66v1000z" />
    <glyph glyph-name="SF370000" unicode="&#x255f;" horiz-adv-x="708" 
d="M453 217v-467h-66v1000h66v-467h401v-66h-401zM321 -250h-66v1000h66v-1000z" />
    <glyph glyph-name="SF420000" unicode="&#x2560;" horiz-adv-x="708" 
d="M255 -250v1000h66v-1000h-66zM453 349h401v-66h-467v467h66v-401zM453 151v-401h-66v467h467v-66h-401z" />
    <glyph glyph-name="SF190000" unicode="&#x2561;" horiz-adv-x="708" 
d="M321 349v401h66v-1000h-66v401h-467v66h467v66h-467v66h467z" />
    <glyph glyph-name="SF200000" unicode="&#x2562;" horiz-adv-x="708" 
d="M255 217h-401v66h401v467h66v-1000h-66v467zM387 -250v1000h66v-1000h-66z" />
    <glyph glyph-name="SF230000" unicode="&#x2563;" horiz-adv-x="708" 
d="M453 -250h-66v1000h66v-1000zM255 349v401h66v-467h-467v66h401zM255 151h-401v66h467v-467h-66v401z" />
    <glyph glyph-name="SF470000" unicode="&#x2564;" horiz-adv-x="708" 
d="M-146 349h1000v-66h-1000v66zM321 151h-467v66h1000v-66h-467v-401h-66v401z" />
    <glyph glyph-name="SF480000" unicode="&#x2565;" horiz-adv-x="708" 
d="M255 217h-401v66h1000v-66h-401v-467h-66v467h-66v-467h-66v467z" />
    <glyph glyph-name="SF410000" unicode="&#x2566;" horiz-adv-x="708" 
d="M-146 349h1000v-66h-1000v66zM453 151v-401h-66v467h467v-66h-401zM255 151h-401v66h467v-467h-66v401z" />
    <glyph glyph-name="SF450000" unicode="&#x2567;" horiz-adv-x="708" 
d="M-146 151v66h1000v-66h-1000zM321 349v401h66v-401h467v-66h-1000v66h467z" />
    <glyph glyph-name="SF460000" unicode="&#x2568;" horiz-adv-x="708" 
d="M-146 217v66h401v467h66v-467h66v467h66v-467h401v-66h-1000z" />
    <glyph glyph-name="SF400000" unicode="&#x2569;" horiz-adv-x="708" 
d="M-146 151v66h1000v-66h-1000zM453 349h401v-66h-467v467h66v-401zM255 349v401h66v-467h-467v66h401z" />
    <glyph glyph-name="SF540000" unicode="&#x256a;" horiz-adv-x="708" 
d="M321 217v66h-467v66h467v401h66v-401h467v-66h-467v-66h467v-66h-467v-401h-66v401h-467v66h467z" />
    <glyph glyph-name="SF530000" unicode="&#x256b;" horiz-adv-x="708" 
d="M255 217h-401v66h401v467h66v-467h66v467h66v-467h401v-66h-401v-467h-66v467h-66v-467h-66v467z" />
    <glyph glyph-name="SF440000" unicode="&#x256c;" horiz-adv-x="708" 
d="M453 349h401v-66h-467v467h66v-401zM255 349v401h66v-467h-467v66h401zM453 151v-401h-66v467h467v-66h-401zM255 151h-401v66h467v-467h-66v401z" />
    <glyph glyph-name="upblock" unicode="&#x2580;" horiz-adv-x="708" 
d="M-146 250v500h1000v-500h-1000z" />
    <glyph glyph-name="dnblock" unicode="&#x2584;" horiz-adv-x="708" 
d="M-146 -250v500h1000v-500h-1000z" />
    <glyph glyph-name="block" unicode="&#x2588;" horiz-adv-x="708" 
d="M-146 -250v1000h1000v-1000h-1000z" />
    <glyph glyph-name="lfblock" unicode="&#x258c;" horiz-adv-x="708" 
d="M-146 -250v1000h500v-1000h-500z" />
    <glyph glyph-name="rtblock" unicode="&#x2590;" horiz-adv-x="708" 
d="M354 -250v1000h500v-1000h-500z" />
    <glyph glyph-name="ltshade" unicode="&#x2591;" horiz-adv-x="708" 
d="M-146 750h100v-100h-100v100zM54 750h100v-100h-100v100zM654 750h100v-100h-100v100zM254 750h100v-100h-100v100zM454 750h100v-100h-100v100zM-146 550h100v-100h-100v100zM-146 350h100v-100h-100v100zM-146 150h100v-100h-100v100zM-146 -50h100v-100h-100v100z
M54 550h100v-100h-100v100zM54 350h100v-100h-100v100zM54 150h100v-100h-100v100zM54 -50h100v-100h-100v100zM254 550h100v-100h-100v100zM254 350h100v-100h-100v100zM254 150h100v-100h-100v100zM254 -50h100v-100h-100v100zM454 550h100v-100h-100v100zM454 350h100
v-100h-100v100zM454 150h100v-100h-100v100zM454 -50h100v-100h-100v100zM654 550h100v-100h-100v100zM654 350h100v-100h-100v100zM654 150h100v-100h-100v100zM654 -50h100v-100h-100v100z" />
    </font>
</defs>
</svg>
