<?xml version="1.0" encoding="utf-8"?>
<!-- Generator: Adobe Illustrator 23.1.1, SVG Export Plug-In . SVG Version: 6.00 Build 0)  -->
<svg version="1.1" id="Layer_1" xmlns="http://www.w3.org/2000/svg" xmlns:xlink="http://www.w3.org/1999/xlink" x="0px" y="0px"
	 viewBox="0 0 300 300" style="enable-background:new 0 0 300 300;" xml:space="preserve">
<style type="text/css">
	.st0{fill:#010101;}
	.st1{fill-rule:evenodd;clip-rule:evenodd;fill:#010101;}
</style>
<path class="st0" d="M77.5,139.6c0,0-0.1,0-0.1,0c-5.7,0-10.4,4.6-10.4,10.4s4.6,10.4,10.4,10.4c0.1,0,0.1,0,0.2,0h145
	c0,0,0.1,0,0.1,0c5.7,0,10.4-4.6,10.4-10.4s-4.6-10.4-10.4-10.4c-0.1,0-0.1,0-0.2,0H77.5z"/>
<path class="st0" d="M159.7,82.1c0,0,0-0.1,0-0.1c0-5.4-4.3-9.7-9.7-9.7s-9.7,4.3-9.7,9.7c0,0.1,0,0.1,0,0.1v0v135.9
	c0,0,0,0.1,0,0.1c0,5.4,4.3,9.7,9.7,9.7s9.7-4.3,9.7-9.7c0-0.1,0-0.1,0-0.1v0V82.1z"/>
<path class="st0" d="M150,14.1c-74.9,0-135.9,61-135.9,135.9s61,135.9,135.9,135.9c74.9,0,135.9-61,135.9-135.9S224.9,14.1,150,14.1
	z M150,33.5c64.4,0,116.5,52,116.5,116.5s-52,116.5-116.5,116.5S33.5,214.5,33.5,150S85.6,33.5,150,33.5z"/>
</svg>
