<?xml version="1.0" encoding="utf-8"?>
<!-- Generator: Adobe Illustrator 23.1.1, SVG Export Plug-In . SVG Version: 6.00 Build 0)  -->
<svg version="1.1" id="Layer_1" xmlns="http://www.w3.org/2000/svg" xmlns:xlink="http://www.w3.org/1999/xlink" x="0px" y="0px"
	 viewBox="0 0 300 300" style="enable-background:new 0 0 300 300;" xml:space="preserve">
<style type="text/css">
	.st0{fill:#010101;}
	.st1{fill-rule:evenodd;clip-rule:evenodd;fill:#010101;}
</style>
<path class="st0" d="M265.6,18.6L157.7,126.4c-4.4,4.4-11.4,4.4-15.5,0L34.4,18.6c-4.4-4.4-11.4-4.4-15.5,0l0,0
	C14.5,23,14.5,30,18.9,34l107.9,107.9c4.4,4.4,4.4,11.4,0,15.5L18.6,265.6c-4.4,4.4-4.4,11.4,0,15.5l0,0c4.4,4.4,11.4,4.4,15.5,0
	l107.9-107.9c4.4-4.4,11.4-4.4,15.5,0l108.2,108.2c4.4,4.4,11.4,4.4,15.5,0l0,0c4.4-4.4,4.4-11.4,0-15.5L173.6,157.7
	c-4.4-4.4-4.4-11.4,0-15.5L281.4,34.4c4.4-4.4,4.4-11.4,0-15.5l0,0C277,14.5,270,14.5,265.6,18.6z"/>
</svg>
