<?xml version="1.0" encoding="utf-8"?>
<!-- Generator: Adobe Illustrator 23.1.1, SVG Export Plug-In . SVG Version: 6.00 Build 0)  -->
<svg version="1.1" id="Layer_1" xmlns="http://www.w3.org/2000/svg" xmlns:xlink="http://www.w3.org/1999/xlink" x="0px" y="0px"
	 viewBox="0 0 300 300" style="enable-background:new 0 0 300 300;" xml:space="preserve">
<style type="text/css">
	.st0{fill:#010101;}
	.st1{fill-rule:evenodd;clip-rule:evenodd;fill:#010101;}
</style>
<g>
	<g>
		<path d="M246,46.3H54c-7.6,0-13.9,6.5-13.9,14.3v22.8c0,7.8,6.3,14.3,13.9,14.3h4.4V242c0,22.8,17.7,41,39.8,41h103.5
			c22.1,0,40.4-18.2,40.4-41V97.7h3.8c7.6,0,13.9-6.5,13.9-14.3V60.6C259.8,52.8,253.5,46.3,246,46.3z M225.8,242
			c0,13.7-10.7,24.7-24,24.7H98.2c-13.3,0-24-11.1-24-24.7V97.7h151.5V242z M244.1,81.4H55.9V63.2h188.1V81.4z M115.3,233.6
			c4.4,0,7.6-3.9,7.6-8.5v-86.5c0-4.6-3.2-7.8-7.6-7.8s-8.2,3.3-8.2,7.8v86.5C107.1,229.7,110.9,233.6,115.3,233.6z M150,233.6
			c4.4,0,8.2-3.9,8.2-8.5v-86.5c0-4.6-3.8-7.8-8.2-7.8s-8.2,3.3-8.2,7.8v86.5C141.8,229.7,145.6,233.6,150,233.6z M184.7,233.6
			c4.4,0,8.2-3.9,8.2-8.5v-86.5c0-4.6-3.8-7.8-8.2-7.8s-7.6,3.3-7.6,7.8v86.5C177.1,229.7,180.3,233.6,184.7,233.6z M115.3,33.3
			h69.4c4.4,0,8.2-3.3,8.2-7.8c0-4.6-3.8-8.5-8.2-8.5h-69.4c-4.4,0-8.2,3.9-8.2,8.5C107.1,30,110.9,33.3,115.3,33.3z"/>
	</g>
</g>
</svg>
