<?xml version="1.0" encoding="utf-8"?>
<!-- Generator: Adobe Illustrator 23.1.1, SVG Export Plug-In . SVG Version: 6.00 Build 0)  -->
<svg version="1.1" id="Layer_1" xmlns="http://www.w3.org/2000/svg" xmlns:xlink="http://www.w3.org/1999/xlink" x="0px" y="0px"
	 viewBox="0 0 300 300" style="enable-background:new 0 0 300 300;" xml:space="preserve">
<style type="text/css">
	.st0{fill:#010101;}
	.st1{fill-rule:evenodd;clip-rule:evenodd;fill:#010101;}
</style>
<g>
	<g>
		<path d="M260.6,248.4L260.6,248.4c0,12.8-10.4,23.7-23.2,23.7H51.6c-12.8,0-23.2-10.8-23.2-23.7V62.2c0-12.8,10.4-22.9,23.2-22.9
			H160V23.9H51.6c-21.3,0-38.7,17-38.7,38.4v186.1c0,21.4,17.4,39.2,38.7,39.2h185.8c21.3,0,38.7-17.8,38.7-39.2V140.2h-15.5V248.4z
			 M278.1,21.5c-11.7-11.7-32.1-11.7-43.8,0l-103.9,104c-1,1-1.7,2.2-2,3.6L117.4,173c-0.7,2.6,0.1,5.4,2,7.4
			c1.5,1.5,3.4,2.3,5.5,2.3c0.6,0,1.3-0.1,1.9-0.2l43.8-11c1.4-0.3,2.6-1,3.6-2l103.9-104c5.8-5.9,9.1-13.6,9.1-21.9
			C287.1,35.1,283.9,27.4,278.1,21.5z M164.8,156.9l-29.2,7.3l7.3-29.2l85.9-86.1l21.9,21.9L164.8,156.9z M267.1,54.4l-5.5,5.5
			l-21.9-21.9l5.5-5.5c5.8-5.9,16.1-5.9,21.9,0c2.9,2.9,4.5,6.8,4.5,11C271.6,47.6,270,51.5,267.1,54.4z"/>
	</g>
</g>
</svg>
