<?xml version="1.0" encoding="utf-8"?>
<!-- Generator: Adobe Illustrator 23.1.1, SVG Export Plug-In . SVG Version: 6.00 Build 0)  -->
<svg version="1.1" id="Layer_1" xmlns="http://www.w3.org/2000/svg" xmlns:xlink="http://www.w3.org/1999/xlink" x="0px" y="0px"
	 viewBox="0 0 300 300" style="enable-background:new 0 0 300 300;" xml:space="preserve">
<style type="text/css">
	.st0{fill:#010101;}
	.st1{fill-rule:evenodd;clip-rule:evenodd;fill:#010101;}
</style>
<g>
	<path class="st0" d="M254.8,47.8H45.2c-19.2,0-34.9,15.6-34.9,34.9v134.7c0,19.2,15.6,34.9,34.9,34.9h209.5
		c19.2,0,34.9-15.6,34.9-34.9V82.7C289.6,63.4,274,47.8,254.8,47.8z M45.2,57.7h209.5c8.9,0,16.6,4.6,21.1,11.6L168.4,170.8
		c-10.1,9.6-26.6,9.6-36.7,0L24.2,69.3C28.6,62.3,36.4,57.7,45.2,57.7z M20.5,220.6c-0.1-1.1-0.2-2.2-0.2-3.3V82.7
		c0-1.1,0.1-2.2,0.2-3.3L95.3,150L20.5,220.6z M254.8,242.3H45.2c-8.9,0-16.6-4.6-21.1-11.6l78.3-73.9l22.4,21.1
		c6.9,6.6,16,9.8,25.1,9.8s18.2-3.3,25.1-9.8l22.4-21.1l78.3,73.9C271.4,237.7,263.6,242.3,254.8,242.3z M279.7,82.7v134.7
		c0,1.1-0.1,2.2-0.2,3.3L204.7,150l74.8-70.6C279.6,80.5,279.7,81.5,279.7,82.7z"/>
</g>
</svg>
