<?xml version="1.0" encoding="utf-8"?>
<!-- Generator: Adobe Illustrator 23.1.1, SVG Export Plug-In . SVG Version: 6.00 Build 0)  -->
<svg version="1.1" id="Layer_1" xmlns="http://www.w3.org/2000/svg" xmlns:xlink="http://www.w3.org/1999/xlink" x="0px" y="0px"
	 viewBox="0 0 300 300" style="enable-background:new 0 0 300 300;" xml:space="preserve">
<style type="text/css">
	.st0{fill:#010101;}
	.st1{fill-rule:evenodd;clip-rule:evenodd;fill:#010101;}
</style>
<g>
	<g>
		<path class="st1" d="M266.4,49.9c4.3,4.3,4.3,11.1,0,15.4c-4.3,4.3-11.1,4.3-15.4,0c-46.8-46.8-122.6-46.8-169.4,0
			c-46.8,46.8-46.8,122.6,0,169.4s122.6,46.8,169.4,0c4.3-4.3,11.1-4.3,15.4,0c4.3,4.3,4.3,11.1,0,15.4
			c-55.3,55.3-144.9,55.3-200.2,0S11,105.2,66.2,49.9S211.1-5.4,266.4,49.9z M107.5,140.6l64.3-63.5c10.3-10.2,25.7,5.1,15.4,15.4
			l-42.9,42.8c-2.1,2.1-1.4,3.8,1.6,3.8h118.4c6,0,10.9,4.9,10.9,10.9c0,6-4.9,10.9-10.9,10.9H145.9c-3,0-3.7,1.7-1.6,3.8l42.9,42.8
			c10.3,10.2-5.1,25.6-15.4,15.4l-64.2-63.1C102.2,154.5,102.2,145.9,107.5,140.6z"/>
	</g>
</g>
</svg>
