<?xml version="1.0" encoding="utf-8"?>
<!-- Generator: Adobe Illustrator 23.1.1, SVG Export Plug-In . SVG Version: 6.00 Build 0)  -->
<svg version="1.1" id="Layer_1" xmlns="http://www.w3.org/2000/svg" xmlns:xlink="http://www.w3.org/1999/xlink" x="0px" y="0px"
	 viewBox="0 0 300 300" style="enable-background:new 0 0 300 300;" xml:space="preserve">
<style type="text/css">
	.st0{fill:#010101;}
	.st1{fill-rule:evenodd;clip-rule:evenodd;fill:#010101;}
</style>
<g>
	<g>
		<path d="M216.7,13.2H83.3c-23.6,0-42.8,17.3-42.8,38.6v196.5c0,21.3,19.2,38.6,42.8,38.6h133.4c23.6,0,42.8-17.3,42.8-38.6V51.7
			C259.5,30.5,240.3,13.2,216.7,13.2z M243.8,248.3c0,13.5-12.2,24.5-27.2,24.5H83.3c-15,0-27.2-11-27.2-24.5V51.7
			c0-13.5,12.2-24.5,27.2-24.5h133.4c15,0,27.2,11,27.2,24.5L243.8,248.3z M193.4,123.5l-38.5,34.7v-91c0-2.4-2.2-4.4-4.9-4.4
			c-2.7,0-4.9,2-4.9,4.4v91l-38.5-34.7c-1.9-1.7-5-1.7-6.9,0c-1.9,1.7-1.9,4.5,0,6.2l46.6,42c0.1,0.1,0.2,0.2,0.3,0.3
			c0.9,0.9,2.2,1.3,3.4,1.3h0c1.2,0,2.5-0.4,3.4-1.3c0.1-0.1,0.2-0.2,0.3-0.3l46.6-42c1.9-1.7,1.9-4.5,0-6.2
			C198.4,121.8,195.3,121.8,193.4,123.5z M93.5,237.7H93c-1.4,0-2.6,0.5-3.6,1.3c-1,0.9-1.5,2-1.5,3.5c0,1.2,0.5,2.4,1.5,3.2
			c1,0.9,2.2,1.3,3.6,1.3h0.5c1.4,0,2.6-0.5,3.6-1.3c1-0.9,1.5-2,1.5-3.5c0-1.2-0.5-2.4-1.5-3.2C96.1,238.1,94.9,237.7,93.5,237.7z
			 M126.8,229l10.6-11.8c0.5-0.7,0.8-1.5,0.8-2.4c0-1-0.5-2-1.3-2.8c-1.8-1.6-5.2-1.4-6.6,0.4l-8.9,10.3l-8.8-10.1
			c-0.9-1.1-2.1-1.7-3.6-1.7c-1.7,0-2.7,0.6-3.3,1.2c-0.8,0.8-1.3,1.7-1.3,2.8c0,1,0.3,1.8,1,2.6l10.4,11.6l-10.6,11.7
			c-0.6,0.7-0.9,1.6-0.9,2.5c0,1,0.4,2,1.3,2.8c0.8,0.8,1.9,1.2,3.2,1.2c0.9,0,2.2-0.3,3.5-1.6l8.9-10.3l9,10.2
			c0.9,1.1,2.3,1.7,3.9,1.7c1.2,0,2.3-0.4,3.1-1.3c0.8-0.8,1.2-1.7,1.2-2.7c0-1-0.3-1.8-1-2.5L126.8,229z M194.3,228.6
			c-1.2-0.8-2.5-1.4-4-1.9c-1.3-0.4-2.7-0.8-4.2-1.1c-1.4-0.3-2.7-0.6-4-0.9c-1.1-0.2-2.2-0.6-3.1-0.9c-2-0.8-2-1.7-2-2.1
			c0-0.9,0.4-1.6,1.5-2.1c1.3-0.7,3.1-1,5.3-1c2.6,0,4.8,0.3,6.8,0.9c1,0.3,1.8,0.5,2.5,0.5c0.7,0,1.9-0.2,2.9-1.4
			c0.7-0.8,1-1.6,1-2.5c0-1.8-1.1-3.1-2.9-3.7c-3.3-1.1-6.9-1.6-10.8-1.6c-4.6,0-8.4,1.1-11.2,3.3c-2.7,2.1-4.1,4.8-4.1,8.1
			c0,3.1,1.5,5.7,4.3,7.7c1.2,0.8,2.5,1.4,4,1.9c1.4,0.4,2.7,0.8,4.1,1.2c1.4,0.3,2.7,0.7,4,0.9c1.2,0.3,2.2,0.6,3.1,0.9
			c0.9,0.4,2,0.9,2,1.6c0,1,0,3.2-6.6,3.2c-2,0-3.7-0.2-5.2-0.5c-1.5-0.4-2.6-0.7-3.2-0.9c-1-0.4-1.9-0.6-2.7-0.6
			c-0.8,0-2,0.2-3,1.3c-0.5,0.5-0.8,1.1-0.9,1.8c-0.1-0.2-0.2-0.3-0.4-0.5c-0.9-0.8-2-1.2-3.2-1.2h-14.3V215c0-1.1-0.5-2.1-1.3-2.9
			c-1.8-1.6-4.8-1.6-6.5,0c-0.8,0.8-1.3,1.8-1.3,2.9v27.1c0,1.3,0.6,2.5,1.6,3.5c1,0.9,2.4,1.4,3.8,1.4h18c1.2,0,2.3-0.4,3.2-1.2
			c0.7-0.6,1-1.3,1.2-2c0.5,0.6,1.1,1,1.8,1.3c4,1.6,8.4,2.4,12.9,2.4c4.4,0,8-1,10.8-2.9c2.9-2,4.4-4.7,4.4-8
			C198.6,233.1,197.1,230.4,194.3,228.6z"/>
	</g>
</g>
</svg>
