<?xml version="1.0" encoding="utf-8"?>
<!-- Generator: Adobe Illustrator 23.1.1, SVG Export Plug-In . SVG Version: 6.00 Build 0)  -->
<svg version="1.1" id="Layer_1" xmlns="http://www.w3.org/2000/svg" xmlns:xlink="http://www.w3.org/1999/xlink" x="0px" y="0px"
	 viewBox="0 0 300 300" style="enable-background:new 0 0 300 300;" xml:space="preserve">
<style type="text/css">
	.st0{fill:#010101;}
	.st1{fill-rule:evenodd;clip-rule:evenodd;fill:#010101;}
</style>
<g>
	<path class="st0" d="M125.7,179l-24.3-24.3c-4.5-4.5-11.7-4.5-16.2,0c-4.5,4.5-4.5,11.7,0,16.2l32.4,32.4c2.2,2.2,5.2,3.3,8.1,3.3
		c2.9,0,5.9-1.1,8.1-3.3l80.9-80.9c4.5-4.5,4.5-11.7,0-16.2c-4.5-4.5-11.7-4.5-16.2,0L125.7,179z M150,287.2
		c-75.8,0-137.2-61.4-137.2-137.2S74.2,12.8,150,12.8S287.2,74.2,287.2,150S225.8,287.2,150,287.2z"/>
</g>
</svg>
